  0
SECTION
  2
HEADER
  9
$ACADVER
  1
AC1012
  9
$DWGCODEPAGE
  3
ansi_1252
  9
$INSBASE
 10
0.0
 20
0.0
 30
0.0
  9
$EXTMIN
 10
1.000000000000000E+20
 20
1.000000000000000E+20
 30
1.000000000000000E+20
  9
$EXTMAX
 10
-1.000000000000000E+20
 20
-1.000000000000000E+20
 30
-1.000000000000000E+20
  9
$LIMMIN
 10
0.0
 20
0.0
  9
$LIMMAX
 10
12.0
 20
9.0
  9
$ORTHOMODE
 70
     0
  9
$REGENMODE
 70
     1
  9
$FILLMODE
 70
     1
  9
$QTEXTMODE
 70
     0
  9
$MIRRTEXT
 70
     1
  9
$DRAGMODE
 70
     2
  9
$LTSCALE
 40
1.0
  9
$OSMODE
 70
    37
  9
$ATTMODE
 70
     1
  9
$TEXTSIZE
 40
0.2
  9
$TRACEWID
 40
0.05
  9
$TEXTSTYLE
  7
STANDARD
  9
$CLAYER
  8
0
  9
$CELTYPE
  6
BYLAYER
  9
$CECOLOR
 62
   256
  9
$CELTSCALE
 40
1.0
  9
$DELOBJ
 70
     1
  9
$DISPSILH
 70
     0
  9
$DIMSCALE
 40
1.0
  9
$DIMASZ
 40
0.18
  9
$DIMEXO
 40
0.0625
  9
$DIMDLI
 40
0.38
  9
$DIMRND
 40
0.0
  9
$DIMDLE
 40
0.0
  9
$DIMEXE
 40
0.18
  9
$DIMTP
 40
0.0
  9
$DIMTM
 40
0.0
  9
$DIMTXT
 40
0.18
  9
$DIMCEN
 40
0.09
  9
$DIMTSZ
 40
0.0
  9
$DIMTOL
 70
     0
  9
$DIMLIM
 70
     0
  9
$DIMTIH
 70
     1
  9
$DIMTOH
 70
     1
  9
$DIMSE1
 70
     0
  9
$DIMSE2
 70
     0
  9
$DIMTAD
 70
     0
  9
$DIMZIN
 70
     0
  9
$DIMBLK
  1

  9
$DIMASO
 70
     1
  9
$DIMSHO
 70
     1
  9
$DIMPOST
  1

  9
$DIMAPOST
  1

  9
$DIMALT
 70
     0
  9
$DIMALTD
 70
     2
  9
$DIMALTF
 40
25.4
  9
$DIMLFAC
 40
1.0
  9
$DIMTOFL
 70
     0
  9
$DIMTVP
 40
0.0
  9
$DIMTIX
 70
     0
  9
$DIMSOXD
 70
     0
  9
$DIMSAH
 70
     0
  9
$DIMBLK1
  1

  9
$DIMBLK2
  1

  9
$DIMSTYLE
  2
STANDARD
  9
$DIMCLRD
 70
     0
  9
$DIMCLRE
 70
     0
  9
$DIMCLRT
 70
     0
  9
$DIMTFAC
 40
1.0
  9
$DIMGAP
 40
0.09
  9
$DIMJUST
 70
     0
  9
$DIMSD1
 70
     0
  9
$DIMSD2
 70
     0
  9
$DIMTOLJ
 70
     1
  9
$DIMTZIN
 70
     0
  9
$DIMALTZ
 70
     0
  9
$DIMALTTZ
 70
     0
  9
$DIMFIT
 70
     3
  9
$DIMUPT
 70
     0
  9
$DIMUNIT
 70
     2
  9
$DIMDEC
 70
     4
  9
$DIMTDEC
 70
     4
  9
$DIMALTU
 70
     2
  9
$DIMALTTD
 70
     2
  9
$DIMTXSTY
  7
STANDARD
  9
$DIMAUNIT
 70
     0
  9
$LUNITS
 70
     2
  9
$LUPREC
 70
     4
  9
$SKETCHINC
 40
0.1
  9
$FILLETRAD
 40
0.5
  9
$AUNITS
 70
     0
  9
$AUPREC
 70
     0
  9
$MENU
  1
.
  9
$ELEVATION
 40
0.0
  9
$PELEVATION
 40
0.0
  9
$THICKNESS
 40
0.0
  9
$LIMCHECK
 70
     0
  9
$CHAMFERA
 40
0.5
  9
$CHAMFERB
 40
0.5
  9
$CHAMFERC
 40
1.0
  9
$CHAMFERD
 40
0.0
  9
$SKPOLY
 70
     0
  9
$TDCREATE
 40
2457804.800129988
  9
$TDUPDATE
 40
2457804.800130058
  9
$TDINDWG
 40
0.0000000116
  9
$TDUSRTIMER
 40
0.0000000116
  9
$USRTIMER
 70
     1
  9
$ANGBASE
 50
0.0
  9
$ANGDIR
 70
     0
  9
$PDMODE
 70
     0
  9
$PDSIZE
 40
0.0
  9
$PLINEWID
 40
0.0
  9
$COORDS
 70
     1
  9
$SPLFRAME
 70
     0
  9
$SPLINETYPE
 70
     6
  9
$SPLINESEGS
 70
     8
  9
$ATTDIA
 70
     0
  9
$ATTREQ
 70
     1
  9
$HANDLING
 70
     1
  9
$HANDSEED
  5
215
  9
$SURFTAB1
 70
     6
  9
$SURFTAB2
 70
     6
  9
$SURFTYPE
 70
     6
  9
$SURFU
 70
     6
  9
$SURFV
 70
     6
  9
$UCSNAME
  2

  9
$UCSORG
 10
0.0
 20
0.0
 30
0.0
  9
$UCSXDIR
 10
1.0
 20
0.0
 30
0.0
  9
$UCSYDIR
 10
0.0
 20
1.0
 30
0.0
  9
$PUCSNAME
  2

  9
$PUCSORG
 10
0.0
 20
0.0
 30
0.0
  9
$PUCSXDIR
 10
1.0
 20
0.0
 30
0.0
  9
$PUCSYDIR
 10
0.0
 20
1.0
 30
0.0
  9
$USERI1
 70
     0
  9
$USERI2
 70
     0
  9
$USERI3
 70
     0
  9
$USERI4
 70
     0
  9
$USERI5
 70
     0
  9
$USERR1
 40
0.0
  9
$USERR2
 40
0.0
  9
$USERR3
 40
0.0
  9
$USERR4
 40
0.0
  9
$USERR5
 40
0.0
  9
$WORLDVIEW
 70
     1
  9
$SHADEDGE
 70
     3
  9
$SHADEDIF
 70
    70
  9
$TILEMODE
 70
     1
  9
$MAXACTVP
 70
    64
  9
$PINSBASE
 10
0.0
 20
0.0
 30
0.0
  9
$PLIMCHECK
 70
     0
  9
$PEXTMIN
 10
1.000000000000000E+20
 20
1.000000000000000E+20
 30
1.000000000000000E+20
  9
$PEXTMAX
 10
-1.000000000000000E+20
 20
-1.000000000000000E+20
 30
-1.000000000000000E+20
  9
$PLIMMIN
 10
0.0
 20
0.0
  9
$PLIMMAX
 10
12.0
 20
9.0
  9
$UNITMODE
 70
     0
  9
$VISRETAIN
 70
     1
  9
$PLINEGEN
 70
     0
  9
$PSLTSCALE
 70
     1
  9
$TREEDEPTH
 70
  3020
  9
$PICKSTYLE
 70
     1
  9
$CMLSTYLE
  2
STANDARD
  9
$CMLJUST
 70
     0
  9
$CMLSCALE
 40
1.0
  9
$SAVEIMAGES
 70
     1
  0
ENDSEC
  0
SECTION
  2
CLASSES
  0
CLASS
  1
ACDBDICTIONARYWDFLT
  2
AcDbDictionaryWithDefault
  3
ObjectDBX Classes
 90
    32768
280
     0
281
     0
  0
CLASS
  1
VISUALSTYLE
  2
AcDbVisualStyle
  3
ObjectDBX Classes
 90
     4095
280
     0
281
     0
  0
CLASS
  1
MATERIAL
  2
AcDbMaterial
  3
ObjectDBX Classes
 90
     1153
280
     0
281
     0
  0
CLASS
  1
SUN
  2
AcDbSun
  3
SCENEOE
 90
     1024
280
     0
281
     0
  0
CLASS
  1
DICTIONARYVAR
  2
AcDbDictionaryVar
  3
ObjectDBX Classes
 90
        0
280
     0
281
     0
  0
CLASS
  1
XRECORD
  2
AcDbXrecord
  3
AutoCAD 2000
 90
    32768
280
     0
281
     0
  0
CLASS
  1
LWPOLYLINE
  2
AcDbPolyline
  3
AutoCAD 2000
 90
    32768
280
     0
281
     1
  0
CLASS
  1
HATCH
  2
AcDbHatch
  3
AutoCAD 2000
 90
    32768
280
     0
281
     1
  0
CLASS
  1
ACDBPLACEHOLDER
  2
AcDbPlaceHolder
  3
ObjectDBX Classes
 90
        0
280
     0
281
     0
  0
CLASS
  1
LAYOUT
  2
AcDbLayout
  3
ObjectDBX Classes
 90
        0
280
     0
281
     0
  0
ENDSEC
  0
SECTION
  2
TABLES
  0
TABLE
  2
VPORT
  5
8
330
0
100
AcDbSymbolTable
 70
     1
  0
VPORT
  5
29
330
8
100
AcDbSymbolTableRecord
100
AcDbViewportTableRecord
  2
*ACTIVE
 70
     0
 10
0.0
 20
0.0
 11
1.0
 21
1.0
 12
0.0
 22
0.0
 13
0.0
 23
0.0
 14
0.5
 24
0.5
 15
0.5
 25
0.5
 16
0.0
 26
0.0
 36
1.0
 17
125.0597221909573
 27
85.01944442318958
 37
0.0
 40
170.0388888463792
 41
1.470954356846473
 42
50.0
 43
0.0
 44
0.0
 50
0.0
 51
0.0
 71
     0
 72
   100
 73
     1
 74
     3
 75
     0
 76
     0
 77
     0
 78
     0
  0
ENDTAB
  0
TABLE
  2
LTYPE
  5
5
330
0
100
AcDbSymbolTable
 70
     1
  0
LTYPE
  5
14
330
5
100
AcDbSymbolTableRecord
100
AcDbLinetypeTableRecord
  2
BYBLOCK
 70
     0
  3

 72
    65
 73
     0
 40
0.0
  0
LTYPE
  5
15
330
5
100
AcDbSymbolTableRecord
100
AcDbLinetypeTableRecord
  2
BYLAYER
 70
     0
  3

 72
    65
 73
     0
 40
0.0
  0
LTYPE
  5
16
330
5
100
AcDbSymbolTableRecord
100
AcDbLinetypeTableRecord
  2
CONTINUOUS
 70
     0
  3
Solid line
 72
    65
 73
     0
 40
0.0
  0
ENDTAB
  0
TABLE
  2
LAYER
  5
2
330
0
100
AcDbSymbolTable
 70
     2
  0
LAYER
  5
10
330
2
100
AcDbSymbolTableRecord
100
AcDbLayerTableRecord
  2
0
 70
     0
 62
     7
  6
CONTINUOUS
  0
LAYER
  5
40
330
2
100
AcDbSymbolTableRecord
100
AcDbLayerTableRecord
  2
LAGER_1
 70
     0
 62
     7
  6
CONTINUOUS
  0
ENDTAB
  0
TABLE
  2
STYLE
  5
3
330
0
100
AcDbSymbolTable
 70
     1
  0
STYLE
  5
11
330
3
100
AcDbSymbolTableRecord
100
AcDbTextStyleTableRecord
  2
STANDARD
 70
     0
 40
0.0
 41
1.0
 50
0.0
 71
     0
 42
0.2
  3
txt
  4

  0
ENDTAB
  0
TABLE
  2
VIEW
  5
6
330
0
100
AcDbSymbolTable
 70
     0
  0
ENDTAB
  0
TABLE
  2
UCS
  5
7
330
0
100
AcDbSymbolTable
 70
     0
  0
ENDTAB
  0
TABLE
  2
APPID
  5
9
330
0
100
AcDbSymbolTable
 70
     1
  0
APPID
  5
12
330
9
100
AcDbSymbolTableRecord
100
AcDbRegAppTableRecord
  2
ACAD
 70
     0
  0
ENDTAB
  0
TABLE
  2
DIMSTYLE
  5
A
330
0
100
AcDbSymbolTable
 70
     1
  0
DIMSTYLE
105
27
330
A
100
AcDbSymbolTableRecord
100
AcDbDimStyleTableRecord
  2
STANDARD
 70
     0
  3

  4

  5

  6

  7

 40
1.0
 41
0.18
 42
0.0625
 43
0.38
 44
0.18
 45
0.0
 46
0.0
 47
0.0
 48
0.0
140
0.18
141
0.09
142
0.0
143
25.4
144
1.0
145
0.0
146
1.0
147
0.09
 71
     0
 72
     0
 73
     1
 74
     1
 75
     0
 76
     0
 77
     0
 78
     0
170
     0
171
     2
172
     0
173
     0
174
     0
175
     0
176
     0
177
     0
178
     0
270
     2
271
     4
272
     4
273
     2
274
     2
340
11
275
     0
280
     0
281
     0
282
     0
283
     1
284
     0
285
     0
286
     0
287
     3
288
     0
  0
ENDTAB
  0
TABLE
  2
BLOCK_RECORD
  5
1
330
0
100
AcDbSymbolTable
 70
     2
  0
BLOCK_RECORD
  5
1F
330
1
100
AcDbSymbolTableRecord
100
AcDbBlockTableRecord
  2
*MODEL_SPACE
  0
BLOCK_RECORD
  5
1B
330
1
100
AcDbSymbolTableRecord
100
AcDbBlockTableRecord
  2
*PAPER_SPACE
  0
BLOCK_RECORD
  5
41
330
1
100
AcDbSymbolTableRecord
100
AcDbBlockTableRecord
  2
BLOCK_2
  0
ENDTAB
  0
ENDSEC
  0
SECTION
  2
BLOCKS
  0
BLOCK
  5
20
330
1F
100
AcDbEntity
  8
0
100
AcDbBlockBegin
  2
*MODEL_SPACE
 70
     0
 10
0.0
 20
0.0
 30
0.0
  3
*MODEL_SPACE
  1

  0
ENDBLK
  5
21
330
1F
100
AcDbEntity
  8
0
100
AcDbBlockEnd
  0
BLOCK
  5
1C
330
1B
100
AcDbEntity
 67
     1
  8
0
100
AcDbBlockBegin
  2
*PAPER_SPACE
 70
     0
 10
0.0
 20
0.0
 30
0.0
  3
*PAPER_SPACE
  1

  0
ENDBLK
  5
1D
330
1B
100
AcDbEntity
 67
     1
  8
0
100
AcDbBlockEnd
  0
BLOCK
  5
43
330
41
100
AcDbEntity
  8
0
100
AcDbBlockBegin
  2
BLOCK_2
 70
     0
 10
0.0
 20
0.0
 30
0.0
  3
BLOCK_2
  1

  0
POLYLINE
  5
45
330
41
100
AcDbEntity
  8
LAGER_1
 62
     7
100
AcDb2dPolyline
 66
     1
 10
0.0
 20
0.0
 30
0.0
  0
VERTEX
  5
46
330
45
100
AcDbEntity
  8
LAGER_1
 62
     7
100
AcDbVertex
100
AcDb2dVertex
 10
110.8075021254828
 20
97.9804965304094
 30
0.0
  0
VERTEX
  5
47
330
45
100
AcDbEntity
  8
LAGER_1
 62
     7
100
AcDbVertex
100
AcDb2dVertex
 10
113.5379986797047
 20
90.48749997737814
 30
0.0
  0
VERTEX
  5
48
330
45
100
AcDbEntity
  8
LAGER_1
 62
     7
100
AcDbVertex
100
AcDb2dVertex
 10
82.54999997936251
 20
79.18450234870703
 30
0.0
  0
SEQEND
  5
49
330
45
100
AcDbEntity
  8
LAGER_1
 62
     7
  0
SPLINE
  5
4A
330
41
100
AcDbEntity
  8
LAGER_1
 62
     7
100
AcDbSpline
210
0.0
220
0.0
230
1.0
 70
     8
 71
     3
 72
    17
 73
    13
 74
     0
 42
0.0000000001
 43
0.0000000001
 12
1.0
 22
0.0
 32
0.0
 13
1.0
 23
0.0
 33
0.0
 40
0.0
 40
0.0
 40
0.0
 40
0.0
 40
1.0
 40
1.0
 40
1.0
 40
2.0
 40
2.0
 40
2.0
 40
3.0
 40
3.0
 40
3.0
 40
4.0
 40
4.0
 40
4.0
 40
4.0
 10
182.3400975089397
 20
59.49950127703593
 30
0.0
 10
183.1642289445518
 20
59.4994151496488
 30
0.0
 10
183.8323836820693
 20
60.16740839831535
 30
0.0
 10
183.8324913413032
 20
60.99152906800408
 30
0.0
 10
183.8326205323839
 20
61.81564973769279
 30
0.0
 10
183.1646595814875
 20
62.48384215594209
 30
0.0
 10
182.3405496777222
 20
62.48399826183126
 30
0.0
 10
181.5164182421101
 20
62.48415975068213
 30
0.0
 10
180.8481989090523
 20
61.81623109755593
 30
0.0
 10
180.8480051224312
 20
60.99211581082891
 30
0.0
 10
180.8477898039634
 20
60.16799514114019
 30
0.0
 10
181.5156861593194
 20
59.49974351031224
 30
0.0
 10
182.3398175949316
 20
59.49950127703593
 30
0.0
  0
SPLINE
  5
4B
330
41
100
AcDbEntity
  8
LAGER_1
 62
     7
100
AcDbSpline
210
0.0
220
0.0
230
1.0
 70
     8
 71
     3
 72
    17
 73
    13
 74
     0
 42
0.0000000001
 43
0.0000000001
 12
1.0
 22
0.0
 32
0.0
 13
1.0
 23
0.0
 33
0.0
 40
0.0
 40
0.0
 40
0.0
 40
0.0
 40
1.0
 40
1.0
 40
1.0
 40
2.0
 40
2.0
 40
2.0
 40
3.0
 40
3.0
 40
3.0
 40
4.0
 40
4.0
 40
4.0
 40
4.0
 10
111.1565979573725
 20
83.88350493135388
 30
0.0
 10
111.9807186270613
 20
83.88341880396676
 30
0.0
 10
112.6488733645787
 20
84.55141205263331
 30
0.0
 10
112.6490025556594
 20
85.37553272232203
 30
0.0
 10
112.6491209808167
 20
86.19965339201075
 30
0.0
 10
111.9811600299203
 20
86.86784581026004
 30
0.0
 10
111.1570393602316
 20
86.86800191614921
 30
0.0
 10
110.3329186905429
 20
86.86816340500009
 30
0.0
 10
109.6646993574851
 20
86.20023475187388
 30
0.0
 10
109.6644948049406
 20
85.37611946514686
 30
0.0
 10
109.6643010183196
 20
84.55199879545815
 30
0.0
 10
110.3321973736756
 20
83.8837471646302
 30
0.0
 10
111.1563180433644
 20
83.88350493135388
 30
0.0
  0
SPLINE
  5
4C
330
41
100
AcDbEntity
  8
LAGER_1
 62
     7
100
AcDbSpline
210
0.0
220
0.0
230
1.0
 70
     8
 71
     3
 72
    17
 73
    13
 74
     0
 42
0.0000000001
 43
0.0000000001
 12
1.0
 22
0.0
 32
0.0
 13
1.0
 23
0.0
 33
0.0
 40
0.0
 40
0.0
 40
0.0
 40
0.0
 40
1.0
 40
1.0
 40
1.0
 40
2.0
 40
2.0
 40
2.0
 40
3.0
 40
3.0
 40
3.0
 40
4.0
 40
4.0
 40
4.0
 40
4.0
 10
122.9676018301522
 20
128.0159909246204
 30
0.0
 10
123.7917224998409
 20
128.0159155631566
 30
0.0
 10
124.4598772373583
 20
128.6839088118232
 30
0.0
 10
124.460006428439
 20
129.5080294815119
 30
0.0
 10
124.4601248535963
 20
130.3321393852772
 30
0.0
 10
123.7921639027
 20
131.0003371864882
 30
0.0
 10
122.9680432330112
 20
131.0004986753391
 30
0.0
 10
122.1439225633225
 20
131.00066016419
 30
0.0
 10
121.4757032302648
 20
130.3327315110637
 30
0.0
 10
121.4754986777203
 20
129.508610841375
 30
0.0
 10
121.4753048910993
 20
128.6844901716863
 30
0.0
 10
122.1432012464553
 20
128.0162385408584
 30
0.0
 10
122.967321916144
 20
128.0159909246204
 30
0.0
  0
SPLINE
  5
4D
330
41
100
AcDbEntity
  8
LAGER_1
 62
     7
100
AcDbSpline
210
0.0
220
0.0
230
1.0
 70
     8
 71
     3
 72
    17
 73
    13
 74
     0
 42
0.0000000001
 43
0.0000000001
 12
1.0
 22
0.0
 32
0.0
 13
1.0
 23
0.0
 33
0.0
 40
0.0
 40
0.0
 40
0.0
 40
0.0
 40
1.0
 40
1.0
 40
1.0
 40
2.0
 40
2.0
 40
2.0
 40
3.0
 40
3.0
 40
3.0
 40
4.0
 40
4.0
 40
4.0
 40
4.0
 10
177.8315979407038
 20
8.001000105658985
 30
0.0
 10
178.6557186103925
 20
8.000917342622913
 30
0.0
 10
179.3238733479099
 20
8.668909918419253
 30
0.0
 10
179.3240025389906
 20
9.49302991523776
 30
0.0
 10
179.3241209641479
 20
10.31714722057542
 30
0.0
 10
178.6561600132515
 20
10.98533963882471
 30
0.0
 10
177.8320393435628
 20
10.98549978193516
 30
0.0
 10
177.0079186738741
 20
10.9856599250456
 30
0.0
 10
176.3396993408163
 20
10.3177312719194
 30
0.0
 10
176.3394947882719
 20
9.493614639451955
 30
0.0
 10
176.3393010016509
 20
8.669493969763236
 30
0.0
 10
177.0071973570069
 20
8.001240993194868
 30
0.0
 10
177.8313180266956
 20
8.001000105658985
 30
0.0
  0
SPLINE
  5
4E
330
41
100
AcDbEntity
  8
LAGER_1
 62
     7
100
AcDbSpline
210
0.0
220
0.0
230
1.0
 70
     8
 71
     3
 72
    17
 73
    13
 74
     0
 42
0.0000000001
 43
0.0000000001
 12
1.0
 22
0.0
 32
0.0
 13
1.0
 23
0.0
 33
0.0
 40
0.0
 40
0.0
 40
0.0
 40
0.0
 40
1.0
 40
1.0
 40
1.0
 40
2.0
 40
2.0
 40
2.0
 40
3.0
 40
3.0
 40
3.0
 40
4.0
 40
4.0
 40
4.0
 40
4.0
 10
162.9725996669663
 20
128.0159909246204
 30
0.0
 10
163.796720336655
 20
128.0159155631566
 30
0.0
 10
164.4648750741724
 20
128.6839088118232
 30
0.0
 10
164.4650042652531
 20
129.5080294815119
 30
0.0
 10
164.4651226904104
 20
130.3321393852772
 30
0.0
 10
163.7971617395141
 20
131.0003371864882
 30
0.0
 10
162.9730410698253
 20
131.0004986753391
 30
0.0
 10
162.1489204001366
 20
131.00066016419
 30
0.0
 10
161.4807010670788
 20
130.3327315110637
 30
0.0
 10
161.4804965145344
 20
129.508610841375
 30
0.0
 10
161.4803027279133
 20
128.6844901716863
 30
0.0
 10
162.1481990832694
 20
128.0162385408584
 30
0.0
 10
162.9723197529581
 20
128.0159909246204
 30
0.0
  0
SPLINE
  5
4F
330
41
100
AcDbEntity
  8
LAGER_1
 62
     7
100
AcDbSpline
210
0.0
220
0.0
230
1.0
 70
     8
 71
     3
 72
    17
 73
    13
 74
     0
 42
0.0000000001
 43
0.0000000001
 12
1.0
 22
0.0
 32
0.0
 13
1.0
 23
0.0
 33
0.0
 40
0.0
 40
0.0
 40
0.0
 40
0.0
 40
1.0
 40
1.0
 40
1.0
 40
2.0
 40
2.0
 40
2.0
 40
3.0
 40
3.0
 40
3.0
 40
4.0
 40
4.0
 40
4.0
 40
4.0
 10
87.6615958100616
 20
75.31099847394297
 30
0.0
 10
88.48571647975032
 20
75.31091234655585
 30
0.0
 10
89.15387660022944
 20
75.9789055952224
 30
0.0
 10
89.15399502538675
 20
76.80302626491111
 30
0.0
 10
89.15411883350575
 20
77.62714693459984
 30
0.0
 10
88.48615788260936
 20
78.29533935284913
 30
0.0
 10
87.66204259588234
 20
78.2954954587383
 30
0.0
 10
86.83792192619363
 20
78.29565694758918
 30
0.0
 10
86.16969721017416
 20
77.62772829446297
 30
0.0
 10
86.16949804059142
 20
76.80361300773595
 30
0.0
 10
86.16929348804697
 20
75.97949233804724
 30
0.0
 10
86.83718984340301
 20
75.31124070721928
 30
0.0
 10
87.66131051309173
 20
75.31099847394297
 30
0.0
  0
SPLINE
  5
50
330
41
100
AcDbEntity
  8
LAGER_1
 62
     7
100
AcDbSpline
210
0.0
220
0.0
230
1.0
 70
     8
 71
     3
 72
    17
 73
    13
 74
     0
 42
0.0000000001
 43
0.0000000001
 12
1.0
 22
0.0
 32
0.0
 13
1.0
 23
0.0
 33
0.0
 40
0.0
 40
0.0
 40
0.0
 40
0.0
 40
1.0
 40
1.0
 40
1.0
 40
2.0
 40
2.0
 40
2.0
 40
3.0
 40
3.0
 40
3.0
 40
4.0
 40
4.0
 40
4.0
 40
4.0
 10
112.6806005408131
 20
8.001000105658985
 30
0.0
 10
113.5047212105019
 20
8.000917342622913
 30
0.0
 10
114.1728759480193
 20
8.668909918419253
 30
0.0
 10
114.1730051391
 20
9.49302991523776
 30
0.0
 10
114.1731235642573
 20
10.31714722057542
 30
0.0
 10
113.5051626133609
 20
10.98533963882471
 30
0.0
 10
112.6810419436722
 20
10.98549978193516
 30
0.0
 10
111.8569212739835
 20
10.9856599250456
 30
0.0
 10
111.1887019409257
 20
10.3177312719194
 30
0.0
 10
111.1884973883813
 20
9.493614639451955
 30
0.0
 10
111.1883036017602
 20
8.669493969763236
 30
0.0
 10
111.8561999571162
 20
8.001240993194868
 30
0.0
 10
112.680320626805
 20
8.001000105658985
 30
0.0
  0
POLYLINE
  5
51
330
41
100
AcDbEntity
  8
LAGER_1
 62
     7
100
AcDb2dPolyline
 66
     1
 10
0.0
 20
0.0
 30
0.0
  0
VERTEX
  5
52
330
51
100
AcDbEntity
  8
LAGER_1
 62
     7
100
AcDbVertex
100
AcDb2dVertex
 10
82.54999997936251
 20
79.18450234870703
 30
0.0
  0
VERTEX
  5
53
330
51
100
AcDbEntity
  8
LAGER_1
 62
     7
100
AcDbVertex
100
AcDb2dVertex
 10
108.7120012647328
 20
7.30250026732246
 30
0.0
  0
SEQEND
  5
54
330
51
100
AcDbEntity
  8
LAGER_1
 62
     7
  0
POLYLINE
  5
55
330
41
100
AcDbEntity
  8
LAGER_1
 62
     7
100
AcDb2dPolyline
 66
     1
 10
0.0
 20
0.0
 30
0.0
  0
VERTEX
  5
56
330
55
100
AcDbEntity
  8
LAGER_1
 62
     7
100
AcDbVertex
100
AcDb2dVertex
 10
110.6169991110719
 20
6.032500133065918
 30
0.0
  0
VERTEX
  5
57
330
55
100
AcDbEntity
  8
LAGER_1
 62
     7
100
AcDbVertex
100
AcDb2dVertex
 10
183.8324913413032
 20
6.032500133065918
 30
0.0
  0
SEQEND
  5
58
330
55
100
AcDbEntity
  8
LAGER_1
 62
     7
  0
POLYLINE
  5
59
330
41
100
AcDbEntity
  8
LAGER_1
 62
     7
100
AcDb2dPolyline
 66
     1
 10
0.0
 20
0.0
 30
0.0
  0
VERTEX
  5
5A
330
59
100
AcDbEntity
  8
LAGER_1
 62
     7
100
AcDbVertex
100
AcDb2dVertex
 10
185.8009973697282
 20
8.001000105658985
 30
0.0
  0
VERTEX
  5
5B
330
59
100
AcDbEntity
  8
LAGER_1
 62
     7
100
AcDbVertex
100
AcDb2dVertex
 10
185.8009973697282
 20
89.97949911623125
 30
0.0
  0
SEQEND
  5
5C
330
59
100
AcDbEntity
  8
LAGER_1
 62
     7
  0
POLYLINE
  5
5D
330
41
100
AcDbEntity
  8
LAGER_1
 62
     7
100
AcDb2dPolyline
 66
     1
 10
0.0
 20
0.0
 30
0.0
  0
VERTEX
  5
5E
330
5D
100
AcDbEntity
  8
LAGER_1
 62
     7
100
AcDbVertex
100
AcDb2dVertex
 10
185.8009973697282
 20
97.9804965304094
 30
0.0
  0
VERTEX
  5
5F
330
5D
100
AcDbEntity
  8
LAGER_1
 62
     7
100
AcDbVertex
100
AcDb2dVertex
 10
185.8009973697282
 20
101.4094969601891
 30
0.0
  0
SEQEND
  5
60
330
5D
100
AcDbEntity
  8
LAGER_1
 62
     7
  0
POLYLINE
  5
61
330
41
100
AcDbEntity
  8
LAGER_1
 62
     7
100
AcDb2dPolyline
 66
     1
 10
0.0
 20
0.0
 30
0.0
  0
VERTEX
  5
62
330
61
100
AcDbEntity
  8
LAGER_1
 62
     7
100
AcDbVertex
100
AcDb2dVertex
 10
185.4835102889156
 20
102.4889960986453
 30
0.0
  0
VERTEX
  5
63
330
61
100
AcDbEntity
  8
LAGER_1
 62
     7
100
AcDbVertex
100
AcDb2dVertex
 10
165.417497805461
 20
132.1434952299578
 30
0.0
  0
SEQEND
  5
64
330
61
100
AcDbEntity
  8
LAGER_1
 62
     7
  0
POLYLINE
  5
65
330
41
100
AcDbEntity
  8
LAGER_1
 62
     7
100
AcDb2dPolyline
 66
     1
 10
0.0
 20
0.0
 30
0.0
  0
VERTEX
  5
66
330
65
100
AcDbEntity
  8
LAGER_1
 62
     7
100
AcDbVertex
100
AcDb2dVertex
 10
163.7665003896953
 20
133.0325021199266
 30
0.0
  0
VERTEX
  5
67
330
65
100
AcDbEntity
  8
LAGER_1
 62
     7
100
AcDbVertex
100
AcDb2dVertex
 10
122.0469969550297
 20
133.0325021199266
 30
0.0
  0
SEQEND
  5
68
330
65
100
AcDbEntity
  8
LAGER_1
 62
     7
  0
POLYLINE
  5
69
330
41
100
AcDbEntity
  8
LAGER_1
 62
     7
100
AcDb2dPolyline
 66
     1
 10
0.0
 20
0.0
 30
0.0
  0
VERTEX
  5
6A
330
69
100
AcDbEntity
  8
LAGER_1
 62
     7
100
AcDbVertex
100
AcDb2dVertex
 10
120.269004706939
 20
131.8894947993844
 30
0.0
  0
VERTEX
  5
6B
330
69
100
AcDbEntity
  8
LAGER_1
 62
     7
100
AcDbVertex
100
AcDb2dVertex
 10
111.0615025560562
 20
113.4110038473797
 30
0.0
  0
SEQEND
  5
6C
330
69
100
AcDbEntity
  8
LAGER_1
 62
     7
  0
POLYLINE
  5
6D
330
41
100
AcDbEntity
  8
LAGER_1
 62
     7
100
AcDb2dPolyline
 66
     1
 10
0.0
 20
0.0
 30
0.0
  0
VERTEX
  5
6E
330
6D
100
AcDbEntity
  8
LAGER_1
 62
     7
100
AcDbVertex
100
AcDb2dVertex
 10
110.8075021254828
 20
112.521996957411
 30
0.0
  0
VERTEX
  5
6F
330
6D
100
AcDbEntity
  8
LAGER_1
 62
     7
100
AcDbVertex
100
AcDb2dVertex
 10
110.8075021254828
 20
97.9804965304094
 30
0.0
  0
SEQEND
  5
70
330
6D
100
AcDbEntity
  8
LAGER_1
 62
     7
  0
POLYLINE
  5
71
330
41
100
AcDbEntity
  8
LAGER_1
 62
     7
100
AcDb2dPolyline
 66
     1
 10
0.0
 20
0.0
 30
0.0
  0
VERTEX
  5
72
330
71
100
AcDbEntity
  8
LAGER_1
 62
     7
100
AcDbVertex
100
AcDb2dVertex
 10
116.8400042771594
 20
104.012998682086
 30
0.0
  0
VERTEX
  5
73
330
71
100
AcDbEntity
  8
LAGER_1
 62
     7
100
AcDbVertex
100
AcDb2dVertex
 10
130.3019947997813
 20
104.012998682086
 30
0.0
  0
VERTEX
  5
74
330
71
100
AcDbEntity
  8
LAGER_1
 62
     7
100
AcDbVertex
100
AcDb2dVertex
 10
130.3019947997813
 20
90.48749997737814
 30
0.0
  0
VERTEX
  5
75
330
71
100
AcDbEntity
  8
LAGER_1
 62
     7
100
AcDbVertex
100
AcDb2dVertex
 10
116.8400042771594
 20
90.48749997737814
 30
0.0
  0
VERTEX
  5
76
330
71
100
AcDbEntity
  8
LAGER_1
 62
     7
100
AcDbVertex
100
AcDb2dVertex
 10
116.8400042771594
 20
104.012998682086
 30
0.0
  0
SEQEND
  5
77
330
71
100
AcDbEntity
  8
LAGER_1
 62
     7
  0
POLYLINE
  5
78
330
41
100
AcDbEntity
  8
LAGER_1
 62
     7
100
AcDb2dPolyline
 66
     1
 10
0.0
 20
0.0
 30
0.0
  0
VERTEX
  5
79
330
78
100
AcDbEntity
  8
LAGER_1
 62
     7
100
AcDbVertex
100
AcDb2dVertex
 10
117.7924978173672
 20
65.97650149073516
 30
0.0
  0
VERTEX
  5
7A
330
78
100
AcDbEntity
  8
LAGER_1
 62
     7
100
AcDbVertex
100
AcDb2dVertex
 10
131.317996522075
 20
65.97650149073516
 30
0.0
  0
VERTEX
  5
7B
330
78
100
AcDbEntity
  8
LAGER_1
 62
     7
100
AcDbVertex
100
AcDb2dVertex
 10
131.317996522075
 20
52.51450020218984
 30
0.0
  0
VERTEX
  5
7C
330
78
100
AcDbEntity
  8
LAGER_1
 62
     7
100
AcDbVertex
100
AcDb2dVertex
 10
117.7924978173672
 20
52.51450020218984
 30
0.0
  0
VERTEX
  5
7D
330
78
100
AcDbEntity
  8
LAGER_1
 62
     7
100
AcDbVertex
100
AcDb2dVertex
 10
117.7924978173672
 20
65.97650149073516
 30
0.0
  0
SEQEND
  5
7E
330
78
100
AcDbEntity
  8
LAGER_1
 62
     7
  0
POLYLINE
  5
7F
330
41
100
AcDbEntity
  8
LAGER_1
 62
     7
100
AcDb2dPolyline
 66
     1
 10
0.0
 20
0.0
 30
0.0
  0
VERTEX
  5
80
330
7F
100
AcDbEntity
  8
LAGER_1
 62
     7
100
AcDbVertex
100
AcDb2dVertex
 10
124.8410016913375
 20
85.02650148597266
 30
0.0
  0
VERTEX
  5
81
330
7F
100
AcDbEntity
  8
LAGER_1
 62
     7
100
AcDbVertex
100
AcDb2dVertex
 10
138.3030029798828
 20
85.02650148597266
 30
0.0
  0
VERTEX
  5
82
330
7F
100
AcDbEntity
  8
LAGER_1
 62
     7
100
AcDbVertex
100
AcDb2dVertex
 10
138.3030029798828
 20
71.50099739830314
 30
0.0
  0
VERTEX
  5
83
330
7F
100
AcDbEntity
  8
LAGER_1
 62
     7
100
AcDbVertex
100
AcDb2dVertex
 10
124.8410016913375
 20
71.50099739830314
 30
0.0
  0
VERTEX
  5
84
330
7F
100
AcDbEntity
  8
LAGER_1
 62
     7
100
AcDbVertex
100
AcDb2dVertex
 10
124.8410016913375
 20
85.02650148597266
 30
0.0
  0
SEQEND
  5
85
330
7F
100
AcDbEntity
  8
LAGER_1
 62
     7
  0
POLYLINE
  5
86
330
41
100
AcDbEntity
  8
LAGER_1
 62
     7
100
AcDb2dPolyline
 66
     1
 10
0.0
 20
0.0
 30
0.0
  0
VERTEX
  5
87
330
86
100
AcDbEntity
  8
LAGER_1
 62
     7
100
AcDbVertex
100
AcDb2dVertex
 10
106.8070034183937
 20
46.98999891166017
 30
0.0
  0
VERTEX
  5
88
330
86
100
AcDbEntity
  8
LAGER_1
 62
     7
100
AcDbVertex
100
AcDb2dVertex
 10
120.3325021231016
 20
46.98999891166017
 30
0.0
  0
VERTEX
  5
89
330
86
100
AcDbEntity
  8
LAGER_1
 62
     7
100
AcDbVertex
100
AcDb2dVertex
 10
120.3325021231016
 20
33.5280003145957
 30
0.0
  0
VERTEX
  5
8A
330
86
100
AcDbEntity
  8
LAGER_1
 62
     7
100
AcDbVertex
100
AcDb2dVertex
 10
106.8070034183937
 20
33.5280003145957
 30
0.0
  0
VERTEX
  5
8B
330
86
100
AcDbEntity
  8
LAGER_1
 62
     7
100
AcDbVertex
100
AcDb2dVertex
 10
106.8070034183937
 20
46.98999891166017
 30
0.0
  0
SEQEND
  5
8C
330
86
100
AcDbEntity
  8
LAGER_1
 62
     7
  0
POLYLINE
  5
8D
330
41
100
AcDbEntity
  8
LAGER_1
 62
     7
100
AcDb2dPolyline
 66
     1
 10
0.0
 20
0.0
 30
0.0
  0
VERTEX
  5
8E
330
8D
100
AcDbEntity
  8
LAGER_1
 62
     7
100
AcDbVertex
100
AcDb2dVertex
 10
140.3349956585469
 20
109.4740025564531
 30
0.0
  0
VERTEX
  5
8F
330
8D
100
AcDbEntity
  8
LAGER_1
 62
     7
100
AcDbVertex
100
AcDb2dVertex
 10
126.8094969538391
 20
109.4740025564531
 30
0.0
  0
VERTEX
  5
90
330
8D
100
AcDbEntity
  8
LAGER_1
 62
     7
100
AcDbVertex
100
AcDb2dVertex
 10
126.8094969538391
 20
122.9995012611609
 30
0.0
  0
VERTEX
  5
91
330
8D
100
AcDbEntity
  8
LAGER_1
 62
     7
100
AcDbVertex
100
AcDb2dVertex
 10
140.3349956585469
 20
122.9995012611609
 30
0.0
  0
VERTEX
  5
92
330
8D
100
AcDbEntity
  8
LAGER_1
 62
     7
100
AcDbVertex
100
AcDb2dVertex
 10
140.3349956585469
 20
109.4740025564531
 30
0.0
  0
SEQEND
  5
93
330
8D
100
AcDbEntity
  8
LAGER_1
 62
     7
  0
POLYLINE
  5
94
330
41
100
AcDbEntity
  8
LAGER_1
 62
     7
100
AcDb2dPolyline
 66
     1
 10
0.0
 20
0.0
 30
0.0
  0
VERTEX
  5
95
330
94
100
AcDbEntity
  8
LAGER_1
 62
     7
100
AcDbVertex
100
AcDb2dVertex
 10
130.3019947997813
 20
14.4780003193582
 30
0.0
  0
VERTEX
  5
96
330
94
100
AcDbEntity
  8
LAGER_1
 62
     7
100
AcDbVertex
100
AcDb2dVertex
 10
116.8400042771594
 20
14.4780003193582
 30
0.0
  0
VERTEX
  5
97
330
94
100
AcDbEntity
  8
LAGER_1
 62
     7
100
AcDbVertex
100
AcDb2dVertex
 10
116.8400042771594
 20
28.00349902406602
 30
0.0
  0
VERTEX
  5
98
330
94
100
AcDbEntity
  8
LAGER_1
 62
     7
100
AcDbVertex
100
AcDb2dVertex
 10
130.3019947997813
 20
28.00349902406602
 30
0.0
  0
VERTEX
  5
99
330
94
100
AcDbEntity
  8
LAGER_1
 62
     7
100
AcDbVertex
100
AcDb2dVertex
 10
130.3019947997813
 20
14.4780003193582
 30
0.0
  0
SEQEND
  5
9A
330
94
100
AcDbEntity
  8
LAGER_1
 62
     7
  0
SPLINE
  5
9B
330
41
100
AcDbEntity
  8
LAGER_1
 62
     7
100
AcDbSpline
210
0.0
220
0.0
230
1.0
 70
     8
 71
     3
 72
     8
 73
     4
 74
     0
 42
0.0000000001
 43
0.0000000001
 12
1.0
 22
0.0
 32
0.0
 13
1.0
 23
0.0
 33
0.0
 40
0.0
 40
0.0
 40
0.0
 40
0.0
 40
1.0
 40
1.0
 40
1.0
 40
1.0
 10
108.7055740084681
 20
7.348784990592749
 30
0.0
 10
108.993088758559
 20
6.558644939478367
 30
0.0
 10
109.7440442128797
 20
6.032664313397636
 30
0.0
 10
110.5848735956719
 20
6.032504170287189
 30
0.0
  0
SPLINE
  5
9C
330
41
100
AcDbEntity
  8
LAGER_1
 62
     7
100
AcDbSpline
210
0.0
220
0.0
230
1.0
 70
     8
 71
     3
 72
     8
 73
     4
 74
     0
 42
0.0000000001
 43
0.0000000001
 12
1.0
 22
0.0
 32
0.0
 13
1.0
 23
0.0
 33
0.0
 40
0.0
 40
0.0
 40
0.0
 40
0.0
 40
1.0
 40
1.0
 40
1.0
 40
1.0
 10
183.8005596125243
 20
6.032500133065918
 30
0.0
 10
184.9051864161761
 20
6.032389782351156
 30
0.0
 10
185.8007820512603
 20
6.927724343793175
 30
0.0
 10
185.8009973697282
 20
8.032359894757725
 30
0.0
  0
POLYLINE
  5
9D
330
41
100
AcDbEntity
  8
LAGER_1
 62
     7
100
AcDb2dPolyline
 66
     1
 10
0.0
 20
0.0
 30
0.0
  0
VERTEX
  5
9E
330
9D
100
AcDbEntity
  8
LAGER_1
 62
     7
100
AcDbVertex
100
AcDb2dVertex
 10
185.8009973697282
 20
89.97949911623125
 30
0.0
  0
VERTEX
  5
9F
330
9D
100
AcDbEntity
  8
LAGER_1
 62
     7
100
AcDbVertex
100
AcDb2dVertex
 10
179.8320034001375
 20
89.97949911623125
 30
0.0
  0
VERTEX
  5
A0
330
9D
100
AcDbEntity
  8
LAGER_1
 62
     7
100
AcDbVertex
100
AcDb2dVertex
 10
179.8320034001375
 20
97.9804965304094
 30
0.0
  0
VERTEX
  5
A1
330
9D
100
AcDbEntity
  8
LAGER_1
 62
     7
100
AcDbVertex
100
AcDb2dVertex
 10
185.8009973697282
 20
97.9804965304094
 30
0.0
  0
SEQEND
  5
A2
330
9D
100
AcDbEntity
  8
LAGER_1
 62
     7
  0
SPLINE
  5
A3
330
41
100
AcDbEntity
  8
LAGER_1
 62
     7
100
AcDbSpline
210
0.0
220
0.0
230
1.0
 70
     8
 71
     3
 72
     8
 73
     4
 74
     0
 42
0.0000000001
 43
0.0000000001
 12
1.0
 22
0.0
 32
0.0
 13
1.0
 23
0.0
 33
0.0
 40
0.0
 40
0.0
 40
0.0
 40
0.0
 40
1.0
 40
1.0
 40
1.0
 40
1.0
 10
185.8009973697282
 20
101.3773714447891
 30
0.0
 10
185.8010834971153
 20
101.7772932010097
 30
0.0
 10
185.6812803016157
 20
102.1680531564241
 30
0.0
 10
185.4570476492195
 20
102.4992129599438
 30
0.0
  0
SPLINE
  5
A4
330
41
100
AcDbEntity
  8
LAGER_1
 62
     7
100
AcDbSpline
210
0.0
220
0.0
230
1.0
 70
     8
 71
     3
 72
     8
 73
     4
 74
     0
 42
0.0000000001
 43
0.0000000001
 12
1.0
 22
0.0
 32
0.0
 13
1.0
 23
0.0
 33
0.0
 40
0.0
 40
0.0
 40
0.0
 40
0.0
 40
1.0
 40
1.0
 40
1.0
 40
1.0
 10
165.3908413791438
 20
132.1540243030346
 30
0.0
 10
165.0187387689667
 20
132.7033663100045
 30
0.0
 10
164.3984493268474
 20
133.0324375243862
 30
0.0
 10
163.7349454682351
 20
133.0325021199266
 30
0.0
  0
SPLINE
  5
A5
330
41
100
AcDbEntity
  8
LAGER_1
 62
     7
100
AcDbSpline
210
0.0
220
0.0
230
1.0
 70
     8
 71
     3
 72
     8
 73
     4
 74
     0
 42
0.0000000001
 43
0.0000000001
 12
1.0
 22
0.0
 32
0.0
 13
1.0
 23
0.0
 33
0.0
 40
0.0
 40
0.0
 40
0.0
 40
0.0
 40
1.0
 40
1.0
 40
1.0
 40
1.0
 10
122.0789502156554
 20
133.0325021199266
 30
0.0
 10
121.321373718449
 20
133.0325774813903
 30
0.0
 10
120.6287695689096
 20
132.6046643243521
 30
0.0
 10
120.2898475346248
 20
131.9271324675608
 30
0.0
  0
SPLINE
  5
A6
330
41
100
AcDbEntity
  8
LAGER_1
 62
     7
100
AcDbSpline
210
0.0
220
0.0
230
1.0
 70
     8
 71
     3
 72
     8
 73
     4
 74
     0
 42
0.0000000001
 43
0.0000000001
 12
1.0
 22
0.0
 32
0.0
 13
1.0
 23
0.0
 33
0.0
 40
0.0
 40
0.0
 40
0.0
 40
0.0
 40
1.0
 40
1.0
 40
1.0
 40
1.0
 10
111.018751074269
 20
113.4484584948584
 30
0.0
 10
110.8798814284432
 20
113.1707837987472
 30
0.0
 10
110.8075559550998
 20
112.8645901715723
 30
0.0
 10
110.8074913595594
 20
112.5541224728109
 30
0.0
  0
POLYLINE
  5
A7
330
41
100
AcDbEntity
  8
LAGER_1
 62
     7
100
AcDb2dPolyline
 66
     1
 10
0.0
 20
0.0
 30
0.0
  0
VERTEX
  5
A8
330
A7
100
AcDbEntity
  8
LAGER_1
 62
     7
100
AcDbVertex
100
AcDb2dVertex
 10
143.8275042704125
 20
71.50099739830314
 30
0.0
  0
VERTEX
  5
A9
330
A7
100
AcDbEntity
  8
LAGER_1
 62
     7
100
AcDbVertex
100
AcDb2dVertex
 10
143.8275042704125
 20
85.02650148597266
 30
0.0
  0
VERTEX
  5
AA
330
A7
100
AcDbEntity
  8
LAGER_1
 62
     7
100
AcDbVertex
100
AcDb2dVertex
 10
157.3530029751203
 20
85.02650148597266
 30
0.0
  0
VERTEX
  5
AB
330
A7
100
AcDbEntity
  8
LAGER_1
 62
     7
100
AcDbVertex
100
AcDb2dVertex
 10
157.3530029751203
 20
71.50099739830314
 30
0.0
  0
VERTEX
  5
AC
330
A7
100
AcDbEntity
  8
LAGER_1
 62
     7
100
AcDbVertex
100
AcDb2dVertex
 10
143.8275042704125
 20
71.50099739830314
 30
0.0
  0
SEQEND
  5
AD
330
A7
100
AcDbEntity
  8
LAGER_1
 62
     7
  0
POLYLINE
  5
AE
330
41
100
AcDbEntity
  8
LAGER_1
 62
     7
100
AcDb2dPolyline
 66
     1
 10
0.0
 20
0.0
 30
0.0
  0
VERTEX
  5
AF
330
AE
100
AcDbEntity
  8
LAGER_1
 62
     7
100
AcDbVertex
100
AcDb2dVertex
 10
150.30449910115
 20
52.51450020218984
 30
0.0
  0
VERTEX
  5
B0
330
AE
100
AcDbEntity
  8
LAGER_1
 62
     7
100
AcDbVertex
100
AcDb2dVertex
 10
136.8424978126047
 20
52.51450020218984
 30
0.0
  0
VERTEX
  5
B1
330
AE
100
AcDbEntity
  8
LAGER_1
 62
     7
100
AcDbVertex
100
AcDb2dVertex
 10
136.8424978126047
 20
65.97650149073516
 30
0.0
  0
VERTEX
  5
B2
330
AE
100
AcDbEntity
  8
LAGER_1
 62
     7
100
AcDbVertex
100
AcDb2dVertex
 10
150.30449910115
 20
65.97650149073516
 30
0.0
  0
VERTEX
  5
B3
330
AE
100
AcDbEntity
  8
LAGER_1
 62
     7
100
AcDbVertex
100
AcDb2dVertex
 10
150.30449910115
 20
52.51450020218984
 30
0.0
  0
SEQEND
  5
B4
330
AE
100
AcDbEntity
  8
LAGER_1
 62
     7
  0
POLYLINE
  5
B5
330
41
100
AcDbEntity
  8
LAGER_1
 62
     7
100
AcDb2dPolyline
 66
     1
 10
0.0
 20
0.0
 30
0.0
  0
VERTEX
  5
B6
330
B5
100
AcDbEntity
  8
LAGER_1
 62
     7
100
AcDbVertex
100
AcDb2dVertex
 10
135.826496090311
 20
90.48749997737814
 30
0.0
  0
VERTEX
  5
B7
330
B5
100
AcDbEntity
  8
LAGER_1
 62
     7
100
AcDbVertex
100
AcDb2dVertex
 10
135.826496090311
 20
104.012998682086
 30
0.0
  0
VERTEX
  5
B8
330
B5
100
AcDbEntity
  8
LAGER_1
 62
     7
100
AcDbVertex
100
AcDb2dVertex
 10
149.3519947950188
 20
104.012998682086
 30
0.0
  0
VERTEX
  5
B9
330
B5
100
AcDbEntity
  8
LAGER_1
 62
     7
100
AcDbVertex
100
AcDb2dVertex
 10
149.3519947950188
 20
90.48749997737814
 30
0.0
  0
VERTEX
  5
BA
330
B5
100
AcDbEntity
  8
LAGER_1
 62
     7
100
AcDbVertex
100
AcDb2dVertex
 10
135.826496090311
 20
90.48749997737814
 30
0.0
  0
SEQEND
  5
BB
330
B5
100
AcDbEntity
  8
LAGER_1
 62
     7
  0
POLYLINE
  5
BC
330
41
100
AcDbEntity
  8
LAGER_1
 62
     7
100
AcDb2dPolyline
 66
     1
 10
0.0
 20
0.0
 30
0.0
  0
VERTEX
  5
BD
330
BC
100
AcDbEntity
  8
LAGER_1
 62
     7
100
AcDbVertex
100
AcDb2dVertex
 10
139.3190047021766
 20
33.5280003145957
 30
0.0
  0
VERTEX
  5
BE
330
BC
100
AcDbEntity
  8
LAGER_1
 62
     7
100
AcDbVertex
100
AcDb2dVertex
 10
125.7934952315453
 20
33.5280003145957
 30
0.0
  0
VERTEX
  5
BF
330
BC
100
AcDbEntity
  8
LAGER_1
 62
     7
100
AcDbVertex
100
AcDb2dVertex
 10
125.7934952315453
 20
46.98999891166017
 30
0.0
  0
VERTEX
  5
C0
330
BC
100
AcDbEntity
  8
LAGER_1
 62
     7
100
AcDbVertex
100
AcDb2dVertex
 10
139.3190047021766
 20
46.98999891166017
 30
0.0
  0
VERTEX
  5
C1
330
BC
100
AcDbEntity
  8
LAGER_1
 62
     7
100
AcDbVertex
100
AcDb2dVertex
 10
139.3190047021766
 20
33.5280003145957
 30
0.0
  0
SEQEND
  5
C2
330
BC
100
AcDbEntity
  8
LAGER_1
 62
     7
  0
POLYLINE
  5
C3
330
41
100
AcDbEntity
  8
LAGER_1
 62
     7
100
AcDb2dPolyline
 66
     1
 10
0.0
 20
0.0
 30
0.0
  0
VERTEX
  5
C4
330
C3
100
AcDbEntity
  8
LAGER_1
 62
     7
100
AcDbVertex
100
AcDb2dVertex
 10
162.8139960835641
 20
71.50099739830314
 30
0.0
  0
VERTEX
  5
C5
330
C3
100
AcDbEntity
  8
LAGER_1
 62
     7
100
AcDbVertex
100
AcDb2dVertex
 10
162.8139960835641
 20
85.02650148597266
 30
0.0
  0
VERTEX
  5
C6
330
C3
100
AcDbEntity
  8
LAGER_1
 62
     7
100
AcDbVertex
100
AcDb2dVertex
 10
176.3394947882719
 20
85.02650148597266
 30
0.0
  0
VERTEX
  5
C7
330
C3
100
AcDbEntity
  8
LAGER_1
 62
     7
100
AcDbVertex
100
AcDb2dVertex
 10
176.3394947882719
 20
71.50099739830314
 30
0.0
  0
VERTEX
  5
C8
330
C3
100
AcDbEntity
  8
LAGER_1
 62
     7
100
AcDbVertex
100
AcDb2dVertex
 10
162.8139960835641
 20
71.50099739830314
 30
0.0
  0
SEQEND
  5
C9
330
C3
100
AcDbEntity
  8
LAGER_1
 62
     7
  0
POLYLINE
  5
CA
330
41
100
AcDbEntity
  8
LAGER_1
 62
     7
100
AcDb2dPolyline
 66
     1
 10
0.0
 20
0.0
 30
0.0
  0
VERTEX
  5
CB
330
CA
100
AcDbEntity
  8
LAGER_1
 62
     7
100
AcDbVertex
100
AcDb2dVertex
 10
169.291001680225
 20
52.51450020218984
 30
0.0
  0
VERTEX
  5
CC
330
CA
100
AcDbEntity
  8
LAGER_1
 62
     7
100
AcDbVertex
100
AcDb2dVertex
 10
155.8290003916797
 20
52.51450020218984
 30
0.0
  0
VERTEX
  5
CD
330
CA
100
AcDbEntity
  8
LAGER_1
 62
     7
100
AcDbVertex
100
AcDb2dVertex
 10
155.8290003916797
 20
65.97650149073516
 30
0.0
  0
VERTEX
  5
CE
330
CA
100
AcDbEntity
  8
LAGER_1
 62
     7
100
AcDbVertex
100
AcDb2dVertex
 10
169.291001680225
 20
65.97650149073516
 30
0.0
  0
VERTEX
  5
CF
330
CA
100
AcDbEntity
  8
LAGER_1
 62
     7
100
AcDbVertex
100
AcDb2dVertex
 10
169.291001680225
 20
52.51450020218984
 30
0.0
  0
SEQEND
  5
D0
330
CA
100
AcDbEntity
  8
LAGER_1
 62
     7
  0
POLYLINE
  5
D1
330
41
100
AcDbEntity
  8
LAGER_1
 62
     7
100
AcDb2dPolyline
 66
     1
 10
0.0
 20
0.0
 30
0.0
  0
VERTEX
  5
D2
330
D1
100
AcDbEntity
  8
LAGER_1
 62
     7
100
AcDbVertex
100
AcDb2dVertex
 10
154.812998669386
 20
90.48749997737814
 30
0.0
  0
VERTEX
  5
D3
330
D1
100
AcDbEntity
  8
LAGER_1
 62
     7
100
AcDbVertex
100
AcDb2dVertex
 10
154.812998669386
 20
104.012998682086
 30
0.0
  0
VERTEX
  5
D4
330
D1
100
AcDbEntity
  8
LAGER_1
 62
     7
100
AcDbVertex
100
AcDb2dVertex
 10
168.3384973740938
 20
104.012998682086
 30
0.0
  0
VERTEX
  5
D5
330
D1
100
AcDbEntity
  8
LAGER_1
 62
     7
100
AcDbVertex
100
AcDb2dVertex
 10
168.3384973740938
 20
90.48749997737814
 30
0.0
  0
VERTEX
  5
D6
330
D1
100
AcDbEntity
  8
LAGER_1
 62
     7
100
AcDbVertex
100
AcDb2dVertex
 10
154.812998669386
 20
90.48749997737814
 30
0.0
  0
SEQEND
  5
D7
330
D1
100
AcDbEntity
  8
LAGER_1
 62
     7
  0
POLYLINE
  5
D8
330
41
100
AcDbEntity
  8
LAGER_1
 62
     7
100
AcDb2dPolyline
 66
     1
 10
0.0
 20
0.0
 30
0.0
  0
VERTEX
  5
D9
330
D8
100
AcDbEntity
  8
LAGER_1
 62
     7
100
AcDbVertex
100
AcDb2dVertex
 10
158.3054965153281
 20
33.5280003145957
 30
0.0
  0
VERTEX
  5
DA
330
D8
100
AcDbEntity
  8
LAGER_1
 62
     7
100
AcDbVertex
100
AcDb2dVertex
 10
144.8434952267828
 20
33.5280003145957
 30
0.0
  0
VERTEX
  5
DB
330
D8
100
AcDbEntity
  8
LAGER_1
 62
     7
100
AcDbVertex
100
AcDb2dVertex
 10
144.8434952267828
 20
46.98999891166017
 30
0.0
  0
VERTEX
  5
DC
330
D8
100
AcDbEntity
  8
LAGER_1
 62
     7
100
AcDbVertex
100
AcDb2dVertex
 10
158.3054965153281
 20
46.98999891166017
 30
0.0
  0
VERTEX
  5
DD
330
D8
100
AcDbEntity
  8
LAGER_1
 62
     7
100
AcDbVertex
100
AcDb2dVertex
 10
158.3054965153281
 20
33.5280003145957
 30
0.0
  0
SEQEND
  5
DE
330
D8
100
AcDbEntity
  8
LAGER_1
 62
     7
  0
POLYLINE
  5
DF
330
41
100
AcDbEntity
  8
LAGER_1
 62
     7
100
AcDb2dPolyline
 66
     1
 10
0.0
 20
0.0
 30
0.0
  0
VERTEX
  5
E0
330
DF
100
AcDbEntity
  8
LAGER_1
 62
     7
100
AcDbVertex
100
AcDb2dVertex
 10
135.826496090311
 20
28.00349902406602
 30
0.0
  0
VERTEX
  5
E1
330
DF
100
AcDbEntity
  8
LAGER_1
 62
     7
100
AcDbVertex
100
AcDb2dVertex
 10
149.3519947950188
 20
28.00349902406602
 30
0.0
  0
VERTEX
  5
E2
330
DF
100
AcDbEntity
  8
LAGER_1
 62
     7
100
AcDbVertex
100
AcDb2dVertex
 10
149.3519947950188
 20
14.4780003193582
 30
0.0
  0
VERTEX
  5
E3
330
DF
100
AcDbEntity
  8
LAGER_1
 62
     7
100
AcDbVertex
100
AcDb2dVertex
 10
135.826496090311
 20
14.4780003193582
 30
0.0
  0
VERTEX
  5
E4
330
DF
100
AcDbEntity
  8
LAGER_1
 62
     7
100
AcDbVertex
100
AcDb2dVertex
 10
135.826496090311
 20
28.00349902406602
 30
0.0
  0
SEQEND
  5
E5
330
DF
100
AcDbEntity
  8
LAGER_1
 62
     7
  0
POLYLINE
  5
E6
330
41
100
AcDbEntity
  8
LAGER_1
 62
     7
100
AcDb2dPolyline
 66
     1
 10
0.0
 20
0.0
 30
0.0
  0
VERTEX
  5
E7
330
E6
100
AcDbEntity
  8
LAGER_1
 62
     7
100
AcDbVertex
100
AcDb2dVertex
 10
145.7959995329141
 20
122.9995012611609
 30
0.0
  0
VERTEX
  5
E8
330
E6
100
AcDbEntity
  8
LAGER_1
 62
     7
100
AcDbVertex
100
AcDb2dVertex
 10
159.3214982376219
 20
122.9995012611609
 30
0.0
  0
VERTEX
  5
E9
330
E6
100
AcDbEntity
  8
LAGER_1
 62
     7
100
AcDbVertex
100
AcDb2dVertex
 10
159.3214982376219
 20
109.4740025564531
 30
0.0
  0
VERTEX
  5
EA
330
E6
100
AcDbEntity
  8
LAGER_1
 62
     7
100
AcDbVertex
100
AcDb2dVertex
 10
145.7959995329141
 20
109.4740025564531
 30
0.0
  0
VERTEX
  5
EB
330
E6
100
AcDbEntity
  8
LAGER_1
 62
     7
100
AcDbVertex
100
AcDb2dVertex
 10
145.7959995329141
 20
122.9995012611609
 30
0.0
  0
SEQEND
  5
EC
330
E6
100
AcDbEntity
  8
LAGER_1
 62
     7
  0
POLYLINE
  5
ED
330
41
100
AcDbEntity
  8
LAGER_1
 62
     7
100
AcDb2dPolyline
 66
     1
 10
0.0
 20
0.0
 30
0.0
  0
VERTEX
  5
EE
330
ED
100
AcDbEntity
  8
LAGER_1
 62
     7
100
AcDbVertex
100
AcDb2dVertex
 10
82.54999997936251
 20
87.62999782490783
 30
0.0
  0
VERTEX
  5
EF
330
ED
100
AcDbEntity
  8
LAGER_1
 62
     7
100
AcDbVertex
100
AcDb2dVertex
 10
77.40649933469298
 20
101.726994806925
 30
0.0
  0
SEQEND
  5
F0
330
ED
100
AcDbEntity
  8
LAGER_1
 62
     7
  0
POLYLINE
  5
F1
330
41
100
AcDbEntity
  8
LAGER_1
 62
     7
100
AcDb2dPolyline
 66
     1
 10
0.0
 20
0.0
 30
0.0
  0
VERTEX
  5
F2
330
F1
100
AcDbEntity
  8
LAGER_1
 62
     7
100
AcDbVertex
100
AcDb2dVertex
 10
77.40649933469298
 20
101.726994806925
 30
0.0
  0
VERTEX
  5
F3
330
F1
100
AcDbEntity
  8
LAGER_1
 62
     7
100
AcDbVertex
100
AcDb2dVertex
 10
95.24999997618751
 20
108.2040004035859
 30
0.0
  0
VERTEX
  5
F4
330
F1
100
AcDbEntity
  8
LAGER_1
 62
     7
100
AcDbVertex
100
AcDb2dVertex
 10
100.3934952378953
 20
94.10700342156873
 30
0.0
  0
SEQEND
  5
F5
330
F1
100
AcDbEntity
  8
LAGER_1
 62
     7
  0
POLYLINE
  5
F6
330
41
100
AcDbEntity
  8
LAGER_1
 62
     7
100
AcDb2dPolyline
 66
     1
 10
0.0
 20
0.0
 30
0.0
  0
VERTEX
  5
F7
330
F6
100
AcDbEntity
  8
LAGER_1
 62
     7
100
AcDbVertex
100
AcDb2dVertex
 10
72.7075021350078
 20
71.69150041271406
 30
0.0
  0
VERTEX
  5
F8
330
F6
100
AcDbEntity
  8
LAGER_1
 62
     7
100
AcDbVertex
100
AcDb2dVertex
 10
59.18199804733829
 20
71.69150041271406
 30
0.0
  0
VERTEX
  5
F9
330
F6
100
AcDbEntity
  8
LAGER_1
 62
     7
100
AcDbVertex
100
AcDb2dVertex
 10
59.18199804733829
 20
85.21699911742188
 30
0.0
  0
VERTEX
  5
FA
330
F6
100
AcDbEntity
  8
LAGER_1
 62
     7
100
AcDbVertex
100
AcDb2dVertex
 10
72.7075021350078
 20
85.21699911742188
 30
0.0
  0
VERTEX
  5
FB
330
F6
100
AcDbEntity
  8
LAGER_1
 62
     7
100
AcDbVertex
100
AcDb2dVertex
 10
72.7075021350078
 20
71.69150041271406
 30
0.0
  0
SEQEND
  5
FC
330
F6
100
AcDbEntity
  8
LAGER_1
 62
     7
  0
POLYLINE
  5
FD
330
41
100
AcDbEntity
  8
LAGER_1
 62
     7
100
AcDb2dPolyline
 66
     1
 10
0.0
 20
0.0
 30
0.0
  0
VERTEX
  5
FE
330
FD
100
AcDbEntity
  8
LAGER_1
 62
     7
100
AcDbVertex
100
AcDb2dVertex
 10
71.69150041271406
 20
109.7280029870266
 30
0.0
  0
VERTEX
  5
FF
330
FD
100
AcDbEntity
  8
LAGER_1
 62
     7
100
AcDbVertex
100
AcDb2dVertex
 10
58.22949912416875
 20
109.7280029870266
 30
0.0
  0
VERTEX
  5
100
330
FD
100
AcDbEntity
  8
LAGER_1
 62
     7
100
AcDbVertex
100
AcDb2dVertex
 10
58.22949912416875
 20
123.1900042755719
 30
0.0
  0
VERTEX
  5
101
330
FD
100
AcDbEntity
  8
LAGER_1
 62
     7
100
AcDbVertex
100
AcDb2dVertex
 10
71.69150041271406
 20
123.1900042755719
 30
0.0
  0
VERTEX
  5
102
330
FD
100
AcDbEntity
  8
LAGER_1
 62
     7
100
AcDbVertex
100
AcDb2dVertex
 10
71.69150041271406
 20
109.7280029870266
 30
0.0
  0
SEQEND
  5
103
330
FD
100
AcDbEntity
  8
LAGER_1
 62
     7
  0
POLYLINE
  5
104
330
41
100
AcDbEntity
  8
LAGER_1
 62
     7
100
AcDb2dPolyline
 66
     1
 10
0.0
 20
0.0
 30
0.0
  0
VERTEX
  5
105
330
104
100
AcDbEntity
  8
LAGER_1
 62
     7
100
AcDbVertex
100
AcDb2dVertex
 10
64.70649933786798
 20
90.74150040795156
 30
0.0
  0
VERTEX
  5
106
330
104
100
AcDbEntity
  8
LAGER_1
 62
     7
100
AcDbVertex
100
AcDb2dVertex
 10
51.18100063316015
 20
90.74150040795156
 30
0.0
  0
VERTEX
  5
107
330
104
100
AcDbEntity
  8
LAGER_1
 62
     7
100
AcDbVertex
100
AcDb2dVertex
 10
51.18100063316015
 20
104.2035016964969
 30
0.0
  0
VERTEX
  5
108
330
104
100
AcDbEntity
  8
LAGER_1
 62
     7
100
AcDbVertex
100
AcDb2dVertex
 10
64.70649933786798
 20
104.2035016964969
 30
0.0
  0
VERTEX
  5
109
330
104
100
AcDbEntity
  8
LAGER_1
 62
     7
100
AcDbVertex
100
AcDb2dVertex
 10
64.70649933786798
 20
90.74150040795156
 30
0.0
  0
SEQEND
  5
10A
330
104
100
AcDbEntity
  8
LAGER_1
 62
     7
  0
POLYLINE
  5
10B
330
41
100
AcDbEntity
  8
LAGER_1
 62
     7
100
AcDb2dPolyline
 66
     1
 10
0.0
 20
0.0
 30
0.0
  0
VERTEX
  5
10C
330
10B
100
AcDbEntity
  8
LAGER_1
 62
     7
100
AcDbVertex
100
AcDb2dVertex
 10
82.67700019464922
 20
128.7144948001782
 30
0.0
  0
VERTEX
  5
10D
330
10B
100
AcDbEntity
  8
LAGER_1
 62
     7
100
AcDbVertex
100
AcDb2dVertex
 10
69.21499890610392
 20
128.7144948001782
 30
0.0
  0
VERTEX
  5
10E
330
10B
100
AcDbEntity
  8
LAGER_1
 62
     7
100
AcDbVertex
100
AcDb2dVertex
 10
69.21499890610392
 20
142.2400042708094
 30
0.0
  0
VERTEX
  5
10F
330
10B
100
AcDbEntity
  8
LAGER_1
 62
     7
100
AcDbVertex
100
AcDb2dVertex
 10
82.67700019464922
 20
142.2400042708094
 30
0.0
  0
VERTEX
  5
110
330
10B
100
AcDbEntity
  8
LAGER_1
 62
     7
100
AcDbVertex
100
AcDb2dVertex
 10
82.67700019464922
 20
128.7144948001782
 30
0.0
  0
SEQEND
  5
111
330
10B
100
AcDbEntity
  8
LAGER_1
 62
     7
  0
POLYLINE
  5
112
330
41
100
AcDbEntity
  8
LAGER_1
 62
     7
100
AcDb2dPolyline
 66
     1
 10
0.0
 20
0.0
 30
0.0
  0
VERTEX
  5
113
330
112
100
AcDbEntity
  8
LAGER_1
 62
     7
100
AcDbVertex
100
AcDb2dVertex
 10
49.21249998769688
 20
66.23050192130859
 30
0.0
  0
VERTEX
  5
114
330
112
100
AcDbEntity
  8
LAGER_1
 62
     7
100
AcDbVertex
100
AcDb2dVertex
 10
62.67450127624218
 20
66.23050192130859
 30
0.0
  0
VERTEX
  5
115
330
112
100
AcDbEntity
  8
LAGER_1
 62
     7
100
AcDbVertex
100
AcDb2dVertex
 10
62.67450127624218
 20
52.70499783363908
 30
0.0
  0
VERTEX
  5
116
330
112
100
AcDbEntity
  8
LAGER_1
 62
     7
100
AcDbVertex
100
AcDb2dVertex
 10
49.21249998769688
 20
52.70499783363908
 30
0.0
  0
VERTEX
  5
117
330
112
100
AcDbEntity
  8
LAGER_1
 62
     7
100
AcDbVertex
100
AcDb2dVertex
 10
49.21249998769688
 20
66.23050192130859
 30
0.0
  0
SEQEND
  5
118
330
112
100
AcDbEntity
  8
LAGER_1
 62
     7
  0
POLYLINE
  5
119
330
41
100
AcDbEntity
  8
LAGER_1
 62
     7
100
AcDb2dPolyline
 66
     1
 10
0.0
 20
0.0
 30
0.0
  0
VERTEX
  5
11A
330
119
100
AcDbEntity
  8
LAGER_1
 62
     7
100
AcDbVertex
100
AcDb2dVertex
 10
59.18199804733829
 20
161.226496083961
 30
0.0
  0
VERTEX
  5
11B
330
119
100
AcDbEntity
  8
LAGER_1
 62
     7
100
AcDbVertex
100
AcDb2dVertex
 10
72.7075021350078
 20
161.226496083961
 30
0.0
  0
VERTEX
  5
11C
330
119
100
AcDbEntity
  8
LAGER_1
 62
     7
100
AcDbVertex
100
AcDb2dVertex
 10
72.7075021350078
 20
147.7009973792532
 30
0.0
  0
VERTEX
  5
11D
330
119
100
AcDbEntity
  8
LAGER_1
 62
     7
100
AcDbVertex
100
AcDb2dVertex
 10
59.18199804733829
 20
147.7009973792532
 30
0.0
  0
VERTEX
  5
11E
330
119
100
AcDbEntity
  8
LAGER_1
 62
     7
100
AcDbVertex
100
AcDb2dVertex
 10
59.18199804733829
 20
161.226496083961
 30
0.0
  0
SEQEND
  5
11F
330
119
100
AcDbEntity
  8
LAGER_1
 62
     7
  0
POLYLINE
  5
120
330
41
100
AcDbEntity
  8
LAGER_1
 62
     7
100
AcDb2dPolyline
 66
     1
 10
0.0
 20
0.0
 30
0.0
  0
VERTEX
  5
121
330
120
100
AcDbEntity
  8
LAGER_1
 62
     7
100
AcDbVertex
100
AcDb2dVertex
 10
106.9974956668813
 20
96.52000212905469
 30
0.0
  0
VERTEX
  5
122
330
120
100
AcDbEntity
  8
LAGER_1
 62
     7
100
AcDbVertex
100
AcDb2dVertex
 10
80.83549976447266
 20
168.4019947902563
 30
0.0
  0
SEQEND
  5
123
330
120
100
AcDbEntity
  8
LAGER_1
 62
     7
  0
POLYLINE
  5
124
330
41
100
AcDbEntity
  8
LAGER_1
 62
     7
100
AcDb2dPolyline
 66
     1
 10
0.0
 20
0.0
 30
0.0
  0
VERTEX
  5
125
330
124
100
AcDbEntity
  8
LAGER_1
 62
     7
100
AcDbVertex
100
AcDb2dVertex
 10
78.93050191813359
 20
169.7355051252094
 30
0.0
  0
VERTEX
  5
126
330
124
100
AcDbEntity
  8
LAGER_1
 62
     7
100
AcDbVertex
100
AcDb2dVertex
 10
5.715000267719335
 20
169.7355051252094
 30
0.0
  0
SEQEND
  5
127
330
124
100
AcDbEntity
  8
LAGER_1
 62
     7
  0
POLYLINE
  5
128
330
41
100
AcDbEntity
  8
LAGER_1
 62
     7
100
AcDb2dPolyline
 66
     1
 10
0.0
 20
0.0
 30
0.0
  0
VERTEX
  5
129
330
128
100
AcDbEntity
  8
LAGER_1
 62
     7
100
AcDbVertex
100
AcDb2dVertex
 10
3.682999851047803
 20
167.7035016806219
 30
0.0
  0
VERTEX
  5
12A
330
128
100
AcDbEntity
  8
LAGER_1
 62
     7
100
AcDbVertex
100
AcDb2dVertex
 10
3.682999851047803
 20
162.6870012512391
 30
0.0
  0
VERTEX
  5
12B
330
128
100
AcDbEntity
  8
LAGER_1
 62
     7
100
AcDbVertex
100
AcDb2dVertex
 10
6.667499863759083
 20
162.6870012512391
 30
0.0
  0
VERTEX
  5
12C
330
128
100
AcDbEntity
  8
LAGER_1
 62
     7
100
AcDbVertex
100
AcDb2dVertex
 10
6.667499863759083
 20
159.7025042664437
 30
0.0
  0
VERTEX
  5
12D
330
128
100
AcDbEntity
  8
LAGER_1
 62
     7
100
AcDbVertex
100
AcDb2dVertex
 10
40.195500851225
 20
159.7025042664437
 30
0.0
  0
SEQEND
  5
12E
330
128
100
AcDbEntity
  8
LAGER_1
 62
     7
  0
POLYLINE
  5
12F
330
41
100
AcDbEntity
  8
LAGER_1
 62
     7
100
AcDb2dPolyline
 66
     1
 10
0.0
 20
0.0
 30
0.0
  0
VERTEX
  5
130
330
12F
100
AcDbEntity
  8
LAGER_1
 62
     7
100
AcDbVertex
100
AcDb2dVertex
 10
41.71950074318477
 20
147.7009973792532
 30
0.0
  0
VERTEX
  5
131
330
12F
100
AcDbEntity
  8
LAGER_1
 62
     7
100
AcDbVertex
100
AcDb2dVertex
 10
41.71950074318477
 20
142.2400042708094
 30
0.0
  0
SEQEND
  5
132
330
12F
100
AcDbEntity
  8
LAGER_1
 62
     7
  0
POLYLINE
  5
133
330
41
100
AcDbEntity
  8
LAGER_1
 62
     7
100
AcDb2dPolyline
 66
     1
 10
0.0
 20
0.0
 30
0.0
  0
VERTEX
  5
134
330
133
100
AcDbEntity
  8
LAGER_1
 62
     7
100
AcDbVertex
100
AcDb2dVertex
 10
41.71950074318477
 20
128.7144948001782
 30
0.0
  0
VERTEX
  5
135
330
133
100
AcDbEntity
  8
LAGER_1
 62
     7
100
AcDbVertex
100
AcDb2dVertex
 10
41.71950074318477
 20
126.7459995376766
 30
0.0
  0
VERTEX
  5
136
330
133
100
AcDbEntity
  8
LAGER_1
 62
     7
100
AcDbVertex
100
AcDb2dVertex
 10
6.667499863759083
 20
126.7459995376766
 30
0.0
  0
VERTEX
  5
137
330
133
100
AcDbEntity
  8
LAGER_1
 62
     7
100
AcDbVertex
100
AcDb2dVertex
 10
6.667499863759083
 20
123.6980051367187
 30
0.0
  0
VERTEX
  5
138
330
133
100
AcDbEntity
  8
LAGER_1
 62
     7
100
AcDbVertex
100
AcDb2dVertex
 10
3.682999851047803
 20
123.6980051367187
 30
0.0
  0
VERTEX
  5
139
330
133
100
AcDbEntity
  8
LAGER_1
 62
     7
100
AcDbVertex
100
AcDb2dVertex
 10
3.682999851047803
 20
85.72499997856876
 30
0.0
  0
SEQEND
  5
13A
330
133
100
AcDbEntity
  8
LAGER_1
 62
     7
  0
POLYLINE
  5
13B
330
41
100
AcDbEntity
  8
LAGER_1
 62
     7
100
AcDb2dPolyline
 66
     1
 10
0.0
 20
0.0
 30
0.0
  0
VERTEX
  5
13C
330
13B
100
AcDbEntity
  8
LAGER_1
 62
     7
100
AcDbVertex
100
AcDb2dVertex
 10
3.682999851047803
 20
77.72400256439062
 30
0.0
  0
VERTEX
  5
13D
330
13B
100
AcDbEntity
  8
LAGER_1
 62
     7
100
AcDbVertex
100
AcDb2dVertex
 10
3.682999851047803
 20
74.35849955077344
 30
0.0
  0
SEQEND
  5
13E
330
13B
100
AcDbEntity
  8
LAGER_1
 62
     7
  0
POLYLINE
  5
13F
330
41
100
AcDbEntity
  8
LAGER_1
 62
     7
100
AcDb2dPolyline
 66
     1
 10
0.0
 20
0.0
 30
0.0
  0
VERTEX
  5
140
330
13F
100
AcDbEntity
  8
LAGER_1
 62
     7
100
AcDbVertex
100
AcDb2dVertex
 10
4.064000160472851
 20
73.21549761319298
 30
0.0
  0
VERTEX
  5
141
330
13F
100
AcDbEntity
  8
LAGER_1
 62
     7
100
AcDbVertex
100
AcDb2dVertex
 10
24.13000053226367
 20
43.62450128100468
 30
0.0
  0
SEQEND
  5
142
330
13F
100
AcDbEntity
  8
LAGER_1
 62
     7
  0
POLYLINE
  5
143
330
41
100
AcDbEntity
  8
LAGER_1
 62
     7
100
AcDb2dPolyline
 66
     1
 10
0.0
 20
0.0
 30
0.0
  0
VERTEX
  5
144
330
143
100
AcDbEntity
  8
LAGER_1
 62
     7
100
AcDbVertex
100
AcDb2dVertex
 10
25.78100063951015
 20
42.73549977399766
 30
0.0
  0
VERTEX
  5
145
330
143
100
AcDbEntity
  8
LAGER_1
 62
     7
100
AcDbVertex
100
AcDb2dVertex
 10
67.43700127505156
 20
42.73549977399766
 30
0.0
  0
SEQEND
  5
146
330
143
100
AcDbEntity
  8
LAGER_1
 62
     7
  0
POLYLINE
  5
147
330
41
100
AcDbEntity
  8
LAGER_1
 62
     7
100
AcDb2dPolyline
 66
     1
 10
0.0
 20
0.0
 30
0.0
  0
VERTEX
  5
148
330
147
100
AcDbEntity
  8
LAGER_1
 62
     7
100
AcDbVertex
100
AcDb2dVertex
 10
69.27850170522812
 20
43.81499891245392
 30
0.0
  0
VERTEX
  5
149
330
147
100
AcDbEntity
  8
LAGER_1
 62
     7
100
AcDbVertex
100
AcDb2dVertex
 10
78.48599847314922
 20
62.29350063038203
 30
0.0
  0
SEQEND
  5
14A
330
147
100
AcDbEntity
  8
LAGER_1
 62
     7
  0
POLYLINE
  5
14B
330
41
100
AcDbEntity
  8
LAGER_1
 62
     7
100
AcDb2dPolyline
 66
     1
 10
0.0
 20
0.0
 30
0.0
  0
VERTEX
  5
14C
330
14B
100
AcDbEntity
  8
LAGER_1
 62
     7
100
AcDbVertex
100
AcDb2dVertex
 10
78.67650148756016
 20
63.18250213738906
 30
0.0
  0
VERTEX
  5
14D
330
14B
100
AcDbEntity
  8
LAGER_1
 62
     7
100
AcDbVertex
100
AcDb2dVertex
 10
78.67650148756016
 20
77.72400256439062
 30
0.0
  0
SEQEND
  5
14E
330
14B
100
AcDbEntity
  8
LAGER_1
 62
     7
  0
POLYLINE
  5
14F
330
41
100
AcDbEntity
  8
LAGER_1
 62
     7
100
AcDb2dPolyline
 66
     1
 10
0.0
 20
0.0
 30
0.0
  0
VERTEX
  5
150
330
14F
100
AcDbEntity
  8
LAGER_1
 62
     7
100
AcDbVertex
100
AcDb2dVertex
 10
100.3934952378953
 20
94.10700342156873
 30
0.0
  0
VERTEX
  5
151
330
14F
100
AcDbEntity
  8
LAGER_1
 62
     7
100
AcDbVertex
100
AcDb2dVertex
 10
106.9974956668813
 20
96.52000212905469
 30
0.0
  0
SEQEND
  5
152
330
14F
100
AcDbEntity
  8
LAGER_1
 62
     7
  0
POLYLINE
  5
153
330
41
100
AcDbEntity
  8
LAGER_1
 62
     7
100
AcDb2dPolyline
 66
     1
 10
0.0
 20
0.0
 30
0.0
  0
VERTEX
  5
154
330
153
100
AcDbEntity
  8
LAGER_1
 62
     7
100
AcDbVertex
100
AcDb2dVertex
 10
78.67650148756016
 20
77.72400256439062
 30
0.0
  0
VERTEX
  5
155
330
153
100
AcDbEntity
  8
LAGER_1
 62
     7
100
AcDbVertex
100
AcDb2dVertex
 10
75.94599955037657
 20
85.21699911742188
 30
0.0
  0
VERTEX
  5
156
330
153
100
AcDbEntity
  8
LAGER_1
 62
     7
100
AcDbVertex
100
AcDb2dVertex
 10
82.54999997936251
 20
87.62999782490783
 30
0.0
  0
SEQEND
  5
157
330
153
100
AcDbEntity
  8
LAGER_1
 62
     7
  0
SPLINE
  5
158
330
41
100
AcDbEntity
  8
LAGER_1
 62
     7
100
AcDbSpline
210
0.0
220
0.0
230
1.0
 70
     8
 71
     3
 72
    17
 73
    13
 74
     0
 42
0.0000000001
 43
0.0000000001
 12
1.0
 22
0.0
 32
0.0
 13
1.0
 23
0.0
 33
0.0
 40
0.0
 40
0.0
 40
0.0
 40
0.0
 40
1.0
 40
1.0
 40
1.0
 40
2.0
 40
2.0
 40
2.0
 40
3.0
 40
3.0
 40
3.0
 40
4.0
 40
4.0
 40
4.0
 40
4.0
 10
7.207399483044478
 20
116.2049978177641
 30
0.0
 10
6.383278813355759
 20
116.2050731792278
 30
0.0
 10
5.715121384357488
 20
115.5370799305613
 30
0.0
 10
5.715000267719335
 20
114.7129592608726
 30
0.0
 10
5.714879151081182
 20
113.8888493571072
 30
0.0
 10
6.382839429107348
 20
113.2206515558962
 30
0.0
 10
7.206956061574794
 20
113.2204900670454
 30
0.0
 10
8.031076731263513
 20
113.2203285781945
 30
0.0
 10
8.69929808293192
 20
113.8882572313207
 30
0.0
 10
8.699499943995509
 20
114.7123779010094
 30
0.0
 10
8.699702477929309
 20
115.5364985706981
 30
0.0
 10
8.031805449703068
 20
116.2047502015261
 30
0.0
 10
7.20768478001435
 20
116.2049978177641
 30
0.0
  0
SPLINE
  5
159
330
41
100
AcDbEntity
  8
LAGER_1
 62
     7
100
AcDbSpline
210
0.0
220
0.0
230
1.0
 70
     8
 71
     3
 72
    17
 73
    13
 74
     0
 42
0.0000000001
 43
0.0000000001
 12
1.0
 22
0.0
 32
0.0
 13
1.0
 23
0.0
 33
0.0
 40
0.0
 40
0.0
 40
0.0
 40
0.0
 40
1.0
 40
1.0
 40
1.0
 40
2.0
 40
2.0
 40
2.0
 40
3.0
 40
3.0
 40
3.0
 40
4.0
 40
4.0
 40
4.0
 40
4.0
 10
78.32740027270873
 20
91.88449696257032
 30
0.0
 10
77.50327960302002
 20
91.88457232403407
 30
0.0
 10
76.8351194825409
 20
91.21657907536752
 30
0.0
 10
76.8350010573836
 20
90.3924584056788
 30
0.0
 10
76.8348772492646
 20
89.56834311895177
 30
0.0
 10
77.50283820016097
 20
88.90015070070248
 30
0.0
 10
78.32695348688799
 20
88.89999459481331
 30
0.0
 10
79.15107415657671
 20
88.89983310596244
 30
0.0
 10
79.81929887259618
 20
89.56776175908864
 30
0.0
 10
79.81949804217892
 20
90.39187704581566
 30
0.0
 10
79.81970259472335
 20
91.21599771550439
 30
0.0
 10
79.15180623936733
 20
91.88424934633233
 30
0.0
 10
78.32768556967861
 20
91.88449696257032
 30
0.0
  0
SPLINE
  5
15A
330
41
100
AcDbEntity
  8
LAGER_1
 62
     7
100
AcDbSpline
210
0.0
220
0.0
230
1.0
 70
     8
 71
     3
 72
    17
 73
    13
 74
     0
 42
0.0000000001
 43
0.0000000001
 12
1.0
 22
0.0
 32
0.0
 13
1.0
 23
0.0
 33
0.0
 40
0.0
 40
0.0
 40
0.0
 40
0.0
 40
1.0
 40
1.0
 40
1.0
 40
2.0
 40
2.0
 40
2.0
 40
3.0
 40
3.0
 40
3.0
 40
4.0
 40
4.0
 40
4.0
 40
4.0
 10
66.51640178289075
 20
47.68849740425626
 30
0.0
 10
65.69228111320204
 20
47.6885835316434
 30
0.0
 10
65.02412099272293
 20
47.02059028297684
 30
0.0
 10
65.02400256756562
 20
46.19646961328812
 30
0.0
 10
65.02387875944662
 20
45.37234894359941
 30
0.0
 10
65.69183971034299
 20
44.70415921683096
 30
0.0
 10
66.51595499707001
 20
44.70399772798009
 30
0.0
 10
67.34007566675874
 20
44.70383893061007
 30
0.0
 10
68.0083003827782
 20
45.37176758373627
 30
0.0
 10
68.00849955236095
 20
46.19588287046329
 30
0.0
 10
68.00870410490538
 20
47.02000354015201
 30
0.0
 10
67.34080774954936
 20
47.68825517097996
 30
0.0
 10
66.51668707986063
 20
47.68849740425626
 30
0.0
  0
SPLINE
  5
15B
330
41
100
AcDbEntity
  8
LAGER_1
 62
     7
100
AcDbSpline
210
0.0
220
0.0
230
1.0
 70
     8
 71
     3
 72
    17
 73
    13
 74
     0
 42
0.0000000001
 43
0.0000000001
 12
1.0
 22
0.0
 32
0.0
 13
1.0
 23
0.0
 33
0.0
 40
0.0
 40
0.0
 40
0.0
 40
0.0
 40
1.0
 40
1.0
 40
1.0
 40
2.0
 40
2.0
 40
2.0
 40
3.0
 40
3.0
 40
3.0
 40
4.0
 40
4.0
 40
4.0
 40
4.0
 10
11.71589905128042
 20
167.7035124465453
 30
0.0
 10
10.8917783815917
 20
167.703587808009
 30
0.0
 10
10.22362095259343
 20
167.0355945593425
 30
0.0
 10
10.22349983595528
 20
166.2114738896537
 30
0.0
 10
10.22337871931712
 20
165.3873639858884
 30
0.0
 10
10.89133899734329
 20
164.7191661846774
 30
0.0
 10
11.71545630268094
 20
164.7190046958266
 30
0.0
 10
12.53957697236966
 20
164.7188432069757
 30
0.0
 10
13.20779765116786
 20
165.3867718601019
 30
0.0
 10
13.20799951223145
 20
166.2108925297906
 30
0.0
 10
13.20820271903546
 20
167.0350131994793
 30
0.0
 10
12.54030501793901
 20
167.7032648303073
 30
0.0
 10
11.71618434825029
 20
167.7035124465453
 30
0.0
  0
SPLINE
  5
15C
330
41
100
AcDbEntity
  8
LAGER_1
 62
     7
100
AcDbSpline
210
0.0
220
0.0
230
1.0
 70
     8
 71
     3
 72
    17
 73
    13
 74
     0
 42
0.0000000001
 43
0.0000000001
 12
1.0
 22
0.0
 32
0.0
 13
1.0
 23
0.0
 33
0.0
 40
0.0
 40
0.0
 40
0.0
 40
0.0
 40
1.0
 40
1.0
 40
1.0
 40
2.0
 40
2.0
 40
2.0
 40
3.0
 40
3.0
 40
3.0
 40
4.0
 40
4.0
 40
4.0
 40
4.0
 10
26.57489867075835
 20
47.68849740425626
 30
0.0
 10
25.75077800106963
 20
47.6885835316434
 30
0.0
 10
25.08262057207136
 20
47.02059028297684
 30
0.0
 10
25.08249945543321
 20
46.19646961328812
 30
0.0
 10
25.08237833879505
 20
45.37234894359941
 30
0.0
 10
25.75033928969143
 20
44.70415921683096
 30
0.0
 10
26.5744572678993
 20
44.70399772798009
 30
0.0
 10
27.39857793758802
 20
44.70383893061007
 30
0.0
 10
28.06679727064579
 20
45.37176758373627
 30
0.0
 10
28.06700182319023
 20
46.19588287046329
 30
0.0
 10
28.06720368425382
 20
47.02000354015201
 30
0.0
 10
27.39930732889779
 20
47.68825517097996
 30
0.0
 10
26.57518665920907
 20
47.68849740425626
 30
0.0
  0
SPLINE
  5
15D
330
41
100
AcDbEntity
  8
LAGER_1
 62
     7
100
AcDbSpline
210
0.0
220
0.0
230
1.0
 70
     8
 71
     3
 72
    17
 73
    13
 74
     0
 42
0.0000000001
 43
0.0000000001
 12
1.0
 22
0.0
 32
0.0
 13
1.0
 23
0.0
 33
0.0
 40
0.0
 40
0.0
 40
0.0
 40
0.0
 40
1.0
 40
1.0
 40
1.0
 40
2.0
 40
2.0
 40
2.0
 40
3.0
 40
3.0
 40
3.0
 40
4.0
 40
4.0
 40
4.0
 40
4.0
 10
101.8224024200197
 20
100.3934952378953
 30
0.0
 10
100.9982817503309
 20
100.3935705993591
 30
0.0
 10
100.3301270128135
 20
99.72557735069252
 30
0.0
 10
100.3299978217328
 20
98.90145668100381
 30
0.0
 10
100.3298793965755
 20
98.07734677723847
 30
0.0
 10
100.9978403474719
 20
97.4091489760275
 30
0.0
 10
101.8219610171606
 20
97.40898748717662
 30
0.0
 10
102.6460816868493
 20
97.40882599832575
 30
0.0
 10
103.3143010199071
 20
98.07675465145195
 30
0.0
 10
103.3145055724515
 20
98.90087532114067
 30
0.0
 10
103.3146993590726
 20
99.72499599082938
 30
0.0
 10
102.6468030037166
 20
100.3932476216573
 30
0.0
 10
101.8226823340278
 20
100.3934952378953
 30
0.0
  0
SPLINE
  5
15E
330
41
100
AcDbEntity
  8
LAGER_1
 62
     7
100
AcDbSpline
210
0.0
220
0.0
230
1.0
 70
     8
 71
     3
 72
    17
 73
    13
 74
     0
 42
0.0000000001
 43
0.0000000001
 12
1.0
 22
0.0
 32
0.0
 13
1.0
 23
0.0
 33
0.0
 40
0.0
 40
0.0
 40
0.0
 40
0.0
 40
1.0
 40
1.0
 40
1.0
 40
2.0
 40
2.0
 40
2.0
 40
3.0
 40
3.0
 40
3.0
 40
4.0
 40
4.0
 40
4.0
 40
4.0
 10
76.80339768926812
 20
167.7035124465453
 30
0.0
 10
75.9792770195794
 20
167.703587808009
 30
0.0
 10
75.31111689910028
 20
167.0355945593425
 30
0.0
 10
75.31099847394297
 20
166.2114738896537
 30
0.0
 10
75.31087466582397
 20
165.3873639858884
 30
0.0
 10
75.97883561672036
 20
164.7191661846774
 30
0.0
 10
76.80295090344738
 20
164.7190046958266
 30
0.0
 10
77.62707157313609
 20
164.7188432069757
 30
0.0
 10
78.29529628915556
 20
165.3867718601019
 30
0.0
 10
78.2954954587383
 20
166.2108925297906
 30
0.0
 10
78.29570001128275
 20
167.0350131994793
 30
0.0
 10
77.62780365592671
 20
167.7032648303073
 30
0.0
 10
76.80368298623799
 20
167.7035124465453
 30
0.0
  0
POLYLINE
  5
15F
330
41
100
AcDbEntity
  8
LAGER_1
 62
     7
100
AcDb2dPolyline
 66
     1
 10
0.0
 20
0.0
 30
0.0
  0
VERTEX
  5
160
330
15F
100
AcDbEntity
  8
LAGER_1
 62
     7
100
AcDbVertex
100
AcDb2dVertex
 10
45.72000214175468
 20
104.2035016964969
 30
0.0
  0
VERTEX
  5
161
330
15F
100
AcDbEntity
  8
LAGER_1
 62
     7
100
AcDbVertex
100
AcDb2dVertex
 10
45.72000214175468
 20
90.74150040795156
 30
0.0
  0
VERTEX
  5
162
330
15F
100
AcDbEntity
  8
LAGER_1
 62
     7
100
AcDbVertex
100
AcDb2dVertex
 10
32.19450074556601
 20
90.74150040795156
 30
0.0
  0
VERTEX
  5
163
330
15F
100
AcDbEntity
  8
LAGER_1
 62
     7
100
AcDbVertex
100
AcDb2dVertex
 10
32.19450074556601
 20
104.2035016964969
 30
0.0
  0
VERTEX
  5
164
330
15F
100
AcDbEntity
  8
LAGER_1
 62
     7
100
AcDbVertex
100
AcDb2dVertex
 10
45.72000214175468
 20
104.2035016964969
 30
0.0
  0
SEQEND
  5
165
330
15F
100
AcDbEntity
  8
LAGER_1
 62
     7
  0
POLYLINE
  5
166
330
41
100
AcDbEntity
  8
LAGER_1
 62
     7
100
AcDb2dPolyline
 66
     1
 10
0.0
 20
0.0
 30
0.0
  0
VERTEX
  5
167
330
166
100
AcDbEntity
  8
LAGER_1
 62
     7
100
AcDbVertex
100
AcDb2dVertex
 10
39.17949912893125
 20
123.1900042755719
 30
0.0
  0
VERTEX
  5
168
330
166
100
AcDbEntity
  8
LAGER_1
 62
     7
100
AcDbVertex
100
AcDb2dVertex
 10
52.70499783363908
 20
123.1900042755719
 30
0.0
  0
VERTEX
  5
169
330
166
100
AcDbEntity
  8
LAGER_1
 62
     7
100
AcDbVertex
100
AcDb2dVertex
 10
52.70499783363908
 20
109.7280029870266
 30
0.0
  0
VERTEX
  5
16A
330
166
100
AcDbEntity
  8
LAGER_1
 62
     7
100
AcDbVertex
100
AcDb2dVertex
 10
39.17949912893125
 20
109.7280029870266
 30
0.0
  0
VERTEX
  5
16B
330
166
100
AcDbEntity
  8
LAGER_1
 62
     7
100
AcDbVertex
100
AcDb2dVertex
 10
39.17949912893125
 20
123.1900042755719
 30
0.0
  0
SEQEND
  5
16C
330
166
100
AcDbEntity
  8
LAGER_1
 62
     7
  0
POLYLINE
  5
16D
330
41
100
AcDbEntity
  8
LAGER_1
 62
     7
100
AcDb2dPolyline
 66
     1
 10
0.0
 20
0.0
 30
0.0
  0
VERTEX
  5
16E
330
16D
100
AcDbEntity
  8
LAGER_1
 62
     7
100
AcDbVertex
100
AcDb2dVertex
 10
53.72099955593281
 20
85.21699911742188
 30
0.0
  0
VERTEX
  5
16F
330
16D
100
AcDbEntity
  8
LAGER_1
 62
     7
100
AcDbVertex
100
AcDb2dVertex
 10
53.72099955593281
 20
71.69150041271406
 30
0.0
  0
VERTEX
  5
170
330
16D
100
AcDbEntity
  8
LAGER_1
 62
     7
100
AcDbVertex
100
AcDb2dVertex
 10
40.195500851225
 20
71.69150041271406
 30
0.0
  0
VERTEX
  5
171
330
16D
100
AcDbEntity
  8
LAGER_1
 62
     7
100
AcDbVertex
100
AcDb2dVertex
 10
40.195500851225
 20
85.21699911742188
 30
0.0
  0
VERTEX
  5
172
330
16D
100
AcDbEntity
  8
LAGER_1
 62
     7
100
AcDbVertex
100
AcDb2dVertex
 10
53.72099955593281
 20
85.21699911742188
 30
0.0
  0
SEQEND
  5
173
330
16D
100
AcDbEntity
  8
LAGER_1
 62
     7
  0
POLYLINE
  5
174
330
41
100
AcDbEntity
  8
LAGER_1
 62
     7
100
AcDb2dPolyline
 66
     1
 10
0.0
 20
0.0
 30
0.0
  0
VERTEX
  5
175
330
174
100
AcDbEntity
  8
LAGER_1
 62
     7
100
AcDbVertex
100
AcDb2dVertex
 10
50.22850170999062
 20
142.2400042708094
 30
0.0
  0
VERTEX
  5
176
330
174
100
AcDbEntity
  8
LAGER_1
 62
     7
100
AcDbVertex
100
AcDb2dVertex
 10
63.69049761557423
 20
142.2400042708094
 30
0.0
  0
VERTEX
  5
177
330
174
100
AcDbEntity
  8
LAGER_1
 62
     7
100
AcDbVertex
100
AcDb2dVertex
 10
63.69049761557423
 20
128.7144948001782
 30
0.0
  0
VERTEX
  5
178
330
174
100
AcDbEntity
  8
LAGER_1
 62
     7
100
AcDbVertex
100
AcDb2dVertex
 10
50.22850170999062
 20
128.7144948001782
 30
0.0
  0
VERTEX
  5
179
330
174
100
AcDbEntity
  8
LAGER_1
 62
     7
100
AcDbVertex
100
AcDb2dVertex
 10
50.22850170999062
 20
142.2400042708094
 30
0.0
  0
SEQEND
  5
17A
330
174
100
AcDbEntity
  8
LAGER_1
 62
     7
  0
POLYLINE
  5
17B
330
41
100
AcDbEntity
  8
LAGER_1
 62
     7
100
AcDb2dPolyline
 66
     1
 10
0.0
 20
0.0
 30
0.0
  0
VERTEX
  5
17C
330
17B
100
AcDbEntity
  8
LAGER_1
 62
     7
100
AcDbVertex
100
AcDb2dVertex
 10
26.66999945503633
 20
104.2035016964969
 30
0.0
  0
VERTEX
  5
17D
330
17B
100
AcDbEntity
  8
LAGER_1
 62
     7
100
AcDbVertex
100
AcDb2dVertex
 10
26.66999945503633
 20
90.74150040795156
 30
0.0
  0
VERTEX
  5
17E
330
17B
100
AcDbEntity
  8
LAGER_1
 62
     7
100
AcDbVertex
100
AcDb2dVertex
 10
13.20799951223145
 20
90.74150040795156
 30
0.0
  0
VERTEX
  5
17F
330
17B
100
AcDbEntity
  8
LAGER_1
 62
     7
100
AcDbVertex
100
AcDb2dVertex
 10
13.20799951223145
 20
104.2035016964969
 30
0.0
  0
VERTEX
  5
180
330
17B
100
AcDbEntity
  8
LAGER_1
 62
     7
100
AcDbVertex
100
AcDb2dVertex
 10
26.66999945503633
 20
104.2035016964969
 30
0.0
  0
SEQEND
  5
181
330
17B
100
AcDbEntity
  8
LAGER_1
 62
     7
  0
POLYLINE
  5
182
330
41
100
AcDbEntity
  8
LAGER_1
 62
     7
100
AcDb2dPolyline
 66
     1
 10
0.0
 20
0.0
 30
0.0
  0
VERTEX
  5
183
330
182
100
AcDbEntity
  8
LAGER_1
 62
     7
100
AcDbVertex
100
AcDb2dVertex
 10
20.19300058707754
 20
123.1900042755719
 30
0.0
  0
VERTEX
  5
184
330
182
100
AcDbEntity
  8
LAGER_1
 62
     7
100
AcDbVertex
100
AcDb2dVertex
 10
33.71850063752578
 20
123.1900042755719
 30
0.0
  0
VERTEX
  5
185
330
182
100
AcDbEntity
  8
LAGER_1
 62
     7
100
AcDbVertex
100
AcDb2dVertex
 10
33.71850063752578
 20
109.7280029870266
 30
0.0
  0
VERTEX
  5
186
330
182
100
AcDbEntity
  8
LAGER_1
 62
     7
100
AcDbVertex
100
AcDb2dVertex
 10
20.19300058707754
 20
109.7280029870266
 30
0.0
  0
VERTEX
  5
187
330
182
100
AcDbEntity
  8
LAGER_1
 62
     7
100
AcDbVertex
100
AcDb2dVertex
 10
20.19300058707754
 20
123.1900042755719
 30
0.0
  0
SEQEND
  5
188
330
182
100
AcDbEntity
  8
LAGER_1
 62
     7
  0
POLYLINE
  5
189
330
41
100
AcDbEntity
  8
LAGER_1
 62
     7
100
AcDb2dPolyline
 66
     1
 10
0.0
 20
0.0
 30
0.0
  0
VERTEX
  5
18A
330
189
100
AcDbEntity
  8
LAGER_1
 62
     7
100
AcDbVertex
100
AcDb2dVertex
 10
34.67099956069531
 20
85.21699911742188
 30
0.0
  0
VERTEX
  5
18B
330
189
100
AcDbEntity
  8
LAGER_1
 62
     7
100
AcDbVertex
100
AcDb2dVertex
 10
34.67099956069531
 20
71.69150041271406
 30
0.0
  0
VERTEX
  5
18C
330
189
100
AcDbEntity
  8
LAGER_1
 62
     7
100
AcDbVertex
100
AcDb2dVertex
 10
21.20899961789043
 20
71.69150041271406
 30
0.0
  0
VERTEX
  5
18D
330
189
100
AcDbEntity
  8
LAGER_1
 62
     7
100
AcDbVertex
100
AcDb2dVertex
 10
21.20899961789043
 20
85.21699911742188
 30
0.0
  0
VERTEX
  5
18E
330
189
100
AcDbEntity
  8
LAGER_1
 62
     7
100
AcDbVertex
100
AcDb2dVertex
 10
34.67099956069531
 20
85.21699911742188
 30
0.0
  0
SEQEND
  5
18F
330
189
100
AcDbEntity
  8
LAGER_1
 62
     7
  0
POLYLINE
  5
190
330
41
100
AcDbEntity
  8
LAGER_1
 62
     7
100
AcDb2dPolyline
 66
     1
 10
0.0
 20
0.0
 30
0.0
  0
VERTEX
  5
191
330
190
100
AcDbEntity
  8
LAGER_1
 62
     7
100
AcDbVertex
100
AcDb2dVertex
 10
41.71950074318477
 20
142.2400042708094
 30
0.0
  0
VERTEX
  5
192
330
190
100
AcDbEntity
  8
LAGER_1
 62
     7
100
AcDbVertex
100
AcDb2dVertex
 10
44.70400041946094
 20
142.2400042708094
 30
0.0
  0
VERTEX
  5
193
330
190
100
AcDbEntity
  8
LAGER_1
 62
     7
100
AcDbVertex
100
AcDb2dVertex
 10
44.70400041946094
 20
128.7144948001782
 30
0.0
  0
VERTEX
  5
194
330
190
100
AcDbEntity
  8
LAGER_1
 62
     7
100
AcDbVertex
100
AcDb2dVertex
 10
41.71950074318477
 20
128.7144948001782
 30
0.0
  0
SEQEND
  5
195
330
190
100
AcDbEntity
  8
LAGER_1
 62
     7
  0
POLYLINE
  5
196
330
41
100
AcDbEntity
  8
LAGER_1
 62
     7
100
AcDb2dPolyline
 66
     1
 10
0.0
 20
0.0
 30
0.0
  0
VERTEX
  5
197
330
196
100
AcDbEntity
  8
LAGER_1
 62
     7
100
AcDbVertex
100
AcDb2dVertex
 10
43.6879986971672
 20
52.70499783363908
 30
0.0
  0
VERTEX
  5
198
330
196
100
AcDbEntity
  8
LAGER_1
 62
     7
100
AcDbVertex
100
AcDb2dVertex
 10
30.22600010010273
 20
52.70499783363908
 30
0.0
  0
VERTEX
  5
199
330
196
100
AcDbEntity
  8
LAGER_1
 62
     7
100
AcDbVertex
100
AcDb2dVertex
 10
30.22600010010273
 20
66.23050192130859
 30
0.0
  0
VERTEX
  5
19A
330
196
100
AcDbEntity
  8
LAGER_1
 62
     7
100
AcDbVertex
100
AcDb2dVertex
 10
43.6879986971672
 20
66.23050192130859
 30
0.0
  0
VERTEX
  5
19B
330
196
100
AcDbEntity
  8
LAGER_1
 62
     7
100
AcDbVertex
100
AcDb2dVertex
 10
43.6879986971672
 20
52.70499783363908
 30
0.0
  0
SEQEND
  5
19C
330
196
100
AcDbEntity
  8
LAGER_1
 62
     7
  0
POLYLINE
  5
19D
330
41
100
AcDbEntity
  8
LAGER_1
 62
     7
100
AcDb2dPolyline
 66
     1
 10
0.0
 20
0.0
 30
0.0
  0
VERTEX
  5
19E
330
19D
100
AcDbEntity
  8
LAGER_1
 62
     7
100
AcDbVertex
100
AcDb2dVertex
 10
40.195500851225
 20
159.7025042664437
 30
0.0
  0
VERTEX
  5
19F
330
19D
100
AcDbEntity
  8
LAGER_1
 62
     7
100
AcDbVertex
100
AcDb2dVertex
 10
40.195500851225
 20
161.226496083961
 30
0.0
  0
VERTEX
  5
1A0
330
19D
100
AcDbEntity
  8
LAGER_1
 62
     7
100
AcDbVertex
100
AcDb2dVertex
 10
53.72099955593281
 20
161.226496083961
 30
0.0
  0
VERTEX
  5
1A1
330
19D
100
AcDbEntity
  8
LAGER_1
 62
     7
100
AcDbVertex
100
AcDb2dVertex
 10
53.72099955593281
 20
147.7009973792532
 30
0.0
  0
VERTEX
  5
1A2
330
19D
100
AcDbEntity
  8
LAGER_1
 62
     7
100
AcDbVertex
100
AcDb2dVertex
 10
41.71950074318477
 20
147.7009973792532
 30
0.0
  0
SEQEND
  5
1A3
330
19D
100
AcDbEntity
  8
LAGER_1
 62
     7
  0
SPLINE
  5
1A4
330
41
100
AcDbEntity
  8
LAGER_1
 62
     7
100
AcDbSpline
210
0.0
220
0.0
230
1.0
 70
     8
 71
     3
 72
     8
 73
     4
 74
     0
 42
0.0000000001
 43
0.0000000001
 12
1.0
 22
0.0
 32
0.0
 13
1.0
 23
0.0
 33
0.0
 40
0.0
 40
0.0
 40
0.0
 40
0.0
 40
1.0
 40
1.0
 40
1.0
 40
1.0
 10
80.84192702073733
 20
168.4192202676825
 30
0.0
 10
80.55441227064645
 20
169.2093529172246
 30
0.0
 10
79.80345143336403
 20
169.7353328704351
 30
0.0
 10
78.96263281649524
 20
169.735494359286
 30
0.0
  0
SPLINE
  5
1A5
330
41
100
AcDbEntity
  8
LAGER_1
 62
     7
100
AcDbSpline
210
0.0
220
0.0
230
1.0
 70
     8
 71
     3
 72
     8
 73
     4
 74
     0
 42
0.0000000001
 43
0.0000000001
 12
1.0
 22
0.0
 32
0.0
 13
1.0
 23
0.0
 33
0.0
 40
0.0
 40
0.0
 40
0.0
 40
0.0
 40
1.0
 40
1.0
 40
1.0
 40
1.0
 10
5.683450056350608
 20
169.7355051252094
 30
0.0
 10
4.57881854260733
 20
169.7356127844433
 30
0.0
 10
3.683216515256055
 20
168.8402755315204
 30
0.0
 10
3.683000187482909
 20
167.7356379619452
 30
0.0
  0
POLYLINE
  5
1A6
330
41
100
AcDbEntity
  8
LAGER_1
 62
     7
100
AcDb2dPolyline
 66
     1
 10
0.0
 20
0.0
 30
0.0
  0
VERTEX
  5
1A7
330
1A6
100
AcDbEntity
  8
LAGER_1
 62
     7
100
AcDbVertex
100
AcDb2dVertex
 10
3.682999851047803
 20
85.72499997856876
 30
0.0
  0
VERTEX
  5
1A8
330
1A6
100
AcDbEntity
  8
LAGER_1
 62
     7
100
AcDbVertex
100
AcDb2dVertex
 10
9.715500320548827
 20
85.72499997856876
 30
0.0
  0
VERTEX
  5
1A9
330
1A6
100
AcDbEntity
  8
LAGER_1
 62
     7
100
AcDbVertex
100
AcDb2dVertex
 10
9.715500320548827
 20
77.72400256439062
 30
0.0
  0
VERTEX
  5
1AA
330
1A6
100
AcDbEntity
  8
LAGER_1
 62
     7
100
AcDbVertex
100
AcDb2dVertex
 10
3.682999851047803
 20
77.72400256439062
 30
0.0
  0
SEQEND
  5
1AB
330
1A6
100
AcDbEntity
  8
LAGER_1
 62
     7
  0
SPLINE
  5
1AC
330
41
100
AcDbEntity
  8
LAGER_1
 62
     7
100
AcDbSpline
210
0.0
220
0.0
230
1.0
 70
     8
 71
     3
 72
     8
 73
     4
 74
     0
 42
0.0000000001
 43
0.0000000001
 12
1.0
 22
0.0
 32
0.0
 13
1.0
 23
0.0
 33
0.0
 40
0.0
 40
0.0
 40
0.0
 40
0.0
 40
1.0
 40
1.0
 40
1.0
 40
1.0
 10
3.683000187482909
 20
74.32695001227493
 30
0.0
 10
3.682960151705298
 20
73.92702287309268
 30
0.0
 10
3.802802037242049
 20
73.5362736836016
 30
0.0
 10
4.027054539309501
 20
73.20513541192875
 30
0.0
  0
SPLINE
  5
1AD
330
41
100
AcDbEntity
  8
LAGER_1
 62
     7
100
AcDbSpline
210
0.0
220
0.0
230
1.0
 70
     8
 71
     3
 72
     8
 73
     4
 74
     0
 42
0.0000000001
 43
0.0000000001
 12
1.0
 22
0.0
 32
0.0
 13
1.0
 23
0.0
 33
0.0
 40
0.0
 40
0.0
 40
0.0
 40
0.0
 40
1.0
 40
1.0
 40
1.0
 40
1.0
 10
24.09306803206945
 20
43.61412831381706
 30
0.0
 10
24.46511681262965
 20
43.06475939203872
 30
0.0
 10
25.08537395697871
 20
42.73562896507836
 30
0.0
 10
25.7488697411485
 20
42.7355024654785
 30
0.0
  0
SPLINE
  5
1AE
330
41
100
AcDbEntity
  8
LAGER_1
 62
     7
100
AcDbSpline
210
0.0
220
0.0
230
1.0
 70
     8
 71
     3
 72
     8
 73
     4
 74
     0
 42
0.0000000001
 43
0.0000000001
 12
1.0
 22
0.0
 32
0.0
 13
1.0
 23
0.0
 33
0.0
 40
0.0
 40
0.0
 40
0.0
 40
0.0
 40
1.0
 40
1.0
 40
1.0
 40
1.0
 10
67.46855081355008
 20
42.73549977399766
 30
0.0
 10
68.22612192779482
 20
42.73542441253392
 30
0.0
 10
68.91872607733413
 20
43.16333756957212
 30
0.0
 10
69.25765349458067
 20
43.84086135192091
 30
0.0
  0
SPLINE
  5
1AF
330
41
100
AcDbEntity
  8
LAGER_1
 62
     7
100
AcDbSpline
210
0.0
220
0.0
230
1.0
 70
     8
 71
     3
 72
     8
 73
     4
 74
     0
 42
0.0000000001
 43
0.0000000001
 12
1.0
 22
0.0
 32
0.0
 13
1.0
 23
0.0
 33
0.0
 40
0.0
 40
0.0
 40
0.0
 40
0.0
 40
1.0
 40
1.0
 40
1.0
 40
1.0
 10
78.46525792173568
 20
62.31953801610415
 30
0.0
 10
78.60412756756143
 20
62.59721271221528
 30
0.0
 10
78.67645304090489
 20
62.90340095642856
 30
0.0
 10
78.67651225348355
 20
63.21386865518992
 30
0.0
  0
POLYLINE
  5
1B0
330
41
100
AcDbEntity
  8
LAGER_1
 62
     7
100
AcDb2dPolyline
 66
     1
 10
0.0
 20
0.0
 30
0.0
  0
VERTEX
  5
1B1
330
1B0
100
AcDbEntity
  8
LAGER_1
 62
     7
100
AcDbVertex
100
AcDb2dVertex
 10
89.21749782451096
 20
32.95649934580548
 30
0.0
  0
VERTEX
  5
1B2
330
1B0
100
AcDbEntity
  8
LAGER_1
 62
     7
100
AcDbVertex
100
AcDb2dVertex
 10
89.21749782451096
 20
15.93850010367461
 30
0.0
  0
VERTEX
  5
1B3
330
1B0
100
AcDbEntity
  8
LAGER_1
 62
     7
100
AcDbVertex
100
AcDb2dVertex
 10
85.21699911742188
 20
15.93850010367461
 30
0.0
  0
VERTEX
  5
1B4
330
1B0
100
AcDbEntity
  8
LAGER_1
 62
     7
100
AcDbVertex
100
AcDb2dVertex
 10
85.21699911742188
 20
11.93800005084512
 30
0.0
  0
VERTEX
  5
1B5
330
1B0
100
AcDbEntity
  8
LAGER_1
 62
     7
100
AcDbVertex
100
AcDb2dVertex
 10
39.17949912893125
 20
11.93800005084512
 30
0.0
  0
SEQEND
  5
1B6
330
1B0
100
AcDbEntity
  8
LAGER_1
 62
     7
  0
SPLINE
  5
1B7
330
41
100
AcDbEntity
  8
LAGER_1
 62
     7
100
AcDbSpline
210
0.0
220
0.0
230
1.0
 70
     8
 71
     3
 72
    11
 73
     7
 74
     0
 42
0.0000000001
 43
0.0000000001
 12
1.0
 22
0.0
 32
0.0
 13
1.0
 23
0.0
 33
0.0
 40
0.0
 40
0.0
 40
0.0
 40
0.0
 40
1.0
 40
1.0
 40
1.0
 40
2.0
 40
2.0
 40
2.0
 40
2.0
 10
39.24299923657461
 20
11.9697501046668
 30
0.0
 10
39.24299923657461
 20
13.9160742936842
 30
0.0
 10
37.66524239764071
 20
15.49390514834142
 30
0.0
 10
35.71891955436373
 20
15.4939993501711
 30
0.0
 10
33.7725940196059
 20
15.4940948977412
 30
0.0
 10
32.19468645774452
 20
13.91641342027103
 30
0.0
 10
32.19450074556601
 20
11.97008923125363
 30
0.0
  0
POLYLINE
  5
1B8
330
41
100
AcDbEntity
  8
LAGER_1
 62
     7
100
AcDb2dPolyline
 66
     1
 10
0.0
 20
0.0
 30
0.0
  0
VERTEX
  5
1B9
330
1B8
100
AcDbEntity
  8
LAGER_1
 62
     7
100
AcDbVertex
100
AcDb2dVertex
 10
32.19450074556601
 20
11.93800005084512
 30
0.0
  0
VERTEX
  5
1BA
330
1B8
100
AcDbEntity
  8
LAGER_1
 62
     7
100
AcDbVertex
100
AcDb2dVertex
 10
30.22600010010273
 20
11.93800005084512
 30
0.0
  0
SEQEND
  5
1BB
330
1B8
100
AcDbEntity
  8
LAGER_1
 62
     7
  0
POLYLINE
  5
1BC
330
41
100
AcDbEntity
  8
LAGER_1
 62
     7
100
AcDb2dPolyline
 66
     1
 10
0.0
 20
0.0
 30
0.0
  0
VERTEX
  5
1BD
330
1BC
100
AcDbEntity
  8
LAGER_1
 62
     7
100
AcDbVertex
100
AcDb2dVertex
 10
30.22600010010273
 20
36.95700074437539
 30
0.0
  0
VERTEX
  5
1BE
330
1BC
100
AcDbEntity
  8
LAGER_1
 62
     7
100
AcDbVertex
100
AcDb2dVertex
 10
32.19450074556601
 20
36.95700074437539
 30
0.0
  0
SEQEND
  5
1BF
330
1BC
100
AcDbEntity
  8
LAGER_1
 62
     7
  0
SPLINE
  5
1C0
330
41
100
AcDbEntity
  8
LAGER_1
 62
     7
100
AcDbSpline
210
0.0
220
0.0
230
1.0
 70
     8
 71
     3
 72
    11
 73
     7
 74
     0
 42
0.0000000001
 43
0.0000000001
 12
1.0
 22
0.0
 32
0.0
 13
1.0
 23
0.0
 33
0.0
 40
0.0
 40
0.0
 40
0.0
 40
0.0
 40
1.0
 40
1.0
 40
1.0
 40
2.0
 40
2.0
 40
2.0
 40
2.0
 10
32.19450074556601
 20
36.98910203644771
 30
0.0
 10
32.19430426746412
 20
35.04277650168989
 30
0.0
 10
33.77190500050884
 20
33.46478550392222
 30
0.0
 10
35.71822784378583
 20
33.46450020695234
 30
0.0
 10
37.66455337854366
 20
33.46421221850162
 30
0.0
 10
39.24261704629422
 20
35.04173489860177
 30
0.0
 10
39.24299923657461
 20
36.98805774187875
 30
0.0
  0
POLYLINE
  5
1C1
330
41
100
AcDbEntity
  8
LAGER_1
 62
     7
100
AcDb2dPolyline
 66
     1
 10
0.0
 20
0.0
 30
0.0
  0
VERTEX
  5
1C2
330
1C1
100
AcDbEntity
  8
LAGER_1
 62
     7
100
AcDbVertex
100
AcDb2dVertex
 10
39.17949912893125
 20
36.95700074437539
 30
0.0
  0
VERTEX
  5
1C3
330
1C1
100
AcDbEntity
  8
LAGER_1
 62
     7
100
AcDbVertex
100
AcDb2dVertex
 10
85.21699911742188
 20
36.95700074437539
 30
0.0
  0
VERTEX
  5
1C4
330
1C1
100
AcDbEntity
  8
LAGER_1
 62
     7
100
AcDbVertex
100
AcDb2dVertex
 10
85.21699911742188
 20
32.95649934580548
 30
0.0
  0
VERTEX
  5
1C5
330
1C1
100
AcDbEntity
  8
LAGER_1
 62
     7
100
AcDbVertex
100
AcDb2dVertex
 10
89.21749782451096
 20
32.95649934580548
 30
0.0
  0
SEQEND
  5
1C6
330
1C1
100
AcDbEntity
  8
LAGER_1
 62
     7
  0
SPLINE
  5
1C7
330
41
100
AcDbEntity
  8
LAGER_1
 62
     7
100
AcDbSpline
210
0.0
220
0.0
230
1.0
 70
     8
 71
     3
 72
    17
 73
    13
 74
     0
 42
0.0000000001
 43
0.0000000001
 12
1.0
 22
0.0
 32
0.0
 13
1.0
 23
0.0
 33
0.0
 40
0.0
 40
0.0
 40
0.0
 40
0.0
 40
1.0
 40
1.0
 40
1.0
 40
2.0
 40
2.0
 40
2.0
 40
3.0
 40
3.0
 40
3.0
 40
4.0
 40
4.0
 40
4.0
 40
4.0
 10
89.18559839350222
 20
10.47750026652871
 30
0.0
 10
90.00971906319093
 20
10.47741750349264
 30
0.0
 10
90.67787380070835
 20
11.14541007928898
 30
0.0
 10
90.67800299178906
 20
11.9695307489777
 30
0.0
 10
90.67812141694635
 20
12.79364738144514
 30
0.0
 10
90.01016046604998
 20
13.46183979969444
 30
0.0
 10
89.18604517932296
 20
13.46199994280488
 30
0.0
 10
88.36192450963424
 20
13.46216008591533
 30
0.0
 10
87.69369979361477
 20
12.79423143278913
 30
0.0
 10
87.69350062403203
 20
11.97011480032168
 30
0.0
 10
87.6932960714876
 20
11.14599413063296
 30
0.0
 10
88.36119242684363
 20
10.47774115406459
 30
0.0
 10
89.18531309653234
 20
10.47750026652871
 30
0.0
  0
SPLINE
  5
1C8
330
41
100
AcDbEntity
  8
LAGER_1
 62
     7
100
AcDbSpline
210
0.0
220
0.0
230
1.0
 70
     8
 71
     3
 72
    17
 73
    13
 74
     0
 42
0.0000000001
 43
0.0000000001
 12
1.0
 22
0.0
 32
0.0
 13
1.0
 23
0.0
 33
0.0
 40
0.0
 40
0.0
 40
0.0
 40
0.0
 40
1.0
 40
1.0
 40
1.0
 40
2.0
 40
2.0
 40
2.0
 40
3.0
 40
3.0
 40
3.0
 40
4.0
 40
4.0
 40
4.0
 40
4.0
 10
35.71860195962368
 20
35.49650365153983
 30
0.0
 10
36.5427226293124
 20
35.49642290711439
 30
0.0
 10
37.21088005831067
 20
36.1644134643001
 30
0.0
 10
37.21100117494883
 20
36.98853413398881
 30
0.0
 10
37.21112229158697
 20
37.81265211219669
 30
0.0
 10
36.5431613406906
 20
38.48084453044598
 30
0.0
 10
35.71904336248273
 20
38.48100601929685
 30
0.0
 10
34.89492269279401
 20
38.48116481666688
 30
0.0
 10
34.22670335973624
 20
37.81323616354067
 30
0.0
 10
34.2264988071918
 20
36.9891181853328
 30
0.0
 10
34.22629694612822
 20
36.16499751564408
 30
0.0
 10
34.89419330148424
 20
35.49674588481614
 30
0.0
 10
35.71831397117296
 20
35.49650365153983
 30
0.0
  0
SPLINE
  5
1C9
330
41
100
AcDbEntity
  8
LAGER_1
 62
     7
100
AcDbSpline
210
0.0
220
0.0
230
1.0
 70
     8
 71
     3
 72
    17
 73
    13
 74
     0
 42
0.0000000001
 43
0.0000000001
 12
1.0
 22
0.0
 32
0.0
 13
1.0
 23
0.0
 33
0.0
 40
0.0
 40
0.0
 40
0.0
 40
0.0
 40
1.0
 40
1.0
 40
1.0
 40
2.0
 40
2.0
 40
2.0
 40
3.0
 40
3.0
 40
3.0
 40
4.0
 40
4.0
 40
4.0
 40
4.0
 10
89.18559839350222
 20
35.49650365153983
 30
0.0
 10
90.00971906319093
 20
35.49642290711439
 30
0.0
 10
90.67787380070835
 20
36.1644134643001
 30
0.0
 10
90.67800299178906
 20
36.98853413398881
 30
0.0
 10
90.67812141694635
 20
37.81265211219669
 30
0.0
 10
90.01016046604998
 20
38.48084453044598
 30
0.0
 10
89.18604517932296
 20
38.48100601929685
 30
0.0
 10
88.36192450963424
 20
38.48116481666688
 30
0.0
 10
87.69369979361477
 20
37.81323616354067
 30
0.0
 10
87.69350062403203
 20
36.9891181853328
 30
0.0
 10
87.6932960714876
 20
36.16499751564408
 30
0.0
 10
88.36119242684363
 20
35.49674588481614
 30
0.0
 10
89.18531309653234
 20
35.49650365153983
 30
0.0
  0
SPLINE
  5
1CA
330
41
100
AcDbEntity
  8
LAGER_1
 62
     7
100
AcDbSpline
210
0.0
220
0.0
230
1.0
 70
     8
 71
     3
 72
    17
 73
    13
 74
     0
 42
0.0000000001
 43
0.0000000001
 12
1.0
 22
0.0
 32
0.0
 13
1.0
 23
0.0
 33
0.0
 40
0.0
 40
0.0
 40
0.0
 40
0.0
 40
1.0
 40
1.0
 40
1.0
 40
2.0
 40
2.0
 40
2.0
 40
3.0
 40
3.0
 40
3.0
 40
4.0
 40
4.0
 40
4.0
 40
4.0
 10
35.71860195962368
 20
10.47750026652871
 30
0.0
 10
36.5427226293124
 20
10.47741750349264
 30
0.0
 10
37.21088005831067
 20
11.14541007928898
 30
0.0
 10
37.21100117494883
 20
11.9695307489777
 30
0.0
 10
37.21112229158697
 20
12.79364738144514
 30
0.0
 10
36.5431613406906
 20
13.46183979969444
 30
0.0
 10
35.71904336248273
 20
13.46199994280488
 30
0.0
 10
34.89492269279401
 20
13.46216008591533
 30
0.0
 10
34.22670335973624
 20
12.79423143278913
 30
0.0
 10
34.2264988071918
 20
11.97011480032168
 30
0.0
 10
34.22629694612822
 20
11.14599413063296
 30
0.0
 10
34.89419330148424
 20
10.47774115406459
 30
0.0
 10
35.71831397117296
 20
10.47750026652871
 30
0.0
  0
POLYLINE
  5
1CB
330
41
100
AcDbEntity
  8
LAGER_1
 62
     7
100
AcDb2dPolyline
 66
     1
 10
0.0
 20
0.0
 30
0.0
  0
VERTEX
  5
1CC
330
1CB
100
AcDbEntity
  8
LAGER_1
 62
     7
100
AcDbVertex
100
AcDb2dVertex
 10
30.22600010010273
 20
11.93800005084512
 30
0.0
  0
VERTEX
  5
1CD
330
1CB
100
AcDbEntity
  8
LAGER_1
 62
     7
100
AcDbVertex
100
AcDb2dVertex
 10
30.22600010010273
 20
7.937499998015626
 30
0.0
  0
VERTEX
  5
1CE
330
1CB
100
AcDbEntity
  8
LAGER_1
 62
     7
100
AcDbVertex
100
AcDb2dVertex
 10
93.21799653160002
 20
7.937499998015626
 30
0.0
  0
VERTEX
  5
1CF
330
1CB
100
AcDbEntity
  8
LAGER_1
 62
     7
100
AcDbVertex
100
AcDb2dVertex
 10
93.21799653160002
 20
40.95749945146446
 30
0.0
  0
VERTEX
  5
1D0
330
1CB
100
AcDbEntity
  8
LAGER_1
 62
     7
100
AcDbVertex
100
AcDb2dVertex
 10
30.22600010010273
 20
40.95749945146446
 30
0.0
  0
VERTEX
  5
1D1
330
1CB
100
AcDbEntity
  8
LAGER_1
 62
     7
100
AcDbVertex
100
AcDb2dVertex
 10
30.22600010010273
 20
36.95700074437539
 30
0.0
  0
SEQEND
  5
1D2
330
1CB
100
AcDbEntity
  8
LAGER_1
 62
     7
  0
POLYLINE
  5
1D3
330
41
100
AcDbEntity
  8
LAGER_1
 62
     7
100
AcDb2dPolyline
 66
     1
 10
0.0
 20
0.0
 30
0.0
  0
VERTEX
  5
1D4
330
1D3
100
AcDbEntity
  8
LAGER_1
 62
     7
100
AcDbVertex
100
AcDb2dVertex
 10
142.3035016869719
 20
135.1915003968391
 30
0.0
  0
VERTEX
  5
1D5
330
1D3
100
AcDbEntity
  8
LAGER_1
 62
     7
100
AcDbVertex
100
AcDb2dVertex
 10
142.3035016869719
 20
168.2115025417687
 30
0.0
  0
SEQEND
  5
1D6
330
1D3
100
AcDbEntity
  8
LAGER_1
 62
     7
  0
SPLINE
  5
1D7
330
41
100
AcDbEntity
  8
LAGER_1
 62
     7
100
AcDbSpline
210
0.0
220
0.0
230
1.0
 70
     8
 71
     3
 72
    17
 73
    13
 74
     0
 42
0.0000000001
 43
0.0000000001
 12
1.0
 22
0.0
 32
0.0
 13
1.0
 23
0.0
 33
0.0
 40
0.0
 40
0.0
 40
0.0
 40
0.0
 40
1.0
 40
1.0
 40
1.0
 40
2.0
 40
2.0
 40
2.0
 40
3.0
 40
3.0
 40
3.0
 40
4.0
 40
4.0
 40
4.0
 40
4.0
 10
100.3235059699278
 20
137.6554649856599
 30
0.0
 10
100.9711839211548
 20
136.7917149519674
 30
0.0
 10
102.0989036304811
 20
136.4393139815966
 30
0.0
 10
103.1231520500927
 20
136.7805937531041
 30
0.0
 10
104.1474004697043
 20
137.1218842905351
 30
0.0
 10
104.8383574329647
 20
138.080266790838
 30
0.0
 10
104.8385189218155
 20
139.1598843544516
 30
0.0
 10
104.838669644743
 20
140.2394911521417
 30
0.0
 10
104.1479818295674
 20
141.1980782049891
 30
0.0
 10
103.1238410691898
 20
141.5396594223516
 30
0.0
 10
102.0996895428887
 20
141.8812298737908
 30
0.0
 10
100.9718729402518
 20
141.5291518811216
 30
0.0
 10
100.3239366068635
 20
140.6655956340502
 30
0.0
  0
POLYLINE
  5
1D8
330
41
100
AcDbEntity
  8
LAGER_1
 62
     7
100
AcDb2dPolyline
 66
     1
 10
0.0
 20
0.0
 30
0.0
  0
VERTEX
  5
1D9
330
1D8
100
AcDbEntity
  8
LAGER_1
 62
     7
100
AcDbVertex
100
AcDb2dVertex
 10
100.3299978217328
 20
137.6679965204875
 30
0.0
  0
VERTEX
  5
1DA
330
1D8
100
AcDbEntity
  8
LAGER_1
 62
     7
100
AcDbVertex
100
AcDb2dVertex
 10
100.3299978217328
 20
135.1915003968391
 30
0.0
  0
SEQEND
  5
1DB
330
1D8
100
AcDbEntity
  8
LAGER_1
 62
     7
  0
POLYLINE
  5
1DC
330
41
100
AcDbEntity
  8
LAGER_1
 62
     7
100
AcDb2dPolyline
 66
     1
 10
0.0
 20
0.0
 30
0.0
  0
VERTEX
  5
1DD
330
1DC
100
AcDbEntity
  8
LAGER_1
 62
     7
100
AcDbVertex
100
AcDb2dVertex
 10
100.3299978217328
 20
168.2115025417687
 30
0.0
  0
VERTEX
  5
1DE
330
1DC
100
AcDbEntity
  8
LAGER_1
 62
     7
100
AcDbVertex
100
AcDb2dVertex
 10
100.3299978217328
 20
165.6714982360344
 30
0.0
  0
SEQEND
  5
1DF
330
1DC
100
AcDbEntity
  8
LAGER_1
 62
     7
  0
POLYLINE
  5
1E0
330
41
100
AcDbEntity
  8
LAGER_1
 62
     7
100
AcDb2dPolyline
 66
     1
 10
0.0
 20
0.0
 30
0.0
  0
VERTEX
  5
1E1
330
1E0
100
AcDbEntity
  8
LAGER_1
 62
     7
100
AcDbVertex
100
AcDb2dVertex
 10
100.3299978217328
 20
162.6870012512391
 30
0.0
  0
VERTEX
  5
1E2
330
1E0
100
AcDbEntity
  8
LAGER_1
 62
     7
100
AcDbVertex
100
AcDb2dVertex
 10
100.3299978217328
 20
140.6525042712062
 30
0.0
  0
SEQEND
  5
1E3
330
1E0
100
AcDbEntity
  8
LAGER_1
 62
     7
  0
SPLINE
  5
1E4
330
41
100
AcDbEntity
  8
LAGER_1
 62
     7
100
AcDbSpline
210
0.0
220
0.0
230
1.0
 70
     8
 71
     3
 72
    17
 73
    13
 74
     0
 42
0.0000000001
 43
0.0000000001
 12
1.0
 22
0.0
 32
0.0
 13
1.0
 23
0.0
 33
0.0
 40
0.0
 40
0.0
 40
0.0
 40
0.0
 40
1.0
 40
1.0
 40
1.0
 40
2.0
 40
2.0
 40
2.0
 40
3.0
 40
3.0
 40
3.0
 40
4.0
 40
4.0
 40
4.0
 40
4.0
 10
100.3235059699278
 20
162.6744804823349
 30
0.0
 10
100.9711839211548
 20
161.8107304486424
 30
0.0
 10
102.0989036304811
 20
161.4583294782715
 30
0.0
 10
103.1231520500927
 20
161.7996092497791
 30
0.0
 10
104.1474004697043
 20
162.14089978721
 30
0.0
 10
104.8383574329647
 20
163.0992822875129
 30
0.0
 10
104.8385189218155
 20
164.1788998511265
 30
0.0
 10
104.838669644743
 20
165.2585066488167
 30
0.0
 10
104.1479818295674
 20
166.2170937016641
 30
0.0
 10
103.1238410691898
 20
166.5586749190266
 30
0.0
 10
102.0996895428887
 20
166.9002453704657
 30
0.0
 10
100.9718729402518
 20
166.5481673777965
 30
0.0
 10
100.3239366068635
 20
165.6846111307251
 30
0.0
  0
POLYLINE
  5
1E5
330
41
100
AcDbEntity
  8
LAGER_1
 62
     7
100
AcDb2dPolyline
 66
     1
 10
0.0
 20
0.0
 30
0.0
  0
VERTEX
  5
1E6
330
1E5
100
AcDbEntity
  8
LAGER_1
 62
     7
100
AcDbVertex
100
AcDb2dVertex
 10
142.3035016869719
 20
168.2115025417687
 30
0.0
  0
VERTEX
  5
1E7
330
1E5
100
AcDbEntity
  8
LAGER_1
 62
     7
100
AcDbVertex
100
AcDb2dVertex
 10
100.3299978217328
 20
168.2115025417687
 30
0.0
  0
SEQEND
  5
1E8
330
1E5
100
AcDbEntity
  8
LAGER_1
 62
     7
  0
POLYLINE
  5
1E9
330
41
100
AcDbEntity
  8
LAGER_1
 62
     7
100
AcDb2dPolyline
 66
     1
 10
0.0
 20
0.0
 30
0.0
  0
VERTEX
  5
1EA
330
1E9
100
AcDbEntity
  8
LAGER_1
 62
     7
100
AcDbVertex
100
AcDb2dVertex
 10
100.3299978217328
 20
135.1915003968391
 30
0.0
  0
VERTEX
  5
1EB
330
1E9
100
AcDbEntity
  8
LAGER_1
 62
     7
100
AcDbVertex
100
AcDb2dVertex
 10
142.3035016869719
 20
135.1915003968391
 30
0.0
  0
SEQEND
  5
1EC
330
1E9
100
AcDbEntity
  8
LAGER_1
 62
     7
  0
POLYLINE
  5
1ED
330
41
100
AcDbEntity
  8
LAGER_1
 62
     7
100
AcDb2dPolyline
 66
     1
 10
0.0
 20
0.0
 30
0.0
  0
VERTEX
  5
1EE
330
1ED
100
AcDbEntity
  8
LAGER_1
 62
     7
100
AcDbVertex
100
AcDb2dVertex
 10
69.72299976725078
 20
35.68700128298906
 30
0.0
  0
VERTEX
  5
1EF
330
1ED
100
AcDbEntity
  8
LAGER_1
 62
     7
100
AcDbVertex
100
AcDb2dVertex
 10
50.67299977201328
 20
35.68700128298906
 30
0.0
  0
VERTEX
  5
1F0
330
1ED
100
AcDbEntity
  8
LAGER_1
 62
     7
100
AcDbVertex
100
AcDb2dVertex
 10
50.67299977201328
 20
20.70100010248398
 30
0.0
  0
VERTEX
  5
1F1
330
1ED
100
AcDbEntity
  8
LAGER_1
 62
     7
100
AcDbVertex
100
AcDb2dVertex
 10
43.6879986971672
 20
20.70100010248398
 30
0.0
  0
VERTEX
  5
1F2
330
1ED
100
AcDbEntity
  8
LAGER_1
 62
     7
100
AcDbVertex
100
AcDb2dVertex
 10
43.6879986971672
 20
13.65250026573496
 30
0.0
  0
VERTEX
  5
1F3
330
1ED
100
AcDbEntity
  8
LAGER_1
 62
     7
100
AcDbVertex
100
AcDb2dVertex
 10
76.70800084209688
 20
13.65250026573496
 30
0.0
  0
VERTEX
  5
1F4
330
1ED
100
AcDbEntity
  8
LAGER_1
 62
     7
100
AcDbVertex
100
AcDb2dVertex
 10
76.70800084209688
 20
20.70100010248398
 30
0.0
  0
VERTEX
  5
1F5
330
1ED
100
AcDbEntity
  8
LAGER_1
 62
     7
100
AcDbVertex
100
AcDb2dVertex
 10
69.72299976725078
 20
20.70100010248398
 30
0.0
  0
VERTEX
  5
1F6
330
1ED
100
AcDbEntity
  8
LAGER_1
 62
     7
100
AcDbVertex
100
AcDb2dVertex
 10
69.72299976725078
 20
35.68700128298906
 30
0.0
  0
SEQEND
  5
1F7
330
1ED
100
AcDbEntity
  8
LAGER_1
 62
     7
  0
POLYLINE
  5
1F8
330
41
100
AcDbEntity
  8
LAGER_1
 62
     7
100
AcDb2dPolyline
 66
     1
 10
0.0
 20
0.0
 30
0.0
  0
VERTEX
  5
1F9
330
1F8
100
AcDbEntity
  8
LAGER_1
 62
     7
100
AcDbVertex
100
AcDb2dVertex
 10
156.717996515725
 20
155.0035016837969
 30
0.0
  0
VERTEX
  5
1FA
330
1F8
100
AcDbEntity
  8
LAGER_1
 62
     7
100
AcDbVertex
100
AcDb2dVertex
 10
156.717996515725
 20
136.0169991047219
 30
0.0
  0
VERTEX
  5
1FB
330
1F8
100
AcDbEntity
  8
LAGER_1
 62
     7
100
AcDbVertex
100
AcDb2dVertex
 10
171.7040003877109
 20
136.0169991047219
 30
0.0
  0
VERTEX
  5
1FC
330
1F8
100
AcDbEntity
  8
LAGER_1
 62
     7
100
AcDbVertex
100
AcDb2dVertex
 10
171.7040003877109
 20
129.0320034128375
 30
0.0
  0
VERTEX
  5
1FD
330
1F8
100
AcDbEntity
  8
LAGER_1
 62
     7
100
AcDbVertex
100
AcDb2dVertex
 10
178.6889960795953
 20
129.0320034128375
 30
0.0
  0
VERTEX
  5
1FE
330
1F8
100
AcDbEntity
  8
LAGER_1
 62
     7
100
AcDbVertex
100
AcDb2dVertex
 10
178.6889960795953
 20
162.0519947918438
 30
0.0
  0
VERTEX
  5
1FF
330
1F8
100
AcDbEntity
  8
LAGER_1
 62
     7
100
AcDbVertex
100
AcDb2dVertex
 10
171.7040003877109
 20
162.0519947918438
 30
0.0
  0
VERTEX
  5
200
330
1F8
100
AcDbEntity
  8
LAGER_1
 62
     7
100
AcDbVertex
100
AcDb2dVertex
 10
171.7040003877109
 20
155.0035016837969
 30
0.0
  0
VERTEX
  5
201
330
1F8
100
AcDbEntity
  8
LAGER_1
 62
     7
100
AcDbVertex
100
AcDb2dVertex
 10
156.717996515725
 20
155.0035016837969
 30
0.0
  0
SEQEND
  5
202
330
1F8
100
AcDbEntity
  8
LAGER_1
 62
     7
  0
POLYLINE
  5
203
330
41
100
AcDbEntity
  8
LAGER_1
100
AcDb2dPolyline
 66
     1
 10
0.0
 20
0.0
 30
0.0
  0
VERTEX
  5
204
330
203
100
AcDbEntity
  8
LAGER_1
100
AcDbVertex
100
AcDb2dVertex
 10
0.0
 20
0.0
 30
0.0
  0
VERTEX
  5
205
330
203
100
AcDbEntity
  8
LAGER_1
100
AcDbVertex
100
AcDb2dVertex
 10
0.0
 20
255.0160016587938
 30
0.0
  0
VERTEX
  5
206
330
203
100
AcDbEntity
  8
LAGER_1
100
AcDbVertex
100
AcDb2dVertex
 10
375.0309844033126
 20
255.0160016587938
 30
0.0
  0
VERTEX
  5
207
330
203
100
AcDbEntity
  8
LAGER_1
100
AcDbVertex
100
AcDb2dVertex
 10
375.0309844033126
 20
0.0
 30
0.0
  0
VERTEX
  5
208
330
203
100
AcDbEntity
  8
LAGER_1
100
AcDbVertex
100
AcDb2dVertex
 10
0.0
 20
0.0
 30
0.0
  0
SEQEND
  5
209
330
203
100
AcDbEntity
  8
LAGER_1
  0
ENDBLK
  5
44
330
41
100
AcDbEntity
  8
0
100
AcDbBlockEnd
  0
ENDSEC
  0
SECTION
  2
ENTITIES
  0
INSERT
  5
42
330
1F
100
AcDbEntity
  8
LAGER_1
100
AcDbBlockReference
  2
BLOCK_2
 10
0.0
 20
0.0
 30
0.0
  0
ENDSEC
  0
SECTION
  2
OBJECTS
  0
DICTIONARY
  5
C
330
0
100
AcDbDictionary
  3
ACAD_GROUP
350
D
  3
ACAD_LAYOUT
350
1A
  3
ACAD_MATERIAL
350
3B
  3
ACAD_MLEADERSTYLE
350
20C
  3
ACAD_MLINESTYLE
350
17
  3
ACAD_PLOTSETTINGS
350
19
  3
ACAD_VISUALSTYLE
350
2A
  3
ACDBVARIABLEDICTIONARY
350
20A
1001
ACAD
1000
TREAT_AS_HARD
1070
     0
  0
DICTIONARY
  5
D
102
{ACAD_REACTORS
330
C
102
}
330
C
100
AcDbDictionary
1001
ACAD
1000
TREAT_AS_HARD
1070
     0
  0
DICTIONARY
  5
1A
102
{ACAD_REACTORS
330
C
102
}
330
C
100
AcDbDictionary
1001
ACAD
1000
TREAT_AS_HARD
1070
     0
  0
DICTIONARY
  5
3B
102
{ACAD_REACTORS
330
C
102
}
330
C
100
AcDbDictionary
  3
BYBLOCK
350
3D
  3
BYLAYER
350
3C
  3
GLOBAL
350
3E
1001
ACAD
1000
TREAT_AS_HARD
1070
     0
  0
DICTIONARY
  5
20C
102
{ACAD_REACTORS
330
C
102
}
330
C
100
AcDbDictionary
1001
ACAD
1000
TREAT_AS_HARD
1070
     0
  0
DICTIONARY
  5
17
102
{ACAD_REACTORS
330
C
102
}
330
C
100
AcDbDictionary
  3
STANDARD
350
18
1001
ACAD
1000
TREAT_AS_HARD
1070
     0
  0
DICTIONARY
  5
19
102
{ACAD_REACTORS
330
C
102
}
330
C
100
AcDbDictionary
1001
ACAD
1000
TREAT_AS_HARD
1070
     0
  0
DICTIONARY
  5
2A
102
{ACAD_REACTORS
330
C
102
}
330
C
100
AcDbDictionary
  3
2DWIREFRAME
350
2F
  3
3D_HIDDEN
350
31
  3
3DWIREFRAME
350
30
  3
BASIC
350
32
  3
BRIGHTEN
350
36
  3
COLORCHANGE
350
3A
  3
CONCEPTUAL
350
34
  3
DIM
350
35
  3
FACEPATTERN
350
39
  3
FLAT
350
2B
  3
FLATWITHEDGES
350
2C
  3
GOURAUD
350
2D
  3
GOURAUDWITHEDGES
350
2E
  3
LINEPATTERN
350
38
  3
REALISTIC
350
33
  3
THICKEN
350
37
1001
ACAD
1000
TREAT_AS_HARD
1070
     0
  0
DICTIONARY
  5
20A
102
{ACAD_REACTORS
330
C
102
}
330
C
100
AcDbDictionary
  3
DIMASSOC
350
20D
  3
HIDETEXT
350
20E
1001
ACAD
1000
TREAT_AS_HARD
1070
     0
  0
MATERIAL
  5
3D
102
{ACAD_REACTORS
330
3B
102
}
102
{ACAD_XDICTIONARY
360
211
102
}
330
3B
100
AcDbMaterial
  1
ByBlock
  0
MATERIAL
  5
3C
102
{ACAD_REACTORS
330
3B
102
}
102
{ACAD_XDICTIONARY
360
20F
102
}
330
3B
100
AcDbMaterial
  1
ByLayer
  0
MATERIAL
  5
3E
102
{ACAD_REACTORS
330
3B
102
}
102
{ACAD_XDICTIONARY
360
213
102
}
330
3B
100
AcDbMaterial
  1
Global
  0
MLINESTYLE
  5
18
102
{ACAD_REACTORS
330
17
102
}
330
17
100
AcDbMlineStyle
  2
Standard
 70
     0
  3

 62
   256
 51
90.0
 52
90.0
 71
     2
 49
0.5
 62
   256
  6
BYLAYER
 49
-0.5
 62
   256
  6
BYLAYER
  0
ACAD_PROXY_OBJECT
  5
2F
102
{ACAD_REACTORS
330
2A
102
}
330
2A
100
AcDbZombieObject
 90
      499
 91
      501
 93
      436
310
42CC9915DA5C99599C985B595049028333333333333E3BF0000000000000FB0107901411070040501600405405064090741402480A0340
1001
ACAD
1000
AcDbSavedByObjectVersion
1070
     0
  0
ACAD_PROXY_OBJECT
  5
31
102
{ACAD_REACTORS
330
2A
102
}
330
2A
100
AcDbZombieObject
 90
      499
 91
      501
 93
      500
310
424CD108121A5919195B90640502408333333333333E3BF0000000000000FB01079024090700405020000000000001110200405405064090740C02480A0340
1001
ACAD
1000
AcDbSavedByObjectVersion
1070
     0
  0
ACAD_PROXY_OBJECT
  5
30
102
{ACAD_REACTORS
330
2A
102
}
330
2A
100
AcDbZombieObject
 90
      499
 91
      501
 93
      436
310
42CCD915DA5C99599C985B595059028333333333333E3BF0000000000000FB0107901411070040501600405405064090741402480A0340
1001
ACAD
1000
AcDbSavedByObjectVersion
1070
     0
  0
ACAD_PROXY_OBJECT
  5
32
102
{ACAD_REACTORS
330
2A
102
}
330
2A
100
AcDbZombieObject
 90
      499
 91
      501
 93
      388
310
4150985CDA58D07406404333333333333E3BF0000000000000FB0107A41107004050150841D405064090741402480A0350
1001
ACAD
1000
AcDbSavedByObjectVersion
1070
     0
  0
ACAD_PROXY_OBJECT
  5
36
102
{ACAD_REACTORS
330
2A
102
}
330
2A
100
AcDbZombieObject
 90
      499
 91
      501
 93
      428
310
42109C9A59DA1D195B90C409028333333333333E3BF0000000000000FB010790141107004050150841D405064090741402480A029950
1001
ACAD
1000
AcDbSavedByObjectVersion
1070
     0
  0
ACAD_PROXY_OBJECT
  5
3A
102
{ACAD_REACTORS
330
2A
102
}
330
2A
100
AcDbZombieObject
 90
      499
 91
      501
 93
      452
310
42D0DBDB1BDC90DA185B99D95104090240C333333333333E3BF0000000000000FB0108901411070040501508421405064090741402480A0350
1001
ACAD
1000
AcDbSavedByObjectVersion
1070
     0
  0
ACAD_PROXY_OBJECT
  5
34
102
{ACAD_REACTORS
330
2A
102
}
330
2A
100
AcDbZombieObject
 90
      499
 91
      501
 93
      500
310
4290DBDB98D95C1D1D585B10940D028333333333333E3BF0000000000000FB0107902409070040501000000000000111010841D405064090740C02480A0340
1001
ACAD
1000
AcDbSavedByObjectVersion
1070
     0
  0
ACAD_PROXY_OBJECT
  5
35
102
{ACAD_REACTORS
330
2A
102
}
330
2A
100
AcDbZombieObject
 90
      499
 91
      501
 93
      412
310
40D11A5B50B409028333333333333E3BF0000000000000FB010790141107004050150841D405064090741402480A02677FFFFFD0
1001
ACAD
1000
AcDbSavedByObjectVersion
1070
     0
  0
ACAD_PROXY_OBJECT
  5
39
102
{ACAD_REACTORS
330
2A
102
}
330
2A
100
AcDbZombieObject
 90
      499
 91
      501
 93
      444
310
42D19858D95C185D1D195C9B90F409028333333333333E3BF0000000000000FB010790141107004050150841D405064090741402480A0350
1001
ACAD
1000
AcDbSavedByObjectVersion
1070
     0
  0
ACAD_PROXY_OBJECT
  5
2B
102
{ACAD_REACTORS
330
2A
102
}
330
2A
100
AcDbZombieObject
 90
      499
 91
      501
 93
      388
310
41119B185D240901404333333333333E3BF0000000000000F9010740A41107004050150841D405064090741402480A1B50
1001
ACAD
1000
AcDbSavedByObjectVersion
1070
     0
  0
ACAD_PROXY_OBJECT
  5
2C
102
{ACAD_REACTORS
330
2A
102
}
330
2A
100
AcDbZombieObject
 90
      499
 91
      501
 93
      476
310
43519B185D15DA5D1A115919D95CD0140901404333333333333E3BF0000000000000F9010740901411070040501600405405064090741402480A1B50
1001
ACAD
1000
AcDbSavedByObjectVersion
1070
     0
  0
ACAD_PROXY_OBJECT
  5
2D
102
{ACAD_REACTORS
330
2A
102
}
330
2A
100
AcDbZombieObject
 90
      499
 91
      501
 93
      412
310
41D1DBDD5C985D5910240902404333333333333E3BF0000000000000F9010740A411070040501641D405064090741402480A1B50
1001
ACAD
1000
AcDbSavedByObjectVersion
1070
     0
  0
ACAD_PROXY_OBJECT
  5
2E
102
{ACAD_REACTORS
330
2A
102
}
330
2A
100
AcDbZombieObject
 90
      499
 91
      501
 93
      500
310
4411DBDD5C985D5915DA5D1A115919D95CD0340902404333333333333E3BF0000000000000F9010740901411070040501600405405064090741402480A1B50
1001
ACAD
1000
AcDbSavedByObjectVersion
1070
     0
  0
ACAD_PROXY_OBJECT
  5
38
102
{ACAD_REACTORS
330
2A
102
}
330
2A
100
AcDbZombieObject
 90
      499
 91
      501
 93
      444
310
42D31A5B995C185D1D195C9B90E409028333333333333E3BF0000000000000FB010790141107004050750841D405064090741402483A0350
1001
ACAD
1000
AcDbSavedByObjectVersion
1070
     0
  0
ACAD_PROXY_OBJECT
  5
33
102
{ACAD_REACTORS
330
2A
102
}
330
2A
100
AcDbZombieObject
 90
      499
 91
      501
 93
      420
310
425499585B1A5CDD1A58D08409028333333333333E3BF0000000000000FB01079019070040501508421405064090741402480A1B40
1001
ACAD
1000
AcDbSavedByObjectVersion
1070
     0
  0
ACAD_PROXY_OBJECT
  5
37
102
{ACAD_REACTORS
330
2A
102
}
330
2A
100
AcDbZombieObject
 90
      499
 91
      501
 93
      412
310
41D51A1A58DAD95B90D409028333333333333E3BF0000000000000FB010790141107004050150C41D405064090741402480A0350
1001
ACAD
1000
AcDbSavedByObjectVersion
1070
     0
  0
DICTIONARYVAR
  5
20D
102
{ACAD_REACTORS
330
20A
102
}
330
20A
100
DictionaryVariables
280
     0
  1
2
  0
DICTIONARYVAR
  5
20E
102
{ACAD_REACTORS
330
20A
102
}
330
20A
100
DictionaryVariables
280
     0
  1
1
  0
DICTIONARY
  5
211
330
3D
100
AcDbDictionary
  3
ACAD_XREC_ROUNDTRIP
360
212
1001
ACAD
1000
TREAT_AS_HARD
1070
     1
  0
DICTIONARY
  5
20F
330
3C
100
AcDbDictionary
  3
ACAD_XREC_ROUNDTRIP
360
210
1001
ACAD
1000
TREAT_AS_HARD
1070
     1
  0
DICTIONARY
  5
213
330
3E
100
AcDbDictionary
  3
ACAD_XREC_ROUNDTRIP
360
214
1001
ACAD
1000
TREAT_AS_HARD
1070
     1
  0
XRECORD
  5
212
102
{ACAD_REACTORS
330
211
102
}
330
211
100
AcDbXrecord
102
MATERIAL
148
0.0
149
0.0
149
0.0
 93
        0
 94
      127
282
     0
 72
     1
 77
     1
171
     1
175
     1
179
     1
273
     0
  0
XRECORD
  5
210
102
{ACAD_REACTORS
330
20F
102
}
330
20F
100
AcDbXrecord
102
MATERIAL
148
0.0
149
0.0
149
0.0
 93
        0
 94
      127
282
     0
 72
     1
 77
     1
171
     1
175
     1
179
     1
273
     0
  0
XRECORD
  5
214
102
{ACAD_REACTORS
330
213
102
}
330
213
100
AcDbXrecord
102
MATERIAL
148
0.0
149
0.0
149
0.0
 93
        0
 94
      127
282
     0
 72
     1
 77
     1
171
     1
175
     1
179
     1
273
     0
  0
ENDSEC
  0
EOF
