  0
SECTION
  2
HEADER
  9
$ACADVER
  1
AC1012
  9
$DWGCODEPAGE
  3
ansi_1252
  9
$INSBASE
 10
0.0
 20
0.0
 30
0.0
  9
$EXTMIN
 10
1.000000000000000E+20
 20
1.000000000000000E+20
 30
1.000000000000000E+20
  9
$EXTMAX
 10
-1.000000000000000E+20
 20
-1.000000000000000E+20
 30
-1.000000000000000E+20
  9
$LIMMIN
 10
0.0
 20
0.0
  9
$LIMMAX
 10
12.0
 20
9.0
  9
$ORTHOMODE
 70
     0
  9
$REGENMODE
 70
     1
  9
$FILLMODE
 70
     1
  9
$QTEXTMODE
 70
     0
  9
$MIRRTEXT
 70
     1
  9
$DRAGMODE
 70
     2
  9
$LTSCALE
 40
1.0
  9
$OSMODE
 70
    37
  9
$ATTMODE
 70
     1
  9
$TEXTSIZE
 40
0.2
  9
$TRACEWID
 40
0.05
  9
$TEXTSTYLE
  7
STANDARD
  9
$CLAYER
  8
0
  9
$CELTYPE
  6
BYLAYER
  9
$CECOLOR
 62
   256
  9
$CELTSCALE
 40
1.0
  9
$DELOBJ
 70
     1
  9
$DISPSILH
 70
     0
  9
$DIMSCALE
 40
1.0
  9
$DIMASZ
 40
0.18
  9
$DIMEXO
 40
0.0625
  9
$DIMDLI
 40
0.38
  9
$DIMRND
 40
0.0
  9
$DIMDLE
 40
0.0
  9
$DIMEXE
 40
0.18
  9
$DIMTP
 40
0.0
  9
$DIMTM
 40
0.0
  9
$DIMTXT
 40
0.18
  9
$DIMCEN
 40
0.09
  9
$DIMTSZ
 40
0.0
  9
$DIMTOL
 70
     0
  9
$DIMLIM
 70
     0
  9
$DIMTIH
 70
     1
  9
$DIMTOH
 70
     1
  9
$DIMSE1
 70
     0
  9
$DIMSE2
 70
     0
  9
$DIMTAD
 70
     0
  9
$DIMZIN
 70
     0
  9
$DIMBLK
  1

  9
$DIMASO
 70
     1
  9
$DIMSHO
 70
     1
  9
$DIMPOST
  1

  9
$DIMAPOST
  1

  9
$DIMALT
 70
     0
  9
$DIMALTD
 70
     2
  9
$DIMALTF
 40
25.4
  9
$DIMLFAC
 40
1.0
  9
$DIMTOFL
 70
     0
  9
$DIMTVP
 40
0.0
  9
$DIMTIX
 70
     0
  9
$DIMSOXD
 70
     0
  9
$DIMSAH
 70
     0
  9
$DIMBLK1
  1

  9
$DIMBLK2
  1

  9
$DIMSTYLE
  2
STANDARD
  9
$DIMCLRD
 70
     0
  9
$DIMCLRE
 70
     0
  9
$DIMCLRT
 70
     0
  9
$DIMTFAC
 40
1.0
  9
$DIMGAP
 40
0.09
  9
$DIMJUST
 70
     0
  9
$DIMSD1
 70
     0
  9
$DIMSD2
 70
     0
  9
$DIMTOLJ
 70
     1
  9
$DIMTZIN
 70
     0
  9
$DIMALTZ
 70
     0
  9
$DIMALTTZ
 70
     0
  9
$DIMFIT
 70
     3
  9
$DIMUPT
 70
     0
  9
$DIMUNIT
 70
     2
  9
$DIMDEC
 70
     4
  9
$DIMTDEC
 70
     4
  9
$DIMALTU
 70
     2
  9
$DIMALTTD
 70
     2
  9
$DIMTXSTY
  7
STANDARD
  9
$DIMAUNIT
 70
     0
  9
$LUNITS
 70
     2
  9
$LUPREC
 70
     4
  9
$SKETCHINC
 40
0.1
  9
$FILLETRAD
 40
0.5
  9
$AUNITS
 70
     0
  9
$AUPREC
 70
     0
  9
$MENU
  1
.
  9
$ELEVATION
 40
0.0
  9
$PELEVATION
 40
0.0
  9
$THICKNESS
 40
0.0
  9
$LIMCHECK
 70
     0
  9
$CHAMFERA
 40
0.5
  9
$CHAMFERB
 40
0.5
  9
$CHAMFERC
 40
1.0
  9
$CHAMFERD
 40
0.0
  9
$SKPOLY
 70
     0
  9
$TDCREATE
 40
2457802.896696562
  9
$TDUPDATE
 40
2457802.89669662
  9
$TDINDWG
 40
0.0000000116
  9
$TDUSRTIMER
 40
0.0000000116
  9
$USRTIMER
 70
     1
  9
$ANGBASE
 50
0.0
  9
$ANGDIR
 70
     0
  9
$PDMODE
 70
     0
  9
$PDSIZE
 40
0.0
  9
$PLINEWID
 40
0.0
  9
$COORDS
 70
     1
  9
$SPLFRAME
 70
     0
  9
$SPLINETYPE
 70
     6
  9
$SPLINESEGS
 70
     8
  9
$ATTDIA
 70
     0
  9
$ATTREQ
 70
     1
  9
$HANDLING
 70
     1
  9
$HANDSEED
  5
215
  9
$SURFTAB1
 70
     6
  9
$SURFTAB2
 70
     6
  9
$SURFTYPE
 70
     6
  9
$SURFU
 70
     6
  9
$SURFV
 70
     6
  9
$UCSNAME
  2

  9
$UCSORG
 10
0.0
 20
0.0
 30
0.0
  9
$UCSXDIR
 10
1.0
 20
0.0
 30
0.0
  9
$UCSYDIR
 10
0.0
 20
1.0
 30
0.0
  9
$PUCSNAME
  2

  9
$PUCSORG
 10
0.0
 20
0.0
 30
0.0
  9
$PUCSXDIR
 10
1.0
 20
0.0
 30
0.0
  9
$PUCSYDIR
 10
0.0
 20
1.0
 30
0.0
  9
$USERI1
 70
     0
  9
$USERI2
 70
     0
  9
$USERI3
 70
     0
  9
$USERI4
 70
     0
  9
$USERI5
 70
     0
  9
$USERR1
 40
0.0
  9
$USERR2
 40
0.0
  9
$USERR3
 40
0.0
  9
$USERR4
 40
0.0
  9
$USERR5
 40
0.0
  9
$WORLDVIEW
 70
     1
  9
$SHADEDGE
 70
     3
  9
$SHADEDIF
 70
    70
  9
$TILEMODE
 70
     1
  9
$MAXACTVP
 70
    64
  9
$PINSBASE
 10
0.0
 20
0.0
 30
0.0
  9
$PLIMCHECK
 70
     0
  9
$PEXTMIN
 10
1.000000000000000E+20
 20
1.000000000000000E+20
 30
1.000000000000000E+20
  9
$PEXTMAX
 10
-1.000000000000000E+20
 20
-1.000000000000000E+20
 30
-1.000000000000000E+20
  9
$PLIMMIN
 10
0.0
 20
0.0
  9
$PLIMMAX
 10
12.0
 20
9.0
  9
$UNITMODE
 70
     0
  9
$VISRETAIN
 70
     1
  9
$PLINEGEN
 70
     0
  9
$PSLTSCALE
 70
     1
  9
$TREEDEPTH
 70
  3020
  9
$PICKSTYLE
 70
     1
  9
$CMLSTYLE
  2
STANDARD
  9
$CMLJUST
 70
     0
  9
$CMLSCALE
 40
1.0
  9
$SAVEIMAGES
 70
     1
  0
ENDSEC
  0
SECTION
  2
CLASSES
  0
CLASS
  1
ACDBDICTIONARYWDFLT
  2
AcDbDictionaryWithDefault
  3
ObjectDBX Classes
 90
    32768
280
     0
281
     0
  0
CLASS
  1
VISUALSTYLE
  2
AcDbVisualStyle
  3
ObjectDBX Classes
 90
     4095
280
     0
281
     0
  0
CLASS
  1
MATERIAL
  2
AcDbMaterial
  3
ObjectDBX Classes
 90
     1153
280
     0
281
     0
  0
CLASS
  1
SUN
  2
AcDbSun
  3
SCENEOE
 90
     1024
280
     0
281
     0
  0
CLASS
  1
DICTIONARYVAR
  2
AcDbDictionaryVar
  3
ObjectDBX Classes
 90
        0
280
     0
281
     0
  0
CLASS
  1
XRECORD
  2
AcDbXrecord
  3
AutoCAD 2000
 90
    32768
280
     0
281
     0
  0
CLASS
  1
LWPOLYLINE
  2
AcDbPolyline
  3
AutoCAD 2000
 90
    32768
280
     0
281
     1
  0
CLASS
  1
HATCH
  2
AcDbHatch
  3
AutoCAD 2000
 90
    32768
280
     0
281
     1
  0
CLASS
  1
ACDBPLACEHOLDER
  2
AcDbPlaceHolder
  3
ObjectDBX Classes
 90
        0
280
     0
281
     0
  0
CLASS
  1
LAYOUT
  2
AcDbLayout
  3
ObjectDBX Classes
 90
        0
280
     0
281
     0
  0
ENDSEC
  0
SECTION
  2
TABLES
  0
TABLE
  2
VPORT
  5
8
330
0
100
AcDbSymbolTable
 70
     1
  0
VPORT
  5
29
330
8
100
AcDbSymbolTableRecord
100
AcDbViewportTableRecord
  2
*ACTIVE
 70
     0
 10
0.0
 20
0.0
 11
1.0
 21
1.0
 12
0.0
 22
0.0
 13
0.0
 23
0.0
 14
0.5
 24
0.5
 15
0.5
 25
0.5
 16
0.0
 26
0.0
 36
1.0
 17
125.0597221909573
 27
85.01944442318958
 37
0.0
 40
170.0388888463792
 41
1.470954356846473
 42
50.0
 43
0.0
 44
0.0
 50
0.0
 51
0.0
 71
     0
 72
   100
 73
     1
 74
     3
 75
     0
 76
     0
 77
     0
 78
     0
  0
ENDTAB
  0
TABLE
  2
LTYPE
  5
5
330
0
100
AcDbSymbolTable
 70
     1
  0
LTYPE
  5
14
330
5
100
AcDbSymbolTableRecord
100
AcDbLinetypeTableRecord
  2
BYBLOCK
 70
     0
  3

 72
    65
 73
     0
 40
0.0
  0
LTYPE
  5
15
330
5
100
AcDbSymbolTableRecord
100
AcDbLinetypeTableRecord
  2
BYLAYER
 70
     0
  3

 72
    65
 73
     0
 40
0.0
  0
LTYPE
  5
16
330
5
100
AcDbSymbolTableRecord
100
AcDbLinetypeTableRecord
  2
CONTINUOUS
 70
     0
  3
Solid line
 72
    65
 73
     0
 40
0.0
  0
ENDTAB
  0
TABLE
  2
LAYER
  5
2
330
0
100
AcDbSymbolTable
 70
     2
  0
LAYER
  5
10
330
2
100
AcDbSymbolTableRecord
100
AcDbLayerTableRecord
  2
0
 70
     0
 62
     7
  6
CONTINUOUS
  0
LAYER
  5
40
330
2
100
AcDbSymbolTableRecord
100
AcDbLayerTableRecord
  2
LAGER_1
 70
     0
 62
     7
  6
CONTINUOUS
  0
ENDTAB
  0
TABLE
  2
STYLE
  5
3
330
0
100
AcDbSymbolTable
 70
     1
  0
STYLE
  5
11
330
3
100
AcDbSymbolTableRecord
100
AcDbTextStyleTableRecord
  2
STANDARD
 70
     0
 40
0.0
 41
1.0
 50
0.0
 71
     0
 42
0.2
  3
txt
  4

  0
ENDTAB
  0
TABLE
  2
VIEW
  5
6
330
0
100
AcDbSymbolTable
 70
     0
  0
ENDTAB
  0
TABLE
  2
UCS
  5
7
330
0
100
AcDbSymbolTable
 70
     0
  0
ENDTAB
  0
TABLE
  2
APPID
  5
9
330
0
100
AcDbSymbolTable
 70
     1
  0
APPID
  5
12
330
9
100
AcDbSymbolTableRecord
100
AcDbRegAppTableRecord
  2
ACAD
 70
     0
  0
ENDTAB
  0
TABLE
  2
DIMSTYLE
  5
A
330
0
100
AcDbSymbolTable
 70
     1
  0
DIMSTYLE
105
27
330
A
100
AcDbSymbolTableRecord
100
AcDbDimStyleTableRecord
  2
STANDARD
 70
     0
  3

  4

  5

  6

  7

 40
1.0
 41
0.18
 42
0.0625
 43
0.38
 44
0.18
 45
0.0
 46
0.0
 47
0.0
 48
0.0
140
0.18
141
0.09
142
0.0
143
25.4
144
1.0
145
0.0
146
1.0
147
0.09
 71
     0
 72
     0
 73
     1
 74
     1
 75
     0
 76
     0
 77
     0
 78
     0
170
     0
171
     2
172
     0
173
     0
174
     0
175
     0
176
     0
177
     0
178
     0
270
     2
271
     4
272
     4
273
     2
274
     2
340
11
275
     0
280
     0
281
     0
282
     0
283
     1
284
     0
285
     0
286
     0
287
     3
288
     0
  0
ENDTAB
  0
TABLE
  2
BLOCK_RECORD
  5
1
330
0
100
AcDbSymbolTable
 70
     2
  0
BLOCK_RECORD
  5
1F
330
1
100
AcDbSymbolTableRecord
100
AcDbBlockTableRecord
  2
*MODEL_SPACE
  0
BLOCK_RECORD
  5
1B
330
1
100
AcDbSymbolTableRecord
100
AcDbBlockTableRecord
  2
*PAPER_SPACE
  0
BLOCK_RECORD
  5
41
330
1
100
AcDbSymbolTableRecord
100
AcDbBlockTableRecord
  2
BLOCK_2
  0
ENDTAB
  0
ENDSEC
  0
SECTION
  2
BLOCKS
  0
BLOCK
  5
20
330
1F
100
AcDbEntity
  8
0
100
AcDbBlockBegin
  2
*MODEL_SPACE
 70
     0
 10
0.0
 20
0.0
 30
0.0
  3
*MODEL_SPACE
  1

  0
ENDBLK
  5
21
330
1F
100
AcDbEntity
  8
0
100
AcDbBlockEnd
  0
BLOCK
  5
1C
330
1B
100
AcDbEntity
 67
     1
  8
0
100
AcDbBlockBegin
  2
*PAPER_SPACE
 70
     0
 10
0.0
 20
0.0
 30
0.0
  3
*PAPER_SPACE
  1

  0
ENDBLK
  5
1D
330
1B
100
AcDbEntity
 67
     1
  8
0
100
AcDbBlockEnd
  0
BLOCK
  5
43
330
41
100
AcDbEntity
  8
0
100
AcDbBlockBegin
  2
BLOCK_2
 70
     0
 10
0.0
 20
0.0
 30
0.0
  3
BLOCK_2
  1

  0
POLYLINE
  5
45
330
41
100
AcDbEntity
  8
LAGER_1
 62
     7
100
AcDb2dPolyline
 66
     1
 10
0.0
 20
0.0
 30
0.0
  0
VERTEX
  5
46
330
45
100
AcDbEntity
  8
LAGER_1
 62
     7
100
AcDbVertex
100
AcDb2dVertex
 10
110.8075021254828
 20
96.0120012679078
 30
0.0
  0
VERTEX
  5
47
330
45
100
AcDbEntity
  8
LAGER_1
 62
     7
100
AcDbVertex
100
AcDb2dVertex
 10
113.5379986797047
 20
88.51899933191486
 30
0.0
  0
VERTEX
  5
48
330
45
100
AcDbEntity
  8
LAGER_1
 62
     7
100
AcDbVertex
100
AcDb2dVertex
 10
82.54999997936251
 20
77.21600170324375
 30
0.0
  0
SEQEND
  5
49
330
45
100
AcDbEntity
  8
LAGER_1
 62
     7
  0
SPLINE
  5
4A
330
41
100
AcDbEntity
  8
LAGER_1
 62
     7
100
AcDbSpline
210
0.0
220
0.0
230
1.0
 70
     8
 71
     3
 72
    17
 73
    13
 74
     0
 42
0.0000000001
 43
0.0000000001
 12
1.0
 22
0.0
 32
0.0
 13
1.0
 23
0.0
 33
0.0
 40
0.0
 40
0.0
 40
0.0
 40
0.0
 40
1.0
 40
1.0
 40
1.0
 40
2.0
 40
2.0
 40
2.0
 40
3.0
 40
3.0
 40
3.0
 40
4.0
 40
4.0
 40
4.0
 40
4.0
 10
182.3400975089397
 20
61.53149933866172
 30
0.0
 10
183.1642289445518
 20
61.5314132112746
 30
0.0
 10
183.8323836820693
 20
62.19940645994114
 30
0.0
 10
183.8324913413032
 20
63.02352712962986
 30
0.0
 10
183.8326205323839
 20
63.84764779931858
 30
0.0
 10
183.1646595814875
 20
64.51584021756787
 30
0.0
 10
182.3405496777222
 20
64.51599632345705
 30
0.0
 10
181.5164182421101
 20
64.51615781230792
 30
0.0
 10
180.8481989090523
 20
63.84822915918172
 30
0.0
 10
180.8480051224312
 20
63.02411387245469
 30
0.0
 10
180.8477898039634
 20
62.19999320276597
 30
0.0
 10
181.5156861593194
 20
61.53174157193803
 30
0.0
 10
182.3398175949316
 20
61.53149933866172
 30
0.0
  0
SPLINE
  5
4B
330
41
100
AcDbEntity
  8
LAGER_1
 62
     7
100
AcDbSpline
210
0.0
220
0.0
230
1.0
 70
     8
 71
     3
 72
    17
 73
    13
 74
     0
 42
0.0000000001
 43
0.0000000001
 12
1.0
 22
0.0
 32
0.0
 13
1.0
 23
0.0
 33
0.0
 40
0.0
 40
0.0
 40
0.0
 40
0.0
 40
1.0
 40
1.0
 40
1.0
 40
2.0
 40
2.0
 40
2.0
 40
3.0
 40
3.0
 40
3.0
 40
4.0
 40
4.0
 40
4.0
 40
4.0
 10
111.1565979573725
 20
81.85150148676641
 30
0.0
 10
111.9807186270613
 20
81.85141535937927
 30
0.0
 10
112.6488733645787
 20
82.51940860804582
 30
0.0
 10
112.6490025556594
 20
83.34352927773455
 30
0.0
 10
112.6491209808167
 20
84.16764994742326
 30
0.0
 10
111.9811600299203
 20
84.83584236567255
 30
0.0
 10
111.1570393602316
 20
84.83599847156172
 30
0.0
 10
110.3329186905429
 20
84.8361599604126
 30
0.0
 10
109.6646993574851
 20
84.16823130728639
 30
0.0
 10
109.6644948049406
 20
83.34411602055937
 30
0.0
 10
109.6643010183196
 20
82.51999535087066
 30
0.0
 10
110.3321973736756
 20
81.8517437200427
 30
0.0
 10
111.1563180433644
 20
81.85150148676641
 30
0.0
  0
SPLINE
  5
4C
330
41
100
AcDbEntity
  8
LAGER_1
 62
     7
100
AcDbSpline
210
0.0
220
0.0
230
1.0
 70
     8
 71
     3
 72
    17
 73
    13
 74
     0
 42
0.0000000001
 43
0.0000000001
 12
1.0
 22
0.0
 32
0.0
 13
1.0
 23
0.0
 33
0.0
 40
0.0
 40
0.0
 40
0.0
 40
0.0
 40
1.0
 40
1.0
 40
1.0
 40
2.0
 40
2.0
 40
2.0
 40
3.0
 40
3.0
 40
3.0
 40
4.0
 40
4.0
 40
4.0
 40
4.0
 10
122.9676018301522
 20
125.9839874800329
 30
0.0
 10
123.7917224998409
 20
125.9839121185691
 30
0.0
 10
124.4598772373583
 20
126.6519053672357
 30
0.0
 10
124.460006428439
 20
127.4760260369244
 30
0.0
 10
124.4601248535963
 20
128.3001359406897
 30
0.0
 10
123.7921639027
 20
128.9683337419007
 30
0.0
 10
122.9680432330112
 20
128.9684952307516
 30
0.0
 10
122.1439225633225
 20
128.9686567196024
 30
0.0
 10
121.4757032302648
 20
128.3007280664763
 30
0.0
 10
121.4754986777203
 20
127.4766073967875
 30
0.0
 10
121.4753048910993
 20
126.6524867270988
 30
0.0
 10
122.1432012464553
 20
125.9842350962709
 30
0.0
 10
122.967321916144
 20
125.9839874800329
 30
0.0
  0
SPLINE
  5
4D
330
41
100
AcDbEntity
  8
LAGER_1
 62
     7
100
AcDbSpline
210
0.0
220
0.0
230
1.0
 70
     8
 71
     3
 72
    17
 73
    13
 74
     0
 42
0.0000000001
 43
0.0000000001
 12
1.0
 22
0.0
 32
0.0
 13
1.0
 23
0.0
 33
0.0
 40
0.0
 40
0.0
 40
0.0
 40
0.0
 40
1.0
 40
1.0
 40
1.0
 40
2.0
 40
2.0
 40
2.0
 40
3.0
 40
3.0
 40
3.0
 40
4.0
 40
4.0
 40
4.0
 40
4.0
 10
177.8315979407038
 20
10.0329995130252
 30
0.0
 10
178.6557186103925
 20
10.03291674998913
 30
0.0
 10
179.3238733479099
 20
10.70090932578547
 30
0.0
 10
179.3240025389906
 20
11.52502999547418
 30
0.0
 10
179.3241209641479
 20
12.34914662794163
 30
0.0
 10
178.6561600132515
 20
13.01733904619092
 30
0.0
 10
177.8320393435628
 20
13.01749918930137
 30
0.0
 10
177.0079186738741
 20
13.01765933241182
 30
0.0
 10
176.3396993408163
 20
12.34973067928562
 30
0.0
 10
176.3394947882719
 20
11.52561404681817
 30
0.0
 10
176.3393010016509
 20
10.70149337712945
 30
0.0
 10
177.0071973570069
 20
10.03324040056108
 30
0.0
 10
177.8313180266956
 20
10.0329995130252
 30
0.0
  0
SPLINE
  5
4E
330
41
100
AcDbEntity
  8
LAGER_1
 62
     7
100
AcDbSpline
210
0.0
220
0.0
230
1.0
 70
     8
 71
     3
 72
    17
 73
    13
 74
     0
 42
0.0000000001
 43
0.0000000001
 12
1.0
 22
0.0
 32
0.0
 13
1.0
 23
0.0
 33
0.0
 40
0.0
 40
0.0
 40
0.0
 40
0.0
 40
1.0
 40
1.0
 40
1.0
 40
2.0
 40
2.0
 40
2.0
 40
3.0
 40
3.0
 40
3.0
 40
4.0
 40
4.0
 40
4.0
 40
4.0
 10
161.1310992367897
 20
125.9839874800329
 30
0.0
 10
161.9552199064784
 20
125.9839121185691
 30
0.0
 10
162.6233746439958
 20
126.6519053672357
 30
0.0
 10
162.6235038350765
 20
127.4760260369244
 30
0.0
 10
162.6236222602339
 20
128.3001359406897
 30
0.0
 10
161.9556613093375
 20
128.9683337419007
 30
0.0
 10
161.1315406396488
 20
128.9684952307516
 30
0.0
 10
160.3074199699601
 20
128.9686567196024
 30
0.0
 10
159.6392006369023
 20
128.3007280664763
 30
0.0
 10
159.6389960843578
 20
127.4766073967875
 30
0.0
 10
159.6388022977368
 20
126.6524867270988
 30
0.0
 10
160.3066986530928
 20
125.9842350962709
 30
0.0
 10
161.1308193227815
 20
125.9839874800329
 30
0.0
  0
SPLINE
  5
4F
330
41
100
AcDbEntity
  8
LAGER_1
 62
     7
100
AcDbSpline
210
0.0
220
0.0
230
1.0
 70
     8
 71
     3
 72
    17
 73
    13
 74
     0
 42
0.0000000001
 43
0.0000000001
 12
1.0
 22
0.0
 32
0.0
 13
1.0
 23
0.0
 33
0.0
 40
0.0
 40
0.0
 40
0.0
 40
0.0
 40
1.0
 40
1.0
 40
1.0
 40
2.0
 40
2.0
 40
2.0
 40
3.0
 40
3.0
 40
3.0
 40
4.0
 40
4.0
 40
4.0
 40
4.0
 10
87.6615958100616
 20
73.3425032114414
 30
0.0
 10
88.48571647975032
 20
73.34241708405426
 30
0.0
 10
89.15387660022944
 20
74.01041033272082
 30
0.0
 10
89.15399502538675
 20
74.83453100240953
 30
0.0
 10
89.15411883350575
 20
75.65865167209826
 30
0.0
 10
88.48615788260936
 20
76.32684409034755
 30
0.0
 10
87.66204259588234
 20
76.32700019623672
 30
0.0
 10
86.83792192619363
 20
76.32716168508759
 30
0.0
 10
86.16969721017416
 20
75.65923303196139
 30
0.0
 10
86.16949804059142
 20
74.83511774523437
 30
0.0
 10
86.16929348804697
 20
74.01099707554565
 30
0.0
 10
86.83718984340301
 20
73.3427454447177
 30
0.0
 10
87.66131051309173
 20
73.3425032114414
 30
0.0
  0
SPLINE
  5
50
330
41
100
AcDbEntity
  8
LAGER_1
 62
     7
100
AcDbSpline
210
0.0
220
0.0
230
1.0
 70
     8
 71
     3
 72
    17
 73
    13
 74
     0
 42
0.0000000001
 43
0.0000000001
 12
1.0
 22
0.0
 32
0.0
 13
1.0
 23
0.0
 33
0.0
 40
0.0
 40
0.0
 40
0.0
 40
0.0
 40
1.0
 40
1.0
 40
1.0
 40
2.0
 40
2.0
 40
2.0
 40
3.0
 40
3.0
 40
3.0
 40
4.0
 40
4.0
 40
4.0
 40
4.0
 10
111.2201061394584
 20
10.0329995130252
 30
0.0
 10
112.0442268091471
 20
10.03291674998913
 30
0.0
 10
112.7123815466646
 20
10.70090932578547
 30
0.0
 10
112.7125107377453
 20
11.52502999547418
 30
0.0
 10
112.7126291629026
 20
12.34914662794163
 30
0.0
 10
112.0446682120062
 20
13.01733904619092
 30
0.0
 10
111.2205475423175
 20
13.01749918930137
 30
0.0
 10
110.3964268726288
 20
13.01765933241182
 30
0.0
 10
109.728207539571
 20
12.34973067928562
 30
0.0
 10
109.7280029870266
 20
11.52561404681817
 30
0.0
 10
109.7278092004055
 20
10.70149337712945
 30
0.0
 10
110.3957055557615
 20
10.03324040056108
 30
0.0
 10
111.2198262254503
 20
10.0329995130252
 30
0.0
  0
POLYLINE
  5
51
330
41
100
AcDbEntity
  8
LAGER_1
 62
     7
100
AcDb2dPolyline
 66
     1
 10
0.0
 20
0.0
 30
0.0
  0
VERTEX
  5
52
330
51
100
AcDbEntity
  8
LAGER_1
 62
     7
100
AcDbVertex
100
AcDb2dVertex
 10
82.54999997936251
 20
77.21600170324375
 30
0.0
  0
VERTEX
  5
53
330
51
100
AcDbEntity
  8
LAGER_1
 62
     7
100
AcDbVertex
100
AcDb2dVertex
 10
107.2514960974547
 20
9.334499674688674
 30
0.0
  0
SEQEND
  5
54
330
51
100
AcDbEntity
  8
LAGER_1
 62
     7
  0
POLYLINE
  5
55
330
41
100
AcDbEntity
  8
LAGER_1
 62
     7
100
AcDb2dPolyline
 66
     1
 10
0.0
 20
0.0
 30
0.0
  0
VERTEX
  5
56
330
55
100
AcDbEntity
  8
LAGER_1
 62
     7
100
AcDbVertex
100
AcDb2dVertex
 10
109.1565047097172
 20
8.001000105658985
 30
0.0
  0
VERTEX
  5
57
330
55
100
AcDbEntity
  8
LAGER_1
 62
     7
100
AcDbVertex
100
AcDb2dVertex
 10
183.8324913413032
 20
8.001000105658985
 30
0.0
  0
SEQEND
  5
58
330
55
100
AcDbEntity
  8
LAGER_1
 62
     7
  0
POLYLINE
  5
59
330
41
100
AcDbEntity
  8
LAGER_1
 62
     7
100
AcDb2dPolyline
 66
     1
 10
0.0
 20
0.0
 30
0.0
  0
VERTEX
  5
5A
330
59
100
AcDbEntity
  8
LAGER_1
 62
     7
100
AcDbVertex
100
AcDb2dVertex
 10
185.8009973697282
 20
10.03300018589541
 30
0.0
  0
VERTEX
  5
5B
330
59
100
AcDbEntity
  8
LAGER_1
 62
     7
100
AcDbVertex
100
AcDb2dVertex
 10
185.8009973697282
 20
89.97949911623125
 30
0.0
  0
SEQEND
  5
5C
330
59
100
AcDbEntity
  8
LAGER_1
 62
     7
  0
POLYLINE
  5
5D
330
41
100
AcDbEntity
  8
LAGER_1
 62
     7
100
AcDb2dPolyline
 66
     1
 10
0.0
 20
0.0
 30
0.0
  0
VERTEX
  5
5E
330
5D
100
AcDbEntity
  8
LAGER_1
 62
     7
100
AcDbVertex
100
AcDb2dVertex
 10
185.8009973697282
 20
97.9804965304094
 30
0.0
  0
VERTEX
  5
5F
330
5D
100
AcDbEntity
  8
LAGER_1
 62
     7
100
AcDbVertex
100
AcDb2dVertex
 10
185.8009973697282
 20
101.2825021278641
 30
0.0
  0
SEQEND
  5
60
330
5D
100
AcDbEntity
  8
LAGER_1
 62
     7
  0
POLYLINE
  5
61
330
41
100
AcDbEntity
  8
LAGER_1
 62
     7
100
AcDb2dPolyline
 66
     1
 10
0.0
 20
0.0
 30
0.0
  0
VERTEX
  5
62
330
61
100
AcDbEntity
  8
LAGER_1
 62
     7
100
AcDbVertex
100
AcDb2dVertex
 10
185.4199913409063
 20
102.5525042807312
 30
0.0
  0
VERTEX
  5
63
330
61
100
AcDbEntity
  8
LAGER_1
 62
     7
100
AcDbVertex
100
AcDb2dVertex
 10
163.4490025429594
 20
130.2384973836188
 30
0.0
  0
SEQEND
  5
64
330
61
100
AcDbEntity
  8
LAGER_1
 62
     7
  0
POLYLINE
  5
65
330
41
100
AcDbEntity
  8
LAGER_1
 62
     7
100
AcDb2dPolyline
 66
     1
 10
0.0
 20
0.0
 30
0.0
  0
VERTEX
  5
66
330
65
100
AcDbEntity
  8
LAGER_1
 62
     7
100
AcDbVertex
100
AcDb2dVertex
 10
161.8615025433562
 20
131.0004986753391
 30
0.0
  0
VERTEX
  5
67
330
65
100
AcDbEntity
  8
LAGER_1
 62
     7
100
AcDbVertex
100
AcDb2dVertex
 10
122.0469969550297
 20
131.0004986753391
 30
0.0
  0
SEQEND
  5
68
330
65
100
AcDbEntity
  8
LAGER_1
 62
     7
  0
POLYLINE
  5
69
330
41
100
AcDbEntity
  8
LAGER_1
 62
     7
100
AcDb2dPolyline
 66
     1
 10
0.0
 20
0.0
 30
0.0
  0
VERTEX
  5
6A
330
69
100
AcDbEntity
  8
LAGER_1
 62
     7
100
AcDbVertex
100
AcDb2dVertex
 10
120.269004706939
 20
129.9209995368828
 30
0.0
  0
VERTEX
  5
6B
330
69
100
AcDbEntity
  8
LAGER_1
 62
     7
100
AcDbVertex
100
AcDb2dVertex
 10
111.0615025560562
 20
111.4424978189547
 30
0.0
  0
SEQEND
  5
6C
330
69
100
AcDbEntity
  8
LAGER_1
 62
     7
  0
POLYLINE
  5
6D
330
41
100
AcDbEntity
  8
LAGER_1
 62
     7
100
AcDb2dPolyline
 66
     1
 10
0.0
 20
0.0
 30
0.0
  0
VERTEX
  5
6E
330
6D
100
AcDbEntity
  8
LAGER_1
 62
     7
100
AcDbVertex
100
AcDb2dVertex
 10
110.8075021254828
 20
110.5535016949094
 30
0.0
  0
VERTEX
  5
6F
330
6D
100
AcDbEntity
  8
LAGER_1
 62
     7
100
AcDbVertex
100
AcDb2dVertex
 10
110.8075021254828
 20
96.0120012679078
 30
0.0
  0
SEQEND
  5
70
330
6D
100
AcDbEntity
  8
LAGER_1
 62
     7
  0
POLYLINE
  5
71
330
41
100
AcDbEntity
  8
LAGER_1
 62
     7
100
AcDb2dPolyline
 66
     1
 10
0.0
 20
0.0
 30
0.0
  0
VERTEX
  5
72
330
71
100
AcDbEntity
  8
LAGER_1
 62
     7
100
AcDbVertex
100
AcDb2dVertex
 10
116.3320034160125
 20
105.0290004043797
 30
0.0
  0
VERTEX
  5
73
330
71
100
AcDbEntity
  8
LAGER_1
 62
     7
100
AcDbVertex
100
AcDb2dVertex
 10
130.3019947997813
 20
105.0290004043797
 30
0.0
  0
VERTEX
  5
74
330
71
100
AcDbEntity
  8
LAGER_1
 62
     7
100
AcDbVertex
100
AcDb2dVertex
 10
130.3019947997813
 20
90.995500838525
 30
0.0
  0
VERTEX
  5
75
330
71
100
AcDbEntity
  8
LAGER_1
 62
     7
100
AcDbVertex
100
AcDb2dVertex
 10
116.3320034160125
 20
90.995500838525
 30
0.0
  0
VERTEX
  5
76
330
71
100
AcDbEntity
  8
LAGER_1
 62
     7
100
AcDbVertex
100
AcDb2dVertex
 10
116.3320034160125
 20
105.0290004043797
 30
0.0
  0
SEQEND
  5
77
330
71
100
AcDbEntity
  8
LAGER_1
 62
     7
  0
POLYLINE
  5
78
330
41
100
AcDbEntity
  8
LAGER_1
 62
     7
100
AcDb2dPolyline
 66
     1
 10
0.0
 20
0.0
 30
0.0
  0
VERTEX
  5
79
330
78
100
AcDbEntity
  8
LAGER_1
 62
     7
100
AcDbVertex
100
AcDb2dVertex
 10
117.3480051383062
 20
66.9924978300672
 30
0.0
  0
VERTEX
  5
7A
330
78
100
AcDbEntity
  8
LAGER_1
 62
     7
100
AcDbVertex
100
AcDb2dVertex
 10
131.317996522075
 20
66.9924978300672
 30
0.0
  0
VERTEX
  5
7B
330
78
100
AcDbEntity
  8
LAGER_1
 62
     7
100
AcDbVertex
100
AcDb2dVertex
 10
131.317996522075
 20
53.02250106333672
 30
0.0
  0
VERTEX
  5
7C
330
78
100
AcDbEntity
  8
LAGER_1
 62
     7
100
AcDbVertex
100
AcDb2dVertex
 10
117.3480051383062
 20
53.02250106333672
 30
0.0
  0
VERTEX
  5
7D
330
78
100
AcDbEntity
  8
LAGER_1
 62
     7
100
AcDbVertex
100
AcDb2dVertex
 10
117.3480051383062
 20
66.9924978300672
 30
0.0
  0
SEQEND
  5
7E
330
78
100
AcDbEntity
  8
LAGER_1
 62
     7
  0
POLYLINE
  5
7F
330
41
100
AcDbEntity
  8
LAGER_1
 62
     7
100
AcDb2dPolyline
 66
     1
 10
0.0
 20
0.0
 30
0.0
  0
VERTEX
  5
80
330
7F
100
AcDbEntity
  8
LAGER_1
 62
     7
100
AcDbVertex
100
AcDb2dVertex
 10
124.3330008301906
 20
85.97900040914219
 30
0.0
  0
VERTEX
  5
81
330
7F
100
AcDbEntity
  8
LAGER_1
 62
     7
100
AcDbVertex
100
AcDb2dVertex
 10
138.3030029798828
 20
85.97900040914219
 30
0.0
  0
VERTEX
  5
82
330
7F
100
AcDbEntity
  8
LAGER_1
 62
     7
100
AcDbVertex
100
AcDb2dVertex
 10
138.3030029798828
 20
72.00899825945001
 30
0.0
  0
VERTEX
  5
83
330
7F
100
AcDbEntity
  8
LAGER_1
 62
     7
100
AcDbVertex
100
AcDb2dVertex
 10
124.3330008301906
 20
72.00899825945001
 30
0.0
  0
VERTEX
  5
84
330
7F
100
AcDbEntity
  8
LAGER_1
 62
     7
100
AcDbVertex
100
AcDb2dVertex
 10
124.3330008301906
 20
85.97900040914219
 30
0.0
  0
SEQEND
  5
85
330
7F
100
AcDbEntity
  8
LAGER_1
 62
     7
  0
POLYLINE
  5
86
330
41
100
AcDbEntity
  8
LAGER_1
 62
     7
100
AcDb2dPolyline
 66
     1
 10
0.0
 20
0.0
 30
0.0
  0
VERTEX
  5
87
330
86
100
AcDbEntity
  8
LAGER_1
 62
     7
100
AcDbVertex
100
AcDb2dVertex
 10
106.2990025572469
 20
48.0060006339539
 30
0.0
  0
VERTEX
  5
88
330
86
100
AcDbEntity
  8
LAGER_1
 62
     7
100
AcDbVertex
100
AcDb2dVertex
 10
120.3325021231016
 20
48.0060006339539
 30
0.0
  0
VERTEX
  5
89
330
86
100
AcDbEntity
  8
LAGER_1
 62
     7
100
AcDbVertex
100
AcDb2dVertex
 10
120.3325021231016
 20
34.03600117574258
 30
0.0
  0
VERTEX
  5
8A
330
86
100
AcDbEntity
  8
LAGER_1
 62
     7
100
AcDbVertex
100
AcDb2dVertex
 10
106.2990025572469
 20
34.03600117574258
 30
0.0
  0
VERTEX
  5
8B
330
86
100
AcDbEntity
  8
LAGER_1
 62
     7
100
AcDbVertex
100
AcDb2dVertex
 10
106.2990025572469
 20
48.0060006339539
 30
0.0
  0
SEQEND
  5
8C
330
86
100
AcDbEntity
  8
LAGER_1
 62
     7
  0
POLYLINE
  5
8D
330
41
100
AcDbEntity
  8
LAGER_1
 62
     7
100
AcDb2dPolyline
 66
     1
 10
0.0
 20
0.0
 30
0.0
  0
VERTEX
  5
8E
330
8D
100
AcDbEntity
  8
LAGER_1
 62
     7
100
AcDbVertex
100
AcDb2dVertex
 10
140.3349956585469
 20
109.9820034176
 30
0.0
  0
VERTEX
  5
8F
330
8D
100
AcDbEntity
  8
LAGER_1
 62
     7
100
AcDbVertex
100
AcDb2dVertex
 10
126.3014960926922
 20
109.9820034176
 30
0.0
  0
VERTEX
  5
90
330
8D
100
AcDbEntity
  8
LAGER_1
 62
     7
100
AcDbVertex
100
AcDb2dVertex
 10
126.3014960926922
 20
124.0155029834547
 30
0.0
  0
VERTEX
  5
91
330
8D
100
AcDbEntity
  8
LAGER_1
 62
     7
100
AcDbVertex
100
AcDb2dVertex
 10
140.3349956585469
 20
124.0155029834547
 30
0.0
  0
VERTEX
  5
92
330
8D
100
AcDbEntity
  8
LAGER_1
 62
     7
100
AcDbVertex
100
AcDb2dVertex
 10
140.3349956585469
 20
109.9820034176
 30
0.0
  0
SEQEND
  5
93
330
8D
100
AcDbEntity
  8
LAGER_1
 62
     7
  0
POLYLINE
  5
94
330
41
100
AcDbEntity
  8
LAGER_1
 62
     7
100
AcDb2dPolyline
 66
     1
 10
0.0
 20
0.0
 30
0.0
  0
VERTEX
  5
95
330
94
100
AcDbEntity
  8
LAGER_1
 62
     7
100
AcDbVertex
100
AcDb2dVertex
 10
130.3019947997813
 20
14.98599983476465
 30
0.0
  0
VERTEX
  5
96
330
94
100
AcDbEntity
  8
LAGER_1
 62
     7
100
AcDbVertex
100
AcDb2dVertex
 10
116.3320034160125
 20
14.98599983476465
 30
0.0
  0
VERTEX
  5
97
330
94
100
AcDbEntity
  8
LAGER_1
 62
     7
100
AcDbVertex
100
AcDb2dVertex
 10
116.3320034160125
 20
29.01950074635976
 30
0.0
  0
VERTEX
  5
98
330
94
100
AcDbEntity
  8
LAGER_1
 62
     7
100
AcDbVertex
100
AcDb2dVertex
 10
130.3019947997813
 20
29.01950074635976
 30
0.0
  0
VERTEX
  5
99
330
94
100
AcDbEntity
  8
LAGER_1
 62
     7
100
AcDbVertex
100
AcDb2dVertex
 10
130.3019947997813
 20
14.98599983476465
 30
0.0
  0
SEQEND
  5
9A
330
94
100
AcDbEntity
  8
LAGER_1
 62
     7
  0
SPLINE
  5
9B
330
41
100
AcDbEntity
  8
LAGER_1
 62
     7
100
AcDbSpline
210
0.0
220
0.0
230
1.0
 70
     8
 71
     3
 72
     8
 73
     4
 74
     0
 42
0.0000000001
 43
0.0000000001
 12
1.0
 22
0.0
 32
0.0
 13
1.0
 23
0.0
 33
0.0
 40
0.0
 40
0.0
 40
0.0
 40
0.0
 40
1.0
 40
1.0
 40
1.0
 40
1.0
 10
107.2450796071134
 20
9.317284963185816
 30
0.0
 10
107.5325943572043
 20
8.527144912071433
 30
0.0
 10
108.283549811525
 20
8.001164285990702
 30
0.0
 10
109.1243791943172
 20
8.001004142880255
 30
0.0
  0
SPLINE
  5
9C
330
41
100
AcDbEntity
  8
LAGER_1
 62
     7
100
AcDbSpline
210
0.0
220
0.0
230
1.0
 70
     8
 71
     3
 72
     8
 73
     4
 74
     0
 42
0.0000000001
 43
0.0000000001
 12
1.0
 22
0.0
 32
0.0
 13
1.0
 23
0.0
 33
0.0
 40
0.0
 40
0.0
 40
0.0
 40
0.0
 40
1.0
 40
1.0
 40
1.0
 40
1.0
 10
183.8005596125243
 20
8.001000105658985
 30
0.0
 10
184.9051864161761
 20
8.000889754944222
 30
0.0
 10
185.8007820512603
 20
8.896224316386242
 30
0.0
 10
185.8009973697282
 20
10.00085986735079
 30
0.0
  0
POLYLINE
  5
9D
330
41
100
AcDbEntity
  8
LAGER_1
 62
     7
100
AcDb2dPolyline
 66
     1
 10
0.0
 20
0.0
 30
0.0
  0
VERTEX
  5
9E
330
9D
100
AcDbEntity
  8
LAGER_1
 62
     7
100
AcDbVertex
100
AcDb2dVertex
 10
185.8009973697282
 20
89.97949911623125
 30
0.0
  0
VERTEX
  5
9F
330
9D
100
AcDbEntity
  8
LAGER_1
 62
     7
100
AcDbVertex
100
AcDb2dVertex
 10
179.8320034001375
 20
89.97949911623125
 30
0.0
  0
VERTEX
  5
A0
330
9D
100
AcDbEntity
  8
LAGER_1
 62
     7
100
AcDbVertex
100
AcDb2dVertex
 10
179.8320034001375
 20
97.9804965304094
 30
0.0
  0
VERTEX
  5
A1
330
9D
100
AcDbEntity
  8
LAGER_1
 62
     7
100
AcDbVertex
100
AcDb2dVertex
 10
185.8009973697282
 20
97.9804965304094
 30
0.0
  0
SEQEND
  5
A2
330
9D
100
AcDbEntity
  8
LAGER_1
 62
     7
  0
SPLINE
  5
A3
330
41
100
AcDbEntity
  8
LAGER_1
 62
     7
100
AcDbSpline
210
0.0
220
0.0
230
1.0
 70
     8
 71
     3
 72
     8
 73
     4
 74
     0
 42
0.0000000001
 43
0.0000000001
 12
1.0
 22
0.0
 32
0.0
 13
1.0
 23
0.0
 33
0.0
 40
0.0
 40
0.0
 40
0.0
 40
0.0
 40
1.0
 40
1.0
 40
1.0
 40
1.0
 10
185.8009973697282
 20
101.3138740286266
 30
0.0
 10
185.8010834971153
 20
101.7651277075774
 30
0.0
 10
185.6485949581994
 20
102.2031500666801
 30
0.0
 10
185.368271844934
 20
102.5567783523176
 30
0.0
  0
SPLINE
  5
A4
330
41
100
AcDbEntity
  8
LAGER_1
 62
     7
100
AcDbSpline
210
0.0
220
0.0
230
1.0
 70
     8
 71
     3
 72
     8
 73
     4
 74
     0
 42
0.0000000001
 43
0.0000000001
 12
1.0
 22
0.0
 32
0.0
 13
1.0
 23
0.0
 33
0.0
 40
0.0
 40
0.0
 40
0.0
 40
0.0
 40
1.0
 40
1.0
 40
1.0
 40
1.0
 10
163.3970138989023
 20
130.2430836669835
 30
0.0
 10
163.0176335245125
 20
130.7214997706508
 30
0.0
 10
162.4405154351928
 20
131.0004340797987
 30
0.0
 10
161.8299260900492
 20
131.0004879094157
 30
0.0
  0
SPLINE
  5
A5
330
41
100
AcDbEntity
  8
LAGER_1
 62
     7
100
AcDbSpline
210
0.0
220
0.0
230
1.0
 70
     8
 71
     3
 72
     8
 73
     4
 74
     0
 42
0.0000000001
 43
0.0000000001
 12
1.0
 22
0.0
 32
0.0
 13
1.0
 23
0.0
 33
0.0
 40
0.0
 40
0.0
 40
0.0
 40
0.0
 40
1.0
 40
1.0
 40
1.0
 40
1.0
 10
122.0789502156554
 20
131.0004986753391
 30
0.0
 10
121.321373718449
 20
131.0005740368028
 30
0.0
 10
120.6287695689096
 20
130.5726608797646
 30
0.0
 10
120.2898475346248
 20
129.8951290229733
 30
0.0
  0
SPLINE
  5
A6
330
41
100
AcDbEntity
  8
LAGER_1
 62
     7
100
AcDbSpline
210
0.0
220
0.0
230
1.0
 70
     8
 71
     3
 72
     8
 73
     4
 74
     0
 42
0.0000000001
 43
0.0000000001
 12
1.0
 22
0.0
 32
0.0
 13
1.0
 23
0.0
 33
0.0
 40
0.0
 40
0.0
 40
0.0
 40
0.0
 40
1.0
 40
1.0
 40
1.0
 40
1.0
 10
111.018751074269
 20
111.4164550502709
 30
0.0
 10
110.8798814284432
 20
111.1387803541597
 30
0.0
 10
110.8075559550998
 20
110.8325867269848
 30
0.0
 10
110.8074913595594
 20
110.5221190282234
 30
0.0
  0
POLYLINE
  5
A7
330
41
100
AcDbEntity
  8
LAGER_1
 62
     7
100
AcDb2dPolyline
 66
     1
 10
0.0
 20
0.0
 30
0.0
  0
VERTEX
  5
A8
330
A7
100
AcDbEntity
  8
LAGER_1
 62
     7
100
AcDbVertex
100
AcDb2dVertex
 10
143.3195034092656
 20
72.00899825945001
 30
0.0
  0
VERTEX
  5
A9
330
A7
100
AcDbEntity
  8
LAGER_1
 62
     7
100
AcDbVertex
100
AcDb2dVertex
 10
143.3195034092656
 20
85.97900040914219
 30
0.0
  0
VERTEX
  5
AA
330
A7
100
AcDbEntity
  8
LAGER_1
 62
     7
100
AcDbVertex
100
AcDb2dVertex
 10
157.3530029751203
 20
85.97900040914219
 30
0.0
  0
VERTEX
  5
AB
330
A7
100
AcDbEntity
  8
LAGER_1
 62
     7
100
AcDbVertex
100
AcDb2dVertex
 10
157.3530029751203
 20
72.00899825945001
 30
0.0
  0
VERTEX
  5
AC
330
A7
100
AcDbEntity
  8
LAGER_1
 62
     7
100
AcDbVertex
100
AcDb2dVertex
 10
143.3195034092656
 20
72.00899825945001
 30
0.0
  0
SEQEND
  5
AD
330
A7
100
AcDbEntity
  8
LAGER_1
 62
     7
  0
POLYLINE
  5
AE
330
41
100
AcDbEntity
  8
LAGER_1
 62
     7
100
AcDb2dPolyline
 66
     1
 10
0.0
 20
0.0
 30
0.0
  0
VERTEX
  5
AF
330
AE
100
AcDbEntity
  8
LAGER_1
 62
     7
100
AcDbVertex
100
AcDb2dVertex
 10
150.30449910115
 20
53.02250106333672
 30
0.0
  0
VERTEX
  5
B0
330
AE
100
AcDbEntity
  8
LAGER_1
 62
     7
100
AcDbVertex
100
AcDb2dVertex
 10
136.3344969514578
 20
53.02250106333672
 30
0.0
  0
VERTEX
  5
B1
330
AE
100
AcDbEntity
  8
LAGER_1
 62
     7
100
AcDbVertex
100
AcDb2dVertex
 10
136.3344969514578
 20
66.9924978300672
 30
0.0
  0
VERTEX
  5
B2
330
AE
100
AcDbEntity
  8
LAGER_1
 62
     7
100
AcDbVertex
100
AcDb2dVertex
 10
150.30449910115
 20
66.9924978300672
 30
0.0
  0
VERTEX
  5
B3
330
AE
100
AcDbEntity
  8
LAGER_1
 62
     7
100
AcDbVertex
100
AcDb2dVertex
 10
150.30449910115
 20
53.02250106333672
 30
0.0
  0
SEQEND
  5
B4
330
AE
100
AcDbEntity
  8
LAGER_1
 62
     7
  0
POLYLINE
  5
B5
330
41
100
AcDbEntity
  8
LAGER_1
 62
     7
100
AcDb2dPolyline
 66
     1
 10
0.0
 20
0.0
 30
0.0
  0
VERTEX
  5
B6
330
B5
100
AcDbEntity
  8
LAGER_1
 62
     7
100
AcDbVertex
100
AcDb2dVertex
 10
135.3184952291641
 20
90.995500838525
 30
0.0
  0
VERTEX
  5
B7
330
B5
100
AcDbEntity
  8
LAGER_1
 62
     7
100
AcDbVertex
100
AcDb2dVertex
 10
135.3184952291641
 20
105.0290004043797
 30
0.0
  0
VERTEX
  5
B8
330
B5
100
AcDbEntity
  8
LAGER_1
 62
     7
100
AcDbVertex
100
AcDb2dVertex
 10
149.3519947950188
 20
105.0290004043797
 30
0.0
  0
VERTEX
  5
B9
330
B5
100
AcDbEntity
  8
LAGER_1
 62
     7
100
AcDbVertex
100
AcDb2dVertex
 10
149.3519947950188
 20
90.995500838525
 30
0.0
  0
VERTEX
  5
BA
330
B5
100
AcDbEntity
  8
LAGER_1
 62
     7
100
AcDbVertex
100
AcDb2dVertex
 10
135.3184952291641
 20
90.995500838525
 30
0.0
  0
SEQEND
  5
BB
330
B5
100
AcDbEntity
  8
LAGER_1
 62
     7
  0
POLYLINE
  5
BC
330
41
100
AcDbEntity
  8
LAGER_1
 62
     7
100
AcDb2dPolyline
 66
     1
 10
0.0
 20
0.0
 30
0.0
  0
VERTEX
  5
BD
330
BC
100
AcDbEntity
  8
LAGER_1
 62
     7
100
AcDbVertex
100
AcDb2dVertex
 10
139.3190047021766
 20
34.03600117574258
 30
0.0
  0
VERTEX
  5
BE
330
BC
100
AcDbEntity
  8
LAGER_1
 62
     7
100
AcDbVertex
100
AcDb2dVertex
 10
125.3490025524844
 20
34.03600117574258
 30
0.0
  0
VERTEX
  5
BF
330
BC
100
AcDbEntity
  8
LAGER_1
 62
     7
100
AcDbVertex
100
AcDb2dVertex
 10
125.3490025524844
 20
48.0060006339539
 30
0.0
  0
VERTEX
  5
C0
330
BC
100
AcDbEntity
  8
LAGER_1
 62
     7
100
AcDbVertex
100
AcDb2dVertex
 10
139.3190047021766
 20
48.0060006339539
 30
0.0
  0
VERTEX
  5
C1
330
BC
100
AcDbEntity
  8
LAGER_1
 62
     7
100
AcDbVertex
100
AcDb2dVertex
 10
139.3190047021766
 20
34.03600117574258
 30
0.0
  0
SEQEND
  5
C2
330
BC
100
AcDbEntity
  8
LAGER_1
 62
     7
  0
POLYLINE
  5
C3
330
41
100
AcDbEntity
  8
LAGER_1
 62
     7
100
AcDb2dPolyline
 66
     1
 10
0.0
 20
0.0
 30
0.0
  0
VERTEX
  5
C4
330
C3
100
AcDbEntity
  8
LAGER_1
 62
     7
100
AcDbVertex
100
AcDb2dVertex
 10
162.3059952224172
 20
72.00899825945001
 30
0.0
  0
VERTEX
  5
C5
330
C3
100
AcDbEntity
  8
LAGER_1
 62
     7
100
AcDbVertex
100
AcDb2dVertex
 10
162.3059952224172
 20
85.97900040914219
 30
0.0
  0
VERTEX
  5
C6
330
C3
100
AcDbEntity
  8
LAGER_1
 62
     7
100
AcDbVertex
100
AcDb2dVertex
 10
176.3394947882719
 20
85.97900040914219
 30
0.0
  0
VERTEX
  5
C7
330
C3
100
AcDbEntity
  8
LAGER_1
 62
     7
100
AcDbVertex
100
AcDb2dVertex
 10
176.3394947882719
 20
72.00899825945001
 30
0.0
  0
VERTEX
  5
C8
330
C3
100
AcDbEntity
  8
LAGER_1
 62
     7
100
AcDbVertex
100
AcDb2dVertex
 10
162.3059952224172
 20
72.00899825945001
 30
0.0
  0
SEQEND
  5
C9
330
C3
100
AcDbEntity
  8
LAGER_1
 62
     7
  0
POLYLINE
  5
CA
330
41
100
AcDbEntity
  8
LAGER_1
 62
     7
100
AcDb2dPolyline
 66
     1
 10
0.0
 20
0.0
 30
0.0
  0
VERTEX
  5
CB
330
CA
100
AcDbEntity
  8
LAGER_1
 62
     7
100
AcDbVertex
100
AcDb2dVertex
 10
169.291001680225
 20
53.02250106333672
 30
0.0
  0
VERTEX
  5
CC
330
CA
100
AcDbEntity
  8
LAGER_1
 62
     7
100
AcDbVertex
100
AcDb2dVertex
 10
155.3209995305328
 20
53.02250106333672
 30
0.0
  0
VERTEX
  5
CD
330
CA
100
AcDbEntity
  8
LAGER_1
 62
     7
100
AcDbVertex
100
AcDb2dVertex
 10
155.3209995305328
 20
66.9924978300672
 30
0.0
  0
VERTEX
  5
CE
330
CA
100
AcDbEntity
  8
LAGER_1
 62
     7
100
AcDbVertex
100
AcDb2dVertex
 10
169.291001680225
 20
66.9924978300672
 30
0.0
  0
VERTEX
  5
CF
330
CA
100
AcDbEntity
  8
LAGER_1
 62
     7
100
AcDbVertex
100
AcDb2dVertex
 10
169.291001680225
 20
53.02250106333672
 30
0.0
  0
SEQEND
  5
D0
330
CA
100
AcDbEntity
  8
LAGER_1
 62
     7
  0
POLYLINE
  5
D1
330
41
100
AcDbEntity
  8
LAGER_1
 62
     7
100
AcDb2dPolyline
 66
     1
 10
0.0
 20
0.0
 30
0.0
  0
VERTEX
  5
D2
330
D1
100
AcDbEntity
  8
LAGER_1
 62
     7
100
AcDbVertex
100
AcDb2dVertex
 10
154.3049978082391
 20
90.995500838525
 30
0.0
  0
VERTEX
  5
D3
330
D1
100
AcDbEntity
  8
LAGER_1
 62
     7
100
AcDbVertex
100
AcDb2dVertex
 10
154.3049978082391
 20
105.0290004043797
 30
0.0
  0
VERTEX
  5
D4
330
D1
100
AcDbEntity
  8
LAGER_1
 62
     7
100
AcDbVertex
100
AcDb2dVertex
 10
168.3384973740938
 20
105.0290004043797
 30
0.0
  0
VERTEX
  5
D5
330
D1
100
AcDbEntity
  8
LAGER_1
 62
     7
100
AcDbVertex
100
AcDb2dVertex
 10
168.3384973740938
 20
90.995500838525
 30
0.0
  0
VERTEX
  5
D6
330
D1
100
AcDbEntity
  8
LAGER_1
 62
     7
100
AcDbVertex
100
AcDb2dVertex
 10
154.3049978082391
 20
90.995500838525
 30
0.0
  0
SEQEND
  5
D7
330
D1
100
AcDbEntity
  8
LAGER_1
 62
     7
  0
POLYLINE
  5
D8
330
41
100
AcDbEntity
  8
LAGER_1
 62
     7
100
AcDb2dPolyline
 66
     1
 10
0.0
 20
0.0
 30
0.0
  0
VERTEX
  5
D9
330
D8
100
AcDbEntity
  8
LAGER_1
 62
     7
100
AcDbVertex
100
AcDb2dVertex
 10
158.3054965153281
 20
34.03600117574258
 30
0.0
  0
VERTEX
  5
DA
330
D8
100
AcDbEntity
  8
LAGER_1
 62
     7
100
AcDbVertex
100
AcDb2dVertex
 10
144.3355051315594
 20
34.03600117574258
 30
0.0
  0
VERTEX
  5
DB
330
D8
100
AcDbEntity
  8
LAGER_1
 62
     7
100
AcDbVertex
100
AcDb2dVertex
 10
144.3355051315594
 20
48.0060006339539
 30
0.0
  0
VERTEX
  5
DC
330
D8
100
AcDbEntity
  8
LAGER_1
 62
     7
100
AcDbVertex
100
AcDb2dVertex
 10
158.3054965153281
 20
48.0060006339539
 30
0.0
  0
VERTEX
  5
DD
330
D8
100
AcDbEntity
  8
LAGER_1
 62
     7
100
AcDbVertex
100
AcDb2dVertex
 10
158.3054965153281
 20
34.03600117574258
 30
0.0
  0
SEQEND
  5
DE
330
D8
100
AcDbEntity
  8
LAGER_1
 62
     7
  0
POLYLINE
  5
DF
330
41
100
AcDbEntity
  8
LAGER_1
 62
     7
100
AcDb2dPolyline
 66
     1
 10
0.0
 20
0.0
 30
0.0
  0
VERTEX
  5
E0
330
DF
100
AcDbEntity
  8
LAGER_1
 62
     7
100
AcDbVertex
100
AcDb2dVertex
 10
135.3184952291641
 20
29.01950074635976
 30
0.0
  0
VERTEX
  5
E1
330
DF
100
AcDbEntity
  8
LAGER_1
 62
     7
100
AcDbVertex
100
AcDb2dVertex
 10
149.3519947950188
 20
29.01950074635976
 30
0.0
  0
VERTEX
  5
E2
330
DF
100
AcDbEntity
  8
LAGER_1
 62
     7
100
AcDbVertex
100
AcDb2dVertex
 10
149.3519947950188
 20
14.98599983476465
 30
0.0
  0
VERTEX
  5
E3
330
DF
100
AcDbEntity
  8
LAGER_1
 62
     7
100
AcDbVertex
100
AcDb2dVertex
 10
135.3184952291641
 20
14.98599983476465
 30
0.0
  0
VERTEX
  5
E4
330
DF
100
AcDbEntity
  8
LAGER_1
 62
     7
100
AcDbVertex
100
AcDb2dVertex
 10
135.3184952291641
 20
29.01950074635976
 30
0.0
  0
SEQEND
  5
E5
330
DF
100
AcDbEntity
  8
LAGER_1
 62
     7
  0
POLYLINE
  5
E6
330
41
100
AcDbEntity
  8
LAGER_1
 62
     7
100
AcDb2dPolyline
 66
     1
 10
0.0
 20
0.0
 30
0.0
  0
VERTEX
  5
E7
330
E6
100
AcDbEntity
  8
LAGER_1
 62
     7
100
AcDbVertex
100
AcDb2dVertex
 10
145.3514960879297
 20
124.0155029834547
 30
0.0
  0
VERTEX
  5
E8
330
E6
100
AcDbEntity
  8
LAGER_1
 62
     7
100
AcDbVertex
100
AcDb2dVertex
 10
159.3214982376219
 20
124.0155029834547
 30
0.0
  0
VERTEX
  5
E9
330
E6
100
AcDbEntity
  8
LAGER_1
 62
     7
100
AcDbVertex
100
AcDb2dVertex
 10
159.3214982376219
 20
109.9820034176
 30
0.0
  0
VERTEX
  5
EA
330
E6
100
AcDbEntity
  8
LAGER_1
 62
     7
100
AcDbVertex
100
AcDb2dVertex
 10
145.3514960879297
 20
109.9820034176
 30
0.0
  0
VERTEX
  5
EB
330
E6
100
AcDbEntity
  8
LAGER_1
 62
     7
100
AcDbVertex
100
AcDb2dVertex
 10
145.3514960879297
 20
124.0155029834547
 30
0.0
  0
SEQEND
  5
EC
330
E6
100
AcDbEntity
  8
LAGER_1
 62
     7
  0
POLYLINE
  5
ED
330
41
100
AcDbEntity
  8
LAGER_1
 62
     7
100
AcDb2dPolyline
 66
     1
 10
0.0
 20
0.0
 30
0.0
  0
VERTEX
  5
EE
330
ED
100
AcDbEntity
  8
LAGER_1
 62
     7
100
AcDbVertex
100
AcDb2dVertex
 10
82.54999997936251
 20
89.6620012694953
 30
0.0
  0
VERTEX
  5
EF
330
ED
100
AcDbEntity
  8
LAGER_1
 62
     7
100
AcDbVertex
100
AcDb2dVertex
 10
77.40649933469298
 20
103.69550083535
 30
0.0
  0
SEQEND
  5
F0
330
ED
100
AcDbEntity
  8
LAGER_1
 62
     7
  0
POLYLINE
  5
F1
330
41
100
AcDbEntity
  8
LAGER_1
 62
     7
100
AcDb2dPolyline
 66
     1
 10
0.0
 20
0.0
 30
0.0
  0
VERTEX
  5
F2
330
F1
100
AcDbEntity
  8
LAGER_1
 62
     7
100
AcDbVertex
100
AcDb2dVertex
 10
77.40649933469298
 20
103.69550083535
 30
0.0
  0
VERTEX
  5
F3
330
F1
100
AcDbEntity
  8
LAGER_1
 62
     7
100
AcDbVertex
100
AcDb2dVertex
 10
95.24999997618751
 20
110.2360038481734
 30
0.0
  0
VERTEX
  5
F4
330
F1
100
AcDbEntity
  8
LAGER_1
 62
     7
100
AcDbVertex
100
AcDb2dVertex
 10
100.3934952378953
 20
96.13899610023283
 30
0.0
  0
SEQEND
  5
F5
330
F1
100
AcDbEntity
  8
LAGER_1
 62
     7
  0
POLYLINE
  5
F6
330
41
100
AcDbEntity
  8
LAGER_1
 62
     7
100
AcDb2dPolyline
 66
     1
 10
0.0
 20
0.0
 30
0.0
  0
VERTEX
  5
F7
330
F6
100
AcDbEntity
  8
LAGER_1
 62
     7
100
AcDbVertex
100
AcDb2dVertex
 10
73.21549761319298
 20
70.73900148954453
 30
0.0
  0
VERTEX
  5
F8
330
F6
100
AcDbEntity
  8
LAGER_1
 62
     7
100
AcDbVertex
100
AcDb2dVertex
 10
59.18199804733829
 20
70.73900148954453
 30
0.0
  0
VERTEX
  5
F9
330
F6
100
AcDbEntity
  8
LAGER_1
 62
     7
100
AcDbVertex
100
AcDb2dVertex
 10
59.18199804733829
 20
84.70899825627501
 30
0.0
  0
VERTEX
  5
FA
330
F6
100
AcDbEntity
  8
LAGER_1
 62
     7
100
AcDbVertex
100
AcDb2dVertex
 10
73.21549761319298
 20
84.70899825627501
 30
0.0
  0
VERTEX
  5
FB
330
F6
100
AcDbEntity
  8
LAGER_1
 62
     7
100
AcDbVertex
100
AcDb2dVertex
 10
73.21549761319298
 20
70.73900148954453
 30
0.0
  0
SEQEND
  5
FC
330
F6
100
AcDbEntity
  8
LAGER_1
 62
     7
  0
POLYLINE
  5
FD
330
41
100
AcDbEntity
  8
LAGER_1
 62
     7
100
AcDb2dPolyline
 66
     1
 10
0.0
 20
0.0
 30
0.0
  0
VERTEX
  5
FE
330
FD
100
AcDbEntity
  8
LAGER_1
 62
     7
100
AcDbVertex
100
AcDb2dVertex
 10
72.19950127386093
 20
108.7120012647328
 30
0.0
  0
VERTEX
  5
FF
330
FD
100
AcDbEntity
  8
LAGER_1
 62
     7
100
AcDbVertex
100
AcDb2dVertex
 10
58.22949912416875
 20
108.7120012647328
 30
0.0
  0
VERTEX
  5
100
330
FD
100
AcDbEntity
  8
LAGER_1
 62
     7
100
AcDbVertex
100
AcDb2dVertex
 10
58.22949912416875
 20
122.7455008305875
 30
0.0
  0
VERTEX
  5
101
330
FD
100
AcDbEntity
  8
LAGER_1
 62
     7
100
AcDbVertex
100
AcDb2dVertex
 10
72.19950127386093
 20
122.7455008305875
 30
0.0
  0
VERTEX
  5
102
330
FD
100
AcDbEntity
  8
LAGER_1
 62
     7
100
AcDbVertex
100
AcDb2dVertex
 10
72.19950127386093
 20
108.7120012647328
 30
0.0
  0
SEQEND
  5
103
330
FD
100
AcDbEntity
  8
LAGER_1
 62
     7
  0
POLYLINE
  5
104
330
41
100
AcDbEntity
  8
LAGER_1
 62
     7
100
AcDb2dPolyline
 66
     1
 10
0.0
 20
0.0
 30
0.0
  0
VERTEX
  5
105
330
104
100
AcDbEntity
  8
LAGER_1
 62
     7
100
AcDbVertex
100
AcDb2dVertex
 10
65.21450019901485
 20
89.72549868565783
 30
0.0
  0
VERTEX
  5
106
330
104
100
AcDbEntity
  8
LAGER_1
 62
     7
100
AcDbVertex
100
AcDb2dVertex
 10
51.18100063316015
 20
89.72549868565783
 30
0.0
  0
VERTEX
  5
107
330
104
100
AcDbEntity
  8
LAGER_1
 62
     7
100
AcDbVertex
100
AcDb2dVertex
 10
51.18100063316015
 20
103.69550083535
 30
0.0
  0
VERTEX
  5
108
330
104
100
AcDbEntity
  8
LAGER_1
 62
     7
100
AcDbVertex
100
AcDb2dVertex
 10
65.21450019901485
 20
103.69550083535
 30
0.0
  0
VERTEX
  5
109
330
104
100
AcDbEntity
  8
LAGER_1
 62
     7
100
AcDbVertex
100
AcDb2dVertex
 10
65.21450019901485
 20
89.72549868565783
 30
0.0
  0
SEQEND
  5
10A
330
104
100
AcDbEntity
  8
LAGER_1
 62
     7
  0
POLYLINE
  5
10B
330
41
100
AcDbEntity
  8
LAGER_1
 62
     7
100
AcDb2dPolyline
 66
     1
 10
0.0
 20
0.0
 30
0.0
  0
VERTEX
  5
10C
330
10B
100
AcDbEntity
  8
LAGER_1
 62
     7
100
AcDbVertex
100
AcDb2dVertex
 10
83.18500105579609
 20
127.6985038438078
 30
0.0
  0
VERTEX
  5
10D
330
10B
100
AcDbEntity
  8
LAGER_1
 62
     7
100
AcDbVertex
100
AcDb2dVertex
 10
69.21499890610392
 20
127.6985038438078
 30
0.0
  0
VERTEX
  5
10E
330
10B
100
AcDbEntity
  8
LAGER_1
 62
     7
100
AcDbVertex
100
AcDb2dVertex
 10
69.21499890610392
 20
141.7320034096625
 30
0.0
  0
VERTEX
  5
10F
330
10B
100
AcDbEntity
  8
LAGER_1
 62
     7
100
AcDbVertex
100
AcDb2dVertex
 10
83.18500105579609
 20
141.7320034096625
 30
0.0
  0
VERTEX
  5
110
330
10B
100
AcDbEntity
  8
LAGER_1
 62
     7
100
AcDbVertex
100
AcDb2dVertex
 10
83.18500105579609
 20
127.6985038438078
 30
0.0
  0
SEQEND
  5
111
330
10B
100
AcDbEntity
  8
LAGER_1
 62
     7
  0
POLYLINE
  5
112
330
41
100
AcDbEntity
  8
LAGER_1
 62
     7
100
AcDb2dPolyline
 66
     1
 10
0.0
 20
0.0
 30
0.0
  0
VERTEX
  5
113
330
112
100
AcDbEntity
  8
LAGER_1
 62
     7
100
AcDbVertex
100
AcDb2dVertex
 10
49.21249998769688
 20
65.72250106016172
 30
0.0
  0
VERTEX
  5
114
330
112
100
AcDbEntity
  8
LAGER_1
 62
     7
100
AcDbVertex
100
AcDb2dVertex
 10
63.18250213738906
 20
65.72250106016172
 30
0.0
  0
VERTEX
  5
115
330
112
100
AcDbEntity
  8
LAGER_1
 62
     7
100
AcDbVertex
100
AcDb2dVertex
 10
63.18250213738906
 20
51.68900149430703
 30
0.0
  0
VERTEX
  5
116
330
112
100
AcDbEntity
  8
LAGER_1
 62
     7
100
AcDbVertex
100
AcDb2dVertex
 10
49.21249998769688
 20
51.68900149430703
 30
0.0
  0
VERTEX
  5
117
330
112
100
AcDbEntity
  8
LAGER_1
 62
     7
100
AcDbVertex
100
AcDb2dVertex
 10
49.21249998769688
 20
65.72250106016172
 30
0.0
  0
SEQEND
  5
118
330
112
100
AcDbEntity
  8
LAGER_1
 62
     7
  0
POLYLINE
  5
119
330
41
100
AcDbEntity
  8
LAGER_1
 62
     7
100
AcDb2dPolyline
 66
     1
 10
0.0
 20
0.0
 30
0.0
  0
VERTEX
  5
11A
330
119
100
AcDbEntity
  8
LAGER_1
 62
     7
100
AcDbVertex
100
AcDb2dVertex
 10
59.18199804733829
 20
160.7184952228141
 30
0.0
  0
VERTEX
  5
11B
330
119
100
AcDbEntity
  8
LAGER_1
 62
     7
100
AcDbVertex
100
AcDb2dVertex
 10
73.21549761319298
 20
160.7184952228141
 30
0.0
  0
VERTEX
  5
11C
330
119
100
AcDbEntity
  8
LAGER_1
 62
     7
100
AcDbVertex
100
AcDb2dVertex
 10
73.21549761319298
 20
146.7485038390453
 30
0.0
  0
VERTEX
  5
11D
330
119
100
AcDbEntity
  8
LAGER_1
 62
     7
100
AcDbVertex
100
AcDb2dVertex
 10
59.18199804733829
 20
146.7485038390453
 30
0.0
  0
VERTEX
  5
11E
330
119
100
AcDbEntity
  8
LAGER_1
 62
     7
100
AcDbVertex
100
AcDb2dVertex
 10
59.18199804733829
 20
160.7184952228141
 30
0.0
  0
SEQEND
  5
11F
330
119
100
AcDbEntity
  8
LAGER_1
 62
     7
  0
POLYLINE
  5
120
330
41
100
AcDbEntity
  8
LAGER_1
 62
     7
100
AcDb2dPolyline
 66
     1
 10
0.0
 20
0.0
 30
0.0
  0
VERTEX
  5
121
330
120
100
AcDbEntity
  8
LAGER_1
 62
     7
100
AcDbVertex
100
AcDb2dVertex
 10
106.9974956668813
 20
98.55199480771877
 30
0.0
  0
VERTEX
  5
122
330
120
100
AcDbEntity
  8
LAGER_1
 62
     7
100
AcDbVertex
100
AcDb2dVertex
 10
82.29599954878907
 20
166.4334995277547
 30
0.0
  0
SEQEND
  5
123
330
120
100
AcDbEntity
  8
LAGER_1
 62
     7
  0
POLYLINE
  5
124
330
41
100
AcDbEntity
  8
LAGER_1
 62
     7
100
AcDb2dPolyline
 66
     1
 10
0.0
 20
0.0
 30
0.0
  0
VERTEX
  5
125
330
124
100
AcDbEntity
  8
LAGER_1
 62
     7
100
AcDbVertex
100
AcDb2dVertex
 10
80.39100170245
 20
167.7035016806219
 30
0.0
  0
VERTEX
  5
126
330
124
100
AcDbEntity
  8
LAGER_1
 62
     7
100
AcDbVertex
100
AcDb2dVertex
 10
5.715000267719335
 20
167.7035016806219
 30
0.0
  0
SEQEND
  5
127
330
124
100
AcDbEntity
  8
LAGER_1
 62
     7
  0
POLYLINE
  5
128
330
41
100
AcDbEntity
  8
LAGER_1
 62
     7
100
AcDb2dPolyline
 66
     1
 10
0.0
 20
0.0
 30
0.0
  0
VERTEX
  5
129
330
128
100
AcDbEntity
  8
LAGER_1
 62
     7
100
AcDbVertex
100
AcDb2dVertex
 10
3.682999851047803
 20
165.7349956521969
 30
0.0
  0
VERTEX
  5
12A
330
128
100
AcDbEntity
  8
LAGER_1
 62
     7
100
AcDbVertex
100
AcDb2dVertex
 10
3.682999851047803
 20
160.7184952228141
 30
0.0
  0
VERTEX
  5
12B
330
128
100
AcDbEntity
  8
LAGER_1
 62
     7
100
AcDbVertex
100
AcDb2dVertex
 10
6.667499863759083
 20
160.7184952228141
 30
0.0
  0
VERTEX
  5
12C
330
128
100
AcDbEntity
  8
LAGER_1
 62
     7
100
AcDbVertex
100
AcDb2dVertex
 10
6.667499863759083
 20
157.7339982380188
 30
0.0
  0
VERTEX
  5
12D
330
128
100
AcDbEntity
  8
LAGER_1
 62
     7
100
AcDbVertex
100
AcDb2dVertex
 10
40.195500851225
 20
157.7339982380188
 30
0.0
  0
SEQEND
  5
12E
330
128
100
AcDbEntity
  8
LAGER_1
 62
     7
  0
POLYLINE
  5
12F
330
41
100
AcDbEntity
  8
LAGER_1
 62
     7
100
AcDb2dPolyline
 66
     1
 10
0.0
 20
0.0
 30
0.0
  0
VERTEX
  5
130
330
12F
100
AcDbEntity
  8
LAGER_1
 62
     7
100
AcDbVertex
100
AcDb2dVertex
 10
41.71950074318477
 20
146.7485038390453
 30
0.0
  0
VERTEX
  5
131
330
12F
100
AcDbEntity
  8
LAGER_1
 62
     7
100
AcDbVertex
100
AcDb2dVertex
 10
41.71950074318477
 20
141.7320034096625
 30
0.0
  0
SEQEND
  5
132
330
12F
100
AcDbEntity
  8
LAGER_1
 62
     7
  0
POLYLINE
  5
133
330
41
100
AcDbEntity
  8
LAGER_1
 62
     7
100
AcDb2dPolyline
 66
     1
 10
0.0
 20
0.0
 30
0.0
  0
VERTEX
  5
134
330
133
100
AcDbEntity
  8
LAGER_1
 62
     7
100
AcDbVertex
100
AcDb2dVertex
 10
41.71950074318477
 20
127.6985038438078
 30
0.0
  0
VERTEX
  5
135
330
133
100
AcDbEntity
  8
LAGER_1
 62
     7
100
AcDbVertex
100
AcDb2dVertex
 10
41.71950074318477
 20
124.7139960930891
 30
0.0
  0
VERTEX
  5
136
330
133
100
AcDbEntity
  8
LAGER_1
 62
     7
100
AcDbVertex
100
AcDb2dVertex
 10
6.667499863759083
 20
124.7139960930891
 30
0.0
  0
VERTEX
  5
137
330
133
100
AcDbEntity
  8
LAGER_1
 62
     7
100
AcDbVertex
100
AcDb2dVertex
 10
6.667499863759083
 20
121.7294991082938
 30
0.0
  0
VERTEX
  5
138
330
133
100
AcDbEntity
  8
LAGER_1
 62
     7
100
AcDbVertex
100
AcDb2dVertex
 10
3.682999851047803
 20
121.7294991082938
 30
0.0
  0
VERTEX
  5
139
330
133
100
AcDbEntity
  8
LAGER_1
 62
     7
100
AcDbVertex
100
AcDb2dVertex
 10
3.682999851047803
 20
85.72499997856876
 30
0.0
  0
SEQEND
  5
13A
330
133
100
AcDbEntity
  8
LAGER_1
 62
     7
  0
POLYLINE
  5
13B
330
41
100
AcDbEntity
  8
LAGER_1
 62
     7
100
AcDb2dPolyline
 66
     1
 10
0.0
 20
0.0
 30
0.0
  0
VERTEX
  5
13C
330
13B
100
AcDbEntity
  8
LAGER_1
 62
     7
100
AcDbVertex
100
AcDb2dVertex
 10
3.682999851047803
 20
77.72400256439062
 30
0.0
  0
VERTEX
  5
13D
330
13B
100
AcDbEntity
  8
LAGER_1
 62
     7
100
AcDbVertex
100
AcDb2dVertex
 10
3.682999851047803
 20
74.42200234989765
 30
0.0
  0
SEQEND
  5
13E
330
13B
100
AcDbEntity
  8
LAGER_1
 62
     7
  0
POLYLINE
  5
13F
330
41
100
AcDbEntity
  8
LAGER_1
 62
     7
100
AcDb2dPolyline
 66
     1
 10
0.0
 20
0.0
 30
0.0
  0
VERTEX
  5
140
330
13F
100
AcDbEntity
  8
LAGER_1
 62
     7
100
AcDbVertex
100
AcDb2dVertex
 10
4.127499931681104
 20
73.15200019703047
 30
0.0
  0
VERTEX
  5
141
330
13F
100
AcDbEntity
  8
LAGER_1
 62
     7
100
AcDbVertex
100
AcDb2dVertex
 10
26.09850117772695
 20
45.46600171118124
 30
0.0
  0
SEQEND
  5
142
330
13F
100
AcDbEntity
  8
LAGER_1
 62
     7
  0
POLYLINE
  5
143
330
41
100
AcDbEntity
  8
LAGER_1
 62
     7
100
AcDb2dPolyline
 66
     1
 10
0.0
 20
0.0
 30
0.0
  0
VERTEX
  5
144
330
143
100
AcDbEntity
  8
LAGER_1
 62
     7
100
AcDbVertex
100
AcDb2dVertex
 10
27.68600117733007
 20
44.70400041946094
 30
0.0
  0
VERTEX
  5
145
330
143
100
AcDbEntity
  8
LAGER_1
 62
     7
100
AcDbVertex
100
AcDb2dVertex
 10
67.43700127505156
 20
44.70400041946094
 30
0.0
  0
SEQEND
  5
146
330
143
100
AcDbEntity
  8
LAGER_1
 62
     7
  0
POLYLINE
  5
147
330
41
100
AcDbEntity
  8
LAGER_1
 62
     7
100
AcDb2dPolyline
 66
     1
 10
0.0
 20
0.0
 30
0.0
  0
VERTEX
  5
148
330
147
100
AcDbEntity
  8
LAGER_1
 62
     7
100
AcDbVertex
100
AcDb2dVertex
 10
69.27850170522812
 20
45.8470023570414
 30
0.0
  0
VERTEX
  5
149
330
147
100
AcDbEntity
  8
LAGER_1
 62
     7
100
AcDbVertex
100
AcDb2dVertex
 10
78.48599847314922
 20
64.32549869200783
 30
0.0
  0
SEQEND
  5
14A
330
147
100
AcDbEntity
  8
LAGER_1
 62
     7
  0
POLYLINE
  5
14B
330
41
100
AcDbEntity
  8
LAGER_1
 62
     7
100
AcDb2dPolyline
 66
     1
 10
0.0
 20
0.0
 30
0.0
  0
VERTEX
  5
14C
330
14B
100
AcDbEntity
  8
LAGER_1
 62
     7
100
AcDbVertex
100
AcDb2dVertex
 10
78.67650148756016
 20
65.21450019901485
 30
0.0
  0
VERTEX
  5
14D
330
14B
100
AcDbEntity
  8
LAGER_1
 62
     7
100
AcDbVertex
100
AcDb2dVertex
 10
78.67650148756016
 20
79.6924978268922
 30
0.0
  0
SEQEND
  5
14E
330
14B
100
AcDbEntity
  8
LAGER_1
 62
     7
  0
POLYLINE
  5
14F
330
41
100
AcDbEntity
  8
LAGER_1
 62
     7
100
AcDb2dPolyline
 66
     1
 10
0.0
 20
0.0
 30
0.0
  0
VERTEX
  5
150
330
14F
100
AcDbEntity
  8
LAGER_1
 62
     7
100
AcDbVertex
100
AcDb2dVertex
 10
100.3934952378953
 20
96.13899610023283
 30
0.0
  0
VERTEX
  5
151
330
14F
100
AcDbEntity
  8
LAGER_1
 62
     7
100
AcDbVertex
100
AcDb2dVertex
 10
106.9974956668813
 20
98.55199480771877
 30
0.0
  0
SEQEND
  5
152
330
14F
100
AcDbEntity
  8
LAGER_1
 62
     7
  0
POLYLINE
  5
153
330
41
100
AcDbEntity
  8
LAGER_1
 62
     7
100
AcDb2dPolyline
 66
     1
 10
0.0
 20
0.0
 30
0.0
  0
VERTEX
  5
154
330
153
100
AcDbEntity
  8
LAGER_1
 62
     7
100
AcDbVertex
100
AcDb2dVertex
 10
78.67650148756016
 20
79.6924978268922
 30
0.0
  0
VERTEX
  5
155
330
153
100
AcDbEntity
  8
LAGER_1
 62
     7
100
AcDbVertex
100
AcDb2dVertex
 10
75.94599955037657
 20
87.24900256200937
 30
0.0
  0
VERTEX
  5
156
330
153
100
AcDbEntity
  8
LAGER_1
 62
     7
100
AcDbVertex
100
AcDb2dVertex
 10
82.54999997936251
 20
89.6620012694953
 30
0.0
  0
SEQEND
  5
157
330
153
100
AcDbEntity
  8
LAGER_1
 62
     7
  0
SPLINE
  5
158
330
41
100
AcDbEntity
  8
LAGER_1
 62
     7
100
AcDbSpline
210
0.0
220
0.0
230
1.0
 70
     8
 71
     3
 72
    17
 73
    13
 74
     0
 42
0.0000000001
 43
0.0000000001
 12
1.0
 22
0.0
 32
0.0
 13
1.0
 23
0.0
 33
0.0
 40
0.0
 40
0.0
 40
0.0
 40
0.0
 40
1.0
 40
1.0
 40
1.0
 40
2.0
 40
2.0
 40
2.0
 40
3.0
 40
3.0
 40
3.0
 40
4.0
 40
4.0
 40
4.0
 40
4.0
 10
7.207399483044478
 20
114.2365025552625
 30
0.0
 10
6.383278813355759
 20
114.2365779167262
 30
0.0
 10
5.715121384357488
 20
113.5685846680597
 30
0.0
 10
5.715000267719335
 20
112.744463998371
 30
0.0
 10
5.714879151081182
 20
111.9203540946056
 30
0.0
 10
6.382839429107348
 20
111.2521562933946
 30
0.0
 10
7.206956061574794
 20
111.2519948045438
 30
0.0
 10
8.031076731263513
 20
111.2518440816163
 30
0.0
 10
8.69929808293192
 20
111.9197619688191
 30
0.0
 10
8.699499943995509
 20
112.7438826385078
 30
0.0
 10
8.699702477929309
 20
113.5680033081966
 30
0.0
 10
8.031805449703068
 20
114.2362549390245
 30
0.0
 10
7.20768478001435
 20
114.2365025552625
 30
0.0
  0
SPLINE
  5
159
330
41
100
AcDbEntity
  8
LAGER_1
 62
     7
100
AcDbSpline
210
0.0
220
0.0
230
1.0
 70
     8
 71
     3
 72
    17
 73
    13
 74
     0
 42
0.0000000001
 43
0.0000000001
 12
1.0
 22
0.0
 32
0.0
 13
1.0
 23
0.0
 33
0.0
 40
0.0
 40
0.0
 40
0.0
 40
0.0
 40
1.0
 40
1.0
 40
1.0
 40
2.0
 40
2.0
 40
2.0
 40
3.0
 40
3.0
 40
3.0
 40
4.0
 40
4.0
 40
4.0
 40
4.0
 10
78.32740027270873
 20
93.85300299099531
 30
0.0
 10
77.50327960302002
 20
93.85307835245905
 30
0.0
 10
76.8351194825409
 20
93.18508510379249
 30
0.0
 10
76.8350010573836
 20
92.36096443410378
 30
0.0
 10
76.8348772492646
 20
91.53685453033845
 30
0.0
 10
77.50283820016097
 20
90.86865672912745
 30
0.0
 10
78.32695348688799
 20
90.86849524027659
 30
0.0
 10
79.15107415657671
 20
90.86833375142571
 30
0.0
 10
79.81929887259618
 20
91.53626240455192
 30
0.0
 10
79.81949804217892
 20
92.36038307424064
 30
0.0
 10
79.81970259472335
 20
93.18450374392935
 30
0.0
 10
79.15180623936733
 20
93.85275537475731
 30
0.0
 10
78.32768556967861
 20
93.85300299099531
 30
0.0
  0
SPLINE
  5
15A
330
41
100
AcDbEntity
  8
LAGER_1
 62
     7
100
AcDbSpline
210
0.0
220
0.0
230
1.0
 70
     8
 71
     3
 72
    17
 73
    13
 74
     0
 42
0.0000000001
 43
0.0000000001
 12
1.0
 22
0.0
 32
0.0
 13
1.0
 23
0.0
 33
0.0
 40
0.0
 40
0.0
 40
0.0
 40
0.0
 40
1.0
 40
1.0
 40
1.0
 40
2.0
 40
2.0
 40
2.0
 40
3.0
 40
3.0
 40
3.0
 40
4.0
 40
4.0
 40
4.0
 40
4.0
 10
66.51640178289075
 20
49.72049546588205
 30
0.0
 10
65.69228111320204
 20
49.72058159326918
 30
0.0
 10
65.02412099272293
 20
49.05258834460263
 30
0.0
 10
65.02400256756562
 20
48.22846767491392
 30
0.0
 10
65.02387875944662
 20
47.4043470052252
 30
0.0
 10
65.69183971034299
 20
46.7361545869759
 30
0.0
 10
66.51595499707001
 20
46.73599848108672
 30
0.0
 10
67.34007566675874
 20
46.73583699223585
 30
0.0
 10
68.0083003827782
 20
47.40376564536206
 30
0.0
 10
68.00849955236095
 20
48.22788093208909
 30
0.0
 10
68.00870410490538
 20
49.0520016017778
 30
0.0
 10
67.34080774954936
 20
49.72025323260575
 30
0.0
 10
66.51668707986063
 20
49.72049546588205
 30
0.0
  0
SPLINE
  5
15B
330
41
100
AcDbEntity
  8
LAGER_1
 62
     7
100
AcDbSpline
210
0.0
220
0.0
230
1.0
 70
     8
 71
     3
 72
    17
 73
    13
 74
     0
 42
0.0000000001
 43
0.0000000001
 12
1.0
 22
0.0
 32
0.0
 13
1.0
 23
0.0
 33
0.0
 40
0.0
 40
0.0
 40
0.0
 40
0.0
 40
1.0
 40
1.0
 40
1.0
 40
2.0
 40
2.0
 40
2.0
 40
3.0
 40
3.0
 40
3.0
 40
4.0
 40
4.0
 40
4.0
 40
4.0
 10
11.71589905128042
 20
165.7350064181203
 30
0.0
 10
10.8917783815917
 20
165.735081779584
 30
0.0
 10
10.22362095259343
 20
165.0670885309175
 30
0.0
 10
10.22349983595528
 20
164.2429678612287
 30
0.0
 10
10.22337871931712
 20
163.4188579574634
 30
0.0
 10
10.89133899734329
 20
162.7506601562525
 30
0.0
 10
11.71545630268094
 20
162.7504986674016
 30
0.0
 10
12.53957697236966
 20
162.7503371785507
 30
0.0
 10
13.20779765116786
 20
163.4182658316769
 30
0.0
 10
13.20799951223145
 20
164.2423865013656
 30
0.0
 10
13.20820271903546
 20
165.0665071710544
 30
0.0
 10
12.54030501793901
 20
165.7347588018823
 30
0.0
 10
11.71618434825029
 20
165.7350064181203
 30
0.0
  0
SPLINE
  5
15C
330
41
100
AcDbEntity
  8
LAGER_1
 62
     7
100
AcDbSpline
210
0.0
220
0.0
230
1.0
 70
     8
 71
     3
 72
    17
 73
    13
 74
     0
 42
0.0000000001
 43
0.0000000001
 12
1.0
 22
0.0
 32
0.0
 13
1.0
 23
0.0
 33
0.0
 40
0.0
 40
0.0
 40
0.0
 40
0.0
 40
1.0
 40
1.0
 40
1.0
 40
2.0
 40
2.0
 40
2.0
 40
3.0
 40
3.0
 40
3.0
 40
4.0
 40
4.0
 40
4.0
 40
4.0
 10
28.41639910093491
 20
49.72049546588205
 30
0.0
 10
27.59227843124619
 20
49.72058159326918
 30
0.0
 10
26.92412100224792
 20
49.05258834460263
 30
0.0
 10
26.92399988560977
 20
48.22846767491392
 30
0.0
 10
26.92387876897162
 20
47.4043470052252
 30
0.0
 10
27.59183971986799
 20
46.7361545869759
 30
0.0
 10
28.41595769807586
 20
46.73599848108672
 30
0.0
 10
29.24007836776458
 20
46.73583699223585
 30
0.0
 10
29.90829770082235
 20
47.40376564536206
 30
0.0
 10
29.90850225336679
 20
48.22788093208909
 30
0.0
 10
29.90870411443038
 20
49.0520016017778
 30
0.0
 10
29.24080775907435
 20
49.72025323260575
 30
0.0
 10
28.41668708938563
 20
49.72049546588205
 30
0.0
  0
SPLINE
  5
15D
330
41
100
AcDbEntity
  8
LAGER_1
 62
     7
100
AcDbSpline
210
0.0
220
0.0
230
1.0
 70
     8
 71
     3
 72
    17
 73
    13
 74
     0
 42
0.0000000001
 43
0.0000000001
 12
1.0
 22
0.0
 32
0.0
 13
1.0
 23
0.0
 33
0.0
 40
0.0
 40
0.0
 40
0.0
 40
0.0
 40
1.0
 40
1.0
 40
1.0
 40
2.0
 40
2.0
 40
2.0
 40
3.0
 40
3.0
 40
3.0
 40
4.0
 40
4.0
 40
4.0
 40
4.0
 10
101.8224024200197
 20
102.4254986824828
 30
0.0
 10
100.9982817503309
 20
102.4255740439466
 30
0.0
 10
100.3301270128135
 20
101.75758079528
 30
0.0
 10
100.3299978217328
 20
100.9334601255913
 30
0.0
 10
100.3298793965755
 20
100.109350221826
 30
0.0
 10
100.9978403474719
 20
99.44115242061498
 30
0.0
 10
101.8219610171606
 20
99.4409909317641
 30
0.0
 10
102.6460816868493
 20
99.44082944291324
 30
0.0
 10
103.3143010199071
 20
100.1087580960394
 30
0.0
 10
103.3145055724515
 20
100.9328787657282
 30
0.0
 10
103.3146993590726
 20
101.7569994354169
 30
0.0
 10
102.6468030037166
 20
102.4252510662448
 30
0.0
 10
101.8226823340278
 20
102.4254986824828
 30
0.0
  0
SPLINE
  5
15E
330
41
100
AcDbEntity
  8
LAGER_1
 62
     7
100
AcDbSpline
210
0.0
220
0.0
230
1.0
 70
     8
 71
     3
 72
    17
 73
    13
 74
     0
 42
0.0000000001
 43
0.0000000001
 12
1.0
 22
0.0
 32
0.0
 13
1.0
 23
0.0
 33
0.0
 40
0.0
 40
0.0
 40
0.0
 40
0.0
 40
1.0
 40
1.0
 40
1.0
 40
2.0
 40
2.0
 40
2.0
 40
3.0
 40
3.0
 40
3.0
 40
4.0
 40
4.0
 40
4.0
 40
4.0
 10
78.26390285654622
 20
165.7350064181203
 30
0.0
 10
77.4397821868575
 20
165.735081779584
 30
0.0
 10
76.77162206637838
 20
165.0670885309175
 30
0.0
 10
76.77150364122109
 20
164.2429678612287
 30
0.0
 10
76.77137983310207
 20
163.4188579574634
 30
0.0
 10
77.43934078399846
 20
162.7506601562525
 30
0.0
 10
78.26345607072548
 20
162.7504986674016
 30
0.0
 10
79.08757674041419
 20
162.7503371785507
 30
0.0
 10
79.75580145643367
 20
163.4182658316769
 30
0.0
 10
79.7560006260164
 20
164.2423865013656
 30
0.0
 10
79.75620517856085
 20
165.0665071710544
 30
0.0
 10
79.08830882320481
 20
165.7347588018823
 30
0.0
 10
78.2641881535161
 20
165.7350064181203
 30
0.0
  0
POLYLINE
  5
15F
330
41
100
AcDbEntity
  8
LAGER_1
 62
     7
100
AcDb2dPolyline
 66
     1
 10
0.0
 20
0.0
 30
0.0
  0
VERTEX
  5
160
330
15F
100
AcDbEntity
  8
LAGER_1
 62
     7
100
AcDbVertex
100
AcDb2dVertex
 10
46.22799761993986
 20
103.69550083535
 30
0.0
  0
VERTEX
  5
161
330
15F
100
AcDbEntity
  8
LAGER_1
 62
     7
100
AcDbVertex
100
AcDb2dVertex
 10
46.22799761993986
 20
89.72549868565783
 30
0.0
  0
VERTEX
  5
162
330
15F
100
AcDbEntity
  8
LAGER_1
 62
     7
100
AcDbVertex
100
AcDb2dVertex
 10
32.19450074556601
 20
89.72549868565783
 30
0.0
  0
VERTEX
  5
163
330
15F
100
AcDbEntity
  8
LAGER_1
 62
     7
100
AcDbVertex
100
AcDb2dVertex
 10
32.19450074556601
 20
103.69550083535
 30
0.0
  0
VERTEX
  5
164
330
15F
100
AcDbEntity
  8
LAGER_1
 62
     7
100
AcDbVertex
100
AcDb2dVertex
 10
46.22799761993986
 20
103.69550083535
 30
0.0
  0
SEQEND
  5
165
330
15F
100
AcDbEntity
  8
LAGER_1
 62
     7
  0
POLYLINE
  5
166
330
41
100
AcDbEntity
  8
LAGER_1
 62
     7
100
AcDb2dPolyline
 66
     1
 10
0.0
 20
0.0
 30
0.0
  0
VERTEX
  5
167
330
166
100
AcDbEntity
  8
LAGER_1
 62
     7
100
AcDbVertex
100
AcDb2dVertex
 10
39.17949912893125
 20
122.7455008305875
 30
0.0
  0
VERTEX
  5
168
330
166
100
AcDbEntity
  8
LAGER_1
 62
     7
100
AcDbVertex
100
AcDb2dVertex
 10
53.21299869478595
 20
122.7455008305875
 30
0.0
  0
VERTEX
  5
169
330
166
100
AcDbEntity
  8
LAGER_1
 62
     7
100
AcDbVertex
100
AcDb2dVertex
 10
53.21299869478595
 20
108.7120012647328
 30
0.0
  0
VERTEX
  5
16A
330
166
100
AcDbEntity
  8
LAGER_1
 62
     7
100
AcDbVertex
100
AcDb2dVertex
 10
39.17949912893125
 20
108.7120012647328
 30
0.0
  0
VERTEX
  5
16B
330
166
100
AcDbEntity
  8
LAGER_1
 62
     7
100
AcDbVertex
100
AcDb2dVertex
 10
39.17949912893125
 20
122.7455008305875
 30
0.0
  0
SEQEND
  5
16C
330
166
100
AcDbEntity
  8
LAGER_1
 62
     7
  0
POLYLINE
  5
16D
330
41
100
AcDbEntity
  8
LAGER_1
 62
     7
100
AcDb2dPolyline
 66
     1
 10
0.0
 20
0.0
 30
0.0
  0
VERTEX
  5
16E
330
16D
100
AcDbEntity
  8
LAGER_1
 62
     7
100
AcDbVertex
100
AcDb2dVertex
 10
54.22900041707969
 20
84.70899825627501
 30
0.0
  0
VERTEX
  5
16F
330
16D
100
AcDbEntity
  8
LAGER_1
 62
     7
100
AcDbVertex
100
AcDb2dVertex
 10
54.22900041707969
 20
70.73900148954453
 30
0.0
  0
VERTEX
  5
170
330
16D
100
AcDbEntity
  8
LAGER_1
 62
     7
100
AcDbVertex
100
AcDb2dVertex
 10
40.195500851225
 20
70.73900148954453
 30
0.0
  0
VERTEX
  5
171
330
16D
100
AcDbEntity
  8
LAGER_1
 62
     7
100
AcDbVertex
100
AcDb2dVertex
 10
40.195500851225
 20
84.70899825627501
 30
0.0
  0
VERTEX
  5
172
330
16D
100
AcDbEntity
  8
LAGER_1
 62
     7
100
AcDbVertex
100
AcDb2dVertex
 10
54.22900041707969
 20
84.70899825627501
 30
0.0
  0
SEQEND
  5
173
330
16D
100
AcDbEntity
  8
LAGER_1
 62
     7
  0
POLYLINE
  5
174
330
41
100
AcDbEntity
  8
LAGER_1
 62
     7
100
AcDb2dPolyline
 66
     1
 10
0.0
 20
0.0
 30
0.0
  0
VERTEX
  5
175
330
174
100
AcDbEntity
  8
LAGER_1
 62
     7
100
AcDbVertex
100
AcDb2dVertex
 10
50.22850170999062
 20
141.7320034096625
 30
0.0
  0
VERTEX
  5
176
330
174
100
AcDbEntity
  8
LAGER_1
 62
     7
100
AcDbVertex
100
AcDb2dVertex
 10
64.1984984767211
 20
141.7320034096625
 30
0.0
  0
VERTEX
  5
177
330
174
100
AcDbEntity
  8
LAGER_1
 62
     7
100
AcDbVertex
100
AcDb2dVertex
 10
64.1984984767211
 20
127.6985038438078
 30
0.0
  0
VERTEX
  5
178
330
174
100
AcDbEntity
  8
LAGER_1
 62
     7
100
AcDbVertex
100
AcDb2dVertex
 10
50.22850170999062
 20
127.6985038438078
 30
0.0
  0
VERTEX
  5
179
330
174
100
AcDbEntity
  8
LAGER_1
 62
     7
100
AcDbVertex
100
AcDb2dVertex
 10
50.22850170999062
 20
141.7320034096625
 30
0.0
  0
SEQEND
  5
17A
330
174
100
AcDbEntity
  8
LAGER_1
 62
     7
  0
POLYLINE
  5
17B
330
41
100
AcDbEntity
  8
LAGER_1
 62
     7
100
AcDb2dPolyline
 66
     1
 10
0.0
 20
0.0
 30
0.0
  0
VERTEX
  5
17C
330
17B
100
AcDbEntity
  8
LAGER_1
 62
     7
100
AcDbVertex
100
AcDb2dVertex
 10
27.1780003161832
 20
103.69550083535
 30
0.0
  0
VERTEX
  5
17D
330
17B
100
AcDbEntity
  8
LAGER_1
 62
     7
100
AcDbVertex
100
AcDb2dVertex
 10
27.1780003161832
 20
89.72549868565783
 30
0.0
  0
VERTEX
  5
17E
330
17B
100
AcDbEntity
  8
LAGER_1
 62
     7
100
AcDbVertex
100
AcDb2dVertex
 10
13.20799951223145
 20
89.72549868565783
 30
0.0
  0
VERTEX
  5
17F
330
17B
100
AcDbEntity
  8
LAGER_1
 62
     7
100
AcDbVertex
100
AcDb2dVertex
 10
13.20799951223145
 20
103.69550083535
 30
0.0
  0
VERTEX
  5
180
330
17B
100
AcDbEntity
  8
LAGER_1
 62
     7
100
AcDbVertex
100
AcDb2dVertex
 10
27.1780003161832
 20
103.69550083535
 30
0.0
  0
SEQEND
  5
181
330
17B
100
AcDbEntity
  8
LAGER_1
 62
     7
  0
POLYLINE
  5
182
330
41
100
AcDbEntity
  8
LAGER_1
 62
     7
100
AcDb2dPolyline
 66
     1
 10
0.0
 20
0.0
 30
0.0
  0
VERTEX
  5
183
330
182
100
AcDbEntity
  8
LAGER_1
 62
     7
100
AcDbVertex
100
AcDb2dVertex
 10
20.19300058707754
 20
122.7455008305875
 30
0.0
  0
VERTEX
  5
184
330
182
100
AcDbEntity
  8
LAGER_1
 62
     7
100
AcDbVertex
100
AcDb2dVertex
 10
34.2264988071918
 20
122.7455008305875
 30
0.0
  0
VERTEX
  5
185
330
182
100
AcDbEntity
  8
LAGER_1
 62
     7
100
AcDbVertex
100
AcDb2dVertex
 10
34.2264988071918
 20
108.7120012647328
 30
0.0
  0
VERTEX
  5
186
330
182
100
AcDbEntity
  8
LAGER_1
 62
     7
100
AcDbVertex
100
AcDb2dVertex
 10
20.19300058707754
 20
108.7120012647328
 30
0.0
  0
VERTEX
  5
187
330
182
100
AcDbEntity
  8
LAGER_1
 62
     7
100
AcDbVertex
100
AcDb2dVertex
 10
20.19300058707754
 20
122.7455008305875
 30
0.0
  0
SEQEND
  5
188
330
182
100
AcDbEntity
  8
LAGER_1
 62
     7
  0
POLYLINE
  5
189
330
41
100
AcDbEntity
  8
LAGER_1
 62
     7
100
AcDb2dPolyline
 66
     1
 10
0.0
 20
0.0
 30
0.0
  0
VERTEX
  5
18A
330
189
100
AcDbEntity
  8
LAGER_1
 62
     7
100
AcDbVertex
100
AcDb2dVertex
 10
35.17900042184219
 20
84.70899825627501
 30
0.0
  0
VERTEX
  5
18B
330
189
100
AcDbEntity
  8
LAGER_1
 62
     7
100
AcDbVertex
100
AcDb2dVertex
 10
35.17900042184219
 20
70.73900148954453
 30
0.0
  0
VERTEX
  5
18C
330
189
100
AcDbEntity
  8
LAGER_1
 62
     7
100
AcDbVertex
100
AcDb2dVertex
 10
21.20899961789043
 20
70.73900148954453
 30
0.0
  0
VERTEX
  5
18D
330
189
100
AcDbEntity
  8
LAGER_1
 62
     7
100
AcDbVertex
100
AcDb2dVertex
 10
21.20899961789043
 20
84.70899825627501
 30
0.0
  0
VERTEX
  5
18E
330
189
100
AcDbEntity
  8
LAGER_1
 62
     7
100
AcDbVertex
100
AcDb2dVertex
 10
35.17900042184219
 20
84.70899825627501
 30
0.0
  0
SEQEND
  5
18F
330
189
100
AcDbEntity
  8
LAGER_1
 62
     7
  0
POLYLINE
  5
190
330
41
100
AcDbEntity
  8
LAGER_1
 62
     7
100
AcDb2dPolyline
 66
     1
 10
0.0
 20
0.0
 30
0.0
  0
VERTEX
  5
191
330
190
100
AcDbEntity
  8
LAGER_1
 62
     7
100
AcDbVertex
100
AcDb2dVertex
 10
41.71950074318477
 20
141.7320034096625
 30
0.0
  0
VERTEX
  5
192
330
190
100
AcDbEntity
  8
LAGER_1
 62
     7
100
AcDbVertex
100
AcDb2dVertex
 10
45.21200128060781
 20
141.7320034096625
 30
0.0
  0
VERTEX
  5
193
330
190
100
AcDbEntity
  8
LAGER_1
 62
     7
100
AcDbVertex
100
AcDb2dVertex
 10
45.21200128060781
 20
127.6985038438078
 30
0.0
  0
VERTEX
  5
194
330
190
100
AcDbEntity
  8
LAGER_1
 62
     7
100
AcDbVertex
100
AcDb2dVertex
 10
41.71950074318477
 20
127.6985038438078
 30
0.0
  0
SEQEND
  5
195
330
190
100
AcDbEntity
  8
LAGER_1
 62
     7
  0
POLYLINE
  5
196
330
41
100
AcDbEntity
  8
LAGER_1
 62
     7
100
AcDb2dPolyline
 66
     1
 10
0.0
 20
0.0
 30
0.0
  0
VERTEX
  5
197
330
196
100
AcDbEntity
  8
LAGER_1
 62
     7
100
AcDbVertex
100
AcDb2dVertex
 10
44.19599955831406
 20
51.68900149430703
 30
0.0
  0
VERTEX
  5
198
330
196
100
AcDbEntity
  8
LAGER_1
 62
     7
100
AcDbVertex
100
AcDb2dVertex
 10
30.22600010010273
 20
51.68900149430703
 30
0.0
  0
VERTEX
  5
199
330
196
100
AcDbEntity
  8
LAGER_1
 62
     7
100
AcDbVertex
100
AcDb2dVertex
 10
30.22600010010273
 20
65.72250106016172
 30
0.0
  0
VERTEX
  5
19A
330
196
100
AcDbEntity
  8
LAGER_1
 62
     7
100
AcDbVertex
100
AcDb2dVertex
 10
44.19599955831406
 20
65.72250106016172
 30
0.0
  0
VERTEX
  5
19B
330
196
100
AcDbEntity
  8
LAGER_1
 62
     7
100
AcDbVertex
100
AcDb2dVertex
 10
44.19599955831406
 20
51.68900149430703
 30
0.0
  0
SEQEND
  5
19C
330
196
100
AcDbEntity
  8
LAGER_1
 62
     7
  0
POLYLINE
  5
19D
330
41
100
AcDbEntity
  8
LAGER_1
 62
     7
100
AcDb2dPolyline
 66
     1
 10
0.0
 20
0.0
 30
0.0
  0
VERTEX
  5
19E
330
19D
100
AcDbEntity
  8
LAGER_1
 62
     7
100
AcDbVertex
100
AcDb2dVertex
 10
40.195500851225
 20
157.7339982380188
 30
0.0
  0
VERTEX
  5
19F
330
19D
100
AcDbEntity
  8
LAGER_1
 62
     7
100
AcDbVertex
100
AcDb2dVertex
 10
40.195500851225
 20
160.7184952228141
 30
0.0
  0
VERTEX
  5
1A0
330
19D
100
AcDbEntity
  8
LAGER_1
 62
     7
100
AcDbVertex
100
AcDb2dVertex
 10
54.22900041707969
 20
160.7184952228141
 30
0.0
  0
VERTEX
  5
1A1
330
19D
100
AcDbEntity
  8
LAGER_1
 62
     7
100
AcDbVertex
100
AcDb2dVertex
 10
54.22900041707969
 20
146.7485038390453
 30
0.0
  0
VERTEX
  5
1A2
330
19D
100
AcDbEntity
  8
LAGER_1
 62
     7
100
AcDbVertex
100
AcDb2dVertex
 10
41.71950074318477
 20
146.7485038390453
 30
0.0
  0
SEQEND
  5
1A3
330
19D
100
AcDbEntity
  8
LAGER_1
 62
     7
  0
SPLINE
  5
1A4
330
41
100
AcDbEntity
  8
LAGER_1
 62
     7
100
AcDbSpline
210
0.0
220
0.0
230
1.0
 70
     8
 71
     3
 72
     8
 73
     4
 74
     0
 42
0.0000000001
 43
0.0000000001
 12
1.0
 22
0.0
 32
0.0
 13
1.0
 23
0.0
 33
0.0
 40
0.0
 40
0.0
 40
0.0
 40
0.0
 40
1.0
 40
1.0
 40
1.0
 40
1.0
 10
82.23892938889122
 20
166.3872275890184
 30
0.0
 10
81.95141463880034
 20
167.1773602385605
 30
0.0
 10
81.20045380151792
 20
167.703340191771
 30
0.0
 10
80.35963518464914
 20
167.7035016806219
 30
0.0
  0
SPLINE
  5
1A5
330
41
100
AcDbEntity
  8
LAGER_1
 62
     7
100
AcDbSpline
210
0.0
220
0.0
230
1.0
 70
     8
 71
     3
 72
     8
 73
     4
 74
     0
 42
0.0000000001
 43
0.0000000001
 12
1.0
 22
0.0
 32
0.0
 13
1.0
 23
0.0
 33
0.0
 40
0.0
 40
0.0
 40
0.0
 40
0.0
 40
1.0
 40
1.0
 40
1.0
 40
1.0
 10
5.683450056350608
 20
167.7035124465453
 30
0.0
 10
4.57881854260733
 20
167.7036201057792
 30
0.0
 10
3.683216515256055
 20
166.8082828528563
 30
0.0
 10
3.683000187482909
 20
165.7036452832811
 30
0.0
  0
POLYLINE
  5
1A6
330
41
100
AcDbEntity
  8
LAGER_1
 62
     7
100
AcDb2dPolyline
 66
     1
 10
0.0
 20
0.0
 30
0.0
  0
VERTEX
  5
1A7
330
1A6
100
AcDbEntity
  8
LAGER_1
 62
     7
100
AcDbVertex
100
AcDb2dVertex
 10
3.682999851047803
 20
85.72499997856876
 30
0.0
  0
VERTEX
  5
1A8
330
1A6
100
AcDbEntity
  8
LAGER_1
 62
     7
100
AcDbVertex
100
AcDb2dVertex
 10
9.715500320548827
 20
85.72499997856876
 30
0.0
  0
VERTEX
  5
1A9
330
1A6
100
AcDbEntity
  8
LAGER_1
 62
     7
100
AcDbVertex
100
AcDb2dVertex
 10
9.715500320548827
 20
77.72400256439062
 30
0.0
  0
VERTEX
  5
1AA
330
1A6
100
AcDbEntity
  8
LAGER_1
 62
     7
100
AcDbVertex
100
AcDb2dVertex
 10
3.682999851047803
 20
77.72400256439062
 30
0.0
  0
SEQEND
  5
1AB
330
1A6
100
AcDbEntity
  8
LAGER_1
 62
     7
  0
SPLINE
  5
1AC
330
41
100
AcDbEntity
  8
LAGER_1
 62
     7
100
AcDbSpline
210
0.0
220
0.0
230
1.0
 70
     8
 71
     3
 72
     8
 73
     4
 74
     0
 42
0.0000000001
 43
0.0000000001
 12
1.0
 22
0.0
 32
0.0
 13
1.0
 23
0.0
 33
0.0
 40
0.0
 40
0.0
 40
0.0
 40
0.0
 40
1.0
 40
1.0
 40
1.0
 40
1.0
 10
3.683000187482909
 20
74.39044742843744
 30
0.0
 10
3.682955105178708
 20
73.93919374948666
 30
0.0
 10
3.835494782230688
 20
73.50118753926903
 30
0.0
 10
4.115840100213106
 20
73.1475807854783
 30
0.0
  0
SPLINE
  5
1AD
330
41
100
AcDbEntity
  8
LAGER_1
 62
     7
100
AcDbSpline
210
0.0
220
0.0
230
1.0
 70
     8
 71
     3
 72
     8
 73
     4
 74
     0
 42
0.0000000001
 43
0.0000000001
 12
1.0
 22
0.0
 32
0.0
 13
1.0
 23
0.0
 33
0.0
 40
0.0
 40
0.0
 40
0.0
 40
0.0
 40
1.0
 40
1.0
 40
1.0
 40
1.0
 10
26.0869735652556
 20
45.4614154278165
 30
0.0
 10
26.4663566311262
 20
44.98299394118752
 30
0.0
 10
27.04348010340759
 20
44.70405424907789
 30
0.0
 10
27.65406944855117
 20
44.70400041946094
 30
0.0
  0
SPLINE
  5
1AE
330
41
100
AcDbEntity
  8
LAGER_1
 62
     7
100
AcDbSpline
210
0.0
220
0.0
230
1.0
 70
     8
 71
     3
 72
     8
 73
     4
 74
     0
 42
0.0000000001
 43
0.0000000001
 12
1.0
 22
0.0
 32
0.0
 13
1.0
 23
0.0
 33
0.0
 40
0.0
 40
0.0
 40
0.0
 40
0.0
 40
1.0
 40
1.0
 40
1.0
 40
1.0
 10
67.46855081355008
 20
44.70400041946094
 30
0.0
 10
68.22612192779482
 20
44.7039250579972
 30
0.0
 10
68.91872607733413
 20
45.1318382150354
 30
0.0
 10
69.25765349458067
 20
45.80936468886505
 30
0.0
  0
SPLINE
  5
1AF
330
41
100
AcDbEntity
  8
LAGER_1
 62
     7
100
AcDbSpline
210
0.0
220
0.0
230
1.0
 70
     8
 71
     3
 72
     8
 73
     4
 74
     0
 42
0.0000000001
 43
0.0000000001
 12
1.0
 22
0.0
 32
0.0
 13
1.0
 23
0.0
 33
0.0
 40
0.0
 40
0.0
 40
0.0
 40
0.0
 40
1.0
 40
1.0
 40
1.0
 40
1.0
 10
78.46525792173568
 20
64.28803866156743
 30
0.0
 10
78.60412756756143
 20
64.56571335767856
 30
0.0
 10
78.67645304090489
 20
64.87190160189184
 30
0.0
 10
78.67651225348355
 20
65.18236930065319
 30
0.0
  0
POLYLINE
  5
1B0
330
41
100
AcDbEntity
  8
LAGER_1
 62
     7
100
AcDb2dPolyline
 66
     1
 10
0.0
 20
0.0
 30
0.0
  0
VERTEX
  5
1B1
330
1B0
100
AcDbEntity
  8
LAGER_1
 62
     7
100
AcDbVertex
100
AcDb2dVertex
 10
89.21749782451096
 20
32.95649934580548
 30
0.0
  0
VERTEX
  5
1B2
330
1B0
100
AcDbEntity
  8
LAGER_1
 62
     7
100
AcDbVertex
100
AcDb2dVertex
 10
89.21749782451096
 20
15.93850010367461
 30
0.0
  0
VERTEX
  5
1B3
330
1B0
100
AcDbEntity
  8
LAGER_1
 62
     7
100
AcDbVertex
100
AcDb2dVertex
 10
85.21699911742188
 20
15.93850010367461
 30
0.0
  0
VERTEX
  5
1B4
330
1B0
100
AcDbEntity
  8
LAGER_1
 62
     7
100
AcDbVertex
100
AcDb2dVertex
 10
85.21699911742188
 20
11.93800005084512
 30
0.0
  0
VERTEX
  5
1B5
330
1B0
100
AcDbEntity
  8
LAGER_1
 62
     7
100
AcDbVertex
100
AcDb2dVertex
 10
39.17949912893125
 20
11.93800005084512
 30
0.0
  0
SEQEND
  5
1B6
330
1B0
100
AcDbEntity
  8
LAGER_1
 62
     7
  0
SPLINE
  5
1B7
330
41
100
AcDbEntity
  8
LAGER_1
 62
     7
100
AcDbSpline
210
0.0
220
0.0
230
1.0
 70
     8
 71
     3
 72
    11
 73
     7
 74
     0
 42
0.0000000001
 43
0.0000000001
 12
1.0
 22
0.0
 32
0.0
 13
1.0
 23
0.0
 33
0.0
 40
0.0
 40
0.0
 40
0.0
 40
0.0
 40
1.0
 40
1.0
 40
1.0
 40
2.0
 40
2.0
 40
2.0
 40
2.0
 10
39.24299923657461
 20
11.9697501046668
 30
0.0
 10
39.24299923657461
 20
13.9160742936842
 30
0.0
 10
37.66524239764071
 20
15.49390514834142
 30
0.0
 10
35.71891955436373
 20
15.4939993501711
 30
0.0
 10
33.7725940196059
 20
15.4940948977412
 30
0.0
 10
32.19468645774452
 20
13.91641342027103
 30
0.0
 10
32.19450074556601
 20
11.97008923125363
 30
0.0
  0
POLYLINE
  5
1B8
330
41
100
AcDbEntity
  8
LAGER_1
 62
     7
100
AcDb2dPolyline
 66
     1
 10
0.0
 20
0.0
 30
0.0
  0
VERTEX
  5
1B9
330
1B8
100
AcDbEntity
  8
LAGER_1
 62
     7
100
AcDbVertex
100
AcDb2dVertex
 10
32.19450074556601
 20
11.93800005084512
 30
0.0
  0
VERTEX
  5
1BA
330
1B8
100
AcDbEntity
  8
LAGER_1
 62
     7
100
AcDbVertex
100
AcDb2dVertex
 10
30.22600010010273
 20
11.93800005084512
 30
0.0
  0
SEQEND
  5
1BB
330
1B8
100
AcDbEntity
  8
LAGER_1
 62
     7
  0
POLYLINE
  5
1BC
330
41
100
AcDbEntity
  8
LAGER_1
 62
     7
100
AcDb2dPolyline
 66
     1
 10
0.0
 20
0.0
 30
0.0
  0
VERTEX
  5
1BD
330
1BC
100
AcDbEntity
  8
LAGER_1
 62
     7
100
AcDbVertex
100
AcDb2dVertex
 10
30.22600010010273
 20
36.95700074437539
 30
0.0
  0
VERTEX
  5
1BE
330
1BC
100
AcDbEntity
  8
LAGER_1
 62
     7
100
AcDbVertex
100
AcDb2dVertex
 10
32.19450074556601
 20
36.95700074437539
 30
0.0
  0
SEQEND
  5
1BF
330
1BC
100
AcDbEntity
  8
LAGER_1
 62
     7
  0
SPLINE
  5
1C0
330
41
100
AcDbEntity
  8
LAGER_1
 62
     7
100
AcDbSpline
210
0.0
220
0.0
230
1.0
 70
     8
 71
     3
 72
    11
 73
     7
 74
     0
 42
0.0000000001
 43
0.0000000001
 12
1.0
 22
0.0
 32
0.0
 13
1.0
 23
0.0
 33
0.0
 40
0.0
 40
0.0
 40
0.0
 40
0.0
 40
1.0
 40
1.0
 40
1.0
 40
2.0
 40
2.0
 40
2.0
 40
2.0
 10
32.19450074556601
 20
36.98910203644771
 30
0.0
 10
32.19430426746412
 20
35.04277650168989
 30
0.0
 10
33.77190500050884
 20
33.46478550392222
 30
0.0
 10
35.71822784378583
 20
33.46450020695234
 30
0.0
 10
37.66455337854366
 20
33.46421221850162
 30
0.0
 10
39.24261704629422
 20
35.04173489860177
 30
0.0
 10
39.24299923657461
 20
36.98805774187875
 30
0.0
  0
POLYLINE
  5
1C1
330
41
100
AcDbEntity
  8
LAGER_1
 62
     7
100
AcDb2dPolyline
 66
     1
 10
0.0
 20
0.0
 30
0.0
  0
VERTEX
  5
1C2
330
1C1
100
AcDbEntity
  8
LAGER_1
 62
     7
100
AcDbVertex
100
AcDb2dVertex
 10
39.17949912893125
 20
36.95700074437539
 30
0.0
  0
VERTEX
  5
1C3
330
1C1
100
AcDbEntity
  8
LAGER_1
 62
     7
100
AcDbVertex
100
AcDb2dVertex
 10
85.21699911742188
 20
36.95700074437539
 30
0.0
  0
VERTEX
  5
1C4
330
1C1
100
AcDbEntity
  8
LAGER_1
 62
     7
100
AcDbVertex
100
AcDb2dVertex
 10
85.21699911742188
 20
32.95649934580548
 30
0.0
  0
VERTEX
  5
1C5
330
1C1
100
AcDbEntity
  8
LAGER_1
 62
     7
100
AcDbVertex
100
AcDb2dVertex
 10
89.21749782451096
 20
32.95649934580548
 30
0.0
  0
SEQEND
  5
1C6
330
1C1
100
AcDbEntity
  8
LAGER_1
 62
     7
  0
SPLINE
  5
1C7
330
41
100
AcDbEntity
  8
LAGER_1
 62
     7
100
AcDbSpline
210
0.0
220
0.0
230
1.0
 70
     8
 71
     3
 72
    17
 73
    13
 74
     0
 42
0.0000000001
 43
0.0000000001
 12
1.0
 22
0.0
 32
0.0
 13
1.0
 23
0.0
 33
0.0
 40
0.0
 40
0.0
 40
0.0
 40
0.0
 40
1.0
 40
1.0
 40
1.0
 40
2.0
 40
2.0
 40
2.0
 40
3.0
 40
3.0
 40
3.0
 40
4.0
 40
4.0
 40
4.0
 40
4.0
 10
89.18559839350222
 20
10.47750026652871
 30
0.0
 10
90.00971906319093
 20
10.47741750349264
 30
0.0
 10
90.67787380070835
 20
11.14541007928898
 30
0.0
 10
90.67800299178906
 20
11.9695307489777
 30
0.0
 10
90.67812141694635
 20
12.79364738144514
 30
0.0
 10
90.01016046604998
 20
13.46183979969444
 30
0.0
 10
89.18604517932296
 20
13.46199994280488
 30
0.0
 10
88.36192450963424
 20
13.46216008591533
 30
0.0
 10
87.69369979361477
 20
12.79423143278913
 30
0.0
 10
87.69350062403203
 20
11.97011480032168
 30
0.0
 10
87.6932960714876
 20
11.14599413063296
 30
0.0
 10
88.36119242684363
 20
10.47774115406459
 30
0.0
 10
89.18531309653234
 20
10.47750026652871
 30
0.0
  0
SPLINE
  5
1C8
330
41
100
AcDbEntity
  8
LAGER_1
 62
     7
100
AcDbSpline
210
0.0
220
0.0
230
1.0
 70
     8
 71
     3
 72
    17
 73
    13
 74
     0
 42
0.0000000001
 43
0.0000000001
 12
1.0
 22
0.0
 32
0.0
 13
1.0
 23
0.0
 33
0.0
 40
0.0
 40
0.0
 40
0.0
 40
0.0
 40
1.0
 40
1.0
 40
1.0
 40
2.0
 40
2.0
 40
2.0
 40
3.0
 40
3.0
 40
3.0
 40
4.0
 40
4.0
 40
4.0
 40
4.0
 10
35.71860195962368
 20
35.49650365153983
 30
0.0
 10
36.5427226293124
 20
35.49642290711439
 30
0.0
 10
37.21088005831067
 20
36.1644134643001
 30
0.0
 10
37.21100117494883
 20
36.98853413398881
 30
0.0
 10
37.21112229158697
 20
37.81265211219669
 30
0.0
 10
36.5431613406906
 20
38.48084453044598
 30
0.0
 10
35.71904336248273
 20
38.48100601929685
 30
0.0
 10
34.89492269279401
 20
38.48116481666688
 30
0.0
 10
34.22670335973624
 20
37.81323616354067
 30
0.0
 10
34.2264988071918
 20
36.9891181853328
 30
0.0
 10
34.22629694612822
 20
36.16499751564408
 30
0.0
 10
34.89419330148424
 20
35.49674588481614
 30
0.0
 10
35.71831397117296
 20
35.49650365153983
 30
0.0
  0
SPLINE
  5
1C9
330
41
100
AcDbEntity
  8
LAGER_1
 62
     7
100
AcDbSpline
210
0.0
220
0.0
230
1.0
 70
     8
 71
     3
 72
    17
 73
    13
 74
     0
 42
0.0000000001
 43
0.0000000001
 12
1.0
 22
0.0
 32
0.0
 13
1.0
 23
0.0
 33
0.0
 40
0.0
 40
0.0
 40
0.0
 40
0.0
 40
1.0
 40
1.0
 40
1.0
 40
2.0
 40
2.0
 40
2.0
 40
3.0
 40
3.0
 40
3.0
 40
4.0
 40
4.0
 40
4.0
 40
4.0
 10
89.18559839350222
 20
35.49650365153983
 30
0.0
 10
90.00971906319093
 20
35.49642290711439
 30
0.0
 10
90.67787380070835
 20
36.1644134643001
 30
0.0
 10
90.67800299178906
 20
36.98853413398881
 30
0.0
 10
90.67812141694635
 20
37.81265211219669
 30
0.0
 10
90.01016046604998
 20
38.48084453044598
 30
0.0
 10
89.18604517932296
 20
38.48100601929685
 30
0.0
 10
88.36192450963424
 20
38.48116481666688
 30
0.0
 10
87.69369979361477
 20
37.81323616354067
 30
0.0
 10
87.69350062403203
 20
36.9891181853328
 30
0.0
 10
87.6932960714876
 20
36.16499751564408
 30
0.0
 10
88.36119242684363
 20
35.49674588481614
 30
0.0
 10
89.18531309653234
 20
35.49650365153983
 30
0.0
  0
SPLINE
  5
1CA
330
41
100
AcDbEntity
  8
LAGER_1
 62
     7
100
AcDbSpline
210
0.0
220
0.0
230
1.0
 70
     8
 71
     3
 72
    17
 73
    13
 74
     0
 42
0.0000000001
 43
0.0000000001
 12
1.0
 22
0.0
 32
0.0
 13
1.0
 23
0.0
 33
0.0
 40
0.0
 40
0.0
 40
0.0
 40
0.0
 40
1.0
 40
1.0
 40
1.0
 40
2.0
 40
2.0
 40
2.0
 40
3.0
 40
3.0
 40
3.0
 40
4.0
 40
4.0
 40
4.0
 40
4.0
 10
35.71860195962368
 20
10.47750026652871
 30
0.0
 10
36.5427226293124
 20
10.47741750349264
 30
0.0
 10
37.21088005831067
 20
11.14541007928898
 30
0.0
 10
37.21100117494883
 20
11.9695307489777
 30
0.0
 10
37.21112229158697
 20
12.79364738144514
 30
0.0
 10
36.5431613406906
 20
13.46183979969444
 30
0.0
 10
35.71904336248273
 20
13.46199994280488
 30
0.0
 10
34.89492269279401
 20
13.46216008591533
 30
0.0
 10
34.22670335973624
 20
12.79423143278913
 30
0.0
 10
34.2264988071918
 20
11.97011480032168
 30
0.0
 10
34.22629694612822
 20
11.14599413063296
 30
0.0
 10
34.89419330148424
 20
10.47774115406459
 30
0.0
 10
35.71831397117296
 20
10.47750026652871
 30
0.0
  0
POLYLINE
  5
1CB
330
41
100
AcDbEntity
  8
LAGER_1
 62
     7
100
AcDb2dPolyline
 66
     1
 10
0.0
 20
0.0
 30
0.0
  0
VERTEX
  5
1CC
330
1CB
100
AcDbEntity
  8
LAGER_1
 62
     7
100
AcDbVertex
100
AcDb2dVertex
 10
30.22600010010273
 20
11.93800005084512
 30
0.0
  0
VERTEX
  5
1CD
330
1CB
100
AcDbEntity
  8
LAGER_1
 62
     7
100
AcDbVertex
100
AcDb2dVertex
 10
30.22600010010273
 20
7.937499998015626
 30
0.0
  0
VERTEX
  5
1CE
330
1CB
100
AcDbEntity
  8
LAGER_1
 62
     7
100
AcDbVertex
100
AcDb2dVertex
 10
93.21799653160002
 20
7.937499998015626
 30
0.0
  0
VERTEX
  5
1CF
330
1CB
100
AcDbEntity
  8
LAGER_1
 62
     7
100
AcDbVertex
100
AcDb2dVertex
 10
93.21799653160002
 20
40.95749945146446
 30
0.0
  0
VERTEX
  5
1D0
330
1CB
100
AcDbEntity
  8
LAGER_1
 62
     7
100
AcDbVertex
100
AcDb2dVertex
 10
30.22600010010273
 20
40.95749945146446
 30
0.0
  0
VERTEX
  5
1D1
330
1CB
100
AcDbEntity
  8
LAGER_1
 62
     7
100
AcDbVertex
100
AcDb2dVertex
 10
30.22600010010273
 20
36.95700074437539
 30
0.0
  0
SEQEND
  5
1D2
330
1CB
100
AcDbEntity
  8
LAGER_1
 62
     7
  0
POLYLINE
  5
1D3
330
41
100
AcDbEntity
  8
LAGER_1
 62
     7
100
AcDb2dPolyline
 66
     1
 10
0.0
 20
0.0
 30
0.0
  0
VERTEX
  5
1D4
330
1D3
100
AcDbEntity
  8
LAGER_1
 62
     7
100
AcDbVertex
100
AcDb2dVertex
 10
142.3035016869719
 20
135.1915003968391
 30
0.0
  0
VERTEX
  5
1D5
330
1D3
100
AcDbEntity
  8
LAGER_1
 62
     7
100
AcDbVertex
100
AcDb2dVertex
 10
142.3035016869719
 20
168.2115025417687
 30
0.0
  0
SEQEND
  5
1D6
330
1D3
100
AcDbEntity
  8
LAGER_1
 62
     7
  0
SPLINE
  5
1D7
330
41
100
AcDbEntity
  8
LAGER_1
 62
     7
100
AcDbSpline
210
0.0
220
0.0
230
1.0
 70
     8
 71
     3
 72
    17
 73
    13
 74
     0
 42
0.0000000001
 43
0.0000000001
 12
1.0
 22
0.0
 32
0.0
 13
1.0
 23
0.0
 33
0.0
 40
0.0
 40
0.0
 40
0.0
 40
0.0
 40
1.0
 40
1.0
 40
1.0
 40
2.0
 40
2.0
 40
2.0
 40
3.0
 40
3.0
 40
3.0
 40
4.0
 40
4.0
 40
4.0
 40
4.0
 10
100.3235059699278
 20
137.6554649856599
 30
0.0
 10
100.9711839211548
 20
136.7917149519674
 30
0.0
 10
102.0989036304811
 20
136.4393139815966
 30
0.0
 10
103.1231520500927
 20
136.7805937531041
 30
0.0
 10
104.1474004697043
 20
137.1218842905351
 30
0.0
 10
104.8383574329647
 20
138.080266790838
 30
0.0
 10
104.8385189218155
 20
139.1598843544516
 30
0.0
 10
104.838669644743
 20
140.2394911521417
 30
0.0
 10
104.1479818295674
 20
141.1980782049891
 30
0.0
 10
103.1238410691898
 20
141.5396594223516
 30
0.0
 10
102.0996895428887
 20
141.8812298737908
 30
0.0
 10
100.9718729402518
 20
141.5291518811216
 30
0.0
 10
100.3239366068635
 20
140.6655956340502
 30
0.0
  0
POLYLINE
  5
1D8
330
41
100
AcDbEntity
  8
LAGER_1
 62
     7
100
AcDb2dPolyline
 66
     1
 10
0.0
 20
0.0
 30
0.0
  0
VERTEX
  5
1D9
330
1D8
100
AcDbEntity
  8
LAGER_1
 62
     7
100
AcDbVertex
100
AcDb2dVertex
 10
100.3299978217328
 20
137.6679965204875
 30
0.0
  0
VERTEX
  5
1DA
330
1D8
100
AcDbEntity
  8
LAGER_1
 62
     7
100
AcDbVertex
100
AcDb2dVertex
 10
100.3299978217328
 20
135.1915003968391
 30
0.0
  0
SEQEND
  5
1DB
330
1D8
100
AcDbEntity
  8
LAGER_1
 62
     7
  0
POLYLINE
  5
1DC
330
41
100
AcDbEntity
  8
LAGER_1
 62
     7
100
AcDb2dPolyline
 66
     1
 10
0.0
 20
0.0
 30
0.0
  0
VERTEX
  5
1DD
330
1DC
100
AcDbEntity
  8
LAGER_1
 62
     7
100
AcDbVertex
100
AcDb2dVertex
 10
100.3299978217328
 20
168.2115025417687
 30
0.0
  0
VERTEX
  5
1DE
330
1DC
100
AcDbEntity
  8
LAGER_1
 62
     7
100
AcDbVertex
100
AcDb2dVertex
 10
100.3299978217328
 20
165.6714982360344
 30
0.0
  0
SEQEND
  5
1DF
330
1DC
100
AcDbEntity
  8
LAGER_1
 62
     7
  0
POLYLINE
  5
1E0
330
41
100
AcDbEntity
  8
LAGER_1
 62
     7
100
AcDb2dPolyline
 66
     1
 10
0.0
 20
0.0
 30
0.0
  0
VERTEX
  5
1E1
330
1E0
100
AcDbEntity
  8
LAGER_1
 62
     7
100
AcDbVertex
100
AcDb2dVertex
 10
100.3299978217328
 20
162.6870012512391
 30
0.0
  0
VERTEX
  5
1E2
330
1E0
100
AcDbEntity
  8
LAGER_1
 62
     7
100
AcDbVertex
100
AcDb2dVertex
 10
100.3299978217328
 20
140.6525042712062
 30
0.0
  0
SEQEND
  5
1E3
330
1E0
100
AcDbEntity
  8
LAGER_1
 62
     7
  0
SPLINE
  5
1E4
330
41
100
AcDbEntity
  8
LAGER_1
 62
     7
100
AcDbSpline
210
0.0
220
0.0
230
1.0
 70
     8
 71
     3
 72
    17
 73
    13
 74
     0
 42
0.0000000001
 43
0.0000000001
 12
1.0
 22
0.0
 32
0.0
 13
1.0
 23
0.0
 33
0.0
 40
0.0
 40
0.0
 40
0.0
 40
0.0
 40
1.0
 40
1.0
 40
1.0
 40
2.0
 40
2.0
 40
2.0
 40
3.0
 40
3.0
 40
3.0
 40
4.0
 40
4.0
 40
4.0
 40
4.0
 10
100.3235059699278
 20
162.6744804823349
 30
0.0
 10
100.9711839211548
 20
161.8107304486424
 30
0.0
 10
102.0989036304811
 20
161.4583294782715
 30
0.0
 10
103.1231520500927
 20
161.7996092497791
 30
0.0
 10
104.1474004697043
 20
162.14089978721
 30
0.0
 10
104.8383574329647
 20
163.0992822875129
 30
0.0
 10
104.8385189218155
 20
164.1788998511265
 30
0.0
 10
104.838669644743
 20
165.2585066488167
 30
0.0
 10
104.1479818295674
 20
166.2170937016641
 30
0.0
 10
103.1238410691898
 20
166.5586749190266
 30
0.0
 10
102.0996895428887
 20
166.9002453704657
 30
0.0
 10
100.9718729402518
 20
166.5481673777965
 30
0.0
 10
100.3239366068635
 20
165.6846111307251
 30
0.0
  0
POLYLINE
  5
1E5
330
41
100
AcDbEntity
  8
LAGER_1
 62
     7
100
AcDb2dPolyline
 66
     1
 10
0.0
 20
0.0
 30
0.0
  0
VERTEX
  5
1E6
330
1E5
100
AcDbEntity
  8
LAGER_1
 62
     7
100
AcDbVertex
100
AcDb2dVertex
 10
142.3035016869719
 20
168.2115025417687
 30
0.0
  0
VERTEX
  5
1E7
330
1E5
100
AcDbEntity
  8
LAGER_1
 62
     7
100
AcDbVertex
100
AcDb2dVertex
 10
100.3299978217328
 20
168.2115025417687
 30
0.0
  0
SEQEND
  5
1E8
330
1E5
100
AcDbEntity
  8
LAGER_1
 62
     7
  0
POLYLINE
  5
1E9
330
41
100
AcDbEntity
  8
LAGER_1
 62
     7
100
AcDb2dPolyline
 66
     1
 10
0.0
 20
0.0
 30
0.0
  0
VERTEX
  5
1EA
330
1E9
100
AcDbEntity
  8
LAGER_1
 62
     7
100
AcDbVertex
100
AcDb2dVertex
 10
100.3299978217328
 20
135.1915003968391
 30
0.0
  0
VERTEX
  5
1EB
330
1E9
100
AcDbEntity
  8
LAGER_1
 62
     7
100
AcDbVertex
100
AcDb2dVertex
 10
142.3035016869719
 20
135.1915003968391
 30
0.0
  0
SEQEND
  5
1EC
330
1E9
100
AcDbEntity
  8
LAGER_1
 62
     7
  0
POLYLINE
  5
1ED
330
41
100
AcDbEntity
  8
LAGER_1
 62
     7
100
AcDb2dPolyline
 66
     1
 10
0.0
 20
0.0
 30
0.0
  0
VERTEX
  5
1EE
330
1ED
100
AcDbEntity
  8
LAGER_1
 62
     7
100
AcDbVertex
100
AcDb2dVertex
 10
69.72299976725078
 20
35.68700128298906
 30
0.0
  0
VERTEX
  5
1EF
330
1ED
100
AcDbEntity
  8
LAGER_1
 62
     7
100
AcDbVertex
100
AcDb2dVertex
 10
50.67299977201328
 20
35.68700128298906
 30
0.0
  0
VERTEX
  5
1F0
330
1ED
100
AcDbEntity
  8
LAGER_1
 62
     7
100
AcDbVertex
100
AcDb2dVertex
 10
50.67299977201328
 20
20.70100010248398
 30
0.0
  0
VERTEX
  5
1F1
330
1ED
100
AcDbEntity
  8
LAGER_1
 62
     7
100
AcDbVertex
100
AcDb2dVertex
 10
43.6879986971672
 20
20.70100010248398
 30
0.0
  0
VERTEX
  5
1F2
330
1ED
100
AcDbEntity
  8
LAGER_1
 62
     7
100
AcDbVertex
100
AcDb2dVertex
 10
43.6879986971672
 20
13.65250026573496
 30
0.0
  0
VERTEX
  5
1F3
330
1ED
100
AcDbEntity
  8
LAGER_1
 62
     7
100
AcDbVertex
100
AcDb2dVertex
 10
76.70800084209688
 20
13.65250026573496
 30
0.0
  0
VERTEX
  5
1F4
330
1ED
100
AcDbEntity
  8
LAGER_1
 62
     7
100
AcDbVertex
100
AcDb2dVertex
 10
76.70800084209688
 20
20.70100010248398
 30
0.0
  0
VERTEX
  5
1F5
330
1ED
100
AcDbEntity
  8
LAGER_1
 62
     7
100
AcDbVertex
100
AcDb2dVertex
 10
69.72299976725078
 20
20.70100010248398
 30
0.0
  0
VERTEX
  5
1F6
330
1ED
100
AcDbEntity
  8
LAGER_1
 62
     7
100
AcDbVertex
100
AcDb2dVertex
 10
69.72299976725078
 20
35.68700128298906
 30
0.0
  0
SEQEND
  5
1F7
330
1ED
100
AcDbEntity
  8
LAGER_1
 62
     7
  0
POLYLINE
  5
1F8
330
41
100
AcDbEntity
  8
LAGER_1
 62
     7
100
AcDb2dPolyline
 66
     1
 10
0.0
 20
0.0
 30
0.0
  0
VERTEX
  5
1F9
330
1F8
100
AcDbEntity
  8
LAGER_1
 62
     7
100
AcDbVertex
100
AcDb2dVertex
 10
156.717996515725
 20
155.0035016837969
 30
0.0
  0
VERTEX
  5
1FA
330
1F8
100
AcDbEntity
  8
LAGER_1
 62
     7
100
AcDbVertex
100
AcDb2dVertex
 10
156.717996515725
 20
136.0169991047219
 30
0.0
  0
VERTEX
  5
1FB
330
1F8
100
AcDbEntity
  8
LAGER_1
 62
     7
100
AcDbVertex
100
AcDb2dVertex
 10
171.7040003877109
 20
136.0169991047219
 30
0.0
  0
VERTEX
  5
1FC
330
1F8
100
AcDbEntity
  8
LAGER_1
 62
     7
100
AcDbVertex
100
AcDb2dVertex
 10
171.7040003877109
 20
129.0320034128375
 30
0.0
  0
VERTEX
  5
1FD
330
1F8
100
AcDbEntity
  8
LAGER_1
 62
     7
100
AcDbVertex
100
AcDb2dVertex
 10
178.6889960795953
 20
129.0320034128375
 30
0.0
  0
VERTEX
  5
1FE
330
1F8
100
AcDbEntity
  8
LAGER_1
 62
     7
100
AcDbVertex
100
AcDb2dVertex
 10
178.6889960795953
 20
162.0519947918438
 30
0.0
  0
VERTEX
  5
1FF
330
1F8
100
AcDbEntity
  8
LAGER_1
 62
     7
100
AcDbVertex
100
AcDb2dVertex
 10
171.7040003877109
 20
162.0519947918438
 30
0.0
  0
VERTEX
  5
200
330
1F8
100
AcDbEntity
  8
LAGER_1
 62
     7
100
AcDbVertex
100
AcDb2dVertex
 10
171.7040003877109
 20
155.0035016837969
 30
0.0
  0
VERTEX
  5
201
330
1F8
100
AcDbEntity
  8
LAGER_1
 62
     7
100
AcDbVertex
100
AcDb2dVertex
 10
156.717996515725
 20
155.0035016837969
 30
0.0
  0
SEQEND
  5
202
330
1F8
100
AcDbEntity
  8
LAGER_1
 62
     7
  0
POLYLINE
  5
203
330
41
100
AcDbEntity
  8
LAGER_1
100
AcDb2dPolyline
 66
     1
 10
0.0
 20
0.0
 30
0.0
  0
VERTEX
  5
204
330
203
100
AcDbEntity
  8
LAGER_1
100
AcDbVertex
100
AcDb2dVertex
 10
0.0
 20
0.0
 30
0.0
  0
VERTEX
  5
205
330
203
100
AcDbEntity
  8
LAGER_1
100
AcDbVertex
100
AcDb2dVertex
 10
0.0
 20
255.0160016587938
 30
0.0
  0
VERTEX
  5
206
330
203
100
AcDbEntity
  8
LAGER_1
100
AcDbVertex
100
AcDb2dVertex
 10
375.0309844033126
 20
255.0160016587938
 30
0.0
  0
VERTEX
  5
207
330
203
100
AcDbEntity
  8
LAGER_1
100
AcDbVertex
100
AcDb2dVertex
 10
375.0309844033126
 20
0.0
 30
0.0
  0
VERTEX
  5
208
330
203
100
AcDbEntity
  8
LAGER_1
100
AcDbVertex
100
AcDb2dVertex
 10
0.0
 20
0.0
 30
0.0
  0
SEQEND
  5
209
330
203
100
AcDbEntity
  8
LAGER_1
  0
ENDBLK
  5
44
330
41
100
AcDbEntity
  8
0
100
AcDbBlockEnd
  0
ENDSEC
  0
SECTION
  2
ENTITIES
  0
INSERT
  5
42
330
1F
100
AcDbEntity
  8
LAGER_1
100
AcDbBlockReference
  2
BLOCK_2
 10
0.0
 20
0.0
 30
0.0
  0
ENDSEC
  0
SECTION
  2
OBJECTS
  0
DICTIONARY
  5
C
330
0
100
AcDbDictionary
  3
ACAD_GROUP
350
D
  3
ACAD_LAYOUT
350
1A
  3
ACAD_MATERIAL
350
3B
  3
ACAD_MLEADERSTYLE
350
20C
  3
ACAD_MLINESTYLE
350
17
  3
ACAD_PLOTSETTINGS
350
19
  3
ACAD_VISUALSTYLE
350
2A
  3
ACDBVARIABLEDICTIONARY
350
20A
1001
ACAD
1000
TREAT_AS_HARD
1070
     0
  0
DICTIONARY
  5
D
102
{ACAD_REACTORS
330
C
102
}
330
C
100
AcDbDictionary
1001
ACAD
1000
TREAT_AS_HARD
1070
     0
  0
DICTIONARY
  5
1A
102
{ACAD_REACTORS
330
C
102
}
330
C
100
AcDbDictionary
1001
ACAD
1000
TREAT_AS_HARD
1070
     0
  0
DICTIONARY
  5
3B
102
{ACAD_REACTORS
330
C
102
}
330
C
100
AcDbDictionary
  3
BYBLOCK
350
3D
  3
BYLAYER
350
3C
  3
GLOBAL
350
3E
1001
ACAD
1000
TREAT_AS_HARD
1070
     0
  0
DICTIONARY
  5
20C
102
{ACAD_REACTORS
330
C
102
}
330
C
100
AcDbDictionary
1001
ACAD
1000
TREAT_AS_HARD
1070
     0
  0
DICTIONARY
  5
17
102
{ACAD_REACTORS
330
C
102
}
330
C
100
AcDbDictionary
  3
STANDARD
350
18
1001
ACAD
1000
TREAT_AS_HARD
1070
     0
  0
DICTIONARY
  5
19
102
{ACAD_REACTORS
330
C
102
}
330
C
100
AcDbDictionary
1001
ACAD
1000
TREAT_AS_HARD
1070
     0
  0
DICTIONARY
  5
2A
102
{ACAD_REACTORS
330
C
102
}
330
C
100
AcDbDictionary
  3
2DWIREFRAME
350
2F
  3
3D_HIDDEN
350
31
  3
3DWIREFRAME
350
30
  3
BASIC
350
32
  3
BRIGHTEN
350
36
  3
COLORCHANGE
350
3A
  3
CONCEPTUAL
350
34
  3
DIM
350
35
  3
FACEPATTERN
350
39
  3
FLAT
350
2B
  3
FLATWITHEDGES
350
2C
  3
GOURAUD
350
2D
  3
GOURAUDWITHEDGES
350
2E
  3
LINEPATTERN
350
38
  3
REALISTIC
350
33
  3
THICKEN
350
37
1001
ACAD
1000
TREAT_AS_HARD
1070
     0
  0
DICTIONARY
  5
20A
102
{ACAD_REACTORS
330
C
102
}
330
C
100
AcDbDictionary
  3
DIMASSOC
350
20D
  3
HIDETEXT
350
20E
1001
ACAD
1000
TREAT_AS_HARD
1070
     0
  0
MATERIAL
  5
3D
102
{ACAD_REACTORS
330
3B
102
}
102
{ACAD_XDICTIONARY
360
211
102
}
330
3B
100
AcDbMaterial
  1
ByBlock
  0
MATERIAL
  5
3C
102
{ACAD_REACTORS
330
3B
102
}
102
{ACAD_XDICTIONARY
360
20F
102
}
330
3B
100
AcDbMaterial
  1
ByLayer
  0
MATERIAL
  5
3E
102
{ACAD_REACTORS
330
3B
102
}
102
{ACAD_XDICTIONARY
360
213
102
}
330
3B
100
AcDbMaterial
  1
Global
  0
MLINESTYLE
  5
18
102
{ACAD_REACTORS
330
17
102
}
330
17
100
AcDbMlineStyle
  2
Standard
 70
     0
  3

 62
   256
 51
90.0
 52
90.0
 71
     2
 49
0.5
 62
   256
  6
BYLAYER
 49
-0.5
 62
   256
  6
BYLAYER
  0
ACAD_PROXY_OBJECT
  5
2F
102
{ACAD_REACTORS
330
2A
102
}
330
2A
100
AcDbZombieObject
 90
      499
 91
      501
 93
      436
310
42CC9915DA5C99599C985B595049028333333333333E3BF0000000000000FB0107901411070040501600405405064090741402480A0340
1001
ACAD
1000
AcDbSavedByObjectVersion
1070
     0
  0
ACAD_PROXY_OBJECT
  5
31
102
{ACAD_REACTORS
330
2A
102
}
330
2A
100
AcDbZombieObject
 90
      499
 91
      501
 93
      500
310
424CD108121A5919195B90640502408333333333333E3BF0000000000000FB01079024090700405020000000000001110200405405064090740C02480A0340
1001
ACAD
1000
AcDbSavedByObjectVersion
1070
     0
  0
ACAD_PROXY_OBJECT
  5
30
102
{ACAD_REACTORS
330
2A
102
}
330
2A
100
AcDbZombieObject
 90
      499
 91
      501
 93
      436
310
42CCD915DA5C99599C985B595059028333333333333E3BF0000000000000FB0107901411070040501600405405064090741402480A0340
1001
ACAD
1000
AcDbSavedByObjectVersion
1070
     0
  0
ACAD_PROXY_OBJECT
  5
32
102
{ACAD_REACTORS
330
2A
102
}
330
2A
100
AcDbZombieObject
 90
      499
 91
      501
 93
      388
310
4150985CDA58D07406404333333333333E3BF0000000000000FB0107A41107004050150841D405064090741402480A0350
1001
ACAD
1000
AcDbSavedByObjectVersion
1070
     0
  0
ACAD_PROXY_OBJECT
  5
36
102
{ACAD_REACTORS
330
2A
102
}
330
2A
100
AcDbZombieObject
 90
      499
 91
      501
 93
      428
310
42109C9A59DA1D195B90C409028333333333333E3BF0000000000000FB010790141107004050150841D405064090741402480A029950
1001
ACAD
1000
AcDbSavedByObjectVersion
1070
     0
  0
ACAD_PROXY_OBJECT
  5
3A
102
{ACAD_REACTORS
330
2A
102
}
330
2A
100
AcDbZombieObject
 90
      499
 91
      501
 93
      452
310
42D0DBDB1BDC90DA185B99D95104090240C333333333333E3BF0000000000000FB0108901411070040501508421405064090741402480A0350
1001
ACAD
1000
AcDbSavedByObjectVersion
1070
     0
  0
ACAD_PROXY_OBJECT
  5
34
102
{ACAD_REACTORS
330
2A
102
}
330
2A
100
AcDbZombieObject
 90
      499
 91
      501
 93
      500
310
4290DBDB98D95C1D1D585B10940D028333333333333E3BF0000000000000FB0107902409070040501000000000000111010841D405064090740C02480A0340
1001
ACAD
1000
AcDbSavedByObjectVersion
1070
     0
  0
ACAD_PROXY_OBJECT
  5
35
102
{ACAD_REACTORS
330
2A
102
}
330
2A
100
AcDbZombieObject
 90
      499
 91
      501
 93
      412
310
40D11A5B50B409028333333333333E3BF0000000000000FB010790141107004050150841D405064090741402480A02677FFFFFD0
1001
ACAD
1000
AcDbSavedByObjectVersion
1070
     0
  0
ACAD_PROXY_OBJECT
  5
39
102
{ACAD_REACTORS
330
2A
102
}
330
2A
100
AcDbZombieObject
 90
      499
 91
      501
 93
      444
310
42D19858D95C185D1D195C9B90F409028333333333333E3BF0000000000000FB010790141107004050150841D405064090741402480A0350
1001
ACAD
1000
AcDbSavedByObjectVersion
1070
     0
  0
ACAD_PROXY_OBJECT
  5
2B
102
{ACAD_REACTORS
330
2A
102
}
330
2A
100
AcDbZombieObject
 90
      499
 91
      501
 93
      388
310
41119B185D240901404333333333333E3BF0000000000000F9010740A41107004050150841D405064090741402480A1B50
1001
ACAD
1000
AcDbSavedByObjectVersion
1070
     0
  0
ACAD_PROXY_OBJECT
  5
2C
102
{ACAD_REACTORS
330
2A
102
}
330
2A
100
AcDbZombieObject
 90
      499
 91
      501
 93
      476
310
43519B185D15DA5D1A115919D95CD0140901404333333333333E3BF0000000000000F9010740901411070040501600405405064090741402480A1B50
1001
ACAD
1000
AcDbSavedByObjectVersion
1070
     0
  0
ACAD_PROXY_OBJECT
  5
2D
102
{ACAD_REACTORS
330
2A
102
}
330
2A
100
AcDbZombieObject
 90
      499
 91
      501
 93
      412
310
41D1DBDD5C985D5910240902404333333333333E3BF0000000000000F9010740A411070040501641D405064090741402480A1B50
1001
ACAD
1000
AcDbSavedByObjectVersion
1070
     0
  0
ACAD_PROXY_OBJECT
  5
2E
102
{ACAD_REACTORS
330
2A
102
}
330
2A
100
AcDbZombieObject
 90
      499
 91
      501
 93
      500
310
4411DBDD5C985D5915DA5D1A115919D95CD0340902404333333333333E3BF0000000000000F9010740901411070040501600405405064090741402480A1B50
1001
ACAD
1000
AcDbSavedByObjectVersion
1070
     0
  0
ACAD_PROXY_OBJECT
  5
38
102
{ACAD_REACTORS
330
2A
102
}
330
2A
100
AcDbZombieObject
 90
      499
 91
      501
 93
      444
310
42D31A5B995C185D1D195C9B90E409028333333333333E3BF0000000000000FB010790141107004050750841D405064090741402483A0350
1001
ACAD
1000
AcDbSavedByObjectVersion
1070
     0
  0
ACAD_PROXY_OBJECT
  5
33
102
{ACAD_REACTORS
330
2A
102
}
330
2A
100
AcDbZombieObject
 90
      499
 91
      501
 93
      420
310
425499585B1A5CDD1A58D08409028333333333333E3BF0000000000000FB01079019070040501508421405064090741402480A1B40
1001
ACAD
1000
AcDbSavedByObjectVersion
1070
     0
  0
ACAD_PROXY_OBJECT
  5
37
102
{ACAD_REACTORS
330
2A
102
}
330
2A
100
AcDbZombieObject
 90
      499
 91
      501
 93
      412
310
41D51A1A58DAD95B90D409028333333333333E3BF0000000000000FB010790141107004050150C41D405064090741402480A0350
1001
ACAD
1000
AcDbSavedByObjectVersion
1070
     0
  0
DICTIONARYVAR
  5
20D
102
{ACAD_REACTORS
330
20A
102
}
330
20A
100
DictionaryVariables
280
     0
  1
2
  0
DICTIONARYVAR
  5
20E
102
{ACAD_REACTORS
330
20A
102
}
330
20A
100
DictionaryVariables
280
     0
  1
1
  0
DICTIONARY
  5
211
330
3D
100
AcDbDictionary
  3
ACAD_XREC_ROUNDTRIP
360
212
1001
ACAD
1000
TREAT_AS_HARD
1070
     1
  0
DICTIONARY
  5
20F
330
3C
100
AcDbDictionary
  3
ACAD_XREC_ROUNDTRIP
360
210
1001
ACAD
1000
TREAT_AS_HARD
1070
     1
  0
DICTIONARY
  5
213
330
3E
100
AcDbDictionary
  3
ACAD_XREC_ROUNDTRIP
360
214
1001
ACAD
1000
TREAT_AS_HARD
1070
     1
  0
XRECORD
  5
212
102
{ACAD_REACTORS
330
211
102
}
330
211
100
AcDbXrecord
102
MATERIAL
148
0.0
149
0.0
149
0.0
 93
        0
 94
      127
282
     0
 72
     1
 77
     1
171
     1
175
     1
179
     1
273
     0
  0
XRECORD
  5
210
102
{ACAD_REACTORS
330
20F
102
}
330
20F
100
AcDbXrecord
102
MATERIAL
148
0.0
149
0.0
149
0.0
 93
        0
 94
      127
282
     0
 72
     1
 77
     1
171
     1
175
     1
179
     1
273
     0
  0
XRECORD
  5
214
102
{ACAD_REACTORS
330
213
102
}
330
213
100
AcDbXrecord
102
MATERIAL
148
0.0
149
0.0
149
0.0
 93
        0
 94
      127
282
     0
 72
     1
 77
     1
171
     1
175
     1
179
     1
273
     0
  0
ENDSEC
  0
EOF
