  0
SECTION
  2
HEADER
  9
$ACADVER
  1
AC1012
  9
$DWGCODEPAGE
  3
ansi_1252
  9
$INSBASE
 10
0.0
 20
0.0
 30
0.0
  9
$EXTMIN
 10
1.000000000000000E+20
 20
1.000000000000000E+20
 30
1.000000000000000E+20
  9
$EXTMAX
 10
-1.000000000000000E+20
 20
-1.000000000000000E+20
 30
-1.000000000000000E+20
  9
$LIMMIN
 10
0.0
 20
0.0
  9
$LIMMAX
 10
12.0
 20
9.0
  9
$ORTHOMODE
 70
     0
  9
$REGENMODE
 70
     1
  9
$FILLMODE
 70
     1
  9
$QTEXTMODE
 70
     0
  9
$MIRRTEXT
 70
     1
  9
$DRAGMODE
 70
     2
  9
$LTSCALE
 40
1.0
  9
$OSMODE
 70
    37
  9
$ATTMODE
 70
     1
  9
$TEXTSIZE
 40
0.2
  9
$TRACEWID
 40
0.05
  9
$TEXTSTYLE
  7
STANDARD
  9
$CLAYER
  8
0
  9
$CELTYPE
  6
BYLAYER
  9
$CECOLOR
 62
   256
  9
$CELTSCALE
 40
1.0
  9
$DELOBJ
 70
     1
  9
$DISPSILH
 70
     0
  9
$DIMSCALE
 40
1.0
  9
$DIMASZ
 40
0.18
  9
$DIMEXO
 40
0.0625
  9
$DIMDLI
 40
0.38
  9
$DIMRND
 40
0.0
  9
$DIMDLE
 40
0.0
  9
$DIMEXE
 40
0.18
  9
$DIMTP
 40
0.0
  9
$DIMTM
 40
0.0
  9
$DIMTXT
 40
0.18
  9
$DIMCEN
 40
0.09
  9
$DIMTSZ
 40
0.0
  9
$DIMTOL
 70
     0
  9
$DIMLIM
 70
     0
  9
$DIMTIH
 70
     1
  9
$DIMTOH
 70
     1
  9
$DIMSE1
 70
     0
  9
$DIMSE2
 70
     0
  9
$DIMTAD
 70
     0
  9
$DIMZIN
 70
     0
  9
$DIMBLK
  1

  9
$DIMASO
 70
     1
  9
$DIMSHO
 70
     1
  9
$DIMPOST
  1

  9
$DIMAPOST
  1

  9
$DIMALT
 70
     0
  9
$DIMALTD
 70
     2
  9
$DIMALTF
 40
25.4
  9
$DIMLFAC
 40
1.0
  9
$DIMTOFL
 70
     0
  9
$DIMTVP
 40
0.0
  9
$DIMTIX
 70
     0
  9
$DIMSOXD
 70
     0
  9
$DIMSAH
 70
     0
  9
$DIMBLK1
  1

  9
$DIMBLK2
  1

  9
$DIMSTYLE
  2
STANDARD
  9
$DIMCLRD
 70
     0
  9
$DIMCLRE
 70
     0
  9
$DIMCLRT
 70
     0
  9
$DIMTFAC
 40
1.0
  9
$DIMGAP
 40
0.09
  9
$DIMJUST
 70
     0
  9
$DIMSD1
 70
     0
  9
$DIMSD2
 70
     0
  9
$DIMTOLJ
 70
     1
  9
$DIMTZIN
 70
     0
  9
$DIMALTZ
 70
     0
  9
$DIMALTTZ
 70
     0
  9
$DIMFIT
 70
     3
  9
$DIMUPT
 70
     0
  9
$DIMUNIT
 70
     2
  9
$DIMDEC
 70
     4
  9
$DIMTDEC
 70
     4
  9
$DIMALTU
 70
     2
  9
$DIMALTTD
 70
     2
  9
$DIMTXSTY
  7
STANDARD
  9
$DIMAUNIT
 70
     0
  9
$LUNITS
 70
     2
  9
$LUPREC
 70
     4
  9
$SKETCHINC
 40
0.1
  9
$FILLETRAD
 40
0.5
  9
$AUNITS
 70
     0
  9
$AUPREC
 70
     0
  9
$MENU
  1
.
  9
$ELEVATION
 40
0.0
  9
$PELEVATION
 40
0.0
  9
$THICKNESS
 40
0.0
  9
$LIMCHECK
 70
     0
  9
$CHAMFERA
 40
0.5
  9
$CHAMFERB
 40
0.5
  9
$CHAMFERC
 40
1.0
  9
$CHAMFERD
 40
0.0
  9
$SKPOLY
 70
     0
  9
$TDCREATE
 40
2457804.800509514
  9
$TDUPDATE
 40
2457804.800509572
  9
$TDINDWG
 40
0.0000000116
  9
$TDUSRTIMER
 40
0.0000000116
  9
$USRTIMER
 70
     1
  9
$ANGBASE
 50
0.0
  9
$ANGDIR
 70
     0
  9
$PDMODE
 70
     0
  9
$PDSIZE
 40
0.0
  9
$PLINEWID
 40
0.0
  9
$COORDS
 70
     1
  9
$SPLFRAME
 70
     0
  9
$SPLINETYPE
 70
     6
  9
$SPLINESEGS
 70
     8
  9
$ATTDIA
 70
     0
  9
$ATTREQ
 70
     1
  9
$HANDLING
 70
     1
  9
$HANDSEED
  5
1A3
  9
$SURFTAB1
 70
     6
  9
$SURFTAB2
 70
     6
  9
$SURFTYPE
 70
     6
  9
$SURFU
 70
     6
  9
$SURFV
 70
     6
  9
$UCSNAME
  2

  9
$UCSORG
 10
0.0
 20
0.0
 30
0.0
  9
$UCSXDIR
 10
1.0
 20
0.0
 30
0.0
  9
$UCSYDIR
 10
0.0
 20
1.0
 30
0.0
  9
$PUCSNAME
  2

  9
$PUCSORG
 10
0.0
 20
0.0
 30
0.0
  9
$PUCSXDIR
 10
1.0
 20
0.0
 30
0.0
  9
$PUCSYDIR
 10
0.0
 20
1.0
 30
0.0
  9
$USERI1
 70
     0
  9
$USERI2
 70
     0
  9
$USERI3
 70
     0
  9
$USERI4
 70
     0
  9
$USERI5
 70
     0
  9
$USERR1
 40
0.0
  9
$USERR2
 40
0.0
  9
$USERR3
 40
0.0
  9
$USERR4
 40
0.0
  9
$USERR5
 40
0.0
  9
$WORLDVIEW
 70
     1
  9
$SHADEDGE
 70
     3
  9
$SHADEDIF
 70
    70
  9
$TILEMODE
 70
     1
  9
$MAXACTVP
 70
    64
  9
$PINSBASE
 10
0.0
 20
0.0
 30
0.0
  9
$PLIMCHECK
 70
     0
  9
$PEXTMIN
 10
1.000000000000000E+20
 20
1.000000000000000E+20
 30
1.000000000000000E+20
  9
$PEXTMAX
 10
-1.000000000000000E+20
 20
-1.000000000000000E+20
 30
-1.000000000000000E+20
  9
$PLIMMIN
 10
0.0
 20
0.0
  9
$PLIMMAX
 10
12.0
 20
9.0
  9
$UNITMODE
 70
     0
  9
$VISRETAIN
 70
     1
  9
$PLINEGEN
 70
     0
  9
$PSLTSCALE
 70
     1
  9
$TREEDEPTH
 70
  3020
  9
$PICKSTYLE
 70
     1
  9
$CMLSTYLE
  2
STANDARD
  9
$CMLJUST
 70
     0
  9
$CMLSCALE
 40
1.0
  9
$SAVEIMAGES
 70
     1
  0
ENDSEC
  0
SECTION
  2
CLASSES
  0
CLASS
  1
ACDBDICTIONARYWDFLT
  2
AcDbDictionaryWithDefault
  3
ObjectDBX Classes
 90
    32768
280
     0
281
     0
  0
CLASS
  1
VISUALSTYLE
  2
AcDbVisualStyle
  3
ObjectDBX Classes
 90
     4095
280
     0
281
     0
  0
CLASS
  1
MATERIAL
  2
AcDbMaterial
  3
ObjectDBX Classes
 90
     1153
280
     0
281
     0
  0
CLASS
  1
SUN
  2
AcDbSun
  3
SCENEOE
 90
     1024
280
     0
281
     0
  0
CLASS
  1
DICTIONARYVAR
  2
AcDbDictionaryVar
  3
ObjectDBX Classes
 90
        0
280
     0
281
     0
  0
CLASS
  1
XRECORD
  2
AcDbXrecord
  3
AutoCAD 2000
 90
    32768
280
     0
281
     0
  0
CLASS
  1
LWPOLYLINE
  2
AcDbPolyline
  3
AutoCAD 2000
 90
    32768
280
     0
281
     1
  0
CLASS
  1
HATCH
  2
AcDbHatch
  3
AutoCAD 2000
 90
    32768
280
     0
281
     1
  0
CLASS
  1
ACDBPLACEHOLDER
  2
AcDbPlaceHolder
  3
ObjectDBX Classes
 90
        0
280
     0
281
     0
  0
CLASS
  1
LAYOUT
  2
AcDbLayout
  3
ObjectDBX Classes
 90
        0
280
     0
281
     0
  0
ENDSEC
  0
SECTION
  2
TABLES
  0
TABLE
  2
VPORT
  5
8
330
0
100
AcDbSymbolTable
 70
     1
  0
VPORT
  5
29
330
8
100
AcDbSymbolTableRecord
100
AcDbViewportTableRecord
  2
*ACTIVE
 70
     0
 10
0.0
 20
0.0
 11
1.0
 21
1.0
 12
0.0
 22
0.0
 13
0.0
 23
0.0
 14
0.5
 24
0.5
 15
0.5
 25
0.5
 16
0.0
 26
0.0
 36
1.0
 17
125.0597221909573
 27
85.01944442318958
 37
0.0
 40
170.0388888463792
 41
1.470954356846473
 42
50.0
 43
0.0
 44
0.0
 50
0.0
 51
0.0
 71
     0
 72
   100
 73
     1
 74
     3
 75
     0
 76
     0
 77
     0
 78
     0
  0
ENDTAB
  0
TABLE
  2
LTYPE
  5
5
330
0
100
AcDbSymbolTable
 70
     1
  0
LTYPE
  5
14
330
5
100
AcDbSymbolTableRecord
100
AcDbLinetypeTableRecord
  2
BYBLOCK
 70
     0
  3

 72
    65
 73
     0
 40
0.0
  0
LTYPE
  5
15
330
5
100
AcDbSymbolTableRecord
100
AcDbLinetypeTableRecord
  2
BYLAYER
 70
     0
  3

 72
    65
 73
     0
 40
0.0
  0
LTYPE
  5
16
330
5
100
AcDbSymbolTableRecord
100
AcDbLinetypeTableRecord
  2
CONTINUOUS
 70
     0
  3
Solid line
 72
    65
 73
     0
 40
0.0
  0
ENDTAB
  0
TABLE
  2
LAYER
  5
2
330
0
100
AcDbSymbolTable
 70
     2
  0
LAYER
  5
10
330
2
100
AcDbSymbolTableRecord
100
AcDbLayerTableRecord
  2
0
 70
     0
 62
     7
  6
CONTINUOUS
  0
LAYER
  5
40
330
2
100
AcDbSymbolTableRecord
100
AcDbLayerTableRecord
  2
LAGER_1
 70
     0
 62
     7
  6
CONTINUOUS
  0
ENDTAB
  0
TABLE
  2
STYLE
  5
3
330
0
100
AcDbSymbolTable
 70
     1
  0
STYLE
  5
11
330
3
100
AcDbSymbolTableRecord
100
AcDbTextStyleTableRecord
  2
STANDARD
 70
     0
 40
0.0
 41
1.0
 50
0.0
 71
     0
 42
0.2
  3
txt
  4

  0
ENDTAB
  0
TABLE
  2
VIEW
  5
6
330
0
100
AcDbSymbolTable
 70
     0
  0
ENDTAB
  0
TABLE
  2
UCS
  5
7
330
0
100
AcDbSymbolTable
 70
     0
  0
ENDTAB
  0
TABLE
  2
APPID
  5
9
330
0
100
AcDbSymbolTable
 70
     1
  0
APPID
  5
12
330
9
100
AcDbSymbolTableRecord
100
AcDbRegAppTableRecord
  2
ACAD
 70
     0
  0
ENDTAB
  0
TABLE
  2
DIMSTYLE
  5
A
330
0
100
AcDbSymbolTable
 70
     1
  0
DIMSTYLE
105
27
330
A
100
AcDbSymbolTableRecord
100
AcDbDimStyleTableRecord
  2
STANDARD
 70
     0
  3

  4

  5

  6

  7

 40
1.0
 41
0.18
 42
0.0625
 43
0.38
 44
0.18
 45
0.0
 46
0.0
 47
0.0
 48
0.0
140
0.18
141
0.09
142
0.0
143
25.4
144
1.0
145
0.0
146
1.0
147
0.09
 71
     0
 72
     0
 73
     1
 74
     1
 75
     0
 76
     0
 77
     0
 78
     0
170
     0
171
     2
172
     0
173
     0
174
     0
175
     0
176
     0
177
     0
178
     0
270
     2
271
     4
272
     4
273
     2
274
     2
340
11
275
     0
280
     0
281
     0
282
     0
283
     1
284
     0
285
     0
286
     0
287
     3
288
     0
  0
ENDTAB
  0
TABLE
  2
BLOCK_RECORD
  5
1
330
0
100
AcDbSymbolTable
 70
     2
  0
BLOCK_RECORD
  5
1F
330
1
100
AcDbSymbolTableRecord
100
AcDbBlockTableRecord
  2
*MODEL_SPACE
  0
BLOCK_RECORD
  5
1B
330
1
100
AcDbSymbolTableRecord
100
AcDbBlockTableRecord
  2
*PAPER_SPACE
  0
BLOCK_RECORD
  5
41
330
1
100
AcDbSymbolTableRecord
100
AcDbBlockTableRecord
  2
BLOCK_2
  0
ENDTAB
  0
ENDSEC
  0
SECTION
  2
BLOCKS
  0
BLOCK
  5
20
330
1F
100
AcDbEntity
  8
0
100
AcDbBlockBegin
  2
*MODEL_SPACE
 70
     0
 10
0.0
 20
0.0
 30
0.0
  3
*MODEL_SPACE
  1

  0
ENDBLK
  5
21
330
1F
100
AcDbEntity
  8
0
100
AcDbBlockEnd
  0
BLOCK
  5
1C
330
1B
100
AcDbEntity
 67
     1
  8
0
100
AcDbBlockBegin
  2
*PAPER_SPACE
 70
     0
 10
0.0
 20
0.0
 30
0.0
  3
*PAPER_SPACE
  1

  0
ENDBLK
  5
1D
330
1B
100
AcDbEntity
 67
     1
  8
0
100
AcDbBlockEnd
  0
BLOCK
  5
43
330
41
100
AcDbEntity
  8
0
100
AcDbBlockBegin
  2
BLOCK_2
 70
     0
 10
0.0
 20
0.0
 30
0.0
  3
BLOCK_2
  1

  0
POLYLINE
  5
45
330
41
100
AcDbEntity
  8
LAGER_1
 62
     7
100
AcDb2dPolyline
 66
     1
 10
0.0
 20
0.0
 30
0.0
  0
VERTEX
  5
46
330
45
100
AcDbEntity
  8
LAGER_1
 62
     7
100
AcDbVertex
100
AcDb2dVertex
 10
77.02549868883283
 20
77.40649933469298
 30
0.0
  0
VERTEX
  5
47
330
45
100
AcDbEntity
  8
LAGER_1
 62
     7
100
AcDbVertex
100
AcDb2dVertex
 10
71.56450019742735
 20
92.45599523987971
 30
0.0
  0
VERTEX
  5
48
330
45
100
AcDbEntity
  8
LAGER_1
 62
     7
100
AcDbVertex
100
AcDb2dVertex
 10
102.5525042807312
 20
103.7589982515125
 30
0.0
  0
SEQEND
  5
49
330
45
100
AcDbEntity
  8
LAGER_1
 62
     7
  0
SPLINE
  5
4A
330
41
100
AcDbEntity
  8
LAGER_1
 62
     7
100
AcDbSpline
210
0.0
220
0.0
230
1.0
 70
     8
 71
     3
 72
    17
 73
    13
 74
     0
 42
0.0000000001
 43
0.0000000001
 12
1.0
 22
0.0
 32
0.0
 13
1.0
 23
0.0
 33
0.0
 40
0.0
 40
0.0
 40
0.0
 40
0.0
 40
1.0
 40
1.0
 40
1.0
 40
2.0
 40
2.0
 40
2.0
 40
3.0
 40
3.0
 40
3.0
 40
4.0
 40
4.0
 40
4.0
 40
4.0
 10
5.492899268154635
 20
115.8875107369515
 30
0.0
 10
4.668778598465916
 20
115.8875860984153
 30
0.0
 10
4.000621169467645
 20
115.2195928497487
 30
0.0
 10
4.000500052829493
 20
114.39547218006
 30
0.0
 10
4.000378599756233
 20
113.5713622762947
 30
0.0
 10
4.668338877782399
 20
112.9031644750837
 30
0.0
 10
5.492456183120057
 20
112.9030029862328
 30
0.0
 10
6.31657651637367
 20
112.9028414973819
 30
0.0
 10
6.984797868042077
 20
113.5707701505081
 30
0.0
 10
6.984999729105666
 20
114.3948908201968
 30
0.0
 10
6.985202263039467
 20
115.2190114898856
 30
0.0
 10
6.317305234813225
 20
115.8872631207135
 30
0.0
 10
5.493184901559613
 20
115.8875107369515
 30
0.0
  0
SPLINE
  5
4B
330
41
100
AcDbEntity
  8
LAGER_1
 62
     7
100
AcDbSpline
210
0.0
220
0.0
230
1.0
 70
     8
 71
     3
 72
    17
 73
    13
 74
     0
 42
0.0000000001
 43
0.0000000001
 12
1.0
 22
0.0
 32
0.0
 13
1.0
 23
0.0
 33
0.0
 40
0.0
 40
0.0
 40
0.0
 40
0.0
 40
1.0
 40
1.0
 40
1.0
 40
2.0
 40
2.0
 40
2.0
 40
3.0
 40
3.0
 40
3.0
 40
4.0
 40
4.0
 40
4.0
 40
4.0
 10
64.86539898416343
 20
47.43450235664452
 30
0.0
 10
64.04127831447471
 20
47.43458848403166
 30
0.0
 10
63.37311819399559
 20
46.7665952353651
 30
0.0
 10
63.37299976883828
 20
45.94247456567638
 30
0.0
 10
63.37287596071928
 20
45.11835658746851
 30
0.0
 10
64.04083691161566
 20
44.45016416921922
 30
0.0
 10
64.86495219834268
 20
44.45000268036835
 30
0.0
 10
65.6890728680314
 20
44.44984388299833
 30
0.0
 10
66.35729758405087
 20
45.11777253612453
 30
0.0
 10
66.35749675363361
 20
45.94188782285156
 30
0.0
 10
66.35770130617804
 20
46.76600849254027
 30
0.0
 10
65.68980495082202
 20
47.43426012336822
 30
0.0
 10
64.8656842811333
 20
47.43450235664452
 30
0.0
  0
SPLINE
  5
4C
330
41
100
AcDbEntity
  8
LAGER_1
 62
     7
100
AcDbSpline
210
0.0
220
0.0
230
1.0
 70
     8
 71
     3
 72
    17
 73
    13
 74
     0
 42
0.0000000001
 43
0.0000000001
 12
1.0
 22
0.0
 32
0.0
 13
1.0
 23
0.0
 33
0.0
 40
0.0
 40
0.0
 40
0.0
 40
0.0
 40
1.0
 40
1.0
 40
1.0
 40
2.0
 40
2.0
 40
2.0
 40
3.0
 40
3.0
 40
3.0
 40
4.0
 40
4.0
 40
4.0
 40
4.0
 10
10.00139950926079
 20
167.3860038338859
 30
0.0
 10
9.177278839572068
 20
167.3860791953497
 30
0.0
 10
8.509121410573798
 20
166.7180859466831
 30
0.0
 10
8.509000293935644
 20
165.8939652769944
 30
0.0
 10
8.508878504427278
 20
165.0698553732291
 30
0.0
 10
9.176839455323655
 20
164.4016575720181
 30
0.0
 10
10.0009560877911
 20
164.4014960831672
 30
0.0
 10
10.82507675747982
 20
164.4013345943164
 30
0.0
 10
11.49329743627802
 20
165.0692632474425
 30
0.0
 10
11.49350064308203
 20
165.8933839171313
 30
0.0
 10
11.49370250414562
 20
166.71750458682
 30
0.0
 10
10.82580547591938
 20
167.3857562176479
 30
0.0
 10
10.00168480623066
 20
167.3860038338859
 30
0.0
  0
SPLINE
  5
4D
330
41
100
AcDbEntity
  8
LAGER_1
 62
     7
100
AcDbSpline
210
0.0
220
0.0
230
1.0
 70
     8
 71
     3
 72
    17
 73
    13
 74
     0
 42
0.0000000001
 43
0.0000000001
 12
1.0
 22
0.0
 32
0.0
 13
1.0
 23
0.0
 33
0.0
 40
0.0
 40
0.0
 40
0.0
 40
0.0
 40
1.0
 40
1.0
 40
1.0
 40
2.0
 40
2.0
 40
2.0
 40
3.0
 40
3.0
 40
3.0
 40
4.0
 40
4.0
 40
4.0
 40
4.0
 10
24.86039845586851
 20
47.43450235664452
 30
0.0
 10
24.03627778617979
 20
47.43458848403166
 30
0.0
 10
23.36812035718152
 20
46.7665952353651
 30
0.0
 10
23.36799924054336
 20
45.94247456567638
 30
0.0
 10
23.36787812390521
 20
45.11835658746851
 30
0.0
 10
24.03583907480159
 20
44.45016416921922
 30
0.0
 10
24.85995705300946
 20
44.45000268036835
 30
0.0
 10
25.68407772269818
 20
44.44984388299833
 30
0.0
 10
26.35229705575595
 20
45.11777253612453
 30
0.0
 10
26.35250160830039
 20
45.94188782285156
 30
0.0
 10
26.35270346936397
 20
46.76600849254027
 30
0.0
 10
25.68480711400795
 20
47.43426012336822
 30
0.0
 10
24.86068644431923
 20
47.43450235664452
 30
0.0
  0
SPLINE
  5
4E
330
41
100
AcDbEntity
  8
LAGER_1
 62
     7
100
AcDbSpline
210
0.0
220
0.0
230
1.0
 70
     8
 71
     3
 72
    17
 73
    13
 74
     0
 42
0.0000000001
 43
0.0000000001
 12
1.0
 22
0.0
 32
0.0
 13
1.0
 23
0.0
 33
0.0
 40
0.0
 40
0.0
 40
0.0
 40
0.0
 40
1.0
 40
1.0
 40
1.0
 40
2.0
 40
2.0
 40
2.0
 40
3.0
 40
3.0
 40
3.0
 40
4.0
 40
4.0
 40
4.0
 40
4.0
 10
75.15240027350248
 20
167.3860038338859
 30
0.0
 10
74.32827960381377
 20
167.3860791953497
 30
0.0
 10
73.66011948333465
 20
166.7180859466831
 30
0.0
 10
73.66000105817734
 20
165.8939652769944
 30
0.0
 10
73.65987725005834
 20
165.0698553732291
 30
0.0
 10
74.32783820095472
 20
164.4016575720181
 30
0.0
 10
75.15195348768174
 20
164.4014960831672
 30
0.0
 10
75.97607415737046
 20
164.4013345943164
 30
0.0
 10
76.64429887338993
 20
165.0692632474425
 30
0.0
 10
76.64449804297267
 20
165.8933839171313
 30
0.0
 10
76.6447025955171
 20
166.71750458682
 30
0.0
 10
75.97680624016108
 20
167.3857562176479
 30
0.0
 10
75.15268557047236
 20
167.3860038338859
 30
0.0
  0
POLYLINE
  5
4F
330
41
100
AcDbEntity
  8
LAGER_1
 62
     7
100
AcDb2dPolyline
 66
     1
 10
0.0
 20
0.0
 30
0.0
  0
VERTEX
  5
50
330
4F
100
AcDbEntity
  8
LAGER_1
 62
     7
100
AcDbVertex
100
AcDb2dVertex
 10
102.5525042807312
 20
103.7589982515125
 30
0.0
  0
VERTEX
  5
51
330
4F
100
AcDbEntity
  8
LAGER_1
 62
     7
100
AcDbVertex
100
AcDb2dVertex
 10
79.12099954958282
 20
168.0844969435203
 30
0.0
  0
SEQEND
  5
52
330
4F
100
AcDbEntity
  8
LAGER_1
 62
     7
  0
POLYLINE
  5
53
330
41
100
AcDbEntity
  8
LAGER_1
 62
     7
100
AcDb2dPolyline
 66
     1
 10
0.0
 20
0.0
 30
0.0
  0
VERTEX
  5
54
330
53
100
AcDbEntity
  8
LAGER_1
 62
     7
100
AcDbVertex
100
AcDb2dVertex
 10
77.27949911940625
 20
169.41799651255
 30
0.0
  0
VERTEX
  5
55
330
53
100
AcDbEntity
  8
LAGER_1
 62
     7
100
AcDbVertex
100
AcDb2dVertex
 10
4.000500052829493
 20
169.41799651255
 30
0.0
  0
SEQEND
  5
56
330
53
100
AcDbEntity
  8
LAGER_1
 62
     7
  0
POLYLINE
  5
57
330
41
100
AcDbEntity
  8
LAGER_1
 62
     7
100
AcDb2dPolyline
 66
     1
 10
0.0
 20
0.0
 30
0.0
  0
VERTEX
  5
58
330
57
100
AcDbEntity
  8
LAGER_1
 62
     7
100
AcDbVertex
100
AcDb2dVertex
 10
2.032000080236426
 20
167.3860038338859
 30
0.0
  0
VERTEX
  5
59
330
57
100
AcDbEntity
  8
LAGER_1
 62
     7
100
AcDbVertex
100
AcDb2dVertex
 10
2.032000080236426
 20
85.40750213183281
 30
0.0
  0
VERTEX
  5
5A
330
57
100
AcDbEntity
  8
LAGER_1
 62
     7
100
AcDbVertex
100
AcDb2dVertex
 10
8.001000105658985
 20
85.40750213183281
 30
0.0
  0
VERTEX
  5
5B
330
57
100
AcDbEntity
  8
LAGER_1
 62
     7
100
AcDbVertex
100
AcDb2dVertex
 10
8.001000105658985
 20
77.40649933469298
 30
0.0
  0
VERTEX
  5
5C
330
57
100
AcDbEntity
  8
LAGER_1
 62
     7
100
AcDbVertex
100
AcDb2dVertex
 10
2.032000080236426
 20
77.40649933469298
 30
0.0
  0
VERTEX
  5
5D
330
57
100
AcDbEntity
  8
LAGER_1
 62
     7
100
AcDbVertex
100
AcDb2dVertex
 10
2.032000080236426
 20
74.0410017040375
 30
0.0
  0
SEQEND
  5
5E
330
57
100
AcDbEntity
  8
LAGER_1
 62
     7
  0
POLYLINE
  5
5F
330
41
100
AcDbEntity
  8
LAGER_1
 62
     7
100
AcDb2dPolyline
 66
     1
 10
0.0
 20
0.0
 30
0.0
  0
VERTEX
  5
60
330
5F
100
AcDbEntity
  8
LAGER_1
 62
     7
100
AcDbVertex
100
AcDb2dVertex
 10
2.349499945583008
 20
72.89799976645703
 30
0.0
  0
VERTEX
  5
61
330
5F
100
AcDbEntity
  8
LAGER_1
 62
     7
100
AcDbVertex
100
AcDb2dVertex
 10
22.41550031737383
 20
43.30700074278789
 30
0.0
  0
SEQEND
  5
62
330
5F
100
AcDbEntity
  8
LAGER_1
 62
     7
  0
POLYLINE
  5
63
330
41
100
AcDbEntity
  8
LAGER_1
 62
     7
100
AcDb2dPolyline
 66
     1
 10
0.0
 20
0.0
 30
0.0
  0
VERTEX
  5
64
330
63
100
AcDbEntity
  8
LAGER_1
 62
     7
100
AcDbVertex
100
AcDb2dVertex
 10
24.06650042462031
 20
42.41799923578086
 30
0.0
  0
VERTEX
  5
65
330
63
100
AcDbEntity
  8
LAGER_1
 62
     7
100
AcDbVertex
100
AcDb2dVertex
 10
65.78599847632422
 20
42.41799923578086
 30
0.0
  0
SEQEND
  5
66
330
63
100
AcDbEntity
  8
LAGER_1
 62
     7
  0
POLYLINE
  5
67
330
41
100
AcDbEntity
  8
LAGER_1
 62
     7
100
AcDb2dPolyline
 66
     1
 10
0.0
 20
0.0
 30
0.0
  0
VERTEX
  5
68
330
67
100
AcDbEntity
  8
LAGER_1
 62
     7
100
AcDbVertex
100
AcDb2dVertex
 10
67.56400149033828
 20
43.49750106571797
 30
0.0
  0
VERTEX
  5
69
330
67
100
AcDbEntity
  8
LAGER_1
 62
     7
100
AcDbVertex
100
AcDb2dVertex
 10
76.8350010573836
 20
61.97599740068439
 30
0.0
  0
SEQEND
  5
6A
330
67
100
AcDbEntity
  8
LAGER_1
 62
     7
  0
POLYLINE
  5
6B
330
41
100
AcDbEntity
  8
LAGER_1
 62
     7
100
AcDb2dPolyline
 66
     1
 10
0.0
 20
0.0
 30
0.0
  0
VERTEX
  5
6C
330
6B
100
AcDbEntity
  8
LAGER_1
 62
     7
100
AcDbVertex
100
AcDb2dVertex
 10
77.02549868883283
 20
62.86499890769142
 30
0.0
  0
VERTEX
  5
6D
330
6B
100
AcDbEntity
  8
LAGER_1
 62
     7
100
AcDbVertex
100
AcDb2dVertex
 10
77.02549868883283
 20
77.40649933469298
 30
0.0
  0
SEQEND
  5
6E
330
6B
100
AcDbEntity
  8
LAGER_1
 62
     7
  0
SPLINE
  5
6F
330
41
100
AcDbEntity
  8
LAGER_1
 62
     7
100
AcDbSpline
210
0.0
220
0.0
230
1.0
 70
     8
 71
     3
 72
     8
 73
     4
 74
     0
 42
0.0000000001
 43
0.0000000001
 12
1.0
 22
0.0
 32
0.0
 13
1.0
 23
0.0
 33
0.0
 40
0.0
 40
0.0
 40
0.0
 40
0.0
 40
1.0
 40
1.0
 40
1.0
 40
1.0
 10
79.12742680584749
 20
168.1017224209466
 30
0.0
 10
78.8399120557566
 20
168.8918550704886
 30
0.0
 10
78.08895121847418
 20
169.4178350236992
 30
0.0
 10
77.24813260160539
 20
169.41799651255
 30
0.0
  0
SPLINE
  5
70
330
41
100
AcDbEntity
  8
LAGER_1
 62
     7
100
AcDbSpline
210
0.0
220
0.0
230
1.0
 70
     8
 71
     3
 72
     8
 73
     4
 74
     0
 42
0.0000000001
 43
0.0000000001
 12
1.0
 22
0.0
 32
0.0
 13
1.0
 23
0.0
 33
0.0
 40
0.0
 40
0.0
 40
0.0
 40
0.0
 40
1.0
 40
1.0
 40
1.0
 40
1.0
 10
4.03245028553923
 20
169.4180072784734
 30
0.0
 10
2.927818435360846
 20
169.4181149377073
 30
0.0
 10
2.032216408009571
 20
168.5227776847845
 30
0.0
 10
2.032000080236426
 20
167.4181401152093
 30
0.0
  0
SPLINE
  5
71
330
41
100
AcDbEntity
  8
LAGER_1
 62
     7
100
AcDbSpline
210
0.0
220
0.0
230
1.0
 70
     8
 71
     3
 72
     8
 73
     4
 74
     0
 42
0.0000000001
 43
0.0000000001
 12
1.0
 22
0.0
 32
0.0
 13
1.0
 23
0.0
 33
0.0
 40
0.0
 40
0.0
 40
0.0
 40
0.0
 40
1.0
 40
1.0
 40
1.0
 40
1.0
 10
2.032000080236426
 20
74.00945216553899
 30
0.0
 10
2.031960044458814
 20
73.60952502635674
 30
0.0
 10
2.151801929995565
 20
73.21877583686566
 30
0.0
 10
2.376054432063016
 20
72.8876375651928
 30
0.0
  0
SPLINE
  5
72
330
41
100
AcDbEntity
  8
LAGER_1
 62
     7
100
AcDbSpline
210
0.0
220
0.0
230
1.0
 70
     8
 71
     3
 72
     8
 73
     4
 74
     0
 42
0.0000000001
 43
0.0000000001
 12
1.0
 22
0.0
 32
0.0
 13
1.0
 23
0.0
 33
0.0
 40
0.0
 40
0.0
 40
0.0
 40
0.0
 40
1.0
 40
1.0
 40
1.0
 40
1.0
 10
22.44206254186127
 20
43.29663046708112
 30
0.0
 10
22.81411132242147
 20
42.74726154530277
 30
0.0
 10
23.43436846677053
 20
42.41813111834241
 30
0.0
 10
24.09786694242117
 20
42.41800461874256
 30
0.0
  0
SPLINE
  5
73
330
41
100
AcDbEntity
  8
LAGER_1
 62
     7
100
AcDbSpline
210
0.0
220
0.0
230
1.0
 70
     8
 71
     3
 72
     8
 73
     4
 74
     0
 42
0.0000000001
 43
0.0000000001
 12
1.0
 22
0.0
 32
0.0
 13
1.0
 23
0.0
 33
0.0
 40
0.0
 40
0.0
 40
0.0
 40
0.0
 40
1.0
 40
1.0
 40
1.0
 40
1.0
 10
65.75405059866023
 20
42.41800192726171
 30
0.0
 10
66.51162171290497
 20
42.41792656579797
 30
0.0
 10
67.20422586244428
 20
42.84583972283617
 30
0.0
 10
67.54315327969083
 20
43.52336350518497
 30
0.0
  0
SPLINE
  5
74
330
41
100
AcDbEntity
  8
LAGER_1
 62
     7
100
AcDbSpline
210
0.0
220
0.0
230
1.0
 70
     8
 71
     3
 72
     8
 73
     4
 74
     0
 42
0.0000000001
 43
0.0000000001
 12
1.0
 22
0.0
 32
0.0
 13
1.0
 23
0.0
 33
0.0
 40
0.0
 40
0.0
 40
0.0
 40
0.0
 40
1.0
 40
1.0
 40
1.0
 40
1.0
 10
76.81425512300835
 20
62.0020401693682
 30
0.0
 10
76.9531247688341
 20
62.27971486547933
 30
0.0
 10
77.02545024217756
 20
62.58590310969261
 30
0.0
 10
77.02550945475622
 20
62.89637080845397
 30
0.0
  0
POLYLINE
  5
75
330
41
100
AcDbEntity
  8
LAGER_1
 62
     7
100
AcDb2dPolyline
 66
     1
 10
0.0
 20
0.0
 30
0.0
  0
VERTEX
  5
76
330
75
100
AcDbEntity
  8
LAGER_1
 62
     7
100
AcDbVertex
100
AcDb2dVertex
 10
93.28150471368592
 20
76.9620012726703
 30
0.0
  0
VERTEX
  5
77
330
75
100
AcDbEntity
  8
LAGER_1
 62
     7
100
AcDbVertex
100
AcDb2dVertex
 10
87.4395001934586
 20
92.96399610102658
 30
0.0
  0
SEQEND
  5
78
330
75
100
AcDbEntity
  8
LAGER_1
 62
     7
  0
POLYLINE
  5
79
330
41
100
AcDbEntity
  8
LAGER_1
 62
     7
100
AcDb2dPolyline
 66
     1
 10
0.0
 20
0.0
 30
0.0
  0
VERTEX
  5
7A
330
79
100
AcDbEntity
  8
LAGER_1
 62
     7
100
AcDbVertex
100
AcDb2dVertex
 10
100.5839982523063
 20
97.72649609983596
 30
0.0
  0
VERTEX
  5
7B
330
79
100
AcDbEntity
  8
LAGER_1
 62
     7
100
AcDbVertex
100
AcDb2dVertex
 10
106.4259973895719
 20
81.7879986876422
 30
0.0
  0
SEQEND
  5
7C
330
79
100
AcDbEntity
  8
LAGER_1
 62
     7
  0
POLYLINE
  5
7D
330
41
100
AcDbEntity
  8
LAGER_1
 62
     7
100
AcDb2dPolyline
 66
     1
 10
0.0
 20
0.0
 30
0.0
  0
VERTEX
  5
7E
330
7D
100
AcDbEntity
  8
LAGER_1
 62
     7
100
AcDbVertex
100
AcDb2dVertex
 10
87.4395001934586
 20
92.96399610102658
 30
0.0
  0
VERTEX
  5
7F
330
7D
100
AcDbEntity
  8
LAGER_1
 62
     7
100
AcDbVertex
100
AcDb2dVertex
 10
77.5970023491039
 20
89.34449803979767
 30
0.0
  0
VERTEX
  5
80
330
7D
100
AcDbEntity
  8
LAGER_1
 62
     7
100
AcDbVertex
100
AcDb2dVertex
 10
106.4894948057344
 20
9.96950007825205
 30
0.0
  0
SEQEND
  5
81
330
7D
100
AcDbEntity
  8
LAGER_1
 62
     7
  0
POLYLINE
  5
82
330
41
100
AcDbEntity
  8
LAGER_1
 62
     7
100
AcDb2dPolyline
 66
     1
 10
0.0
 20
0.0
 30
0.0
  0
VERTEX
  5
83
330
82
100
AcDbEntity
  8
LAGER_1
 62
     7
100
AcDbVertex
100
AcDb2dVertex
 10
108.3945034179969
 20
8.63599983635215
 30
0.0
  0
VERTEX
  5
84
330
82
100
AcDbEntity
  8
LAGER_1
 62
     7
100
AcDbVertex
100
AcDb2dVertex
 10
181.6099956482282
 20
8.63599983635215
 30
0.0
  0
SEQEND
  5
85
330
82
100
AcDbEntity
  8
LAGER_1
 62
     7
  0
POLYLINE
  5
86
330
41
100
AcDbEntity
  8
LAGER_1
 62
     7
100
AcDb2dPolyline
 66
     1
 10
0.0
 20
0.0
 30
0.0
  0
VERTEX
  5
87
330
86
100
AcDbEntity
  8
LAGER_1
 62
     7
100
AcDbVertex
100
AcDb2dVertex
 10
183.5785016766531
 20
10.66799991658858
 30
0.0
  0
VERTEX
  5
88
330
86
100
AcDbEntity
  8
LAGER_1
 62
     7
100
AcDbVertex
100
AcDb2dVertex
 10
183.5785016766531
 20
16.63699994201113
 30
0.0
  0
SEQEND
  5
89
330
86
100
AcDbEntity
  8
LAGER_1
 62
     7
  0
SPLINE
  5
8A
330
41
100
AcDbEntity
  8
LAGER_1
 62
     7
100
AcDbSpline
210
0.0
220
0.0
230
1.0
 70
     8
 71
     3
 72
    17
 73
    13
 74
     0
 42
0.0000000001
 43
0.0000000001
 12
1.0
 22
0.0
 32
0.0
 13
1.0
 23
0.0
 33
0.0
 40
0.0
 40
0.0
 40
0.0
 40
0.0
 40
1.0
 40
1.0
 40
1.0
 40
2.0
 40
2.0
 40
2.0
 40
3.0
 40
3.0
 40
3.0
 40
4.0
 40
4.0
 40
4.0
 40
4.0
 10
110.4580940818147
 20
10.66800058945879
 30
0.0
 10
111.2822147515035
 20
10.66791782642272
 30
0.0
 10
111.9503694890209
 20
11.33591040221906
 30
0.0
 10
111.9504986801016
 20
12.16003107190777
 30
0.0
 10
111.9506171052589
 20
12.98414770437522
 30
0.0
 10
111.2826561543625
 20
13.65234012262451
 30
0.0
 10
110.4585354846738
 20
13.65250026573496
 30
0.0
 10
109.6344148149851
 20
13.65266040884541
 30
0.0
 10
108.9661954819273
 20
12.9847317557192
 30
0.0
 10
108.9659909293829
 20
12.16061512325176
 30
0.0
 10
108.9657971427618
 20
11.33649445356304
 30
0.0
 10
109.6336934981178
 20
10.66824147699467
 30
0.0
 10
110.4578141678066
 20
10.66800058945879
 30
0.0
  0
SPLINE
  5
8B
330
41
100
AcDbEntity
  8
LAGER_1
 62
     7
100
AcDbSpline
210
0.0
220
0.0
230
1.0
 70
     8
 71
     3
 72
    17
 73
    13
 74
     0
 42
0.0000000001
 43
0.0000000001
 12
1.0
 22
0.0
 32
0.0
 13
1.0
 23
0.0
 33
0.0
 40
0.0
 40
0.0
 40
0.0
 40
0.0
 40
1.0
 40
1.0
 40
1.0
 40
2.0
 40
2.0
 40
2.0
 40
3.0
 40
3.0
 40
3.0
 40
4.0
 40
4.0
 40
4.0
 40
4.0
 10
85.43910011698658
 20
77.97799761200235
 30
0.0
 10
86.2632207866753
 20
77.97791148461522
 30
0.0
 10
86.93138090715442
 20
78.64590473328178
 30
0.0
 10
86.93149933231173
 20
79.47002540297049
 30
0.0
 10
86.93162314043073
 20
80.29414607265922
 30
0.0
 10
86.26366218953434
 20
80.96233849090851
 30
0.0
 10
85.43954690280732
 20
80.96249459679768
 30
0.0
 10
84.61542623311861
 20
80.96265608564856
 30
0.0
 10
83.94720151709915
 20
80.29472743252235
 30
0.0
 10
83.9470023475164
 20
79.47061214579533
 30
0.0
 10
83.94679779497196
 20
78.6464914761066
 30
0.0
 10
84.61469415032799
 20
77.97823984527867
 30
0.0
 10
85.43881482001672
 20
77.97799761200235
 30
0.0
  0
SPLINE
  5
8C
330
41
100
AcDbEntity
  8
LAGER_1
 62
     7
100
AcDbSpline
210
0.0
220
0.0
230
1.0
 70
     8
 71
     3
 72
    17
 73
    13
 74
     0
 42
0.0000000001
 43
0.0000000001
 12
1.0
 22
0.0
 32
0.0
 13
1.0
 23
0.0
 33
0.0
 40
0.0
 40
0.0
 40
0.0
 40
0.0
 40
1.0
 40
1.0
 40
1.0
 40
2.0
 40
2.0
 40
2.0
 40
3.0
 40
3.0
 40
3.0
 40
4.0
 40
4.0
 40
4.0
 40
4.0
 10
175.6090914817054
 20
10.66800058945879
 30
0.0
 10
176.4332121513941
 20
10.66791782642272
 30
0.0
 10
177.1013668889115
 20
11.33591040221906
 30
0.0
 10
177.1014960799922
 20
12.16003107190777
 30
0.0
 10
177.1016145051495
 20
12.98414770437522
 30
0.0
 10
176.4336535542531
 20
13.65234012262451
 30
0.0
 10
175.6095328845644
 20
13.65250026573496
 30
0.0
 10
174.7854122148757
 20
13.65266040884541
 30
0.0
 10
174.1171928818179
 20
12.9847317557192
 30
0.0
 10
174.1169883292735
 20
12.16061512325176
 30
0.0
 10
174.1167945426525
 20
11.33649445356304
 30
0.0
 10
174.7846908980085
 20
10.66824147699467
 30
0.0
 10
175.6088115676972
 20
10.66800058945879
 30
0.0
  0
POLYLINE
  5
8D
330
41
100
AcDbEntity
  8
LAGER_1
 62
     7
100
AcDb2dPolyline
 66
     1
 10
0.0
 20
0.0
 30
0.0
  0
VERTEX
  5
8E
330
8D
100
AcDbEntity
  8
LAGER_1
 62
     7
100
AcDbVertex
100
AcDb2dVertex
 10
183.5785016766531
 20
100.6474956684688
 30
0.0
  0
VERTEX
  5
8F
330
8D
100
AcDbEntity
  8
LAGER_1
 62
     7
100
AcDbVertex
100
AcDb2dVertex
 10
183.5785016766531
 20
104.012998682086
 30
0.0
  0
SEQEND
  5
90
330
8D
100
AcDbEntity
  8
LAGER_1
 62
     7
  0
SPLINE
  5
91
330
41
100
AcDbEntity
  8
LAGER_1
 62
     7
100
AcDbSpline
210
0.0
220
0.0
230
1.0
 70
     8
 71
     3
 72
    17
 73
    13
 74
     0
 42
0.0000000001
 43
0.0000000001
 12
1.0
 22
0.0
 32
0.0
 13
1.0
 23
0.0
 33
0.0
 40
0.0
 40
0.0
 40
0.0
 40
0.0
 40
1.0
 40
1.0
 40
1.0
 40
2.0
 40
2.0
 40
2.0
 40
3.0
 40
3.0
 40
3.0
 40
4.0
 40
4.0
 40
4.0
 40
4.0
 10
180.1176018158647
 20
62.16650041509531
 30
0.0
 10
180.9417332514768
 20
62.16641428770819
 30
0.0
 10
181.6098879889942
 20
62.83440753637473
 30
0.0
 10
181.6099956482282
 20
63.65852820606345
 30
0.0
 10
181.6101248393088
 20
64.48264887575218
 30
0.0
 10
180.9421638884125
 20
65.15084129400147
 30
0.0
 10
180.1180432187238
 20
65.15099739989064
 30
0.0
 10
179.293922549035
 20
65.1511588887415
 30
0.0
 10
178.6257032159773
 20
64.48323023561531
 30
0.0
 10
178.6254986634328
 20
63.65911494888828
 30
0.0
 10
178.6253048768118
 20
62.83499427919956
 30
0.0
 10
179.2932012321678
 20
62.16674264837162
 30
0.0
 10
180.1173219018565
 20
62.16650041509531
 30
0.0
  0
SPLINE
  5
92
330
41
100
AcDbEntity
  8
LAGER_1
 62
     7
100
AcDbSpline
210
0.0
220
0.0
230
1.0
 70
     8
 71
     3
 72
    17
 73
    13
 74
     0
 42
0.0000000001
 43
0.0000000001
 12
1.0
 22
0.0
 32
0.0
 13
1.0
 23
0.0
 33
0.0
 40
0.0
 40
0.0
 40
0.0
 40
0.0
 40
1.0
 40
1.0
 40
1.0
 40
2.0
 40
2.0
 40
2.0
 40
3.0
 40
3.0
 40
3.0
 40
4.0
 40
4.0
 40
4.0
 40
4.0
 10
108.9340914983741
 20
86.48700127028906
 30
0.0
 10
109.7582121680628
 20
86.48691514290194
 30
0.0
 10
110.4263669055803
 20
87.15490839156848
 30
0.0
 10
110.426496096661
 20
87.9790290612572
 30
0.0
 10
110.4266145218183
 20
88.80314973094592
 30
0.0
 10
109.7586535709219
 20
89.47134214919521
 30
0.0
 10
108.9345329012332
 20
89.47149825508438
 30
0.0
 10
108.1104122315444
 20
89.47165974393526
 30
0.0
 10
107.4421928984867
 20
88.80373109080905
 30
0.0
 10
107.4419883459422
 20
87.97961580408203
 30
0.0
 10
107.4417945593212
 20
87.15549513439332
 30
0.0
 10
108.1096909146772
 20
86.48724350356537
 30
0.0
 10
108.9338115843659
 20
86.48700127028906
 30
0.0
  0
SPLINE
  5
93
330
41
100
AcDbEntity
  8
LAGER_1
 62
     7
100
AcDbSpline
210
0.0
220
0.0
230
1.0
 70
     8
 71
     3
 72
    17
 73
    13
 74
     0
 42
0.0000000001
 43
0.0000000001
 12
1.0
 22
0.0
 32
0.0
 13
1.0
 23
0.0
 33
0.0
 40
0.0
 40
0.0
 40
0.0
 40
0.0
 40
1.0
 40
1.0
 40
1.0
 40
2.0
 40
2.0
 40
2.0
 40
3.0
 40
3.0
 40
3.0
 40
4.0
 40
4.0
 40
4.0
 40
4.0
 10
120.7451061370772
 20
130.6829900626797
 30
0.0
 10
121.5692268067659
 20
130.682914701216
 30
0.0
 10
122.2373815442833
 20
131.3509079498826
 30
0.0
 10
122.237510735364
 20
132.1750286195713
 30
0.0
 10
122.2376291605213
 20
132.9991385233366
 30
0.0
 10
121.569668209625
 20
133.6673363245476
 30
0.0
 10
120.7455475399362
 20
133.6674978133985
 30
0.0
 10
119.9214268702475
 20
133.6676593022493
 30
0.0
 10
119.2532075371897
 20
132.9997306491231
 30
0.0
 10
119.2530029846453
 20
132.1756099794344
 30
0.0
 10
119.2528091980243
 20
131.3514893097457
 30
0.0
 10
119.9207055533803
 20
130.6832376789177
 30
0.0
 10
120.744826223069
 20
130.6829900626797
 30
0.0
  0
SPLINE
  5
94
330
41
100
AcDbEntity
  8
LAGER_1
 62
     7
100
AcDbSpline
210
0.0
220
0.0
230
1.0
 70
     8
 71
     3
 72
    17
 73
    13
 74
     0
 42
0.0000000001
 43
0.0000000001
 12
1.0
 22
0.0
 32
0.0
 13
1.0
 23
0.0
 33
0.0
 40
0.0
 40
0.0
 40
0.0
 40
0.0
 40
1.0
 40
1.0
 40
1.0
 40
2.0
 40
2.0
 40
2.0
 40
3.0
 40
3.0
 40
3.0
 40
4.0
 40
4.0
 40
4.0
 40
4.0
 10
160.7500932079679
 20
130.6829900626797
 30
0.0
 10
161.5742138776566
 20
130.682914701216
 30
0.0
 10
162.242368615174
 20
131.3509079498826
 30
0.0
 10
162.2424978062547
 20
132.1750286195713
 30
0.0
 10
162.242616231412
 20
132.9991385233366
 30
0.0
 10
161.5746552805156
 20
133.6673363245476
 30
0.0
 10
160.7505346108269
 20
133.6674978133985
 30
0.0
 10
159.9264139411382
 20
133.6676593022493
 30
0.0
 10
159.2581946080804
 20
132.9997306491231
 30
0.0
 10
159.257990055536
 20
132.1756099794344
 30
0.0
 10
159.2577962689149
 20
131.3514893097457
 30
0.0
 10
159.925692624271
 20
130.6832376789177
 30
0.0
 10
160.7498132939597
 20
130.6829900626797
 30
0.0
  0
POLYLINE
  5
95
330
41
100
AcDbEntity
  8
LAGER_1
 62
     7
100
AcDb2dPolyline
 66
     1
 10
0.0
 20
0.0
 30
0.0
  0
VERTEX
  5
96
330
95
100
AcDbEntity
  8
LAGER_1
 62
     7
100
AcDbVertex
100
AcDb2dVertex
 10
177.6094969411391
 20
100.6474956684688
 30
0.0
  0
VERTEX
  5
97
330
95
100
AcDbEntity
  8
LAGER_1
 62
     7
100
AcDbVertex
100
AcDb2dVertex
 10
183.5785016766531
 20
100.6474956684688
 30
0.0
  0
SEQEND
  5
98
330
95
100
AcDbEntity
  8
LAGER_1
 62
     7
  0
POLYLINE
  5
99
330
41
100
AcDbEntity
  8
LAGER_1
 62
     7
100
AcDb2dPolyline
 66
     1
 10
0.0
 20
0.0
 30
0.0
  0
VERTEX
  5
9A
330
99
100
AcDbEntity
  8
LAGER_1
 62
     7
100
AcDbVertex
100
AcDb2dVertex
 10
183.5785016766531
 20
92.64649825429063
 30
0.0
  0
VERTEX
  5
9B
330
99
100
AcDbEntity
  8
LAGER_1
 62
     7
100
AcDbVertex
100
AcDb2dVertex
 10
177.6094969411391
 20
92.64649825429063
 30
0.0
  0
VERTEX
  5
9C
330
99
100
AcDbEntity
  8
LAGER_1
 62
     7
100
AcDbVertex
100
AcDb2dVertex
 10
177.6094969411391
 20
100.6474956684688
 30
0.0
  0
SEQEND
  5
9D
330
99
100
AcDbEntity
  8
LAGER_1
 62
     7
  0
POLYLINE
  5
9E
330
41
100
AcDbEntity
  8
LAGER_1
 62
     7
100
AcDb2dPolyline
 66
     1
 10
0.0
 20
0.0
 30
0.0
  0
VERTEX
  5
9F
330
9E
100
AcDbEntity
  8
LAGER_1
 62
     7
100
AcDbVertex
100
AcDb2dVertex
 10
108.5849956664844
 20
115.1889960954703
 30
0.0
  0
VERTEX
  5
A0
330
9E
100
AcDbEntity
  8
LAGER_1
 62
     7
100
AcDbVertex
100
AcDb2dVertex
 10
108.5849956664844
 20
100.6474956684688
 30
0.0
  0
SEQEND
  5
A1
330
9E
100
AcDbEntity
  8
LAGER_1
 62
     7
  0
POLYLINE
  5
A2
330
41
100
AcDbEntity
  8
LAGER_1
 62
     7
100
AcDb2dPolyline
 66
     1
 10
0.0
 20
0.0
 30
0.0
  0
VERTEX
  5
A3
330
A2
100
AcDbEntity
  8
LAGER_1
 62
     7
100
AcDbVertex
100
AcDb2dVertex
 10
118.0464982479406
 20
134.5565047033672
 30
0.0
  0
VERTEX
  5
A4
330
A2
100
AcDbEntity
  8
LAGER_1
 62
     7
100
AcDbVertex
100
AcDb2dVertex
 10
108.8389960970578
 20
116.0780029854391
 30
0.0
  0
SEQEND
  5
A5
330
A2
100
AcDbEntity
  8
LAGER_1
 62
     7
  0
POLYLINE
  5
A6
330
41
100
AcDbEntity
  8
LAGER_1
 62
     7
100
AcDb2dPolyline
 66
     1
 10
0.0
 20
0.0
 30
0.0
  0
VERTEX
  5
A7
330
A6
100
AcDbEntity
  8
LAGER_1
 62
     7
100
AcDbVertex
100
AcDb2dVertex
 10
161.5440046966203
 20
135.6360038418234
 30
0.0
  0
VERTEX
  5
A8
330
A6
100
AcDbEntity
  8
LAGER_1
 62
     7
100
AcDbVertex
100
AcDb2dVertex
 10
119.8245012619547
 20
135.6360038418234
 30
0.0
  0
SEQEND
  5
A9
330
A6
100
AcDbEntity
  8
LAGER_1
 62
     7
  0
POLYLINE
  5
AA
330
41
100
AcDbEntity
  8
LAGER_1
 62
     7
100
AcDb2dPolyline
 66
     1
 10
0.0
 20
0.0
 30
0.0
  0
VERTEX
  5
AB
330
AA
100
AcDbEntity
  8
LAGER_1
 62
     7
100
AcDbVertex
100
AcDb2dVertex
 10
183.2609930639938
 20
105.1559952367047
 30
0.0
  0
VERTEX
  5
AC
330
AA
100
AcDbEntity
  8
LAGER_1
 62
     7
100
AcDbVertex
100
AcDb2dVertex
 10
163.1950021123859
 20
134.7469969518547
 30
0.0
  0
SEQEND
  5
AD
330
AA
100
AcDbEntity
  8
LAGER_1
 62
     7
  0
POLYLINE
  5
AE
330
41
100
AcDbEntity
  8
LAGER_1
 62
     7
100
AcDb2dPolyline
 66
     1
 10
0.0
 20
0.0
 30
0.0
  0
VERTEX
  5
AF
330
AE
100
AcDbEntity
  8
LAGER_1
 62
     7
100
AcDbVertex
100
AcDb2dVertex
 10
183.5785016766531
 20
56.64199912456563
 30
0.0
  0
VERTEX
  5
B0
330
AE
100
AcDbEntity
  8
LAGER_1
 62
     7
100
AcDbVertex
100
AcDb2dVertex
 10
183.5785016766531
 20
92.64649825429063
 30
0.0
  0
SEQEND
  5
B1
330
AE
100
AcDbEntity
  8
LAGER_1
 62
     7
  0
POLYLINE
  5
B2
330
41
100
AcDbEntity
  8
LAGER_1
 62
     7
100
AcDb2dPolyline
 66
     1
 10
0.0
 20
0.0
 30
0.0
  0
VERTEX
  5
B3
330
B2
100
AcDbEntity
  8
LAGER_1
 62
     7
100
AcDbVertex
100
AcDb2dVertex
 10
108.5849956664844
 20
100.6474956684688
 30
0.0
  0
VERTEX
  5
B4
330
B2
100
AcDbEntity
  8
LAGER_1
 62
     7
100
AcDbVertex
100
AcDb2dVertex
 10
100.5839982523063
 20
97.72649609983596
 30
0.0
  0
SEQEND
  5
B5
330
B2
100
AcDbEntity
  8
LAGER_1
 62
     7
  0
SPLINE
  5
B6
330
41
100
AcDbEntity
  8
LAGER_1
 62
     7
100
AcDbSpline
210
0.0
220
0.0
230
1.0
 70
     8
 71
     3
 72
     8
 73
     4
 74
     0
 42
0.0000000001
 43
0.0000000001
 12
1.0
 22
0.0
 32
0.0
 13
1.0
 23
0.0
 33
0.0
 40
0.0
 40
0.0
 40
0.0
 40
0.0
 40
1.0
 40
1.0
 40
1.0
 40
1.0
 10
106.4830675494697
 20
9.952284693878982
 30
0.0
 10
106.7705822995606
 20
9.162144642764599
 30
0.0
 10
107.5215377538813
 20
8.63616401668387
 30
0.0
 10
108.3623671366735
 20
8.636003873573422
 30
0.0
  0
SPLINE
  5
B7
330
41
100
AcDbEntity
  8
LAGER_1
 62
     7
100
AcDbSpline
210
0.0
220
0.0
230
1.0
 70
     8
 71
     3
 72
     8
 73
     4
 74
     0
 42
0.0000000001
 43
0.0000000001
 12
1.0
 22
0.0
 32
0.0
 13
1.0
 23
0.0
 33
0.0
 40
0.0
 40
0.0
 40
0.0
 40
0.0
 40
1.0
 40
1.0
 40
1.0
 40
1.0
 10
181.5780639194492
 20
8.63599983635215
 30
0.0
 10
182.682690723101
 20
8.635889485637387
 30
0.0
 10
183.5782863581853
 20
9.531224047079407
 30
0.0
 10
183.5785016766531
 20
10.63585959804396
 30
0.0
  0
POLYLINE
  5
B8
330
41
100
AcDbEntity
  8
LAGER_1
 62
     7
100
AcDb2dPolyline
 66
     1
 10
0.0
 20
0.0
 30
0.0
  0
VERTEX
  5
B9
330
B8
100
AcDbEntity
  8
LAGER_1
 62
     7
100
AcDbVertex
100
AcDb2dVertex
 10
183.5785016766531
 20
16.63699994201113
 30
0.0
  0
VERTEX
  5
BA
330
B8
100
AcDbEntity
  8
LAGER_1
 62
     7
100
AcDbVertex
100
AcDb2dVertex
 10
180.5940046918578
 20
16.63699994201113
 30
0.0
  0
VERTEX
  5
BB
330
B8
100
AcDbEntity
  8
LAGER_1
 62
     7
100
AcDbVertex
100
AcDb2dVertex
 10
180.5940046918578
 20
19.62149961828731
 30
0.0
  0
VERTEX
  5
BC
330
B8
100
AcDbEntity
  8
LAGER_1
 62
     7
100
AcDbVertex
100
AcDb2dVertex
 10
176.5934952188453
 20
19.62149961828731
 30
0.0
  0
SEQEND
  5
BD
330
B8
100
AcDbEntity
  8
LAGER_1
 62
     7
  0
POLYLINE
  5
BE
330
41
100
AcDbEntity
  8
LAGER_1
 62
     7
100
AcDb2dPolyline
 66
     1
 10
0.0
 20
0.0
 30
0.0
  0
VERTEX
  5
BF
330
BE
100
AcDbEntity
  8
LAGER_1
 62
     7
100
AcDbVertex
100
AcDb2dVertex
 10
176.5934952188453
 20
53.65750213977031
 30
0.0
  0
VERTEX
  5
C0
330
BE
100
AcDbEntity
  8
LAGER_1
 62
     7
100
AcDbVertex
100
AcDb2dVertex
 10
180.5940046918578
 20
53.65750213977031
 30
0.0
  0
VERTEX
  5
C1
330
BE
100
AcDbEntity
  8
LAGER_1
 62
     7
100
AcDbVertex
100
AcDb2dVertex
 10
180.5940046918578
 20
56.64199912456563
 30
0.0
  0
VERTEX
  5
C2
330
BE
100
AcDbEntity
  8
LAGER_1
 62
     7
100
AcDbVertex
100
AcDb2dVertex
 10
183.5785016766531
 20
56.64199912456563
 30
0.0
  0
SEQEND
  5
C3
330
BE
100
AcDbEntity
  8
LAGER_1
 62
     7
  0
POLYLINE
  5
C4
330
41
100
AcDbEntity
  8
LAGER_1
 62
     7
100
AcDb2dPolyline
 66
     1
 10
0.0
 20
0.0
 30
0.0
  0
VERTEX
  5
C5
330
C4
100
AcDbEntity
  8
LAGER_1
 62
     7
100
AcDbVertex
100
AcDb2dVertex
 10
176.5934952188453
 20
19.62149961828731
 30
0.0
  0
VERTEX
  5
C6
330
C4
100
AcDbEntity
  8
LAGER_1
 62
     7
100
AcDbVertex
100
AcDb2dVertex
 10
176.5934952188453
 20
15.62099956545782
 30
0.0
  0
VERTEX
  5
C7
330
C4
100
AcDbEntity
  8
LAGER_1
 62
     7
100
AcDbVertex
100
AcDb2dVertex
 10
111.8870012639391
 20
15.62099956545782
 30
0.0
  0
VERTEX
  5
C8
330
C4
100
AcDbEntity
  8
LAGER_1
 62
     7
100
AcDbVertex
100
AcDb2dVertex
 10
89.97949911623125
 20
75.75550191892734
 30
0.0
  0
VERTEX
  5
C9
330
C4
100
AcDbEntity
  8
LAGER_1
 62
     7
100
AcDbVertex
100
AcDb2dVertex
 10
93.28150471368592
 20
76.9620012726703
 30
0.0
  0
SEQEND
  5
CA
330
C4
100
AcDbEntity
  8
LAGER_1
 62
     7
  0
POLYLINE
  5
CB
330
41
100
AcDbEntity
  8
LAGER_1
 62
     7
100
AcDb2dPolyline
 66
     1
 10
0.0
 20
0.0
 30
0.0
  0
VERTEX
  5
CC
330
CB
100
AcDbEntity
  8
LAGER_1
 62
     7
100
AcDbVertex
100
AcDb2dVertex
 10
114.617497818161
 20
84.70899825627501
 30
0.0
  0
VERTEX
  5
CD
330
CB
100
AcDbEntity
  8
LAGER_1
 62
     7
100
AcDbVertex
100
AcDb2dVertex
 10
114.617497818161
 20
112.0139960962641
 30
0.0
  0
VERTEX
  5
CE
330
CB
100
AcDbEntity
  8
LAGER_1
 62
     7
100
AcDbVertex
100
AcDb2dVertex
 10
122.9360038449984
 20
128.6509973840157
 30
0.0
  0
VERTEX
  5
CF
330
CB
100
AcDbEntity
  8
LAGER_1
 62
     7
100
AcDbVertex
100
AcDb2dVertex
 10
158.8769947926375
 20
128.6509973840157
 30
0.0
  0
SEQEND
  5
D0
330
CB
100
AcDbEntity
  8
LAGER_1
 62
     7
  0
POLYLINE
  5
D1
330
41
100
AcDbEntity
  8
LAGER_1
 62
     7
100
AcDb2dPolyline
 66
     1
 10
0.0
 20
0.0
 30
0.0
  0
VERTEX
  5
D2
330
D1
100
AcDbEntity
  8
LAGER_1
 62
     7
100
AcDbVertex
100
AcDb2dVertex
 10
176.5934952188453
 20
89.6620012694953
 30
0.0
  0
VERTEX
  5
D3
330
D1
100
AcDbEntity
  8
LAGER_1
 62
     7
100
AcDbVertex
100
AcDb2dVertex
 10
176.5934952188453
 20
53.65750213977031
 30
0.0
  0
SEQEND
  5
D4
330
D1
100
AcDbEntity
  8
LAGER_1
 62
     7
  0
POLYLINE
  5
D5
330
41
100
AcDbEntity
  8
LAGER_1
 62
     7
100
AcDb2dPolyline
 66
     1
 10
0.0
 20
0.0
 30
0.0
  0
VERTEX
  5
D6
330
D5
100
AcDbEntity
  8
LAGER_1
 62
     7
100
AcDbVertex
100
AcDb2dVertex
 10
158.8769947926375
 20
128.6509973840157
 30
0.0
  0
VERTEX
  5
D7
330
D5
100
AcDbEntity
  8
LAGER_1
 62
     7
100
AcDbVertex
100
AcDb2dVertex
 10
175.8315046930484
 20
103.6320034191875
 30
0.0
  0
SEQEND
  5
D8
330
D5
100
AcDbEntity
  8
LAGER_1
 62
     7
  0
POLYLINE
  5
D9
330
41
100
AcDbEntity
  8
LAGER_1
 62
     7
100
AcDb2dPolyline
 66
     1
 10
0.0
 20
0.0
 30
0.0
  0
VERTEX
  5
DA
330
D9
100
AcDbEntity
  8
LAGER_1
 62
     7
100
AcDbVertex
100
AcDb2dVertex
 10
106.4259973895719
 20
81.7879986876422
 30
0.0
  0
VERTEX
  5
DB
330
D9
100
AcDbEntity
  8
LAGER_1
 62
     7
100
AcDbVertex
100
AcDb2dVertex
 10
114.617497818161
 20
84.70899825627501
 30
0.0
  0
SEQEND
  5
DC
330
D9
100
AcDbEntity
  8
LAGER_1
 62
     7
  0
SPLINE
  5
DD
330
41
100
AcDbEntity
  8
LAGER_1
 62
     7
100
AcDbSpline
210
0.0
220
0.0
230
1.0
 70
     8
 71
     3
 72
     8
 73
     4
 74
     0
 42
0.0000000001
 43
0.0000000001
 12
1.0
 22
0.0
 32
0.0
 13
1.0
 23
0.0
 33
0.0
 40
0.0
 40
0.0
 40
0.0
 40
0.0
 40
1.0
 40
1.0
 40
1.0
 40
1.0
 10
108.7962446152706
 20
116.0519602167552
 30
0.0
 10
108.6573749694448
 20
115.7742855206441
 30
0.0
 10
108.5850494961014
 20
115.4680918934691
 30
0.0
 10
108.584984900561
 20
115.1576241947078
 30
0.0
  0
SPLINE
  5
DE
330
41
100
AcDbEntity
  8
LAGER_1
 62
     7
100
AcDbSpline
210
0.0
220
0.0
230
1.0
 70
     8
 71
     3
 72
     8
 73
     4
 74
     0
 42
0.0000000001
 43
0.0000000001
 12
1.0
 22
0.0
 32
0.0
 13
1.0
 23
0.0
 33
0.0
 40
0.0
 40
0.0
 40
0.0
 40
0.0
 40
1.0
 40
1.0
 40
1.0
 40
1.0
 10
119.8564545225804
 20
135.6360038418234
 30
0.0
 10
119.0988780253739
 20
135.6360792032872
 30
0.0
 10
118.4062738758346
 20
135.208166046249
 30
0.0
 10
118.0673518415498
 20
134.5306341894576
 30
0.0
  0
SPLINE
  5
DF
330
41
100
AcDbEntity
  8
LAGER_1
 62
     7
100
AcDbSpline
210
0.0
220
0.0
230
1.0
 70
     8
 71
     3
 72
     8
 73
     4
 74
     0
 42
0.0000000001
 43
0.0000000001
 12
1.0
 22
0.0
 32
0.0
 13
1.0
 23
0.0
 33
0.0
 40
0.0
 40
0.0
 40
0.0
 40
0.0
 40
1.0
 40
1.0
 40
1.0
 40
1.0
 10
163.1683456860688
 20
134.7575260249315
 30
0.0
 10
162.7962430758917
 20
135.3068680319014
 30
0.0
 10
162.1759536337724
 20
135.6359392462831
 30
0.0
 10
161.5124497751601
 20
135.6360038418234
 30
0.0
  0
SPLINE
  5
E0
330
41
100
AcDbEntity
  8
LAGER_1
 62
     7
100
AcDbSpline
210
0.0
220
0.0
230
1.0
 70
     8
 71
     3
 72
     8
 73
     4
 74
     0
 42
0.0000000001
 43
0.0000000001
 12
1.0
 22
0.0
 32
0.0
 13
1.0
 23
0.0
 33
0.0
 40
0.0
 40
0.0
 40
0.0
 40
0.0
 40
1.0
 40
1.0
 40
1.0
 40
1.0
 10
183.5785016766531
 20
104.0443705828485
 30
0.0
 10
183.5785878040403
 20
104.4442923390691
 30
0.0
 10
183.4587846085407
 20
104.8350522944835
 30
0.0
 10
183.2345519561445
 20
105.1662120980032
 30
0.0
  0
POLYLINE
  5
E1
330
41
100
AcDbEntity
  8
LAGER_1
 62
     7
100
AcDb2dPolyline
 66
     1
 10
0.0
 20
0.0
 30
0.0
  0
VERTEX
  5
E2
330
E1
100
AcDbEntity
  8
LAGER_1
 62
     7
100
AcDbVertex
100
AcDb2dVertex
 10
175.8315046930484
 20
103.6320034191875
 30
0.0
  0
VERTEX
  5
E3
330
E1
100
AcDbEntity
  8
LAGER_1
 62
     7
100
AcDbVertex
100
AcDb2dVertex
 10
174.6249999563438
 20
103.6320034191875
 30
0.0
  0
VERTEX
  5
E4
330
E1
100
AcDbEntity
  8
LAGER_1
 62
     7
100
AcDbVertex
100
AcDb2dVertex
 10
174.6249999563438
 20
89.6620012694953
 30
0.0
  0
VERTEX
  5
E5
330
E1
100
AcDbEntity
  8
LAGER_1
 62
     7
100
AcDbVertex
100
AcDb2dVertex
 10
176.5934952188453
 20
89.6620012694953
 30
0.0
  0
SEQEND
  5
E6
330
E1
100
AcDbEntity
  8
LAGER_1
 62
     7
  0
POLYLINE
  5
E7
330
41
100
AcDbEntity
  8
LAGER_1
 62
     7
100
AcDb2dPolyline
 66
     1
 10
0.0
 20
0.0
 30
0.0
  0
VERTEX
  5
E8
330
E7
100
AcDbEntity
  8
LAGER_1
 62
     7
100
AcDbVertex
100
AcDb2dVertex
 10
40.95749945146446
 20
20.31999945662383
 30
0.0
  0
VERTEX
  5
E9
330
E7
100
AcDbEntity
  8
LAGER_1
 62
     7
100
AcDbVertex
100
AcDb2dVertex
 10
28.25749945463946
 20
15.68449967310117
 30
0.0
  0
VERTEX
  5
EA
330
E7
100
AcDbEntity
  8
LAGER_1
 62
     7
100
AcDbVertex
100
AcDb2dVertex
 10
23.6219996711168
 20
28.38449966992617
 30
0.0
  0
VERTEX
  5
EB
330
E7
100
AcDbEntity
  8
LAGER_1
 62
     7
100
AcDbVertex
100
AcDb2dVertex
 10
36.3219996679418
 20
33.01999945344883
 30
0.0
  0
VERTEX
  5
EC
330
E7
100
AcDbEntity
  8
LAGER_1
 62
     7
100
AcDbVertex
100
AcDb2dVertex
 10
40.95749945146446
 20
20.31999945662383
 30
0.0
  0
SEQEND
  5
ED
330
E7
100
AcDbEntity
  8
LAGER_1
 62
     7
  0
POLYLINE
  5
EE
330
41
100
AcDbEntity
  8
LAGER_1
 62
     7
100
AcDb2dPolyline
 66
     1
 10
0.0
 20
0.0
 30
0.0
  0
VERTEX
  5
EF
330
EE
100
AcDbEntity
  8
LAGER_1
 62
     7
100
AcDbVertex
100
AcDb2dVertex
 10
60.13450235346952
 20
21.33599983317715
 30
0.0
  0
VERTEX
  5
F0
330
EE
100
AcDbEntity
  8
LAGER_1
 62
     7
100
AcDbVertex
100
AcDb2dVertex
 10
46.67250106492422
 20
21.33599983317715
 30
0.0
  0
VERTEX
  5
F1
330
EE
100
AcDbEntity
  8
LAGER_1
 62
     7
100
AcDbVertex
100
AcDb2dVertex
 10
46.67250106492422
 20
34.79799977598203
 30
0.0
  0
VERTEX
  5
F2
330
EE
100
AcDbEntity
  8
LAGER_1
 62
     7
100
AcDbVertex
100
AcDb2dVertex
 10
60.13450235346952
 20
34.79799977598203
 30
0.0
  0
VERTEX
  5
F3
330
EE
100
AcDbEntity
  8
LAGER_1
 62
     7
100
AcDbVertex
100
AcDb2dVertex
 10
60.13450235346952
 20
21.33599983317715
 30
0.0
  0
SEQEND
  5
F4
330
EE
100
AcDbEntity
  8
LAGER_1
 62
     7
  0
POLYLINE
  5
F5
330
41
100
AcDbEntity
  8
LAGER_1
 62
     7
100
AcDb2dPolyline
 66
     1
 10
0.0
 20
0.0
 30
0.0
  0
VERTEX
  5
F6
330
F5
100
AcDbEntity
  8
LAGER_1
 62
     7
100
AcDbVertex
100
AcDb2dVertex
 10
78.54950127227343
 20
15.68449967310117
 30
0.0
  0
VERTEX
  5
F7
330
F5
100
AcDbEntity
  8
LAGER_1
 62
     7
100
AcDbVertex
100
AcDb2dVertex
 10
65.91299869161095
 20
20.31999945662383
 30
0.0
  0
VERTEX
  5
F8
330
F5
100
AcDbEntity
  8
LAGER_1
 62
     7
100
AcDbVertex
100
AcDb2dVertex
 10
70.4850010589711
 20
33.01999945344883
 30
0.0
  0
VERTEX
  5
F9
330
F5
100
AcDbEntity
  8
LAGER_1
 62
     7
100
AcDbVertex
100
AcDb2dVertex
 10
83.18500105579609
 20
28.38449966992617
 30
0.0
  0
VERTEX
  5
FA
330
F5
100
AcDbEntity
  8
LAGER_1
 62
     7
100
AcDbVertex
100
AcDb2dVertex
 10
78.54950127227343
 20
15.68449967310117
 30
0.0
  0
SEQEND
  5
FB
330
F5
100
AcDbEntity
  8
LAGER_1
 62
     7
  0
SPLINE
  5
FC
330
41
100
AcDbEntity
  8
LAGER_1
 62
     7
100
AcDbSpline
210
0.0
220
0.0
230
1.0
 70
     8
 71
     3
 72
    17
 73
    13
 74
     0
 42
0.0000000001
 43
0.0000000001
 12
1.0
 22
0.0
 32
0.0
 13
1.0
 23
0.0
 33
0.0
 40
0.0
 40
0.0
 40
0.0
 40
0.0
 40
1.0
 40
1.0
 40
1.0
 40
2.0
 40
2.0
 40
2.0
 40
3.0
 40
3.0
 40
3.0
 40
4.0
 40
4.0
 40
4.0
 40
4.0
 10
21.17739894125581
 20
12.82700021211172
 30
0.0
 10
20.35327827156709
 20
12.82708230227758
 30
0.0
 10
19.68512084256882
 20
12.15909039935145
 30
0.0
 10
19.68499972593067
 20
11.33496972966273
 30
0.0
 10
19.68487860929251
 20
10.51085309719529
 30
0.0
 10
20.35283821444847
 20
9.842660678945991
 30
0.0
 10
21.17695619265634
 20
9.842500535835544
 30
0.0
 10
22.00107686234506
 20
9.842340392725097
 30
0.0
 10
22.66929619540283
 20
10.5102690458513
 30
0.0
 10
22.66950074794726
 20
11.33438567831875
 30
0.0
 10
22.66970260901085
 20
12.15850634800747
 30
0.0
 10
22.0018049079144
 20
12.82675932457584
 30
0.0
 10
21.17768423822568
 20
12.82700021211172
 30
0.0
  0
SPLINE
  5
FD
330
41
100
AcDbEntity
  8
LAGER_1
 62
     7
100
AcDbSpline
210
0.0
220
0.0
230
1.0
 70
     8
 71
     3
 72
    17
 73
    13
 74
     0
 42
0.0000000001
 43
0.0000000001
 12
1.0
 22
0.0
 32
0.0
 13
1.0
 23
0.0
 33
0.0
 40
0.0
 40
0.0
 40
0.0
 40
0.0
 40
1.0
 40
1.0
 40
1.0
 40
2.0
 40
2.0
 40
2.0
 40
3.0
 40
3.0
 40
3.0
 40
4.0
 40
4.0
 40
4.0
 40
4.0
 10
74.70789682851813
 20
37.78250214373905
 30
0.0
 10
73.8837761588294
 20
37.78258288816449
 30
0.0
 10
73.21561603835029
 20
37.11459233097879
 30
0.0
 10
73.21549761319298
 20
36.29047166129007
 30
0.0
 10
73.21537380507398
 20
35.4663536830822
 30
0.0
 10
73.88333475597035
 20
34.79816126483291
 30
0.0
 10
74.70745004269739
 20
34.79799977598203
 30
0.0
 10
75.5315707123861
 20
34.79784097861201
 30
0.0
 10
76.19979542840557
 20
35.46576963173821
 30
0.0
 10
76.19999459798831
 20
36.28988760994608
 30
0.0
 10
76.20019915053274
 20
37.1140082796348
 30
0.0
 10
75.53230279517672
 20
37.78225991046275
 30
0.0
 10
74.708182125488
 20
37.78250214373905
 30
0.0
  0
SPLINE
  5
FE
330
41
100
AcDbEntity
  8
LAGER_1
 62
     7
100
AcDbSpline
210
0.0
220
0.0
230
1.0
 70
     8
 71
     3
 72
    17
 73
    13
 74
     0
 42
0.0000000001
 43
0.0000000001
 12
1.0
 22
0.0
 32
0.0
 13
1.0
 23
0.0
 33
0.0
 40
0.0
 40
0.0
 40
0.0
 40
0.0
 40
1.0
 40
1.0
 40
1.0
 40
2.0
 40
2.0
 40
2.0
 40
3.0
 40
3.0
 40
3.0
 40
4.0
 40
4.0
 40
4.0
 40
4.0
 10
21.17739894125581
 20
37.78250214373905
 30
0.0
 10
20.35327827156709
 20
37.78258288816449
 30
0.0
 10
19.68512084256882
 20
37.11459233097879
 30
0.0
 10
19.68499972593067
 20
36.29047166129007
 30
0.0
 10
19.68487860929251
 20
35.4663536830822
 30
0.0
 10
20.35283821444847
 20
34.79816126483291
 30
0.0
 10
21.17695619265634
 20
34.79799977598203
 30
0.0
 10
22.00107686234506
 20
34.79784097861201
 30
0.0
 10
22.66929619540283
 20
35.46576963173821
 30
0.0
 10
22.66950074794726
 20
36.28988760994608
 30
0.0
 10
22.66970260901085
 20
37.1140082796348
 30
0.0
 10
22.0018049079144
 20
37.78225991046275
 30
0.0
 10
21.17768423822568
 20
37.78250214373905
 30
0.0
  0
SPLINE
  5
FF
330
41
100
AcDbEntity
  8
LAGER_1
 62
     7
100
AcDbSpline
210
0.0
220
0.0
230
1.0
 70
     8
 71
     3
 72
    17
 73
    13
 74
     0
 42
0.0000000001
 43
0.0000000001
 12
1.0
 22
0.0
 32
0.0
 13
1.0
 23
0.0
 33
0.0
 40
0.0
 40
0.0
 40
0.0
 40
0.0
 40
1.0
 40
1.0
 40
1.0
 40
2.0
 40
2.0
 40
2.0
 40
3.0
 40
3.0
 40
3.0
 40
4.0
 40
4.0
 40
4.0
 40
4.0
 10
74.70789682851813
 20
12.82700021211172
 30
0.0
 10
73.8837761588294
 20
12.82708230227758
 30
0.0
 10
73.21561603835029
 20
12.15909039935145
 30
0.0
 10
73.21549761319298
 20
11.33496972966273
 30
0.0
 10
73.21537380507398
 20
10.51085309719529
 30
0.0
 10
73.88333475597035
 20
9.842660678945991
 30
0.0
 10
74.70745004269739
 20
9.842500535835544
 30
0.0
 10
75.5315707123861
 20
9.842340392725097
 30
0.0
 10
76.19979542840557
 20
10.5102690458513
 30
0.0
 10
76.19999459798831
 20
11.33438567831875
 30
0.0
 10
76.20019915053274
 20
12.15850634800747
 30
0.0
 10
75.53230279517672
 20
12.82675932457584
 30
0.0
 10
74.708182125488
 20
12.82700021211172
 30
0.0
  0
POLYLINE
  5
100
330
41
100
AcDbEntity
  8
LAGER_1
 62
     7
100
AcDb2dPolyline
 66
     1
 10
0.0
 20
0.0
 30
0.0
  0
VERTEX
  5
101
330
100
100
AcDbEntity
  8
LAGER_1
 62
     7
100
AcDbVertex
100
AcDb2dVertex
 10
88.20150148517891
 20
7.30250026732246
 30
0.0
  0
VERTEX
  5
102
330
100
100
AcDbEntity
  8
LAGER_1
 62
     7
100
AcDbVertex
100
AcDb2dVertex
 10
17.20849956506094
 20
7.30250026732246
 30
0.0
  0
VERTEX
  5
103
330
100
100
AcDbEntity
  8
LAGER_1
 62
     7
100
AcDbVertex
100
AcDb2dVertex
 10
17.20849956506094
 20
40.32250106651171
 30
0.0
  0
VERTEX
  5
104
330
100
100
AcDbEntity
  8
LAGER_1
 62
     7
100
AcDbVertex
100
AcDb2dVertex
 10
88.20150148517891
 20
40.32250106651171
 30
0.0
  0
VERTEX
  5
105
330
100
100
AcDbEntity
  8
LAGER_1
 62
     7
100
AcDbVertex
100
AcDb2dVertex
 10
88.20150148517891
 20
7.30250026732246
 30
0.0
  0
SEQEND
  5
106
330
100
100
AcDbEntity
  8
LAGER_1
 62
     7
  0
POLYLINE
  5
107
330
41
100
AcDbEntity
  8
LAGER_1
 62
     7
100
AcDb2dPolyline
 66
     1
 10
0.0
 20
0.0
 30
0.0
  0
VERTEX
  5
108
330
107
100
AcDbEntity
  8
LAGER_1
 62
     7
100
AcDbVertex
100
AcDb2dVertex
 10
117.0940047077328
 20
148.5900042692219
 30
0.0
  0
VERTEX
  5
109
330
107
100
AcDbEntity
  8
LAGER_1
 62
     7
100
AcDbVertex
100
AcDb2dVertex
 10
104.3940047109078
 20
144.0179965189
 30
0.0
  0
VERTEX
  5
10A
330
107
100
AcDbEntity
  8
LAGER_1
 62
     7
100
AcDbVertex
100
AcDb2dVertex
 10
99.75849954442344
 20
156.717996515725
 30
0.0
  0
VERTEX
  5
10B
330
107
100
AcDbEntity
  8
LAGER_1
 62
     7
100
AcDbVertex
100
AcDb2dVertex
 10
112.4584995412484
 20
161.2900042660469
 30
0.0
  0
VERTEX
  5
10C
330
107
100
AcDbEntity
  8
LAGER_1
 62
     7
100
AcDbVertex
100
AcDb2dVertex
 10
117.0940047077328
 20
148.5900042692219
 30
0.0
  0
SEQEND
  5
10D
330
107
100
AcDbEntity
  8
LAGER_1
 62
     7
  0
POLYLINE
  5
10E
330
41
100
AcDbEntity
  8
LAGER_1
 62
     7
100
AcDb2dPolyline
 66
     1
 10
0.0
 20
0.0
 30
0.0
  0
VERTEX
  5
10F
330
10E
100
AcDbEntity
  8
LAGER_1
 62
     7
100
AcDbVertex
100
AcDb2dVertex
 10
136.3344969514578
 20
149.6059952255922
 30
0.0
  0
VERTEX
  5
110
330
10E
100
AcDbEntity
  8
LAGER_1
 62
     7
100
AcDbVertex
100
AcDb2dVertex
 10
122.80899824675
 20
149.6059952255922
 30
0.0
  0
VERTEX
  5
111
330
10E
100
AcDbEntity
  8
LAGER_1
 62
     7
100
AcDbVertex
100
AcDb2dVertex
 10
122.80899824675
 20
163.1315046962234
 30
0.0
  0
VERTEX
  5
112
330
10E
100
AcDbEntity
  8
LAGER_1
 62
     7
100
AcDbVertex
100
AcDb2dVertex
 10
136.3344969514578
 20
163.1315046962234
 30
0.0
  0
VERTEX
  5
113
330
10E
100
AcDbEntity
  8
LAGER_1
 62
     7
100
AcDbVertex
100
AcDb2dVertex
 10
136.3344969514578
 20
149.6059952255922
 30
0.0
  0
SEQEND
  5
114
330
10E
100
AcDbEntity
  8
LAGER_1
 62
     7
  0
POLYLINE
  5
115
330
41
100
AcDbEntity
  8
LAGER_1
 62
     7
100
AcDb2dPolyline
 66
     1
 10
0.0
 20
0.0
 30
0.0
  0
VERTEX
  5
116
330
115
100
AcDbEntity
  8
LAGER_1
 62
     7
100
AcDbVertex
100
AcDb2dVertex
 10
154.6860038370609
 20
144.0179965189
 30
0.0
  0
VERTEX
  5
117
330
115
100
AcDbEntity
  8
LAGER_1
 62
     7
100
AcDbVertex
100
AcDb2dVertex
 10
142.0495012563984
 20
148.5900042692219
 30
0.0
  0
VERTEX
  5
118
330
115
100
AcDbEntity
  8
LAGER_1
 62
     7
100
AcDbVertex
100
AcDb2dVertex
 10
146.6214982407969
 20
161.2900042660469
 30
0.0
  0
VERTEX
  5
119
330
115
100
AcDbEntity
  8
LAGER_1
 62
     7
100
AcDbVertex
100
AcDb2dVertex
 10
159.3214982376219
 20
156.717996515725
 30
0.0
  0
VERTEX
  5
11A
330
115
100
AcDbEntity
  8
LAGER_1
 62
     7
100
AcDbVertex
100
AcDb2dVertex
 10
154.6860038370609
 20
144.0179965189
 30
0.0
  0
SEQEND
  5
11B
330
115
100
AcDbEntity
  8
LAGER_1
 62
     7
  0
SPLINE
  5
11C
330
41
100
AcDbEntity
  8
LAGER_1
 62
     7
100
AcDbSpline
210
0.0
220
0.0
230
1.0
 70
     8
 71
     3
 72
    17
 73
    13
 74
     0
 42
0.0000000001
 43
0.0000000001
 12
1.0
 22
0.0
 32
0.0
 13
1.0
 23
0.0
 33
0.0
 40
0.0
 40
0.0
 40
0.0
 40
0.0
 40
1.0
 40
1.0
 40
1.0
 40
2.0
 40
2.0
 40
2.0
 40
3.0
 40
3.0
 40
3.0
 40
4.0
 40
4.0
 40
4.0
 40
4.0
 10
97.31389208586033
 20
141.0969969502672
 30
0.0
 10
96.48977141617162
 20
141.097072311731
 30
0.0
 10
95.8216166786542
 20
140.4290790630644
 30
0.0
 10
95.82148748757349
 20
139.6049583933757
 30
0.0
 10
95.8213690624162
 20
138.7808484896103
 30
0.0
 10
96.48933001331257
 20
138.1126506883994
 30
0.0
 10
97.31345068300129
 20
138.1124891995485
 30
0.0
 10
98.13757135269
 20
138.1123277106976
 30
0.0
 10
98.80579068574778
 20
138.7802563638238
 30
0.0
 10
98.80599523829221
 20
139.6043770335125
 30
0.0
 10
98.80618902491325
 20
140.4284977032013
 30
0.0
 10
98.13829266955723
 20
141.0967493340292
 30
0.0
 10
97.3141719998685
 20
141.0969969502672
 30
0.0
  0
SPLINE
  5
11D
330
41
100
AcDbEntity
  8
LAGER_1
 62
     7
100
AcDbSpline
210
0.0
220
0.0
230
1.0
 70
     8
 71
     3
 72
    17
 73
    13
 74
     0
 42
0.0000000001
 43
0.0000000001
 12
1.0
 22
0.0
 32
0.0
 13
1.0
 23
0.0
 33
0.0
 40
0.0
 40
0.0
 40
0.0
 40
0.0
 40
1.0
 40
1.0
 40
1.0
 40
2.0
 40
2.0
 40
2.0
 40
3.0
 40
3.0
 40
3.0
 40
4.0
 40
4.0
 40
4.0
 40
4.0
 10
150.8443993933056
 20
166.1160124469421
 30
0.0
 10
150.0202787236169
 20
166.1160878084059
 30
0.0
 10
149.3521239860995
 20
165.4480945597393
 30
0.0
 10
149.3519947950188
 20
164.6239738900506
 30
0.0
 10
149.3518763698615
 20
163.7998639862853
 30
0.0
 10
150.0198373207579
 20
163.1316661850743
 30
0.0
 10
150.8439579904466
 20
163.1315046962234
 30
0.0
 10
151.6680786601353
 20
163.1313432073726
 30
0.0
 10
152.3362979931931
 20
163.7992718604987
 30
0.0
 10
152.3365025457375
 20
164.6233925301875
 30
0.0
 10
152.3366963323585
 20
165.4475131998762
 30
0.0
 10
151.6687999770025
 20
166.1157648307041
 30
0.0
 10
150.8446793073138
 20
166.1160124469421
 30
0.0
  0
SPLINE
  5
11E
330
41
100
AcDbEntity
  8
LAGER_1
 62
     7
100
AcDbSpline
210
0.0
220
0.0
230
1.0
 70
     8
 71
     3
 72
    17
 73
    13
 74
     0
 42
0.0000000001
 43
0.0000000001
 12
1.0
 22
0.0
 32
0.0
 13
1.0
 23
0.0
 33
0.0
 40
0.0
 40
0.0
 40
0.0
 40
0.0
 40
1.0
 40
1.0
 40
1.0
 40
2.0
 40
2.0
 40
2.0
 40
3.0
 40
3.0
 40
3.0
 40
4.0
 40
4.0
 40
4.0
 40
4.0
 10
97.31389208586033
 20
166.1160124469421
 30
0.0
 10
96.48977141617162
 20
166.1160878084059
 30
0.0
 10
95.8216166786542
 20
165.4480945597393
 30
0.0
 10
95.82148748757349
 20
164.6239738900506
 30
0.0
 10
95.8213690624162
 20
163.7998639862853
 30
0.0
 10
96.48933001331257
 20
163.1316661850743
 30
0.0
 10
97.31345068300129
 20
163.1315046962234
 30
0.0
 10
98.13757135269
 20
163.1313432073726
 30
0.0
 10
98.80579068574778
 20
163.7992718604987
 30
0.0
 10
98.80599523829221
 20
164.6233925301875
 30
0.0
 10
98.80618902491325
 20
165.4475131998762
 30
0.0
 10
98.13829266955723
 20
166.1157648307041
 30
0.0
 10
97.3141719998685
 20
166.1160124469421
 30
0.0
  0
SPLINE
  5
11F
330
41
100
AcDbEntity
  8
LAGER_1
 62
     7
100
AcDbSpline
210
0.0
220
0.0
230
1.0
 70
     8
 71
     3
 72
    17
 73
    13
 74
     0
 42
0.0000000001
 43
0.0000000001
 12
1.0
 22
0.0
 32
0.0
 13
1.0
 23
0.0
 33
0.0
 40
0.0
 40
0.0
 40
0.0
 40
0.0
 40
1.0
 40
1.0
 40
1.0
 40
2.0
 40
2.0
 40
2.0
 40
3.0
 40
3.0
 40
3.0
 40
4.0
 40
4.0
 40
4.0
 40
4.0
 10
150.8443993933056
 20
141.0969969502672
 30
0.0
 10
150.0202787236169
 20
141.097072311731
 30
0.0
 10
149.3521239860995
 20
140.4290790630644
 30
0.0
 10
149.3519947950188
 20
139.6049583933757
 30
0.0
 10
149.3518763698615
 20
138.7808484896103
 30
0.0
 10
150.0198373207579
 20
138.1126506883994
 30
0.0
 10
150.8439579904466
 20
138.1124891995485
 30
0.0
 10
151.6680786601353
 20
138.1123277106976
 30
0.0
 10
152.3362979931931
 20
138.7802563638238
 30
0.0
 10
152.3365025457375
 20
139.6043770335125
 30
0.0
 10
152.3366963323585
 20
140.4284977032013
 30
0.0
 10
151.6687999770025
 20
141.0967493340292
 30
0.0
 10
150.8446793073138
 20
141.0969969502672
 30
0.0
  0
POLYLINE
  5
120
330
41
100
AcDbEntity
  8
LAGER_1
 62
     7
100
AcDb2dPolyline
 66
     1
 10
0.0
 20
0.0
 30
0.0
  0
VERTEX
  5
121
330
120
100
AcDbEntity
  8
LAGER_1
 62
     7
100
AcDbVertex
100
AcDb2dVertex
 10
164.3379986670047
 20
135.6360038418234
 30
0.0
  0
VERTEX
  5
122
330
120
100
AcDbEntity
  8
LAGER_1
 62
     7
100
AcDbVertex
100
AcDb2dVertex
 10
93.34500212984844
 20
135.6360038418234
 30
0.0
  0
VERTEX
  5
123
330
120
100
AcDbEntity
  8
LAGER_1
 62
     7
100
AcDbVertex
100
AcDb2dVertex
 10
93.34500212984844
 20
168.6559952208297
 30
0.0
  0
VERTEX
  5
124
330
120
100
AcDbEntity
  8
LAGER_1
 62
     7
100
AcDbVertex
100
AcDb2dVertex
 10
164.3379986670047
 20
168.6559952208297
 30
0.0
  0
VERTEX
  5
125
330
120
100
AcDbEntity
  8
LAGER_1
 62
     7
100
AcDbVertex
100
AcDb2dVertex
 10
164.3379986670047
 20
135.6360038418234
 30
0.0
  0
SEQEND
  5
126
330
120
100
AcDbEntity
  8
LAGER_1
 62
     7
  0
POLYLINE
  5
127
330
41
100
AcDbEntity
  8
LAGER_1
 62
     7
100
AcDb2dPolyline
 66
     1
 10
0.0
 20
0.0
 30
0.0
  0
VERTEX
  5
128
330
127
100
AcDbEntity
  8
LAGER_1
 62
     7
100
AcDbVertex
100
AcDb2dVertex
 10
157.2894947930344
 20
96.32949911464375
 30
0.0
  0
VERTEX
  5
129
330
127
100
AcDbEntity
  8
LAGER_1
 62
     7
100
AcDbVertex
100
AcDb2dVertex
 10
160.2740025437531
 20
96.32949911464375
 30
0.0
  0
VERTEX
  5
12A
330
127
100
AcDbEntity
  8
LAGER_1
 62
     7
100
AcDbVertex
100
AcDb2dVertex
 10
160.2740025437531
 20
84.32799761041485
 30
0.0
  0
VERTEX
  5
12B
330
127
100
AcDbEntity
  8
LAGER_1
 62
     7
100
AcDbVertex
100
AcDb2dVertex
 10
157.2894947930344
 20
84.32799761041485
 30
0.0
  0
SEQEND
  5
12C
330
127
100
AcDbEntity
  8
LAGER_1
 62
     7
  0
POLYLINE
  5
12D
330
41
100
AcDbEntity
  8
LAGER_1
 62
     7
100
AcDb2dPolyline
 66
     1
 10
0.0
 20
0.0
 30
0.0
  0
VERTEX
  5
12E
330
12D
100
AcDbEntity
  8
LAGER_1
 62
     7
100
AcDbVertex
100
AcDb2dVertex
 10
171.3230051248125
 20
84.32799761041485
 30
0.0
  0
VERTEX
  5
12F
330
12D
100
AcDbEntity
  8
LAGER_1
 62
     7
100
AcDbVertex
100
AcDb2dVertex
 10
168.2749999579313
 20
84.32799761041485
 30
0.0
  0
SEQEND
  5
130
330
12D
100
AcDbEntity
  8
LAGER_1
 62
     7
  0
POLYLINE
  5
131
330
41
100
AcDbEntity
  8
LAGER_1
 62
     7
100
AcDb2dPolyline
 66
     1
 10
0.0
 20
0.0
 30
0.0
  0
VERTEX
  5
132
330
131
100
AcDbEntity
  8
LAGER_1
 62
     7
100
AcDbVertex
100
AcDb2dVertex
 10
168.2749999579313
 20
84.32799761041485
 30
0.0
  0
VERTEX
  5
133
330
131
100
AcDbEntity
  8
LAGER_1
 62
     7
100
AcDbVertex
100
AcDb2dVertex
 10
168.2749999579313
 20
96.32949911464375
 30
0.0
  0
VERTEX
  5
134
330
131
100
AcDbEntity
  8
LAGER_1
 62
     7
100
AcDbVertex
100
AcDb2dVertex
 10
171.3230051248125
 20
96.32949911464375
 30
0.0
  0
SEQEND
  5
135
330
131
100
AcDbEntity
  8
LAGER_1
 62
     7
  0
POLYLINE
  5
136
330
41
100
AcDbEntity
  8
LAGER_1
 62
     7
100
AcDb2dPolyline
 66
     1
 10
0.0
 20
0.0
 30
0.0
  0
VERTEX
  5
137
330
136
100
AcDbEntity
  8
LAGER_1
 62
     7
100
AcDbVertex
100
AcDb2dVertex
 10
157.2894947930344
 20
99.31399609943908
 30
0.0
  0
VERTEX
  5
138
330
136
100
AcDbEntity
  8
LAGER_1
 62
     7
100
AcDbVertex
100
AcDb2dVertex
 10
157.2894947930344
 20
96.32949911464375
 30
0.0
  0
SEQEND
  5
139
330
136
100
AcDbEntity
  8
LAGER_1
 62
     7
  0
POLYLINE
  5
13A
330
41
100
AcDbEntity
  8
LAGER_1
 62
     7
100
AcDb2dPolyline
 66
     1
 10
0.0
 20
0.0
 30
0.0
  0
VERTEX
  5
13B
330
13A
100
AcDbEntity
  8
LAGER_1
 62
     7
100
AcDbVertex
100
AcDb2dVertex
 10
171.3230051248125
 20
96.32949911464375
 30
0.0
  0
VERTEX
  5
13C
330
13A
100
AcDbEntity
  8
LAGER_1
 62
     7
100
AcDbVertex
100
AcDb2dVertex
 10
171.3230051248125
 20
99.31399609943908
 30
0.0
  0
SEQEND
  5
13D
330
13A
100
AcDbEntity
  8
LAGER_1
 62
     7
  0
POLYLINE
  5
13E
330
41
100
AcDbEntity
  8
LAGER_1
 62
     7
100
AcDb2dPolyline
 66
     1
 10
0.0
 20
0.0
 30
0.0
  0
VERTEX
  5
13F
330
13E
100
AcDbEntity
  8
LAGER_1
 62
     7
100
AcDbVertex
100
AcDb2dVertex
 10
171.3230051248125
 20
81.34350062561953
 30
0.0
  0
VERTEX
  5
140
330
13E
100
AcDbEntity
  8
LAGER_1
 62
     7
100
AcDbVertex
100
AcDb2dVertex
 10
171.3230051248125
 20
84.32799761041485
 30
0.0
  0
SEQEND
  5
141
330
13E
100
AcDbEntity
  8
LAGER_1
 62
     7
  0
POLYLINE
  5
142
330
41
100
AcDbEntity
  8
LAGER_1
 62
     7
100
AcDb2dPolyline
 66
     1
 10
0.0
 20
0.0
 30
0.0
  0
VERTEX
  5
143
330
142
100
AcDbEntity
  8
LAGER_1
 62
     7
100
AcDbVertex
100
AcDb2dVertex
 10
157.2894947930344
 20
84.32799761041485
 30
0.0
  0
VERTEX
  5
144
330
142
100
AcDbEntity
  8
LAGER_1
 62
     7
100
AcDbVertex
100
AcDb2dVertex
 10
157.2894947930344
 20
81.34350062561953
 30
0.0
  0
VERTEX
  5
145
330
142
100
AcDbEntity
  8
LAGER_1
 62
     7
100
AcDbVertex
100
AcDb2dVertex
 10
160.2740025437531
 20
81.34350062561953
 30
0.0
  0
SEQEND
  5
146
330
142
100
AcDbEntity
  8
LAGER_1
 62
     7
  0
POLYLINE
  5
147
330
41
100
AcDbEntity
  8
LAGER_1
 62
     7
100
AcDb2dPolyline
 66
     1
 10
0.0
 20
0.0
 30
0.0
  0
VERTEX
  5
148
330
147
100
AcDbEntity
  8
LAGER_1
 62
     7
100
AcDbVertex
100
AcDb2dVertex
 10
171.3230051248125
 20
99.31399609943908
 30
0.0
  0
VERTEX
  5
149
330
147
100
AcDbEntity
  8
LAGER_1
 62
     7
100
AcDbVertex
100
AcDb2dVertex
 10
157.2894947930344
 20
99.31399609943908
 30
0.0
  0
SEQEND
  5
14A
330
147
100
AcDbEntity
  8
LAGER_1
 62
     7
  0
POLYLINE
  5
14B
330
41
100
AcDbEntity
  8
LAGER_1
 62
     7
100
AcDb2dPolyline
 66
     1
 10
0.0
 20
0.0
 30
0.0
  0
VERTEX
  5
14C
330
14B
100
AcDbEntity
  8
LAGER_1
 62
     7
100
AcDbVertex
100
AcDb2dVertex
 10
160.2740025437531
 20
81.34350062561953
 30
0.0
  0
VERTEX
  5
14D
330
14B
100
AcDbEntity
  8
LAGER_1
 62
     7
100
AcDbVertex
100
AcDb2dVertex
 10
160.2740025437531
 20
21.27249972553379
 30
0.0
  0
VERTEX
  5
14E
330
14B
100
AcDbEntity
  8
LAGER_1
 62
     7
100
AcDbVertex
100
AcDb2dVertex
 10
168.2749999579313
 20
26.92399988560977
 30
0.0
  0
VERTEX
  5
14F
330
14B
100
AcDbEntity
  8
LAGER_1
 62
     7
100
AcDbVertex
100
AcDb2dVertex
 10
168.2749999579313
 20
81.34350062561953
 30
0.0
  0
VERTEX
  5
150
330
14B
100
AcDbEntity
  8
LAGER_1
 62
     7
100
AcDbVertex
100
AcDb2dVertex
 10
171.3230051248125
 20
81.34350062561953
 30
0.0
  0
SEQEND
  5
151
330
14B
100
AcDbEntity
  8
LAGER_1
 62
     7
  0
POLYLINE
  5
152
330
41
100
AcDbEntity
  8
LAGER_1
 62
     7
100
AcDb2dPolyline
 66
     1
 10
0.0
 20
0.0
 30
0.0
  0
VERTEX
  5
153
330
152
100
AcDbEntity
  8
LAGER_1
 62
     7
100
AcDbVertex
100
AcDb2dVertex
 10
139.3825021183391
 20
97.21849523868909
 30
0.0
  0
VERTEX
  5
154
330
152
100
AcDbEntity
  8
LAGER_1
 62
     7
100
AcDbVertex
100
AcDb2dVertex
 10
142.4304965192969
 20
97.21849523868909
 30
0.0
  0
VERTEX
  5
155
330
152
100
AcDbEntity
  8
LAGER_1
 62
     7
100
AcDbVertex
100
AcDb2dVertex
 10
142.4304965192969
 20
85.21699911742188
 30
0.0
  0
VERTEX
  5
156
330
152
100
AcDbEntity
  8
LAGER_1
 62
     7
100
AcDbVertex
100
AcDb2dVertex
 10
139.3825021183391
 20
85.21699911742188
 30
0.0
  0
SEQEND
  5
157
330
152
100
AcDbEntity
  8
LAGER_1
 62
     7
  0
POLYLINE
  5
158
330
41
100
AcDbEntity
  8
LAGER_1
 62
     7
100
AcDb2dPolyline
 66
     1
 10
0.0
 20
0.0
 30
0.0
  0
VERTEX
  5
159
330
158
100
AcDbEntity
  8
LAGER_1
 62
     7
100
AcDbVertex
100
AcDb2dVertex
 10
153.4160016841938
 20
85.21699911742188
 30
0.0
  0
VERTEX
  5
15A
330
158
100
AcDbEntity
  8
LAGER_1
 62
     7
100
AcDbVertex
100
AcDb2dVertex
 10
150.4315046993984
 20
85.21699911742188
 30
0.0
  0
SEQEND
  5
15B
330
158
100
AcDbEntity
  8
LAGER_1
 62
     7
  0
POLYLINE
  5
15C
330
41
100
AcDbEntity
  8
LAGER_1
 62
     7
100
AcDb2dPolyline
 66
     1
 10
0.0
 20
0.0
 30
0.0
  0
VERTEX
  5
15D
330
15C
100
AcDbEntity
  8
LAGER_1
 62
     7
100
AcDbVertex
100
AcDb2dVertex
 10
150.4315046993984
 20
85.21699911742188
 30
0.0
  0
VERTEX
  5
15E
330
15C
100
AcDbEntity
  8
LAGER_1
 62
     7
100
AcDbVertex
100
AcDb2dVertex
 10
150.4315046993984
 20
97.21849523868909
 30
0.0
  0
VERTEX
  5
15F
330
15C
100
AcDbEntity
  8
LAGER_1
 62
     7
100
AcDbVertex
100
AcDb2dVertex
 10
153.4160016841938
 20
97.21849523868909
 30
0.0
  0
SEQEND
  5
160
330
15C
100
AcDbEntity
  8
LAGER_1
 62
     7
  0
POLYLINE
  5
161
330
41
100
AcDbEntity
  8
LAGER_1
 62
     7
100
AcDb2dPolyline
 66
     1
 10
0.0
 20
0.0
 30
0.0
  0
VERTEX
  5
162
330
161
100
AcDbEntity
  8
LAGER_1
 62
     7
100
AcDbVertex
100
AcDb2dVertex
 10
139.3825021183391
 20
100.2665004055703
 30
0.0
  0
VERTEX
  5
163
330
161
100
AcDbEntity
  8
LAGER_1
 62
     7
100
AcDbVertex
100
AcDb2dVertex
 10
139.3825021183391
 20
97.21849523868909
 30
0.0
  0
SEQEND
  5
164
330
161
100
AcDbEntity
  8
LAGER_1
 62
     7
  0
POLYLINE
  5
165
330
41
100
AcDbEntity
  8
LAGER_1
 62
     7
100
AcDb2dPolyline
 66
     1
 10
0.0
 20
0.0
 30
0.0
  0
VERTEX
  5
166
330
165
100
AcDbEntity
  8
LAGER_1
 62
     7
100
AcDbVertex
100
AcDb2dVertex
 10
153.4160016841938
 20
97.21849523868909
 30
0.0
  0
VERTEX
  5
167
330
165
100
AcDbEntity
  8
LAGER_1
 62
     7
100
AcDbVertex
100
AcDb2dVertex
 10
153.4160016841938
 20
100.2665004055703
 30
0.0
  0
SEQEND
  5
168
330
165
100
AcDbEntity
  8
LAGER_1
 62
     7
  0
POLYLINE
  5
169
330
41
100
AcDbEntity
  8
LAGER_1
 62
     7
100
AcDb2dPolyline
 66
     1
 10
0.0
 20
0.0
 30
0.0
  0
VERTEX
  5
16A
330
169
100
AcDbEntity
  8
LAGER_1
 62
     7
100
AcDbVertex
100
AcDb2dVertex
 10
153.4160016841938
 20
82.23250213262655
 30
0.0
  0
VERTEX
  5
16B
330
169
100
AcDbEntity
  8
LAGER_1
 62
     7
100
AcDbVertex
100
AcDb2dVertex
 10
153.4160016841938
 20
85.21699911742188
 30
0.0
  0
SEQEND
  5
16C
330
169
100
AcDbEntity
  8
LAGER_1
 62
     7
  0
POLYLINE
  5
16D
330
41
100
AcDbEntity
  8
LAGER_1
 62
     7
100
AcDb2dPolyline
 66
     1
 10
0.0
 20
0.0
 30
0.0
  0
VERTEX
  5
16E
330
16D
100
AcDbEntity
  8
LAGER_1
 62
     7
100
AcDbVertex
100
AcDb2dVertex
 10
139.3825021183391
 20
85.21699911742188
 30
0.0
  0
VERTEX
  5
16F
330
16D
100
AcDbEntity
  8
LAGER_1
 62
     7
100
AcDbVertex
100
AcDb2dVertex
 10
139.3825021183391
 20
82.23250213262655
 30
0.0
  0
VERTEX
  5
170
330
16D
100
AcDbEntity
  8
LAGER_1
 62
     7
100
AcDbVertex
100
AcDb2dVertex
 10
142.4304965192969
 20
82.23250213262655
 30
0.0
  0
SEQEND
  5
171
330
16D
100
AcDbEntity
  8
LAGER_1
 62
     7
  0
POLYLINE
  5
172
330
41
100
AcDbEntity
  8
LAGER_1
 62
     7
100
AcDb2dPolyline
 66
     1
 10
0.0
 20
0.0
 30
0.0
  0
VERTEX
  5
173
330
172
100
AcDbEntity
  8
LAGER_1
 62
     7
100
AcDbVertex
100
AcDb2dVertex
 10
153.4160016841938
 20
100.2665004055703
 30
0.0
  0
VERTEX
  5
174
330
172
100
AcDbEntity
  8
LAGER_1
 62
     7
100
AcDbVertex
100
AcDb2dVertex
 10
139.3825021183391
 20
100.2665004055703
 30
0.0
  0
SEQEND
  5
175
330
172
100
AcDbEntity
  8
LAGER_1
 62
     7
  0
POLYLINE
  5
176
330
41
100
AcDbEntity
  8
LAGER_1
 62
     7
100
AcDb2dPolyline
 66
     1
 10
0.0
 20
0.0
 30
0.0
  0
VERTEX
  5
177
330
176
100
AcDbEntity
  8
LAGER_1
 62
     7
100
AcDbVertex
100
AcDb2dVertex
 10
142.4304965192969
 20
82.23250213262655
 30
0.0
  0
VERTEX
  5
178
330
176
100
AcDbEntity
  8
LAGER_1
 62
     7
100
AcDbVertex
100
AcDb2dVertex
 10
142.4304965192969
 20
22.22499999444375
 30
0.0
  0
VERTEX
  5
179
330
176
100
AcDbEntity
  8
LAGER_1
 62
     7
100
AcDbVertex
100
AcDb2dVertex
 10
150.4315046993984
 20
27.81299870113595
 30
0.0
  0
VERTEX
  5
17A
330
176
100
AcDbEntity
  8
LAGER_1
 62
     7
100
AcDbVertex
100
AcDb2dVertex
 10
150.4315046993984
 20
82.23250213262655
 30
0.0
  0
VERTEX
  5
17B
330
176
100
AcDbEntity
  8
LAGER_1
 62
     7
100
AcDbVertex
100
AcDb2dVertex
 10
153.4160016841938
 20
82.23250213262655
 30
0.0
  0
SEQEND
  5
17C
330
176
100
AcDbEntity
  8
LAGER_1
 62
     7
  0
SPLINE
  5
17D
330
41
100
AcDbEntity
  8
LAGER_1
 62
     7
100
AcDbSpline
210
0.0
220
0.0
230
1.0
 70
     8
 71
     3
 72
     8
 73
     4
 74
     0
 42
0.0000000001
 43
0.0000000001
 12
1.0
 22
0.0
 32
0.0
 13
1.0
 23
0.0
 33
0.0
 40
0.0
 40
0.0
 40
0.0
 40
0.0
 40
1.0
 40
1.0
 40
1.0
 40
1.0
 10
112.9600731461306
 20
21.06478469110086
 30
0.0
 10
113.2475878962215
 20
20.27464531285669
 30
0.0
 10
113.9985433505422
 20
19.74866401390575
 30
0.0
 10
114.8393727333344
 20
19.7485038707953
 30
0.0
  0
POLYLINE
  5
17E
330
41
100
AcDbEntity
  8
LAGER_1
 62
     7
100
AcDb2dPolyline
 66
     1
 10
0.0
 20
0.0
 30
0.0
  0
VERTEX
  5
17F
330
17E
100
AcDbEntity
  8
LAGER_1
 62
     7
100
AcDbVertex
100
AcDb2dVertex
 10
114.8080008325719
 20
19.74849983357403
 30
0.0
  0
VERTEX
  5
180
330
17E
100
AcDbEntity
  8
LAGER_1
 62
     7
100
AcDbVertex
100
AcDb2dVertex
 10
132.3974956605313
 20
19.74849983357403
 30
0.0
  0
SEQEND
  5
181
330
17E
100
AcDbEntity
  8
LAGER_1
 62
     7
  0
POLYLINE
  5
182
330
41
100
AcDbEntity
  8
LAGER_1
 62
     7
100
AcDb2dPolyline
 66
     1
 10
0.0
 20
0.0
 30
0.0
  0
VERTEX
  5
183
330
182
100
AcDbEntity
  8
LAGER_1
 62
     7
100
AcDbVertex
100
AcDb2dVertex
 10
132.3974956605313
 20
52.76850063276328
 30
0.0
  0
VERTEX
  5
184
330
182
100
AcDbEntity
  8
LAGER_1
 62
     7
100
AcDbVertex
100
AcDb2dVertex
 10
104.2669991126594
 20
52.76850063276328
 30
0.0
  0
SEQEND
  5
185
330
182
100
AcDbEntity
  8
LAGER_1
 62
     7
  0
POLYLINE
  5
186
330
41
100
AcDbEntity
  8
LAGER_1
 62
     7
100
AcDb2dPolyline
 66
     1
 10
0.0
 20
0.0
 30
0.0
  0
VERTEX
  5
187
330
186
100
AcDbEntity
  8
LAGER_1
 62
     7
100
AcDbVertex
100
AcDb2dVertex
 10
102.4254986824828
 20
50.1015014947039
 30
0.0
  0
VERTEX
  5
188
330
186
100
AcDbEntity
  8
LAGER_1
 62
     7
100
AcDbVertex
100
AcDb2dVertex
 10
112.9665004023953
 20
21.08199940260371
 30
0.0
  0
SEQEND
  5
189
330
186
100
AcDbEntity
  8
LAGER_1
 62
     7
  0
POLYLINE
  5
18A
330
41
100
AcDbEntity
  8
LAGER_1
 62
     7
100
AcDb2dPolyline
 66
     1
 10
0.0
 20
0.0
 30
0.0
  0
VERTEX
  5
18B
330
18A
100
AcDbEntity
  8
LAGER_1
 62
     7
100
AcDbVertex
100
AcDb2dVertex
 10
132.3974956605313
 20
19.74849983357403
 30
0.0
  0
VERTEX
  5
18C
330
18A
100
AcDbEntity
  8
LAGER_1
 62
     7
100
AcDbVertex
100
AcDb2dVertex
 10
132.3974956605313
 20
52.76850063276328
 30
0.0
  0
SEQEND
  5
18D
330
18A
100
AcDbEntity
  8
LAGER_1
 62
     7
  0
SPLINE
  5
18E
330
41
100
AcDbEntity
  8
LAGER_1
 62
     7
100
AcDbSpline
210
0.0
220
0.0
230
1.0
 70
     8
 71
     3
 72
    11
 73
     7
 74
     0
 42
0.0000000001
 43
0.0000000001
 12
1.0
 22
0.0
 32
0.0
 13
1.0
 23
0.0
 33
0.0
 40
0.0
 40
0.0
 40
0.0
 40
0.0
 40
1.0
 40
1.0
 40
1.0
 40
2.0
 40
2.0
 40
2.0
 40
2.0
 10
104.2989631392085
 20
52.76850063276328
 30
0.0
 10
103.646375926915
 20
52.76856522830363
 30
0.0
 10
103.0347961168194
 20
52.4502922350835
 30
0.0
 10
102.6604111308833
 20
51.91578028758529
 30
0.0
 10
102.2860369108705
 20
51.38127372304878
 30
0.0
 10
102.1959261320845
 20
50.69773986396673
 30
0.0
 10
102.4190175966012
 20
50.0844751868604
 30
0.0
  0
SPLINE
  5
18F
330
41
100
AcDbEntity
  8
LAGER_1
 62
     7
100
AcDbSpline
210
0.0
220
0.0
230
1.0
 70
     8
 71
     3
 72
    17
 73
    13
 74
     0
 42
0.0000000001
 43
0.0000000001
 12
1.0
 22
0.0
 32
0.0
 13
1.0
 23
0.0
 33
0.0
 40
0.0
 40
0.0
 40
0.0
 40
0.0
 40
1.0
 40
1.0
 40
1.0
 40
2.0
 40
2.0
 40
2.0
 40
3.0
 40
3.0
 40
3.0
 40
4.0
 40
4.0
 40
4.0
 40
4.0
 10
123.9519948013688
 20
48.73639855755874
 30
0.0
 10
123.951919439905
 20
47.91227788787003
 30
0.0
 10
124.6199126885716
 20
47.2441177673909
 30
0.0
 10
125.4440333582603
 20
47.2439993422336
 30
0.0
 10
126.2681432620256
 20
47.2438755341146
 30
0.0
 10
126.9363410632366
 20
47.91183648501097
 30
0.0
 10
126.9365025520875
 20
48.73595177173799
 30
0.0
 10
126.936653275015
 20
49.56007244142672
 30
0.0
 10
126.2687353878122
 20
50.22829715744619
 30
0.0
 10
125.4446147181234
 20
50.22849632702892
 30
0.0
 10
124.6204940484347
 20
50.22870087957336
 30
0.0
 10
123.9522424176068
 20
49.56080452421733
 30
0.0
 10
123.9519948013688
 20
48.73668385452861
 30
0.0
  0
SPLINE
  5
190
330
41
100
AcDbEntity
  8
LAGER_1
 62
     7
100
AcDbSpline
210
0.0
220
0.0
230
1.0
 70
     8
 71
     3
 72
    17
 73
    13
 74
     0
 42
0.0000000001
 43
0.0000000001
 12
1.0
 22
0.0
 32
0.0
 13
1.0
 23
0.0
 33
0.0
 40
0.0
 40
0.0
 40
0.0
 40
0.0
 40
1.0
 40
1.0
 40
1.0
 40
2.0
 40
2.0
 40
2.0
 40
3.0
 40
3.0
 40
3.0
 40
4.0
 40
4.0
 40
4.0
 40
4.0
 10
123.9519948013688
 20
23.78089931741225
 30
0.0
 10
123.951919439905
 20
22.95677864772354
 30
0.0
 10
124.6199126885716
 20
22.28862256446569
 30
0.0
 10
125.4440333582603
 20
22.28850144782754
 30
0.0
 10
126.2681432620256
 20
22.28838033118938
 30
0.0
 10
126.9363410632366
 20
22.95633993634533
 30
0.0
 10
126.9365025520875
 20
23.7804579145532
 30
0.0
 10
126.936653275015
 20
24.60457858424192
 30
0.0
 10
126.2687353878122
 20
25.27279791729969
 30
0.0
 10
125.4446147181234
 20
25.27300246984413
 30
0.0
 10
124.6204940484347
 20
25.27320433090772
 30
0.0
 10
123.9522424176068
 20
24.60530797555169
 30
0.0
 10
123.9519948013688
 20
23.78118730586297
 30
0.0
  0
POLYLINE
  5
191
330
41
100
AcDbEntity
  8
LAGER_1
100
AcDb2dPolyline
 66
     1
 10
0.0
 20
0.0
 30
0.0
  0
VERTEX
  5
192
330
191
100
AcDbEntity
  8
LAGER_1
100
AcDbVertex
100
AcDb2dVertex
 10
0.0
 20
0.0
 30
0.0
  0
VERTEX
  5
193
330
191
100
AcDbEntity
  8
LAGER_1
100
AcDbVertex
100
AcDb2dVertex
 10
0.0
 20
255.0160016587938
 30
0.0
  0
VERTEX
  5
194
330
191
100
AcDbEntity
  8
LAGER_1
100
AcDbVertex
100
AcDb2dVertex
 10
375.0309844033126
 20
255.0160016587938
 30
0.0
  0
VERTEX
  5
195
330
191
100
AcDbEntity
  8
LAGER_1
100
AcDbVertex
100
AcDb2dVertex
 10
375.0309844033126
 20
0.0
 30
0.0
  0
VERTEX
  5
196
330
191
100
AcDbEntity
  8
LAGER_1
100
AcDbVertex
100
AcDb2dVertex
 10
0.0
 20
0.0
 30
0.0
  0
SEQEND
  5
197
330
191
100
AcDbEntity
  8
LAGER_1
  0
ENDBLK
  5
44
330
41
100
AcDbEntity
  8
0
100
AcDbBlockEnd
  0
ENDSEC
  0
SECTION
  2
ENTITIES
  0
INSERT
  5
42
330
1F
100
AcDbEntity
  8
LAGER_1
100
AcDbBlockReference
  2
BLOCK_2
 10
0.0
 20
0.0
 30
0.0
  0
ENDSEC
  0
SECTION
  2
OBJECTS
  0
DICTIONARY
  5
C
330
0
100
AcDbDictionary
  3
ACAD_GROUP
350
D
  3
ACAD_LAYOUT
350
1A
  3
ACAD_MATERIAL
350
3B
  3
ACAD_MLEADERSTYLE
350
19A
  3
ACAD_MLINESTYLE
350
17
  3
ACAD_PLOTSETTINGS
350
19
  3
ACAD_VISUALSTYLE
350
2A
  3
ACDBVARIABLEDICTIONARY
350
198
1001
ACAD
1000
TREAT_AS_HARD
1070
     0
  0
DICTIONARY
  5
D
102
{ACAD_REACTORS
330
C
102
}
330
C
100
AcDbDictionary
1001
ACAD
1000
TREAT_AS_HARD
1070
     0
  0
DICTIONARY
  5
1A
102
{ACAD_REACTORS
330
C
102
}
330
C
100
AcDbDictionary
1001
ACAD
1000
TREAT_AS_HARD
1070
     0
  0
DICTIONARY
  5
3B
102
{ACAD_REACTORS
330
C
102
}
330
C
100
AcDbDictionary
  3
BYBLOCK
350
3D
  3
BYLAYER
350
3C
  3
GLOBAL
350
3E
1001
ACAD
1000
TREAT_AS_HARD
1070
     0
  0
DICTIONARY
  5
19A
102
{ACAD_REACTORS
330
C
102
}
330
C
100
AcDbDictionary
1001
ACAD
1000
TREAT_AS_HARD
1070
     0
  0
DICTIONARY
  5
17
102
{ACAD_REACTORS
330
C
102
}
330
C
100
AcDbDictionary
  3
STANDARD
350
18
1001
ACAD
1000
TREAT_AS_HARD
1070
     0
  0
DICTIONARY
  5
19
102
{ACAD_REACTORS
330
C
102
}
330
C
100
AcDbDictionary
1001
ACAD
1000
TREAT_AS_HARD
1070
     0
  0
DICTIONARY
  5
2A
102
{ACAD_REACTORS
330
C
102
}
330
C
100
AcDbDictionary
  3
2DWIREFRAME
350
2F
  3
3D_HIDDEN
350
31
  3
3DWIREFRAME
350
30
  3
BASIC
350
32
  3
BRIGHTEN
350
36
  3
COLORCHANGE
350
3A
  3
CONCEPTUAL
350
34
  3
DIM
350
35
  3
FACEPATTERN
350
39
  3
FLAT
350
2B
  3
FLATWITHEDGES
350
2C
  3
GOURAUD
350
2D
  3
GOURAUDWITHEDGES
350
2E
  3
LINEPATTERN
350
38
  3
REALISTIC
350
33
  3
THICKEN
350
37
1001
ACAD
1000
TREAT_AS_HARD
1070
     0
  0
DICTIONARY
  5
198
102
{ACAD_REACTORS
330
C
102
}
330
C
100
AcDbDictionary
  3
DIMASSOC
350
19B
  3
HIDETEXT
350
19C
1001
ACAD
1000
TREAT_AS_HARD
1070
     0
  0
MATERIAL
  5
3D
102
{ACAD_REACTORS
330
3B
102
}
102
{ACAD_XDICTIONARY
360
19F
102
}
330
3B
100
AcDbMaterial
  1
ByBlock
  0
MATERIAL
  5
3C
102
{ACAD_REACTORS
330
3B
102
}
102
{ACAD_XDICTIONARY
360
19D
102
}
330
3B
100
AcDbMaterial
  1
ByLayer
  0
MATERIAL
  5
3E
102
{ACAD_REACTORS
330
3B
102
}
102
{ACAD_XDICTIONARY
360
1A1
102
}
330
3B
100
AcDbMaterial
  1
Global
  0
MLINESTYLE
  5
18
102
{ACAD_REACTORS
330
17
102
}
330
17
100
AcDbMlineStyle
  2
Standard
 70
     0
  3

 62
   256
 51
90.0
 52
90.0
 71
     2
 49
0.5
 62
   256
  6
BYLAYER
 49
-0.5
 62
   256
  6
BYLAYER
  0
ACAD_PROXY_OBJECT
  5
2F
102
{ACAD_REACTORS
330
2A
102
}
330
2A
100
AcDbZombieObject
 90
      499
 91
      501
 93
      436
310
42CC9915DA5C99599C985B595049028333333333333E3BF0000000000000FB0107901411070040501600405405064090741402480A0340
1001
ACAD
1000
AcDbSavedByObjectVersion
1070
     0
  0
ACAD_PROXY_OBJECT
  5
31
102
{ACAD_REACTORS
330
2A
102
}
330
2A
100
AcDbZombieObject
 90
      499
 91
      501
 93
      500
310
424CD108121A5919195B90640502408333333333333E3BF0000000000000FB01079024090700405020000000000001110200405405064090740C02480A0340
1001
ACAD
1000
AcDbSavedByObjectVersion
1070
     0
  0
ACAD_PROXY_OBJECT
  5
30
102
{ACAD_REACTORS
330
2A
102
}
330
2A
100
AcDbZombieObject
 90
      499
 91
      501
 93
      436
310
42CCD915DA5C99599C985B595059028333333333333E3BF0000000000000FB0107901411070040501600405405064090741402480A0340
1001
ACAD
1000
AcDbSavedByObjectVersion
1070
     0
  0
ACAD_PROXY_OBJECT
  5
32
102
{ACAD_REACTORS
330
2A
102
}
330
2A
100
AcDbZombieObject
 90
      499
 91
      501
 93
      388
310
4150985CDA58D07406404333333333333E3BF0000000000000FB0107A41107004050150841D405064090741402480A0350
1001
ACAD
1000
AcDbSavedByObjectVersion
1070
     0
  0
ACAD_PROXY_OBJECT
  5
36
102
{ACAD_REACTORS
330
2A
102
}
330
2A
100
AcDbZombieObject
 90
      499
 91
      501
 93
      428
310
42109C9A59DA1D195B90C409028333333333333E3BF0000000000000FB010790141107004050150841D405064090741402480A029950
1001
ACAD
1000
AcDbSavedByObjectVersion
1070
     0
  0
ACAD_PROXY_OBJECT
  5
3A
102
{ACAD_REACTORS
330
2A
102
}
330
2A
100
AcDbZombieObject
 90
      499
 91
      501
 93
      452
310
42D0DBDB1BDC90DA185B99D95104090240C333333333333E3BF0000000000000FB0108901411070040501508421405064090741402480A0350
1001
ACAD
1000
AcDbSavedByObjectVersion
1070
     0
  0
ACAD_PROXY_OBJECT
  5
34
102
{ACAD_REACTORS
330
2A
102
}
330
2A
100
AcDbZombieObject
 90
      499
 91
      501
 93
      500
310
4290DBDB98D95C1D1D585B10940D028333333333333E3BF0000000000000FB0107902409070040501000000000000111010841D405064090740C02480A0340
1001
ACAD
1000
AcDbSavedByObjectVersion
1070
     0
  0
ACAD_PROXY_OBJECT
  5
35
102
{ACAD_REACTORS
330
2A
102
}
330
2A
100
AcDbZombieObject
 90
      499
 91
      501
 93
      412
310
40D11A5B50B409028333333333333E3BF0000000000000FB010790141107004050150841D405064090741402480A02677FFFFFD0
1001
ACAD
1000
AcDbSavedByObjectVersion
1070
     0
  0
ACAD_PROXY_OBJECT
  5
39
102
{ACAD_REACTORS
330
2A
102
}
330
2A
100
AcDbZombieObject
 90
      499
 91
      501
 93
      444
310
42D19858D95C185D1D195C9B90F409028333333333333E3BF0000000000000FB010790141107004050150841D405064090741402480A0350
1001
ACAD
1000
AcDbSavedByObjectVersion
1070
     0
  0
ACAD_PROXY_OBJECT
  5
2B
102
{ACAD_REACTORS
330
2A
102
}
330
2A
100
AcDbZombieObject
 90
      499
 91
      501
 93
      388
310
41119B185D240901404333333333333E3BF0000000000000F9010740A41107004050150841D405064090741402480A1B50
1001
ACAD
1000
AcDbSavedByObjectVersion
1070
     0
  0
ACAD_PROXY_OBJECT
  5
2C
102
{ACAD_REACTORS
330
2A
102
}
330
2A
100
AcDbZombieObject
 90
      499
 91
      501
 93
      476
310
43519B185D15DA5D1A115919D95CD0140901404333333333333E3BF0000000000000F9010740901411070040501600405405064090741402480A1B50
1001
ACAD
1000
AcDbSavedByObjectVersion
1070
     0
  0
ACAD_PROXY_OBJECT
  5
2D
102
{ACAD_REACTORS
330
2A
102
}
330
2A
100
AcDbZombieObject
 90
      499
 91
      501
 93
      412
310
41D1DBDD5C985D5910240902404333333333333E3BF0000000000000F9010740A411070040501641D405064090741402480A1B50
1001
ACAD
1000
AcDbSavedByObjectVersion
1070
     0
  0
ACAD_PROXY_OBJECT
  5
2E
102
{ACAD_REACTORS
330
2A
102
}
330
2A
100
AcDbZombieObject
 90
      499
 91
      501
 93
      500
310
4411DBDD5C985D5915DA5D1A115919D95CD0340902404333333333333E3BF0000000000000F9010740901411070040501600405405064090741402480A1B50
1001
ACAD
1000
AcDbSavedByObjectVersion
1070
     0
  0
ACAD_PROXY_OBJECT
  5
38
102
{ACAD_REACTORS
330
2A
102
}
330
2A
100
AcDbZombieObject
 90
      499
 91
      501
 93
      444
310
42D31A5B995C185D1D195C9B90E409028333333333333E3BF0000000000000FB010790141107004050750841D405064090741402483A0350
1001
ACAD
1000
AcDbSavedByObjectVersion
1070
     0
  0
ACAD_PROXY_OBJECT
  5
33
102
{ACAD_REACTORS
330
2A
102
}
330
2A
100
AcDbZombieObject
 90
      499
 91
      501
 93
      420
310
425499585B1A5CDD1A58D08409028333333333333E3BF0000000000000FB01079019070040501508421405064090741402480A1B40
1001
ACAD
1000
AcDbSavedByObjectVersion
1070
     0
  0
ACAD_PROXY_OBJECT
  5
37
102
{ACAD_REACTORS
330
2A
102
}
330
2A
100
AcDbZombieObject
 90
      499
 91
      501
 93
      412
310
41D51A1A58DAD95B90D409028333333333333E3BF0000000000000FB010790141107004050150C41D405064090741402480A0350
1001
ACAD
1000
AcDbSavedByObjectVersion
1070
     0
  0
DICTIONARYVAR
  5
19B
102
{ACAD_REACTORS
330
198
102
}
330
198
100
DictionaryVariables
280
     0
  1
2
  0
DICTIONARYVAR
  5
19C
102
{ACAD_REACTORS
330
198
102
}
330
198
100
DictionaryVariables
280
     0
  1
1
  0
DICTIONARY
  5
19F
330
3D
100
AcDbDictionary
  3
ACAD_XREC_ROUNDTRIP
360
1A0
1001
ACAD
1000
TREAT_AS_HARD
1070
     1
  0
DICTIONARY
  5
19D
330
3C
100
AcDbDictionary
  3
ACAD_XREC_ROUNDTRIP
360
19E
1001
ACAD
1000
TREAT_AS_HARD
1070
     1
  0
DICTIONARY
  5
1A1
330
3E
100
AcDbDictionary
  3
ACAD_XREC_ROUNDTRIP
360
1A2
1001
ACAD
1000
TREAT_AS_HARD
1070
     1
  0
XRECORD
  5
1A0
102
{ACAD_REACTORS
330
19F
102
}
330
19F
100
AcDbXrecord
102
MATERIAL
148
0.0
149
0.0
149
0.0
 93
        0
 94
      127
282
     0
 72
     1
 77
     1
171
     1
175
     1
179
     1
273
     0
  0
XRECORD
  5
19E
102
{ACAD_REACTORS
330
19D
102
}
330
19D
100
AcDbXrecord
102
MATERIAL
148
0.0
149
0.0
149
0.0
 93
        0
 94
      127
282
     0
 72
     1
 77
     1
171
     1
175
     1
179
     1
273
     0
  0
XRECORD
  5
1A2
102
{ACAD_REACTORS
330
1A1
102
}
330
1A1
100
AcDbXrecord
102
MATERIAL
148
0.0
149
0.0
149
0.0
 93
        0
 94
      127
282
     0
 72
     1
 77
     1
171
     1
175
     1
179
     1
273
     0
  0
ENDSEC
  0
EOF
